<?xml version="1.0" encoding="UTF-8" standalone="no"?>


<svg width="22px" height="22px" viewBox="0 0 22 22" version="1.1" xmlns="http://www.w3.org/2000/svg" xmlns:xlink="http://www.w3.org/1999/xlink">
  <!-- Generator: Sketch 40 (33762) - http://www.bohemiancoding.com/sketch -->
  <desc>Created with Sketch.</desc>
  <defs></defs>
  <path d="M11.0275,16.0068333 C9.17094445,16.0068333 7.6663889,14.0916111 7.6663889,11.7290556 C7.6663889,9.3665 9.17094445,7.45127778 11.0275,7.45127778 C12.8840556,7.45127778 14.3886111,9.3665 14.3886111,11.7290556 C14.3886111,14.0916111 12.8840556,16.0068333 11.0275,16.0068333 M10.9731111,0 C4.89805555,0 0,4.92494445 0,11 C0,17.0750556 4.9383889,22 11.0140556,22 C12.2729444,22 13.4890556,21.7885556 14.6159444,21.3992778 C15.0718333,21.2416111 15.3877778,21.0894444 15.3877778,21.0894444 C15.6951667,20.9519444 15.8216667,20.592 15.6743889,20.2980556 L15.6035,20.1538333 C15.4531667,19.8537778 15.0797778,19.7254444 14.7699444,19.8623333 C14.7699444,19.8623333 14.6257222,19.9387222 14.2553889,20.0701111 C13.2464444,20.4294444 12.1598889,20.625 11.0275,20.625 C5.71144445,20.625 1.4025,16.3160556 1.4025,11 C1.4025,5.68455555 5.71144445,1.375 11.0275,1.375 C16.3429444,1.375 20.6525,5.68455555 20.6525,11 C20.6042222,13.7952222 19.1760556,15.8357222 17.8028889,15.8118889 C16.5055,15.7892778 15.8094444,13.9229444 15.8094444,11.3990556 L15.8094444,6.79555555 C15.8094444,6.46005555 15.5613333,6.4838889 15.2325556,6.4838889 L15.0718333,6.4838889 C14.7363333,6.4838889 14.5872222,6.457 14.5872222,6.79555555 L14.5872222,7.81977778 C13.365,6.83222222 12.496,6.21133333 11.1845556,6.1881111 C8.52683333,6.14227778 6.29933333,8.56655555 6.24616667,11.6037778 C6.193,14.6403889 8.2891111,17.1404444 10.9468333,17.1868889 C12.639,17.2162222 14.1368333,16.2439444 15.0211111,14.7491667 C15.5558333,16.2115556 16.423,17.1636667 17.7442222,17.1868889 C20.0218333,17.2266111 21.9205556,14.4888333 21.9205556,11.0721111 L21.9205556,11 C21.9205556,4.92494445 17.0481667,0 10.9731111,0" id="Shape" stroke="none" fill="#4B4B4B" fill-rule="evenodd"></path>
</svg>
