<?xml version="1.0" encoding="UTF-8" standalone="no"?>
<svg width="34px" height="34px" viewBox="0 0 34 34" version="1.1" xmlns="http://www.w3.org/2000/svg" xmlns:xlink="http://www.w3.org/1999/xlink">
    <!-- Generator: Sketch 39.1 (31720) - http://www.bohemiancoding.com/sketch -->
    <title>Shape</title>
    <desc>Created with Sketch.</desc>
    <defs></defs>
    <g id="Page-1" stroke="none" stroke-width="1" fill="none" fill-rule="evenodd">
        <g id="cancel" fill="#4B4B4B">
            <g id="Page-1">
                <g id="Group">
                    <path d="M8.08,33.7920792 L0.88,23.3960396 C0.76,23.2178218 0.7,22.980198 0.82,22.8019802 C0.94,22.6237624 1.12,22.5049505 1.36,22.5049505 L5.44,22.5049505 L5.44,14.4851485 C5.44,6.7623762 11.8,0.5247525 19.54,0.5247525 C27.34,0.5247525 33.64,6.8217822 33.64,14.4851485 L33.64,32.6633663 C33.64,33.019802 33.34,33.2574257 33.04,33.2574257 L27.28,33.2574257 C26.92,33.2574257 26.68,32.960396 26.68,32.6633663 L26.68,16.0891089 C26.68,11.7524752 23.5,8.3663366 19.36,8.3069307 C15.16,8.4257426 11.68,11.8712871 11.68,16.0891089 L11.68,22.5049505 L15.76,22.5049505 C16,22.5049505 16.18,22.6237624 16.3,22.8019802 C16.36,22.980198 16.36,23.2178218 16.24,23.3960396 L9.04,33.7920792 C8.92,33.9108911 8.74,34.029703 8.56,34.029703 C8.38,34.029703 8.2,33.970297 8.08,33.7920792 L8.08,33.7920792 L8.08,33.7920792 Z M14.62,23.6336634 L14.62,23.6930693 L11.02,23.6930693 C10.66,23.6930693 10.42,23.3960396 10.42,23.0990099 L10.42,16.0891089 C10.42,11.2772277 14.38,7.2970297 19.3,7.1782178 C24.1,7.2376238 27.76,11.0990099 27.76,16.0891089 L27.76,32.0693069 L32.32,32.0693069 L32.32,14.4851485 C32.32,7.4752475 26.56,1.7128713 19.42,1.7128713 C12.34,1.7128713 6.52,7.4158416 6.52,14.4851485 L6.52,23.039604 C6.52,23.3960396 6.22,23.6336634 5.92,23.6336634 L2.38,23.6336634 L8.5,32.4851485 L14.62,23.6336634 L14.62,23.6336634 L14.62,23.6336634 L14.62,23.6336634 Z" id="Shape"></path>
                </g>
            </g>
        </g>
    </g>
</svg>