<?xml version="1.0" encoding="UTF-8" standalone="no"?>
<svg width="20px" height="17px" viewBox="0 0 20 17" version="1.1" xmlns="http://www.w3.org/2000/svg" xmlns:xlink="http://www.w3.org/1999/xlink">
    <!-- Generator: Sketch 39.1 (31720) - http://www.bohemiancoding.com/sketch -->
    <title>Combined Shape</title>
    <desc>Created with Sketch.</desc>
    <defs></defs>
    <g id="Page-1" stroke="none" stroke-width="1" fill="none" fill-rule="evenodd">
        <g id="noun_538233_cc" fill="#E0E5EA">
            <path d="M10.0243902,0.892054795 C5.02439024,0.892054795 0.951219512,3.97808219 0.951219512,7.76328767 C0.951219512,9.40273973 1.73170732,10.9939726 3.14634146,12.2476712 C3.24390244,12.3441096 3.29268293,12.4887671 3.26829268,12.6093151 L2.2195122,16.6115068 L7.65853659,14.4657534 C7.73170732,14.4416438 7.80487805,14.4416438 7.85365854,14.4416438 C8.56097561,14.5863014 9.29268293,14.6345205 10.0243902,14.6345205 C15.0243902,14.6345205 19.097561,11.5484932 19.097561,7.76328767 C19.097561,3.9539726 15.0243902,0.892054795 10.0243902,0.892054795 Z M14.5853659,6.14794521 L5.31707317,6.14794521 C5.12195122,6.14794521 4.95121951,5.97917808 4.95121951,5.78630137 C4.95121951,5.59342466 5.12195122,5.42465753 5.31707317,5.42465753 L14.5853659,5.42465753 C14.7804878,5.42465753 14.9512195,5.59342466 14.9512195,5.78630137 C14.9512195,5.97917808 14.7804878,6.14794521 14.5853659,6.14794521 Z M12.3902439,8.22136986 L5.2195122,8.22136986 C5.07317073,8.22136986 4.92682927,8.05260274 4.92682927,7.85972603 C4.92682927,7.66684932 5.04878049,7.49808219 5.2195122,7.49808219 L12.3902439,7.49808219 C12.5365854,7.49808219 12.6829268,7.66684932 12.6829268,7.85972603 C12.6829268,8.05260274 12.5609756,8.22136986 12.3902439,8.22136986 Z M9.04878049,10.2947945 L5.19512195,10.2947945 C5.07317073,10.2947945 4.95121951,10.1260274 4.95121951,9.93315068 C4.95121951,9.74027397 5.04878049,9.57150685 5.19512195,9.57150685 L9.04878049,9.57150685 C9.17073171,9.57150685 9.29268293,9.74027397 9.29268293,9.93315068 C9.29268293,10.1260274 9.19512195,10.2947945 9.04878049,10.2947945 Z" id="Combined-Shape"></path>
        </g>
    </g>
</svg>