<?xml version="1.0" encoding="UTF-8" standalone="no"?>

<svg width="21px" height="20px" viewBox="-1 0 21 20" version="1.1" xmlns="http://www.w3.org/2000/svg" xmlns:xlink="http://www.w3.org/1999/xlink">
  <!-- Generator: Sketch 39.1 (31720) - http://www.bohemiancoding.com/sketch -->
  <desc>Created with Sketch.</desc>
  <defs></defs>
  <path d="M11.725539,8.27461095 L11.725539,1.7245413 C11.725539,0.774224013 10.9485695,0.00035 10.0013477,0.00035 C9.05103046,0.00035 8.27715645,0.774224013 8.27715645,1.7245413 L8.27715645,8.27461095 L1.7239913,8.27461095 C0.776769509,8.27461095 -0.0002,9.05158046 -0.0002,9.99880225 C-0.0002,10.946024 0.776769509,11.7229936 1.7239913,11.7229936 L8.27715645,11.7229936 L8.27715645,18.2730632 C8.27715645,19.2233805 9.05103046,19.9972545 10.0013477,19.9972545 C10.9485695,19.9972545 11.725539,19.2233805 11.725539,18.2730632 L11.725539,11.7229936 L18.2756087,11.7229936 C19.2228305,11.7229936 19.9998,10.946024 19.9998,9.99880225 C19.9998,9.05158046 19.2228305,8.27461095 18.2756087,8.27461095 L11.725539,8.27461095 Z" id="Fill-1" stroke="none" fill="#FFFFFF" fill-rule="evenodd"></path>
</svg>
