<?xml version="1.0" standalone="no"?><!DOCTYPE svg PUBLIC "-//W3C//DTD SVG 1.1//EN" "http://www.w3.org/Graphics/SVG/1.1/DTD/svg11.dtd"><svg width="200" height="200" viewBox="0 0 200 200" version="1.1" xmlns="http://www.w3.org/2000/svg" xmlns:xlink="http://www.w3.org/1999/xlink"><defs><style type="text/css"><![CDATA[
@font-face { font-family: ifont; src: url("//at.alicdn.com/t/font_1442373896_4754455.eot?#iefix") format("embedded-opentype"), url("//at.alicdn.com/t/font_1442373896_4754455.woff") format("woff"), url("//at.alicdn.com/t/font_1442373896_4754455.ttf") format("truetype"), url("//at.alicdn.com/t/font_1442373896_4754455.svg#ifont") format("svg"); }

]]></style></defs><g class="transform-group"><g transform="scale(0.1953125, 0.1953125)"><path d="M512 36.571429C607.085712 36.571429 698.514288 65.828571 771.657142 113.371429 899.657142 197.485714 983.771429 343.771429 983.771429 508.342858 983.771429 768 771.657142 983.771429 508.342858 983.771429 245.028571 983.771429 32.914286 771.657142 32.914286 508.342858 32.914286 343.771429 117.028571 197.485714 245.028571 113.371429 325.485714 65.828571 416.914286 36.571429 512 36.571429M512 1024C793.6 1024 1024 793.6 1024 512 1024 230.4 793.6 0 512 0 230.4 0 0 230.4 0 512 0 793.6 230.4 1024 512 1024M512.521309 748.097164 512.009309 748.097164 317.3376 559.425164 354.276073 521.499927 482.057309 647.2704 482.057309 395.696873 541.961309 395.696873 541.961309 644.272873 670.729309 528.4864 706.676364 567.3984 512.996073 748.097164ZM482.051657 325.818514 541.955657 325.818514 541.955657 275.898512 482.051657 275.898512 482.051657 325.818514" fill="#272636"></path></g></g></svg>