<?xml version="1.0" encoding="UTF-8" standalone="no"?>
<svg width="18px" height="13px" viewBox="0 0 18 13" version="1.1" xmlns="http://www.w3.org/2000/svg" xmlns:xlink="http://www.w3.org/1999/xlink">
    <!-- Generator: Sketch 39.1 (31720) - http://www.bohemiancoding.com/sketch -->
    <title>Fill-1</title>
    <desc>Created with Sketch.</desc>
    <defs></defs>
    <g id="Page-1" stroke="none" stroke-width="1" fill="none" fill-rule="evenodd">
        <g id="envelop" fill="#9EA1A5">
            <g id="-">
                <g id="Page-1">
                    <g id="Fill-1-Clipped">
                        <path d="M17.4316,10.318 C17.4316,10.701 17.2426,11.028 16.9656,11.251 L10.2506,6.066 L16.9856,0.864 C17.2526,1.087 17.4316,1.41 17.4316,1.784 L17.4316,10.318 L17.4316,10.318 Z M1.7836,11.533 C1.7316,11.533 1.6876,11.51 1.6376,11.504 L8.2136,6.425 L8.8266,6.897 C8.8776,6.937 8.9386,6.957 8.9996,6.957 C9.0616,6.957 9.1226,6.937 9.1736,6.897 L9.7856,6.425 L16.3626,11.504 C16.3126,11.51 16.2686,11.533 16.2166,11.533 L1.7836,11.533 L1.7836,11.533 Z M0.5686,1.784 C0.5686,1.41 0.7476,1.087 1.0146,0.864 L7.7486,6.065 L1.0346,11.251 C0.7576,11.028 0.5686,10.701 0.5686,10.318 L0.5686,1.784 L0.5686,1.784 Z M16.2166,0.568 C16.2786,0.568 16.3326,0.595 16.3926,0.604 L8.9996,6.313 L1.6076,0.604 C1.6676,0.595 1.7216,0.568 1.7836,0.568 L16.2166,0.568 L16.2166,0.568 Z M16.2166,0 L1.7836,0 C0.7996,0 -0.0004,0.8 -0.0004,1.784 L-0.0004,10.318 C-0.0004,11.302 0.7996,12.102 1.7836,12.102 L16.2166,12.102 C17.1996,12.102 17.9996,11.302 17.9996,10.318 L17.9996,1.784 C17.9996,0.8 17.1996,0 16.2166,0 L16.2166,0 L16.2166,0 Z" id="Fill-1"></path>
                    </g>
                </g>
            </g>
        </g>
    </g>
</svg>