<?xml version="1.0" encoding="UTF-8"?>
<svg width="23px" height="16px" viewBox="0 0 23 16" version="1.1" xmlns="http://www.w3.org/2000/svg" xmlns:xlink="http://www.w3.org/1999/xlink">
    <!-- Generator: Sketch 41.2 (35397) - http://www.bohemiancoding.com/sketch -->
    <title>看过 white</title>
    <desc>Created with Sketch.</desc>
    <defs></defs>
    <g id="Symbols" stroke="none" stroke-width="1" fill="none" fill-rule="evenodd">
        <g id="看过-white" fill="#FFFFFF">
            <path d="M11.5,3.832 C9.33544445,3.832 7.57466667,5.70222222 7.57466667,8 C7.57466667,10.2977778 9.33544445,12.168 11.5,12.168 C13.6645555,12.168 15.4253333,10.2977778 15.4253333,8 C15.4253333,5.70222222 13.6645555,3.832 11.5,3.832 Z M11.5,10.8866522 C10.0206221,10.8866522 8.81695574,9.59200639 8.81695574,8 C8.81695574,6.40799361 10.0206221,5.11334782 11.5,5.11334782 C12.9793779,5.11334782 14.1830443,6.40799361 14.1830443,8 C14.1830443,9.59200639 12.9793779,10.8866522 11.5,10.8866522 Z" id="Shape"></path>
            <path d="M11.5,0 C5.14859259,0 0,6.448 0,8 C0,9.61777778 5.14859259,16 11.5,16 C17.8514074,16 23,9.61777778 23,8 C23,6.38222222 17.8514074,0 11.5,0 Z M11.5003197,14.6116548 C6.27410014,14.6116548 1.79370758,9.64461725 1.13658333,8.00971667 C1.81724094,6.36914921 6.33293358,1.38888889 11.5003197,1.38888889 C16.7374008,1.38888889 21.2250343,6.37576062 21.8676765,8.00027185 C21.2250343,9.62478307 16.7374008,14.6116548 11.5003197,14.6116548 Z" id="Shape"></path>
        </g>
    </g>
</svg>