
<svg width="60px" height="48px" viewBox="100 195 60 48" version="1.1" xmlns="http://www.w3.org/2000/svg" xmlns:xlink="http://www.w3.org/1999/xlink">
  <!-- Generator: Sketch 40 (33762) - http://www.bohemiancoding.com/sketch -->
  <desc>Created with Sketch.</desc>
  <defs></defs>
  <g id="支付失败" stroke="none" stroke-width="1" fill="none" fill-rule="evenodd" transform="translate(100.000000, 195.000000)">
    <path d="M1.62685784,15.8368331 C1.22354233,15.8368331 0.820226897,15.6828865 0.512421897,15.3750815 C-0.103364655,14.7592949 -0.103364655,13.7619078 0.512421897,13.1461213 L13.1227171,0.538915603 C13.7385036,-0.0768709483 14.735979,-0.0768709483 15.3516772,0.538915603 C15.9673755,1.15470216 15.9673755,2.15208922 15.3516772,2.76787578 L2.74138207,15.3749932 C2.43348879,15.6828865 2.03017336,15.8368331 1.62685784,15.8368331 Z" id="Shape" fill="#9EA1A5"></path>
    <path d="M14.2371531,15.8368331 C13.8338376,15.8368331 13.4305222,15.6828865 13.1226289,15.3750815 L0.512421897,2.76778759 C-0.103364655,2.15200103 -0.103364655,1.15461397 0.512421897,0.538827414 C1.12820845,-0.0769591379 2.12568379,-0.0769591379 2.74138207,0.538827414 L15.3516772,13.1460331 C15.9673755,13.7618197 15.9673755,14.7592067 15.3516772,15.3749933 C15.0437841,15.6828865 14.6404685,15.8368331 14.2371531,15.8368331 Z" id="Shape" fill="#9EA1A5"></path>
    <path d="M45.7630234,15.8368331 C45.3597079,15.8368331 44.9563042,15.6828865 44.6484992,15.3750815 C44.0327127,14.7592949 44.0327127,13.7619078 44.6484992,13.1461213 L57.2587944,0.538915603 C57.8745809,-0.0768709483 58.871968,-0.0768709483 59.4877546,0.538915603 C60.1035411,1.15470216 60.1035411,2.15208922 59.4877546,2.76787578 L46.8774594,15.3749932 C46.5695661,15.6828865 46.1662507,15.8368331 45.7630234,15.8368331 Z" id="Shape" fill="#9EA1A5"></path>
    <path d="M58.3732304,15.8368331 C57.9700032,15.8368331 57.5665995,15.6828865 57.2587945,15.3750815 L44.6484992,2.76778759 C44.0327127,2.15200103 44.0327127,1.15461397 44.6484992,0.538827414 C45.2642858,-0.0769591379 46.2616728,-0.0769591379 46.8774594,0.538827414 L59.4877546,13.1460331 C60.1035411,13.7618197 60.1035411,14.7592067 59.4877546,15.3749933 C59.1798614,15.6828865 58.7765459,15.8368331 58.3732304,15.8368331 Z" id="Shape" fill="#9EA1A5"></path>
    <path d="M58.3732304,47.4465621 C57.9406969,47.4465621 57.5111646,47.2679875 57.1986811,46.9201069 C50.2762905,39.1894964 40.3628861,34.7531145 30,34.7531145 C19.6371139,34.7531145 9.72370957,39.1894965 2.80131888,46.9201069 C2.21942879,47.5696134 1.22504302,47.6250484 0.57544819,47.0432466 C-0.0733521552,46.464446 -0.127992586,45.4669707 0.452308534,44.8173759 C7.97203681,36.4186334 18.7412397,31.6004744 29.9999999,31.6004744 C41.2587602,31.6004744 52.027963,36.4186334 59.5476913,44.8173759 C60.1279924,45.4668824 60.0726458,46.464446 59.4245516,47.0432466 C59.1245147,47.3141539 58.7488284,47.4465621 58.3732304,47.4465621 Z" id="Shape" fill="#9EA1A5"></path>
  </g>
</svg>
