<?xml version="1.0" encoding="UTF-8"?>
<svg width="24px" height="24px" viewBox="0 0 24 24" version="1.1" xmlns="http://www.w3.org/2000/svg" xmlns:xlink="http://www.w3.org/1999/xlink">
    <!-- Generator: Sketch 41.2 (35397) - http://www.bohemiancoding.com/sketch -->
    <title>Shape</title>
    <desc>Created with Sketch.</desc>
    <defs></defs>
    <g id="Page-1" stroke="none" stroke-width="1" fill="none" fill-rule="evenodd">
        <g id="主持人视角_发言" transform="translate(-12.000000, -378.000000)" fill="#4B4B4B">
            <g id="Group-6" transform="translate(-1.000000, 362.000000)">
                <g id="图片-" transform="translate(13.000000, 16.000000)">
                    <path d="M12.0099432,23.9886558 C5.39293684,23.9886558 0.0297784343,18.6254974 0.0297784343,12.0084911 C0.0297784343,5.39293684 5.39293684,0.0297784343 12.0099432,0.0297784343 C18.6262235,0.0297784343 23.9901079,5.39293684 23.9901079,12.0084911 C23.9901079,18.6254974 18.6262235,23.9886558 12.0099432,23.9886558 L12.0099432,23.9886558 L12.0099432,23.9886558 Z M12.0099432,1.07090056 C5.96867592,1.07090056 1.07090056,5.96867592 1.07090056,12.0084911 C1.07090056,14.4965842 1.91163935,16.7828419 3.31069258,18.6204152 C3.08344626,18.3234704 2.87435061,18.013457 2.6775974,17.6940053 L8.36311161,12.0084911 L14.0936395,17.739019 L17.2184579,14.6127485 L20.9299058,18.3241964 C20.715728,18.6276755 20.4848515,18.9180861 20.2401806,19.1976064 L17.2184579,16.1758837 L14.8741181,18.5202236 L17.6954574,21.3408369 C17.3672934,21.5404942 17.029691,21.7234529 16.6811982,21.8889869 L8.36311161,13.5716264 L3.31141861,18.6225933 C5.30871775,21.2457274 8.45676904,22.9468077 12.0092171,22.9468077 C18.0497583,22.9468077 22.9475337,18.0497583 22.9475337,12.0084911 C22.9482597,5.96867592 18.0504844,1.07090056 12.0099432,1.07090056 L12.0099432,1.07090056 L12.0099432,1.07090056 Z M15.9166922,10.8127253 C15.6756514,10.9107389 15.4121038,10.967369 15.1347616,10.967369 C13.9847355,10.967369 13.0510653,10.0351508 13.0510653,8.88367267 C13.0510653,7.73364656 13.9847355,6.80070239 15.1347616,6.80070239 C15.4121038,6.80070239 15.6756514,6.85805849 15.9166922,6.95534606 C15.1529123,7.26535941 14.6142005,8.01026269 14.6142005,8.88294665 C14.6142005,9.75780869 15.1529123,10.502712 15.9166922,10.8127253 L15.9166922,10.8127253 L15.9166922,10.8127253 Z" id="Shape"></path>
                </g>
            </g>
        </g>
    </g>
</svg>