<?xml version="1.0" encoding="UTF-8" standalone="no"?>
<svg width="28px" height="28px" viewBox="0 0 28 28" version="1.1" xmlns="http://www.w3.org/2000/svg" xmlns:xlink="http://www.w3.org/1999/xlink">
    <!-- Generator: Sketch 39.1 (31720) - http://www.bohemiancoding.com/sketch -->
    <title>keyboard</title>
    <desc>Created with Sketch.</desc>
    <defs></defs>
    <g id="Page-1" stroke="none" stroke-width="1" fill="none" fill-rule="evenodd">
        <g id="keyboard" transform="translate(-1.000000, 0.000000)" fill="#4B4B4B">
            <g id="Group">
                <path d="M19.05,26.323 C16.55,27.123 13.95,27.123 11.55,26.523 C7.55,25.423 4.05,22.323 2.65,18.023 C0.45,11.223 4.15,3.923 10.95,1.723 C17.75,-0.477 25.05,3.223 27.349,10.023 C28.749,14.323 27.749,18.823 25.15,22.123 C23.65,24.023 21.55,25.523 19.05,26.323 M10.65,0.724 C3.35,3.124 -0.75,11.024 1.65,18.324 C4.05,25.624 11.95,29.624 19.35,27.324 C26.651,24.925 30.75,17.024 28.35,9.724 C25.95,2.323 18.05,-1.677 10.65,0.724" id="Shape"></path>
                <rect id="Rectangle-path" x="20.75" y="9.423" width="1.6" height="2.3"></rect>
                <rect id="Rectangle-path" x="16.55" y="9.423" width="1.601" height="2.3"></rect>
                <rect id="Rectangle-path" x="12.35" y="9.423" width="1.6" height="2.3"></rect>
                <rect id="Rectangle-path" x="8.15" y="9.423" width="1.6" height="2.3"></rect>
                <rect id="Rectangle-path" x="20.75" y="13.223" width="1.6" height="2.3"></rect>
                <rect id="Rectangle-path" x="16.55" y="13.223" width="1.601" height="2.3"></rect>
                <rect id="Rectangle-path" x="12.35" y="13.223" width="1.6" height="2.3"></rect>
                <rect id="Rectangle-path" x="8.15" y="13.223" width="1.6" height="2.3"></rect>
                <rect id="Rectangle-path" x="9.75" y="17.123" width="11.1" height="1.4"></rect>
            </g>
        </g>
    </g>
</svg>