<?xml version="1.0" encoding="UTF-8" standalone="no"?>
<svg width="20px" height="4px" viewBox="0 0 20 4" version="1.1" xmlns="http://www.w3.org/2000/svg" xmlns:xlink="http://www.w3.org/1999/xlink">
    <!-- Generator: Sketch 39.1 (31720) - http://www.bohemiancoding.com/sketch -->
    <title>more2</title>
    <desc>Created with Sketch.</desc>
    <defs></defs>
    <g id="Page-1" stroke="none" stroke-width="1" fill="none" fill-rule="evenodd">
        <g id="more2" fill="#4B4B4B">
            <path d="M2,4 C3.1,4 4,3.1 4,2 C4,0.9 3.1,0 2,0 C0.9,0 0,0.9 0,2 C0,3.1 0.9,4 2,4 M10,4 C11.1,4 12,3.1 12,2 C12,0.9 11.1,0 10,0 C8.9,0 8,0.9 8,2 C8,3.1 8.9,4 10,4 M18,4 C19.1,4 20,3.1 20,2 C20,0.9 19.1,0 18,0 C16.9,0 16,0.9 16,2 C16,3.1 16.9,4 18,4" id="Shape"></path>
        </g>
    </g>
</svg>