
<svg width="22px" height="20px" viewBox="0 0 22 20" version="1.1" xmlns="http://www.w3.org/2000/svg" xmlns:xlink="http://www.w3.org/1999/xlink">
  <!-- Generator: Sketch 44.1 (41455) - http://www.bohemiancoding.com/sketch -->
  <desc>Created with Sketch.</desc>
  <defs></defs>
  <g id="Page-1" stroke="none" stroke-width="1" fill="none" fill-rule="evenodd">
    <g id="精彩片段详情页---评论为空" transform="translate(-140.000000, -2249.000000)" fill-rule="nonzero">
      <g id="暂无评论" transform="translate(141.000000, 2249.000000)">
        <g id="评论为空" transform="translate(0.000000, 1.000000)">
          <path d="M0.68797895,18.3770652 C0.510912982,18.3770652 0.343982104,18.3471157 0.173788778,18.2755771 C-0.297510562,18.0692294 -0.6,17.6066293 -0.6,17.0886615 L-0.6,3.75585199 C-0.6,1.35470771 1.3521915,-0.6 3.75585199,-0.6 L16.244148,-0.6 C18.6424532,-0.6 20.6,1.35821115 20.6,3.75585199 L20.6,11.0870029 C20.6,13.490607 18.6442898,15.4428549 16.244148,15.4428549 L4.2717769,15.4428549 L1.58466347,18.0048048 C1.38452777,18.2068096 1.12271776,18.3318464 0.845525316,18.3656034 L0.68797895,18.3770652 Z M0.744375561,17.1482854 L3.79137621,14.2428549 L16.244148,14.2428549 C17.9820237,14.2428549 19.4,12.8273889 19.4,11.0870029 L19.4,3.75585199 C19.4,2.02086172 17.9796203,0.6 16.244148,0.6 L3.75585199,0.6 C2.01527947,0.6 0.6,2.01710364 0.6,3.75585199 L0.6,17.0886615 C0.6,17.1299683 0.620375523,17.1611288 0.646722987,17.1727396 C0.708776899,17.1748778 0.723697664,17.168812 0.744375561,17.1482854 Z" id="Shape" fill="#909090"></path>
          <path d="M6,7 C6.55228475,7 7,6.55228475 7,6 C7,5.44771525 6.55228475,5 6,5 C5.44771525,5 5,5.44771525 5,6 C5,6.55228475 5.44771525,7 6,7 Z M6,8 C4.8954305,8 4,7.1045695 4,6 C4,4.8954305 4.8954305,4 6,4 C7.1045695,4 8,4.8954305 8,6 C8,7.1045695 7.1045695,8 6,8 Z" id="Oval-8" fill="#909090"></path>
          <path d="M14,7 C14.5522847,7 15,6.55228475 15,6 C15,5.44771525 14.5522847,5 14,5 C13.4477153,5 13,5.44771525 13,6 C13,6.55228475 13.4477153,7 14,7 Z M14,8 C12.8954305,8 12,7.1045695 12,6 C12,4.8954305 12.8954305,4 14,4 C15.1045695,4 16,4.8954305 16,6 C16,7.1045695 15.1045695,8 14,8 Z" id="Oval-8" fill="#909090"></path>
          <polygon id="Line" fill="#979797" points="6.5 11.5 13.5 11.5 13.5 10.5 6.5 10.5"></polygon>
        </g>
      </g>
    </g>
  </g>
</svg>
