<?xml version="1.0" encoding="UTF-8" standalone="no"?>
<svg width="148px" height="116px" viewBox="0 0 148 116" version="1.1" xmlns="http://www.w3.org/2000/svg" xmlns:xlink="http://www.w3.org/1999/xlink">
    <!-- Generator: Sketch 39.1 (31720) - http://www.bohemiancoding.com/sketch -->
    <title>Combined Shape</title>
    <desc>Created with Sketch.</desc>
    <defs></defs>
    <g id="Page-1" stroke="none" stroke-width="1" fill="none" fill-rule="evenodd">
        <g id="404" transform="translate(0.000000, -14.000000)" fill="#D42424">
            <g id="Page-1">
                <g id="Artboard">
                    <path d="M138.5625,14 L8.8125,14 C3.9375,14 0,17.9747187 0,22.8957989 L0,120.749587 C0,125.670668 3.9375,129.645386 8.8125,129.645386 L138.5625,129.645386 C143.4375,129.645386 147.375,125.670668 147.375,120.749587 L147.375,22.8957989 C147.375,17.9747187 143.4375,14 138.5625,14 L138.5625,14 L138.5625,14 Z M8.8125,18.731808 L138.5625,18.731808 C140.8125,18.731808 142.6875,20.6245311 142.6875,22.8957989 L142.6875,45.0406602 L125.4375,45.0406602 L102.9375,28.1954239 C101.25,26.8705176 99.1875,26.491973 97.125,26.6812453 C95.0625,27.0597899 93.1875,28.1954239 91.875,29.7096024 L88.875,33.8735934 C87.5625,35.5770443 87.1875,37.6590398 87.375,39.7410353 C87.75,41.8230308 88.6875,43.5264816 90.375,44.8513878 L4.5,44.8513878 L4.5,22.8957989 C4.5,20.6245311 6.375,18.731808 8.8125,18.731808 Z M22.6875,37.4636159 C25.2763348,37.4636159 27.375,35.3451133 27.375,32.731808 C27.375,30.1185026 25.2763348,28 22.6875,28 C20.0986652,28 18,30.1185026 18,32.731808 C18,35.3451133 20.0986652,37.4636159 22.6875,37.4636159 Z M61.5,37.4636159 C64.0888348,37.4636159 66.1875,35.3451133 66.1875,32.731808 C66.1875,30.1185026 64.0888348,28 61.5,28 C58.9111652,28 56.8125,30.1185026 56.8125,32.731808 C56.8125,35.3451133 58.9111652,37.4636159 61.5,37.4636159 Z M42.1875,37.4636159 C44.7763348,37.4636159 46.875,35.3451133 46.875,32.731808 C46.875,30.1185026 44.7763348,28 42.1875,28 C39.5986652,28 37.5,30.1185026 37.5,32.731808 C37.5,35.3451133 39.5986652,37.4636159 42.1875,37.4636159 Z M130.125,64.7249812 C128.4375,66.9962491 125.25,67.564066 123,65.8606152 L92.25,42.9586647 C90,41.2552138 89.4375,38.0375844 91.125,35.7663166 L94.125,31.6023256 C94.875,30.4666917 96.1875,29.7096024 97.5,29.5203301 L98.25,29.5203301 C99.375,29.5203301 100.3125,29.8988747 101.25,30.4666917 L132,53.3686422 C133.125,54.1257314 133.875,55.4506377 134.0625,56.7755439 C134.25,58.1004501 133.875,59.4253563 133.125,60.5609902 L130.125,64.7249812 L130.125,64.7249812 L130.125,64.7249812 Z M138.5625,124.913578 L8.8125,124.913578 C6.5625,124.913578 4.6875,123.020855 4.6875,120.749587 L4.6875,49.5831958 L96.75,49.5831958 L121.5,67.9426107 C122.8125,69.0782446 124.5,69.4567892 126.1875,69.4567892 C128.625,69.4567892 131.0625,68.3211553 132.5625,66.2391598 L135.5625,62.0751688 C136.875,60.3717179 137.25,58.2897224 137.0625,56.2077269 C136.6875,54.1257314 135.5625,52.2330083 134.0625,50.908102 L131.8125,49.5831958 L142.875,49.5831958 L142.875,120.560315 C142.6875,123.020855 140.8125,124.913578 138.5625,124.913578 Z M46.875,82.8889722 C47.25,83.4567892 48,83.6460615 48.5625,83.6460615 C49.125,83.6460615 49.6875,83.4567892 50.0625,83.0782446 L54.5625,78.9142536 L58.6875,83.4567892 C59.0625,84.0246062 59.8125,84.2138785 60.375,84.2138785 C60.9375,84.2138785 61.5,84.0246062 61.875,83.6460615 C62.8125,82.6996999 62.8125,81.3747937 62.0625,80.4284321 L57.9375,75.8858965 L62.4375,71.7219055 C63.375,70.7755439 63.375,69.4506377 62.625,68.5042761 C61.6875,67.5579145 60.375,67.5579145 59.4375,68.3150038 L54.9375,72.4789947 L50.8125,67.9364591 C49.875,66.9900975 48.5625,66.9900975 47.625,67.7471868 C46.6875,68.6935484 46.6875,70.0184546 47.4375,70.9648162 L51.5625,75.5073518 L47.0625,79.6713428 C46.125,80.6177044 46.125,81.9426107 46.875,82.8889722 Z M99,68.3150038 C98.0625,67.3686422 96.75,67.3686422 95.8125,68.1257314 L91.3125,72.2897224 L87.1875,67.7471868 C86.25,66.8008252 84.9375,66.8008252 84,67.5579145 C83.0625,68.5042761 83.0625,69.8291823 83.8125,70.7755439 L87.9375,75.3180795 L83.4375,79.4820705 C82.5,80.4284321 82.5,81.7533383 83.25,82.6996999 C83.625,83.2675169 84.375,83.4567892 84.9375,83.4567892 C85.5,83.4567892 86.0625,83.2675169 86.4375,82.8889722 L90.9375,78.7249812 L95.0625,83.2675169 C95.4375,83.8353338 96.1875,84.0246062 96.75,84.0246062 C97.3125,84.0246062 97.875,83.8353338 98.25,83.4567892 C99.1875,82.5104276 99.1875,81.1855214 98.4375,80.2391598 L94.3125,75.6966242 L98.8125,71.5326332 C99.75,70.7755439 99.75,69.2613653 99,68.3150038 Z M98.0625,94.056039 C96.9375,93.2989497 95.625,93.6774944 94.875,94.8131283 C90.9375,101.248387 89.0625,101.248387 88.875,101.059115 C88.125,100.869843 87.375,99.5449362 86.625,98.4093023 C85.5,96.5165791 84,94.056039 81.1875,93.8667667 C78.375,93.8667667 76.6875,96.3273068 75.375,98.22003 C74.8125,99.1663916 73.6875,100.68057 73.3125,100.68057 C72.75,100.68057 71.625,99.1663916 71.0625,98.22003 C69.75,96.1380345 67.875,93.6774944 65.0625,93.6774944 C62.25,93.6774944 60.75,96.1380345 59.4375,97.8414854 C58.6875,98.9771193 57.75,100.302025 57,100.491298 C56.625,100.491298 54.75,100.491298 51.1875,94.8131283 C50.4375,93.6774944 49.125,93.4882221 48,94.056039 C46.875,94.8131283 46.6875,96.1380345 47.25,97.2736684 C50.8125,102.951838 54.1875,105.60165 57.5625,105.223106 C60.375,104.844561 62.0625,102.573293 63.1875,100.68057 C63.75,99.9234809 64.6875,98.4093023 65.0625,98.4093023 C65.625,98.4093023 66.75,99.9234809 67.3125,100.869843 C68.625,102.951838 70.5,105.412378 73.5,105.412378 C76.5,105.412378 78,102.951838 79.3125,100.869843 C79.875,100.112753 80.8125,98.787847 81.1875,98.5985746 C81.5625,98.787847 82.3125,100.112753 82.875,100.869843 C84,102.762566 85.5,105.223106 88.3125,105.790923 L89.25,105.790923 C92.4375,105.790923 95.4375,103.14111 99,97.2736684 C99.5625,96.1380345 99.1875,94.623856 98.0625,94.056039 Z M111.812146,42.4055454 C112.304812,41.7395728 112.159216,40.7965359 111.486948,40.2992134 C110.81468,39.801891 109.870315,39.9386089 109.37765,40.6045814 C108.884984,41.270554 109.03058,42.213591 109.702848,42.7109134 C110.375116,43.2082359 111.319481,43.071518 111.812146,42.4055454 Z M115.676746,45.2313054 C116.169412,44.5653328 116.023816,43.6222959 115.351548,43.1249734 C114.67928,42.627651 113.734915,42.7643689 113.24225,43.4303414 C112.749584,44.096314 112.89518,45.039351 113.567448,45.5366734 C114.239716,46.0339959 115.184081,45.897278 115.676746,45.2313054 Z M119.543221,48.0608508 C120.035887,47.3948783 119.890291,46.4518413 119.218023,45.9545189 C118.545755,45.4571964 117.60139,45.5939143 117.108725,46.2598869 C116.616059,46.9258594 116.761655,47.8688964 117.433923,48.3662189 C118.106191,48.8635413 119.050556,48.7268234 119.543221,48.0608508 Z M109.248852,45.7449337 C109.741518,45.0789611 109.595922,44.1359242 108.923654,43.6386017 C108.251387,43.1412792 107.307022,43.2779972 106.814356,43.9439697 C106.321691,44.6099423 106.467287,45.5529792 107.139554,46.0503017 C107.811822,46.5476242 108.756187,46.4109063 109.248852,45.7449337 Z M113.154365,48.8390061 C113.64703,48.1730336 113.501434,47.2299966 112.829167,46.7326741 C112.156899,46.2353517 111.212534,46.3720696 110.719869,47.0380422 C110.227203,47.7040147 110.372799,48.6470517 111.045067,49.1443741 C111.717334,49.6416966 112.661699,49.5049787 113.154365,48.8390061 Z M117.019902,51.6666588 C117.512568,51.0006863 117.366972,50.0576493 116.694704,49.5603269 C116.022437,49.0630044 115.078072,49.1997223 114.585406,49.8656949 C114.092741,50.5316675 114.238337,51.4747044 114.910604,51.9720269 C115.582872,52.4693493 116.527237,52.3326314 117.019902,51.6666588 Z M106.726471,49.3524451 C107.219137,48.6864726 107.073541,47.7434356 106.401273,47.2461132 C105.729005,46.7487907 104.78464,46.8855086 104.291975,47.5514812 C103.799309,48.2174537 103.944905,49.1604907 104.617173,49.6578132 C105.289441,50.1551356 106.233806,50.0184177 106.726471,49.3524451 Z M110.591071,52.1782051 C111.083737,51.5122326 110.938141,50.5691956 110.265873,50.0718732 C109.593605,49.5745507 108.64924,49.7112686 108.156575,50.3772412 C107.663909,51.0432137 107.809505,51.9862507 108.481773,52.4835732 C109.154041,52.9808956 110.098406,52.8441777 110.591071,52.1782051 Z M114.345852,55.1599066 C114.838518,54.493934 114.692922,53.5508971 114.020654,53.0535746 C113.348387,52.5562522 112.404022,52.6929701 111.911356,53.3589426 C111.418691,54.0249152 111.564287,54.9679522 112.236554,55.4652746 C112.908822,55.9625971 113.853187,55.8258792 114.345852,55.1599066 Z" id="Combined-Shape"></path>
                </g>
            </g>
        </g>
    </g>
</svg>