<?xml version="1.0" encoding="UTF-8"?>
<svg width="11px" height="12px" viewBox="0 0 11 12" version="1.1" xmlns="http://www.w3.org/2000/svg" xmlns:xlink="http://www.w3.org/1999/xlink">
    <!-- Generator: Sketch 41.2 (35397) - http://www.bohemiancoding.com/sketch -->
    <title>file</title>
    <desc>Created with Sketch.</desc>
    <defs></defs>
    <g id="Symbols" stroke="none" stroke-width="1" fill="none" fill-rule="evenodd">
        <g id="Group" transform="translate(-3.000000, -2.000000)" fill="#A59E9E">
            <g id="Group-3">
                <g>
                    <g id="file" transform="translate(3.000000, 2.000000)">
                        <path d="M7.74744707,11.9891584 L7.71982985,11.9891584 L7.71982984,9.44477372 L10.2817792,9.44477372 L10.2817792,9.45562076 L7.74744707,11.9891584 L7.74744707,11.9891584 L7.74744707,11.9891584 Z M6.86362352,11.9891584 L0.583015518,11.9891584 C0.240725612,11.9891584 0.0473809412,11.7589506 0.000513517647,11.2994861 L0.000513505882,0.752052412 C0.000513505882,0.422307035 0.105131518,0.204667871 0.317702306,0.0983884941 C0.400566035,0.0402165412 0.487631329,0.0109138706 0.583015506,0.0109138706 L9.69838634,0.0109138706 C10.0398696,0.0109138706 10.2349118,0.221823294 10.2817792,0.647013047 L10.2817792,8.58854333 L6.86362352,8.58854332 L6.86362352,11.9891584 L6.86362352,11.9891584 L6.86362352,11.9891584 Z M1.72130521,8.58855536 L5.17710655,8.58855536 L5.17710655,7.73065156 L1.72130521,7.73065156 L1.72130521,8.58855536 L1.72130521,8.58855536 L1.72130521,8.58855536 Z M8.57769752,2.58835733 L1.72130521,2.58835733 L1.72130521,3.44497296 L8.57770955,3.44497296 L8.57770956,2.58835733 L8.57769752,2.58835733 L8.57769752,2.58835733 Z M8.57769752,6.01571076 L8.57769752,5.15949241 L1.72130521,5.1594924 L1.72130521,6.01571075 L8.57769752,6.01571076 L8.57769752,6.01571076 L8.57769752,6.01571076 Z" id="Shape"></path>
                    </g>
                </g>
            </g>
        </g>
    </g>
</svg>