<?xml version="1.0" encoding="UTF-8" standalone="no"?>

<svg width="20px" height="25px" viewBox="20 17 20 25" version="1.1" xmlns="http://www.w3.org/2000/svg"
     xmlns:xlink="http://www.w3.org/1999/xlink">
  <!-- Generator: Sketch 39.1 (31720) - http://www.bohemiancoding.com/sketch -->
  <desc>Created with Sketch.</desc>
  <defs></defs>
  <g id="Group-5" stroke="none" stroke-width="1" fill="none" fill-rule="evenodd"
     transform="translate(20.000000, 17.000000)">
    <path
      d="M2.16952381,23.3827905 C1.8587619,23.3827905 1.67552381,23.2676476 1.61733333,23.2106952 L1.67552381,20.1303143 C1.67552381,16.9013619 5.23752381,14.4771714 9.9707619,14.4759333 C14.704,14.4771714 18.266,16.9013619 18.266,20.1303143 L18.3229524,23.2106952 C18.266,23.2676476 18.0815238,23.3827905 17.772,23.3827905 M17.772,24.7620286 C18.3811429,24.7620286 18.9444762,24.5552667 19.3121905,24.1764095 C19.5759048,23.9114571 19.7145714,23.5660286 19.7021905,23.2218381 L19.6452381,20.1191714 C19.6452381,16.1263143 15.4988571,13.1090762 9.998,13.0979333 L9.998,13.0979333 C9.98933333,13.0979333 9.98190476,13.0966952 9.9732381,13.0966952 L9.9707619,13.0966952 L9.96828571,13.0966952 C9.95961905,13.0966952 9.95219048,13.0979333 9.94352381,13.0979333 L9.94352381,13.0979333 C4.44266667,13.1090762 0.296285714,16.1263143 0.296285714,20.1191714 L0.238095238,23.2218381 C0.226952381,23.5660286 0.365619048,23.9114571 0.629333333,24.1764095 C0.997047619,24.5552667 1.56038095,24.7620286 2.16952381,24.7620286"
      id="Fill-3" fill="#4B4B4B"></path>
    <path
      d="M9.99391429,11.5106952 C7.08562857,11.5106952 4.70724762,9.14345714 4.70724762,6.22402857 C4.70724762,3.3046 7.07448571,0.937361905 9.99391429,0.937361905 C12.9133429,0.937361905 15.280581,3.3046 15.280581,6.22402857 C15.280581,9.14345714 12.9022,11.5106952 9.99391429,11.5106952 M9.99391429,2.3166 C7.84458095,2.3166 6.08648571,4.06355238 6.08648571,6.22402857 C6.08648571,8.38450476 7.8334381,10.1314571 9.99391429,10.1314571 C12.1543905,10.1314571 13.9013429,8.38450476 13.9013429,6.22402857 C13.9013429,4.06355238 12.1432476,2.3166 9.99391429,2.3166"
      id="Fill-1" fill="#4B4B4B"></path>
  </g>
</svg>
