<?xml version="1.0" encoding="UTF-8" standalone="no"?>

<svg width="22px" height="22px" viewBox="0 0 22 22" version="1.1" xmlns="http://www.w3.org/2000/svg" xmlns:xlink="http://www.w3.org/1999/xlink">
  <!-- Generator: Sketch 40.2 (33826) - http://www.bohemiancoding.com/sketch -->
  <desc>Created with Sketch.</desc>
  <defs></defs>
  <g id="Group" stroke="none" stroke-width="1" fill="none" fill-rule="evenodd">
    <path d="M10.378617,12.6560851 C12.0908723,12.6560851 13.4845957,10.9611489 13.4845957,8.87746809 C13.4845957,6.79308511 12.0911064,5.09861702 10.378617,5.09861702 C9.53114894,5.09861702 8.74008511,5.50397872 8.15123404,6.23910638 C7.58414894,6.94848936 7.27193617,7.88512766 7.27287234,8.87746809 C7.27310638,10.9611489 8.66565957,12.6560851 10.378617,12.6560851 L10.378617,12.6560851 Z M10.378617,5.92689362 C11.6337872,5.92689362 12.6560851,7.25017021 12.6560851,8.87746809 C12.6560851,10.5038298 11.6337872,11.8282766 10.378617,11.8282766 C9.12274468,11.8282766 8.10114894,10.5040638 8.10044681,8.87746809 C8.10044681,7.25040426 9.12180851,5.92689362 10.378617,5.92689362 L10.378617,5.92689362 Z M12.9872553,12.2420638 C12.7581277,12.2420638 12.573,12.4276596 12.573,12.6563191 C12.573,12.8854468 12.7581277,13.0705745 12.9872553,13.0705745 C14.4027447,13.0705745 15.5551702,14.2225319 15.5551702,15.6387234 C15.5551702,15.8210426 15.4063191,15.9696596 15.2235319,15.9696596 L5.53323404,15.9696596 C5.35044681,15.9696596 5.20253191,15.8210426 5.20253191,15.6387234 C5.20253191,14.2225319 6.35425532,13.0705745 7.76951064,13.0705745 C7.9986383,13.0705745 8.18376596,12.8854468 8.18376596,12.6563191 C8.18376596,12.4276596 7.9986383,12.2420638 7.76951064,12.2420638 C5.89717021,12.2420638 4.37425532,13.7652128 4.37425532,15.6384894 C4.37425532,16.2774255 4.89429787,16.7977021 5.53323404,16.7977021 L15.2232979,16.7977021 C15.862234,16.7977021 16.3832128,16.2774255 16.3832128,15.6384894 C16.3832128,13.7649787 14.8595957,12.2420638 12.9872553,12.2420638 L12.9872553,12.2420638 Z M10.681234,4.6387234 C10.978234,4.46319149 11.2941915,4.37402128 11.6211489,4.37402128 C12.8763191,4.37402128 13.898617,5.69823404 13.898617,7.32459574 C13.898617,7.61621277 13.8660851,7.90291489 13.8014894,8.1762766 C13.749766,8.39838298 13.8880851,8.62189362 14.1104255,8.67361702 C14.1420213,8.68180851 14.173617,8.68508511 14.2049787,8.68508511 C14.393617,8.68508511 14.5632979,8.55612766 14.607766,8.36561702 C14.6864043,8.03 14.7268936,7.67940426 14.7268936,7.32482979 C14.7268936,5.24138298 13.3331702,3.54574468 11.6211489,3.54574468 C11.1502553,3.54574468 10.6798298,3.67680851 10.2599574,3.92512766 C10.0633617,4.04168085 9.99806383,4.29538298 10.114383,4.49291489 C10.2307021,4.68951064 10.4855745,4.75480851 10.681234,4.6387234 L10.681234,4.6387234 Z M14.3128723,10.5857447 C14.0837447,10.5857447 13.898617,10.7708723 13.898617,11 C13.898617,11.2286596 14.0837447,11.4142553 14.3128723,11.4142553 C15.7283617,11.4142553 16.7974681,12.5931277 16.7974681,14.0097872 C16.7974681,14.0568298 16.7876383,14.1024681 16.7691489,14.1445957 C16.676,14.3535957 16.7698511,14.5984043 16.9793191,14.6917872 C17.033383,14.7161277 17.0909574,14.7268936 17.1466596,14.7268936 C17.3062766,14.7268936 17.457234,14.635383 17.5260426,14.481383 C17.5915745,14.3322979 17.6255106,14.1738511 17.6255106,14.0095532 C17.6255106,12.1367447 16.1852128,10.5857447 14.3128723,10.5857447 L14.3128723,10.5857447 Z" id="Shape" fill="#4B4B4B"></path>
    <path d="M11,21.7668936 C5.06280851,21.7668936 0.233340426,16.9364894 0.233340426,11 C0.233340426,5.06304255 5.06280851,0.233106383 11,0.233106383 C16.9371915,0.233106383 21.7666596,5.06304255 21.7666596,11 C21.7666596,16.9364894 16.9369574,21.7668936 11,21.7668936 L11,21.7668936 Z M11,1.06138298 C5.51989362,1.06138298 1.06138298,5.51965957 1.06138298,11 C1.06138298,16.4798723 5.52012766,20.938617 11,20.938617 C16.4801064,20.938617 20.938617,16.4798723 20.938617,11 C20.938383,5.51965957 16.4801064,1.06138298 11,1.06138298 L11,1.06138298 Z" id="Shape" fill="#4B4B4B"></path>
  </g>
</svg>
