<?xml version="1.0" encoding="UTF-8"?>
<svg width="24px" height="24px" viewBox="0 0 24 24" version="1.1" xmlns="http://www.w3.org/2000/svg" xmlns:xlink="http://www.w3.org/1999/xlink">
    <!-- Generator: Sketch 41.2 (35397) - http://www.bohemiancoding.com/sketch -->
    <title>Shape</title>
    <desc>Created with Sketch.</desc>
    <defs></defs>
    <g id="Page-1" stroke="none" stroke-width="1" fill="none" fill-rule="evenodd">
        <g id="主持人视角_设置" transform="translate(-37.000000, -589.000000)" fill="#4B4B4B">
            <g id="Group-5" transform="translate(25.000000, 589.000000)">
                <path d="M23.8620718,23.2568241 C17.3107136,23.2568241 12,17.964184 12,11.4333547 C12,6.91296242 14.5433328,2.98982232 18.2798851,1 L18.2798851,2.61661822 C15.3478444,4.4649079 13.3952826,7.71873039 13.3952826,11.4333833 C13.3952826,17.1945344 18.0816481,21.8667666 23.8620718,21.8667666 C29.6424955,21.8667666 34.3290038,17.1945344 34.3290038,11.4333833 C34.3290038,7.71873039 32.3750714,4.46490792 29.4443442,2.61664674 L29.4443442,1.00002852 C33.1795545,2.98982229 35.7241721,6.91296242 35.7241721,11.4333833 C35.7241721,17.964184 30.4135442,23.2568241 23.8620718,23.2568241 L23.8620718,23.2568241 L23.8620718,23.2568241 Z M23.8620718,11.8234408 C23.4759907,11.8234408 23.1644876,11.5119949 23.1644876,11.1284264 L23.1644876,0.694985937 C23.1644876,0.311474526 23.4759907,0 23.8620718,0 C24.2482671,0 24.5596845,0.311474526 24.5596845,0.694985937 L24.5596845,11.1283978 C24.5596845,11.5119949 24.2482671,11.8234408 23.8620718,11.8234408 L23.8620718,11.8234408 L23.8620718,11.8234408 Z" id="Shape"></path>
            </g>
        </g>
    </g>
</svg>