
<svg width="13px" height="12px" viewBox="0 0 13 12" version="1.1" xmlns="http://www.w3.org/2000/svg" xmlns:xlink="http://www.w3.org/1999/xlink">
  <!-- Generator: Sketch 43.1 (39012) - http://www.bohemiancoding.com/sketch -->
  <desc>Created with Sketch.</desc>
  <defs></defs>
  <g id="Page-1" stroke="none" stroke-width="1" fill="none" fill-rule="evenodd">
    <g id="免费文章（文字内容）详情页" transform="translate(-317.000000, -2150.000000)">
      <g id="评论" transform="translate(15.000000, 2104.000000)">
        <g id="评论一" transform="translate(0.000000, 38.000000)">
          <g id="回复" transform="translate(302.000000, 6.000000)">
            <g id="评论" transform="translate(0.000000, 2.000000)">
              <path d="M0.443873309,11.4513613 C0.432630986,11.4512512 0.429110524,11.4505719 0.427597601,11.4499203 C0.413466334,11.4435226 0.4,11.4224003 0.4,11.392441 L0.4,2.50390133 C0.4,1.3425043 1.31775878,0.4 2.4413038,0.4 L10.5586962,0.4 C11.6789305,0.4 12.6,1.34500724 12.6,2.50390133 L12.6,7.39133528 C12.6,8.55383191 11.6805026,9.49523661 10.5586962,9.49523661 L2.6205317,9.49523661 L2.45744781,9.49523661 L2.34085398,9.60926393 L0.473303092,11.4357055 C0.461636834,11.4475499 0.455956135,11.4499185 0.450236947,11.4499185 L0.443874498,11.451361 L0.443873309,11.4513613 Z" id="Shape" stroke="#909090" stroke-width="0.8"></path>
              <path d="M3.51239205,4.45250961 C3.10781791,4.45250961 2.78552794,4.78818852 2.78552794,5.19801127 C2.78552794,5.6129591 3.10820442,5.94351293 3.51239205,5.94351293 C3.91199684,5.94351293 4.23414878,5.61256269 4.23414878,5.19801127 C4.23414878,4.7881602 3.9114723,4.45250961 3.51239205,4.45250961 Z" id="Path" fill="#909090"></path>
              <path d="M6.47837642,4.45250961 C6.07877164,4.45250961 5.75661969,4.78818852 5.75661969,5.19801127 C5.75661969,5.6129591 6.07929618,5.94351293 6.47837642,5.94351293 C6.88295056,5.94351293 7.20524054,5.61256269 7.20524054,5.19801127 C7.20524054,4.7881602 6.88256406,4.45250961 6.47837642,4.45250961 Z" id="Path" fill="#909090"></path>
              <path d="M9.44890223,4.45250961 C9.04929744,4.45250961 8.7271455,4.78818852 8.7271455,5.19801127 C8.7271455,5.6129591 9.04982198,5.94351293 9.44890223,5.94351293 C9.85347637,5.94351293 10.1757663,5.61256269 10.1757663,5.19801127 C10.1757663,4.7881602 9.85308986,4.45250961 9.44890223,4.45250961 Z" id="Path" fill="#909090"></path>
            </g>
          </g>
        </g>
      </g>
    </g>
  </g>
</svg>
