<?xml version="1.0" encoding="UTF-8"?>
<svg width="20px" height="16px" viewBox="0 0 20 16" version="1.1" xmlns="http://www.w3.org/2000/svg" xmlns:xlink="http://www.w3.org/1999/xlink">
    <!-- Generator: Sketch 41.2 (35397) - http://www.bohemiancoding.com/sketch -->
    <title>Fill 1</title>
    <desc>Created with Sketch.</desc>
    <defs></defs>
    <g id="Symbols" stroke="none" stroke-width="1" fill="none" fill-rule="evenodd">
        <g id="Group-4" fill="#BBC0BF">
            <g id="Fill-1">
                <path d="M12.1501499,0.118236886 C12.0074254,-0.0244876609 11.8647008,-0.0244876609 11.7219763,0.0468746126 C11.5792517,0.118236886 11.4365272,0.260961433 11.4365272,0.40368598 L11.4365272,4.1145242 C7.6543267,4.25724875 4.51438667,6.11266785 2.30215619,9.46669471 C0.589461626,12.1070988 0.0185634388,14.6761407 0.0185634388,14.8188652 C-0.0527988346,15.032952 0.0899257123,15.2470389 0.304012533,15.3184011 L0.446737079,15.3184011 C0.589461626,15.3184011 0.732186173,15.2470389 0.803548447,15.1043143 C3.30122802,10.6798534 6.79797941,10.2516797 11.4365272,10.1803174 L11.4365272,14.3906916 C11.4365272,14.5334161 11.5078895,14.7475029 11.7219763,14.7475029 C11.8647008,14.8188652 12.0787876,14.8188652 12.1501499,14.6761407 L19.8572755,7.53991332 C19.9286377,7.46855105 20,7.3258265 20,7.25446423 C20,7.11173968 19.9286377,7.04037741 19.8572755,6.96901514 L12.1501499,0.118236886 Z"></path>
            </g>
        </g>
    </g>
</svg>