<?xml version="1.0" encoding="UTF-8" standalone="no"?>
<svg width="15px" height="17px" viewBox="0 0 15 17" version="1.1" xmlns="http://www.w3.org/2000/svg" xmlns:xlink="http://www.w3.org/1999/xlink">
    <!-- Generator: Sketch 39.1 (31720) - http://www.bohemiancoding.com/sketch -->
    <title>Group</title>
    <desc>Created with Sketch.</desc>
    <defs></defs>
    <g id="Page-1" stroke="none" stroke-width="1" fill="none" fill-rule="evenodd">
        <g id="Group" fill="#4B4B4B">
            <path d="M14.9,16.1 L0,16.1 L0,11.2 L0.9,11.2 L0.9,15.2 L14.1,15.2 L14.1,11.2 L15,11.2 L15,16.1 L14.9,16.1 L14.9,16.1 Z M9.4,1.9 L9.4,3.7 L9,3.7 C6.8,3.7 5.1,4.3 4.1,5.6 C3.4,6.4 3,7.4 2.8,8.3 C4.5,6.3 7.1,6 8.3,6 L9.1,6 L9.5,6 L9.5,7.9 L13.5,4.9 L9.4,1.9 L9.4,1.9 Z M2,11.8 L1.8,10 C1.8,9.9 1.5,7 3.4,4.9 C4.6,3.6 6.3,2.8 8.5,2.7 L8.5,0 L14.9,4.7 L8.5,9.5 L8.5,6.7 L8.2,6.7 C4.5,6.7 3.1,8.8 2.6,10 L2,11.8 L2,11.8 Z" id="Shape"></path>
        </g>
    </g>
</svg>