<?xml version="1.0" encoding="UTF-8" standalone="no"?>
<svg width="24px" height="24px" viewBox="0 0 24 24" version="1.1" xmlns="http://www.w3.org/2000/svg" xmlns:xlink="http://www.w3.org/1999/xlink">
    <!-- Generator: Sketch 40.3 (33839) - http://www.bohemiancoding.com/sketch -->
    <title>加载中</title>
    <desc>Created with Sketch.</desc>
    <defs></defs>
    <g id="Page-1" stroke="none" stroke-width="1" fill="none" fill-rule="evenodd">
        <g id="加载样式一" transform="translate(-336.000000, -59.000000)" fill="#9EA1A5">
            <g id="加载中" transform="translate(336.000000, 59.000000)">
                <path d="M12.004124,0 L11.9996251,0 C11.5917271,0 11.2618095,0.330667336 11.2618095,0.737815547 L11.2618095,3.76030992 C11.2618095,4.16820795 11.5917271,4.49887528 11.9996251,4.49887528 L12.004124,4.49887528 C12.412022,4.49887528 12.7419395,4.16820795 12.7419395,3.76105973 L12.7419395,0.737815547 C12.7419395,0.330667336 12.412022,0 12.004124,0 L12.004124,0 Z M17.9996251,1.60759809 C17.6412147,1.40064982 17.1823294,1.52361909 16.9753811,1.88202949 L15.4757561,4.47938016 C15.2688078,4.83779055 15.3917771,5.29667583 15.7501875,5.5036241 C16.1085979,5.71057237 16.5674831,5.5876031 16.7744314,5.2291927 L18.2740565,2.63184204 C18.4810047,2.27343164 18.3580355,1.81454637 17.9996251,1.60759809 L17.9996251,1.60759809 Z M19.5194951,8.52386904 L22.1168458,7.02424395 C22.4752562,6.81729567 22.5982254,6.3584104 22.3912772,6 C22.1843289,5.64083979 21.7254436,5.51862035 21.3670332,5.7255686 L18.7696826,7.2251937 C18.4112722,7.43214197 18.2883029,7.89102724 18.4952512,8.24943764 C18.7021995,8.60784804 19.1610847,8.73081729 19.5194951,8.52386904 L19.5194951,8.52386904 Z M23.2490627,11.2501875 L20.2498125,11.2501875 C19.835916,11.2501875 19.5,11.5861035 19.5,12 C19.5,12.4138965 19.835916,12.7498125 20.2498125,12.7498125 L23.2490627,12.7498125 C23.6629593,12.7498125 23.9988753,12.4138965 23.9988753,12 C23.9988753,11.5853537 23.6629593,11.2501875 23.2490627,11.2501875 L23.2490627,11.2501875 Z M22.1168458,16.9757561 L19.5194951,15.476131 C19.1610847,15.2691827 18.7021995,15.392152 18.4952512,15.7505624 C18.2883029,16.1089728 18.4112722,16.567858 18.7696826,16.7748063 L21.3670332,18.2744314 C21.7254436,18.4813797 22.1843289,18.3584104 22.3912772,18 C22.5982254,17.6408398 22.4752562,17.1827043 22.1168458,16.9757561 L22.1168458,16.9757561 Z M16.7744314,18.7700575 C16.5674831,18.4116471 16.1085979,18.2886778 15.7501875,18.4956261 C15.3917771,18.7025744 15.2688078,19.1614596 15.4757561,19.51987 L16.9753811,22.1172207 C17.1823294,22.4756311 17.6412147,22.5986003 17.9996251,22.3916521 C18.3580355,22.1847038 18.4810047,21.7258185 18.2740565,21.3674081 L16.7744314,18.7700575 L16.7744314,18.7700575 Z M12.0003749,19.5011247 C11.5864784,19.5011247 11.2505624,19.8370407 11.2505624,20.2509373 L11.2505624,23.2501875 C11.2505624,23.664084 11.5864784,24 12.0003749,24 C12.4142714,24 12.7501875,23.664084 12.7501875,23.2501875 L12.7501875,20.2509373 C12.7501875,19.8362909 12.4142714,19.5011247 12.0003749,19.5011247 L12.0003749,19.5011247 Z M8.25056236,18.4956261 C7.89215196,18.2886778 7.43326669,18.4116471 7.22631841,18.7700575 L5.72669332,21.3674081 C5.51974505,21.7258185 5.64271432,22.1847038 6.00112472,22.3916521 C6.35953512,22.5986004 6.81842039,22.4756311 7.02536866,22.1172207 L8.52499376,19.51987 C8.73194201,19.1614596 8.60897276,18.7025744 8.25056236,18.4956261 L8.25056236,18.4956261 Z M4.48125469,15.476131 L1.88390402,16.9757561 C1.52549363,17.1827043 1.40252438,17.6415896 1.60947263,18 C1.8164209,18.3584104 2.27530617,18.4813796 2.63371657,18.2744314 L5.23106723,16.7748063 C5.58947763,16.567858 5.71244688,16.1089728 5.50549863,15.7505624 C5.29855038,15.392152 4.83966509,15.2691827 4.48125469,15.476131 L4.48125469,15.476131 Z M4.5,12 C4.5,11.5861035 4.16408398,11.2501875 3.75018745,11.2501875 L0.751687078,11.2501875 C0.337790555,11.2501875 0.00187453125,11.5861035 0.00187453125,12 C0.00187453125,12.4138965 0.337790555,12.7498125 0.751687078,12.7498125 L3.75018745,12.7498125 C4.16483379,12.7498125 4.5,12.4138965 4.5,12 L4.5,12 Z M5.23106723,7.2251937 L2.63371657,5.7255686 C2.27530617,5.51862035 1.8164209,5.64083979 1.60947263,6 C1.40252438,6.3584104 1.52549363,6.81729567 1.88390402,7.02424395 L4.48125469,8.52386904 C4.83966509,8.73081731 5.29855036,8.60784804 5.50549863,8.24943764 C5.71244691,7.89102724 5.58947763,7.43214197 5.23106723,7.2251937 L5.23106723,7.2251937 Z M7.02536866,1.88202949 C6.81842039,1.52361909 6.35953512,1.40064984 6.00112472,1.60759809 C5.64271432,1.81454637 5.51974507,2.27343164 5.72669332,2.63184204 L7.22631841,5.2291927 C7.43326669,5.5876031 7.89215196,5.71057235 8.25056236,5.5036241 C8.60897276,5.29667583 8.73194201,4.83779055 8.52499376,4.47938016 L7.02536866,1.88202949 L7.02536866,1.88202949 Z" id="Shape"></path>
            </g>
        </g>
    </g>
</svg>