<?xml version="1.0" encoding="UTF-8" standalone="no"?>
<svg width="28px" height="27px" viewBox="0 0 28 27" version="1.1" xmlns="http://www.w3.org/2000/svg"
     xmlns:xlink="http://www.w3.org/1999/xlink">
  <!-- Generator: Sketch 39.1 (31720) - http://www.bohemiancoding.com/sketch -->
  <title>thumbsup</title>
  <desc>Created with Sketch.</desc>
  <defs></defs>
  <g id="Page-1" stroke="none" stroke-width="1" fill="none" fill-rule="evenodd">
    <g id="thumbsup" fill="#4B4B4B">
      <path
        d="M5.7,26.318 L0,26.318 L0,10.318 L5.7,10.318 L5.7,26.318 L5.7,26.318 Z M0.9,25.417 L4.7,25.417 L4.7,11.417 L0.9,11.417 L0.9,25.417 L0.9,25.417 Z M23.1,26.118 L6.5,26.118 L6.5,10.618 L6.7,10.518 C6.7,10.518 11.2,7.218 11.6,4.318 C11.8,2.218 12,0.818 13.1,0.218 C13.701,-0.182 14.701,0.018 15.901,0.418 C18.8,1.718 18.001,5.518 17.201,8.818 C17.201,9.018 17.1,9.318 17.1,9.518 L23.9,9.518 C24.299,9.518 26.2,9.318 27.299,10.218 C27.799,10.818 27.999,11.518 27.799,12.518 C27.699,13.018 27.599,13.618 27.4,14.318 C26.2,19.917 25,25.218 23.1,26.118 L23.1,26.118 Z M7.5,25.118 L22.9,25.118 C24.5,24.118 25.799,17.418 26.4,14.118 C26.5,13.418 26.599,12.818 26.799,12.318 C26.9,11.718 26.799,11.218 26.599,10.818 C25.999,10.218 24.499,10.218 23.999,10.318 L23.899,10.318 L15.899,10.318 L15.999,9.718 C16.099,9.218 16.099,8.818 16.199,8.418 C16.799,5.218 17.499,2.118 15.299,1.018 C14.4,0.618 13.699,0.518 13.4,0.818 C12.799,1.218 12.7,2.518 12.4,4.118 C12,7.118 8.3,10.218 7.4,10.918 L7.4,25.218 L7.5,25.118 L7.5,25.118 Z"
        id="Shape"></path>
    </g>
  </g>
</svg>
