
<svg width="19px" height="19px" viewBox="439 333 19 19" version="1.1" xmlns="http://www.w3.org/2000/svg" xmlns:xlink="http://www.w3.org/1999/xlink">
  <!-- Generator: Sketch 40 (33762) - http://www.bohemiancoding.com/sketch -->
  <desc>Created with Sketch.</desc>
  <defs></defs>
  <path d="M456.283004,350.264571 C455.734657,350.811906 454.846801,350.811906 454.298498,350.264571 L448.346898,344.319599 L442.394807,350.264571 C441.846862,350.811906 440.95905,350.811906 440.410658,350.264571 C439.863114,349.718038 439.863114,348.830769 440.410658,348.283434 L446.363106,342.336812 L440.410658,336.391795 C439.863114,335.845262 439.863114,334.957191 440.410658,334.4099 C440.959006,333.863367 441.846862,333.863367 442.394807,334.4099 L448.346898,340.355719 L454.298498,334.4099 C454.846845,333.863367 455.734701,333.863367 456.283004,334.4099 C456.830548,334.957235 456.830548,335.845307 456.283004,336.391795 L450.330556,342.336812 L456.283004,348.283434 C456.830548,348.830769 456.830548,349.718038 456.283004,350.264571 Z" id="Path" stroke="#979797" stroke-width="1" fill="#D8D8D8" fill-rule="evenodd"></path>
</svg>
