<?xml version="1.0" encoding="UTF-8" standalone="no"?>
<svg width="22px" height="22px" viewBox="0 0 22 22" version="1.1" xmlns="http://www.w3.org/2000/svg" xmlns:xlink="http://www.w3.org/1999/xlink">
    <!-- Generator: Sketch 39.1 (31720) - http://www.bohemiancoding.com/sketch -->
    <title>回到顶部</title>
    <desc>Created with Sketch.</desc>
    <defs></defs>
    <g id="Page-1" stroke="none" stroke-width="1" fill="none" fill-rule="evenodd">
        <g id="回到顶部" fill="#4B4B4B">
            <path d="M11,0.785714286 C13.0428571,0.785714286 15.0071429,1.41428571 16.5785714,2.43571429 C19.3285714,4.24285714 21.1357143,7.38571429 21.1357143,10.9214286 C21.1357143,16.5 16.5785714,21.1357143 10.9214286,21.1357143 C5.26428571,21.1357143 0.707142857,16.5785714 0.707142857,10.9214286 C0.707142857,7.38571429 2.51428571,4.24285714 5.26428571,2.43571429 C6.99285714,1.41428571 8.95714286,0.785714286 11,0.785714286 M11,22 C17.05,22 22,17.05 22,11 C22,4.95 17.05,0 11,0 C4.95,0 0,4.95 0,11 C0,17.05 4.95,22 11,22" id="Fill-1"></path>
            <polygon id="Fill-3" points="11.0111571 5.92758571 11.0001571 5.92758571 6.8178 9.98108571 7.61137143 10.7958714 10.3566571 8.0938 10.3566571 13.4987286 11.6436571 13.4987286 11.6436571 8.15822857 14.4101571 10.6458 15.1825143 9.8098 11.0213714 5.92758571"></polygon>
            <path d="M10.3565786,14.9999929 L11.6435786,14.9999929 L11.6435786,16.0724929 L10.3565786,16.0724929 L10.3565786,14.9999929" id="Fill-5"></path>
        </g>
    </g>
</svg>