<?xml version="1.0" encoding="UTF-8"?>
<svg width="10px" height="10px" viewBox="0 0 10 10" version="1.1" xmlns="http://www.w3.org/2000/svg" xmlns:xlink="http://www.w3.org/1999/xlink">
    <!-- Generator: Sketch 41.2 (35397) - http://www.bohemiancoding.com/sketch -->
    <title>嘉</title>
    <desc>Created with Sketch.</desc>
    <defs></defs>
    <g id="Symbols" stroke="none" stroke-width="1" fill="none" fill-rule="evenodd">
        <g id="嘉宾" transform="translate(-4.000000, -3.000000)" fill="#000000">
            <path d="M12.75,10.37 L9.47,10.37 L9.47,13 L10.13,13 L10.13,12.62 L12.1,12.62 L12.1,13 L12.75,13 L12.75,10.37 Z M10.13,12.04 L10.13,10.94 L12.1,10.94 L12.1,12.04 L10.13,12.04 Z M5.37,5.62 L5.37,6.2 L12.65,6.2 L12.65,5.62 L9.36,5.62 L9.36,5.01 L13.05,5.01 L13.05,4.43 L9.36,4.43 L9.36,3.82 L8.65,3.82 L8.65,4.43 L4.96,4.43 L4.96,5.01 L8.65,5.01 L8.65,5.62 L5.37,5.62 Z M6.83,8.47 L7.15,9.18 L4.56,9.18 L4.56,9.77 L6.54,9.77 C6.49,10.01 6.43,10.25 6.36,10.47 L4.88,10.47 L4.88,11.09 L6.1,11.09 C6.05,11.17 6,11.26 5.95,11.35 C5.65,11.77 5.21,12.16 4.63,12.5 L5.05,13.04 C5.72,12.63 6.22,12.17 6.55,11.65 C6.65,11.49 6.74,11.3 6.83,11.09 L8.16,11.09 C8.14,11.67 8.08,12.03 7.98,12.16 C7.88,12.3 7.62,12.38 7.22,12.38 C7.08,12.37 6.91,12.36 6.7,12.34 L6.85,12.92 C7.05,12.94 7.23,12.95 7.37,12.95 C7.91,12.95 8.29,12.83 8.51,12.6 C8.72,12.37 8.83,11.66 8.85,10.47 L7.04,10.47 C7.1,10.25 7.15,10.02 7.21,9.77 L13.44,9.77 L13.44,9.18 L10.88,9.18 L11.27,8.47 L12.12,8.47 L12.12,6.71 L5.87,6.71 L5.87,8.47 L6.83,8.47 Z M10.51,8.47 L10.12,9.18 L7.9,9.18 L7.58,8.47 L10.51,8.47 Z M11.44,7.93 L6.55,7.93 L6.55,7.24 L11.44,7.24 L11.44,7.93 Z" id="嘉"></path>
        </g>
    </g>
</svg>