<?xml version="1.0" encoding="UTF-8"?>
<svg width="60px" height="60px" viewBox="0 0 60 60" version="1.1" xmlns="http://www.w3.org/2000/svg" xmlns:xlink="http://www.w3.org/1999/xlink">
    <!-- Generator: Sketch 41.2 (35397) - http://www.bohemiancoding.com/sketch -->
    <title>Shape</title>
    <desc>Created with Sketch.</desc>
    <defs></defs>
    <g id="Page-1" stroke="none" stroke-width="1" fill="none" fill-rule="evenodd">
        <g id="正在直播主持人-tool-bar_语音2" transform="translate(-159.000000, -284.000000)" fill="#FFFFFF">
            <g id="Group-2" transform="translate(138.000000, 284.000000)">
                <g id="Group" transform="translate(21.000000, 0.000000)">
                    <path d="M30,0 C13.458,0 0,13.4565 0,30 C0,46.5435 13.458,60 30,60 C46.542,60 60,46.542 60,30 C60,13.458 46.542,0 30,0 L30,0 Z M30,58.3785 C14.352,58.3785 1.6215,45.6465 1.6215,30 C1.6215,14.3535 14.352,1.6215 30,1.6215 C45.648,1.6215 58.3785,14.352 58.3785,30 C58.3785,45.648 45.648,58.3785 30,58.3785 L30,58.3785 Z M30,37.0935 C29.166,37.0935 28.491,36.417 28.491,35.5845 L28.491,16.6695 C28.491,15.8355 29.166,15.1605 30,15.1605 C30.834,15.1605 31.509,15.837 31.509,16.6695 L31.509,35.5845 C31.5105,36.417 30.8355,37.0935 30,37.0935 L30,37.0935 Z M27.981,42.822 C27.981,43.9370629 28.8849371,44.841 30,44.841 C31.1150629,44.841 32.019,43.9370629 32.019,42.822 C32.019,41.7069371 31.1150629,40.803 30,40.803 C28.8849371,40.803 27.981,41.7069371 27.981,42.822 L27.981,42.822 Z" id="Shape"></path>
                </g>
            </g>
        </g>
    </g>
</svg>