<?xml version="1.0" encoding="UTF-8"?>
<svg width="20px" height="14px" viewBox="0 0 20 14" version="1.1" xmlns="http://www.w3.org/2000/svg" xmlns:xlink="http://www.w3.org/1999/xlink">
    <!-- Generator: Sketch 41.2 (35397) - http://www.bohemiancoding.com/sketch -->
    <title>Shape</title>
    <desc>Created with Sketch.</desc>
    <defs></defs>
    <g id="Symbols" stroke="none" stroke-width="1" fill="none" fill-rule="evenodd">
        <g id="Group-2" fill="#BBC0BF">
            <g id="回复-(3)">
                <g>
                    <path d="M0,6.66666666 C0,2.98476888 2.99420211,0 6.65971044,0 L13.3402896,0 C17.0183461,0 20,2.99226111 20,6.66666666 C20,10.3485655 17.0057979,13.3333333 13.3402896,13.3333333 L6.65971044,13.3333333 C2.98165389,13.3333333 0,10.3410733 0,6.66666666 L0,6.66666666 Z M5.55555556,7.77777777 C6.16920522,7.77777777 6.66666667,7.28031666 6.66666667,6.66666666 C6.66666667,6.05301777 6.16920522,5.55555554 5.55555556,5.55555554 C4.94190589,5.55555554 4.44444444,6.05301777 4.44444444,6.66666666 C4.44444444,7.28031666 4.94190589,7.77777777 5.55555556,7.77777777 L5.55555556,7.77777777 Z M10,7.77777777 C10.6136497,7.77777777 11.1111111,7.28031666 11.1111111,6.66666666 C11.1111111,6.05301777 10.6136497,5.55555554 10,5.55555554 C9.38635033,5.55555554 8.88888889,6.05301777 8.88888889,6.66666666 C8.88888889,7.28031666 9.38635033,7.77777777 10,7.77777777 L10,7.77777777 Z M14.4444444,7.77777777 C15.0580941,7.77777777 15.5555556,7.28031666 15.5555556,6.66666666 C15.5555556,6.05301777 15.0580941,5.55555554 14.4444444,5.55555554 C13.8307948,5.55555554 13.3333333,6.05301777 13.3333333,6.66666666 C13.3333333,7.28031666 13.8307948,7.77777777 14.4444444,7.77777777 L14.4444444,7.77777777 Z" id="Shape"></path>
                </g>
            </g>
        </g>
    </g>
</svg>