<?xml version="1.0" encoding="utf-8"?>
<!-- Generator: Adobe Illustrator 22.0.1, SVG Export Plug-In . SVG Version: 6.00 Build 0)  -->
<svg version="1.1" id="图层_1" xmlns="http://www.w3.org/2000/svg" xmlns:xlink="http://www.w3.org/1999/xlink" x="0px" y="0px"
	 viewBox="0 0 18 16" style="enable-background:new 0 0 18 16;" xml:space="preserve">
<title>会员</title>
<desc>Created with Sketch.</desc>
<g id="第一版-1201-会员相关-银">
	<g id="演讲详情页_专属视频试看完毕" transform="translate(-129.000000, -127.000000)">
		<g id="立即开通会员" transform="translate(89.000000, 115.000000)">
			<path id="会员" d="M55.7,17.3l-3.1,1.6c-0.2,0.1-0.5,0-0.7-0.2l0,0l-2.5-4.4c0.5-0.2,0.8-0.6,0.8-1.1c0-0.7-0.5-1.2-1.2-1.2
				c-0.7,0-1.2,0.5-1.2,1.2c0,0.5,0.3,1,0.8,1.1l-2.5,4.4l0,0c-0.1,0.2-0.4,0.3-0.7,0.2l0,0l-3.1-1.6c0.1-0.2,0.1-0.3,0.1-0.5
				c0-0.7-0.5-1.2-1.2-1.2c-0.7,0-1.2,0.5-1.2,1.2c0,0.7,0.5,1.2,1.2,1.2c0.1,0,0.2,0,0.3-0.1l1.7,5.6c0.1,0.4,0.5,0.7,1,0.7h9.6
				c0.4,0,0.8-0.3,1-0.7l1.7-5.6c0.1,0,0.2,0.1,0.3,0.1c0.7,0,1.2-0.5,1.2-1.2c0-0.7-0.5-1.2-1.2-1.2c-0.7,0-1.2,0.5-1.2,1.2
				C55.6,17,55.7,17.2,55.7,17.3z M44,25.5h10l0,0c0.4,0,0.8,0.4,0.8,0.8c0,0.4-0.4,0.8-0.8,0.8H44l0,0c-0.4,0-0.8-0.4-0.8-0.8
				C43.2,25.9,43.6,25.5,44,25.5L44,25.5z"/>
		</g>
	</g>
</g>
</svg>
