<?xml version="1.0" encoding="UTF-8" standalone="no"?>
<svg width="60px" height="60px" viewBox="0 0 60 60" version="1.1" xmlns="http://www.w3.org/2000/svg" xmlns:xlink="http://www.w3.org/1999/xlink">
    <!-- Generator: Sketch 39.1 (31720) - http://www.bohemiancoding.com/sketch -->
    <title>Group</title>
    <desc>Created with Sketch.</desc>
    <defs></defs>
    <g id="Page-1" stroke="none" stroke-width="1" fill="none" fill-rule="evenodd">
        <g id="Group" fill="#4B4B4B">
            <path d="M0,29.9405941 C0,13.5445545 13.44,0.237623762 30,0.237623762 C46.56,0.237623762 60,13.5445545 60,29.9405941 C60,46.3366337 46.56,59.6435644 30,59.6435644 C13.44,59.6435644 0,46.3366337 0,29.9405941 L0,29.9405941 Z M1.14,29.9405941 C1.14,45.6831683 14.1,58.5148515 30,58.5148515 C45.9,58.5148515 58.86,45.6831683 58.86,29.9405941 C58.86,14.1980198 45.9,1.36633663 30,1.36633663 C14.1,1.36633663 1.14,14.1980198 1.14,29.9405941 L1.14,29.9405941 Z" id="Shape"></path>
            <path d="M19.08,44.7920792 L11.88,34.3960396 C11.76,34.2178218 11.7,33.980198 11.82,33.8019802 C11.94,33.6237624 12.12,33.5049505 12.36,33.5049505 L16.44,33.5049505 L16.44,25.4851485 C16.44,17.7623762 22.8,11.5247525 30.54,11.5247525 C38.34,11.5247525 44.64,17.8217822 44.64,25.4851485 L44.64,43.6633663 C44.64,44.019802 44.34,44.2574257 44.04,44.2574257 L38.28,44.2574257 C37.92,44.2574257 37.68,43.960396 37.68,43.6633663 L37.68,27.0891089 C37.68,22.7524752 34.5,19.3663366 30.36,19.3069307 C26.16,19.4257426 22.68,22.8712871 22.68,27.0891089 L22.68,33.5049505 L26.76,33.5049505 C27,33.5049505 27.18,33.6237624 27.3,33.8019802 C27.36,33.980198 27.36,34.2178218 27.24,34.3960396 L20.04,44.7920792 C19.92,44.9108911 19.74,45.029703 19.56,45.029703 C19.38,45.029703 19.2,44.970297 19.08,44.7920792 L19.08,44.7920792 Z M25.62,34.6336634 L25.62,34.6930693 L22.02,34.6930693 C21.66,34.6930693 21.42,34.3960396 21.42,34.0990099 L21.42,27.0891089 C21.42,22.2772277 25.38,18.2970297 30.3,18.1782178 C35.1,18.2376238 38.76,22.0990099 38.76,27.0891089 L38.76,43.0693069 L43.32,43.0693069 L43.32,25.4851485 C43.32,18.4752475 37.56,12.7128713 30.42,12.7128713 C23.34,12.7128713 17.52,18.4158416 17.52,25.4851485 L17.52,34.039604 C17.52,34.3960396 17.22,34.6336634 16.92,34.6336634 L13.38,34.6336634 L19.5,43.4851485 L25.62,34.6336634 L25.62,34.6336634 L25.62,34.6336634 Z" id="Shape"></path>
        </g>
    </g>
</svg>