<?xml version="1.0" encoding="UTF-8" standalone="no"?>
<svg width="22px" height="20px" viewBox="0 0 22 20" version="1.1" xmlns="http://www.w3.org/2000/svg" xmlns:xlink="http://www.w3.org/1999/xlink">
    <!-- Generator: Sketch 39.1 (31720) - http://www.bohemiancoding.com/sketch -->
    <title>chat2</title>
    <desc>Created with Sketch.</desc>
    <defs></defs>
    <g id="Page-1" stroke="none" stroke-width="1" fill="none" fill-rule="evenodd">
        <g id="chat2" fill="#4B4B4B">
            <path d="M10.4,11.4 L6.1,11.4 C6,11.4 5.8,11.2 5.8,11 C5.8,10.8 5.9,10.6 6.1,10.6 L10.4,10.6 C10.5,10.6 10.7,10.8 10.7,11 C10.7,11.2 10.6,11.4 10.4,11.4 M14.1,9.1 L6.1,9.1 C5.9,9.1 5.8,8.9 5.8,8.7 C5.8,8.5 5.9,8.3 6.1,8.3 L14.1,8.3 C14.3,8.3 14.401,8.5 14.401,8.7 C14.4,8.9 14.3,9.1 14.1,9.1 M16.6,6.8 L6.2,6.8 C6,6.8 5.8,6.6 5.8,6.4 C5.8,6.2 6,6 6.2,6 L16.6,6 C16.8,6 17,6.2 17,6.4 C17,6.6 16.8,6.8 16.6,6.8 M11,0.9 C5.4,0.9 0.8,4.3 0.8,8.5 C0.8,10.3 1.7,12.1 3.3,13.5 C3.4,13.6 3.5,13.8 3.4,13.9 L2.2,18.4 L8.3,16 L8.5,16 C9.3,16.2 10.1,16.2 10.9,16.2 C16.5,16.2 21.1,12.8 21.1,8.6 C21.2,4.3 16.6,0.9 11,0.9 M1.6,19.4 C1.5,19.4 1.4,19.4 1.3,19.299 C1.2,19.2 1.1,19 1.2,18.9 L2.5,13.9 C0.9,12.4 0,10.5 0,8.5 C0,3.8 4.9,0 11,0 C17.1,0 22,3.8 22,8.5 C22,13.2 17.1,17 11,17 C10.2,17 9.3,16.9 8.5,16.8 L1.8,19.5 C1.7,19.4 1.6,19.4 1.6,19.4" id="Shape"></path>
        </g>
    </g>
</svg>