<?xml version="1.0" encoding="UTF-8" standalone="no"?>
<svg width="20px" height="18px" viewBox="0 0 20 18" version="1.1" xmlns="http://www.w3.org/2000/svg" xmlns:xlink="http://www.w3.org/1999/xlink">
    <!-- Generator: Sketch 39.1 (31720) - http://www.bohemiancoding.com/sketch -->
    <title>Shape</title>
    <desc>Created with Sketch.</desc>
    <defs></defs>
    <g id="Page-1" stroke="none" stroke-width="1" fill="none" fill-rule="evenodd">
        <path d="M9.8,0 C4.4,0 0,3.4 0,7.6 C0,9.4 0.8,11.1 2.3,12.5 L1.1,17 C1.1,17.1 1.1,17.3 1.2,17.4 C1.3,17.5 1.3,17.5 1.4,17.5 L1.5,17.5 L7.5,15.1 C8.2,15.2 9,15.3 9.7,15.3 C15.099,15.3 19.5,11.901 19.5,7.7 C19.5,3.499 15.2,0 9.8,0 Z M12.6,6.4 L9.1,9.9 C8.9,10.1 8.6,10.1 8.4,9.9 L7,8.5 C6.9,8.4 6.8,8.2 6.9,8 C7,7.8 7.1,7.7 7.3,7.6 C7.5,7.6 7.7,7.6 7.8,7.7 L8.8,8.7 L11.9,5.6 C12,5.5 12.1,5.5 12.2,5.4 C12.4,5.4 12.599,5.5 12.7,5.7 C12.8,5.9 12.8,6.2 12.6,6.4 Z" id="Shape" fill="#E0E5EA"></path>
    </g>
</svg>