<?xml version="1.0" encoding="UTF-8" standalone="no"?>
<svg width="22px" height="21px" viewBox="0 0 22 21" version="1.1" xmlns="http://www.w3.org/2000/svg" xmlns:xlink="http://www.w3.org/1999/xlink">
    <!-- Generator: Sketch 39.1 (31720) - http://www.bohemiancoding.com/sketch -->
    <title>chat2-disabled</title>
    <desc>Created with Sketch.</desc>
    <defs></defs>
    <g id="Page-1" stroke="none" stroke-width="1" fill="none" fill-rule="evenodd">
        <g id="chat2-disabled" fill="#4B4B4B">
            <g id="Group">
                <path d="M10.4,10.5 L6.1,10.5 C5.9,10.5 5.8,10.7 5.8,10.9 C5.8,11.1 5.9,11.3 6.1,11.3 L10.4,11.3 C10.6,11.3 10.7,11.101 10.7,10.901 C10.7,10.701 10.6,10.5 10.4,10.5" id="Shape"></path>
                <path d="M16.7,5.9 L6.3,5.9 C6.1,5.9 5.9,6.1 5.9,6.3 C5.9,6.5 6.1,6.7 6.3,6.7 L16.7,6.7 C16.9,6.7 17.099,6.5 17.099,6.3 C17.1,6.1 16.9,5.9 16.7,5.9" id="Shape"></path>
                <path d="M14.2,8.2 L6.2,8.2 C6,8.2 5.9,8.4 5.9,8.6 C5.9,8.8 6.1,9 6.2,9 L14.2,9 C14.4,9 14.5,8.8 14.5,8.6 C14.5,8.4 14.4,8.2 14.2,8.2" id="Shape"></path>
                <rect id="Rectangle-path" x="13.1" y="15.101" width="3" height="0.899"></rect>
                <path d="M22,8.5 C22,3.8 17.1,0 11,0 C4.9,0 0,3.8 0,8.5 C0,10.5 0.9,12.4 2.5,13.9 L1.2,18.9 C1.2,19 1.2,19.2 1.3,19.299 C1.4,19.4 1.5,19.4 1.6,19.4 L1.8,19.4 L8.5,16.7 C9.1,16.8 9.7,16.9 10.3,16.9 C10.9,18.799 12.6,20.2 14.6,20.2 C17.1,20.2 19.1,18.2 19.1,15.7 C19.1,15.2 19,14.8 18.901,14.4 C20.8,12.8 22,10.8 22,8.5 M18.3,15.7 C18.3,17.7 16.6,19.4 14.6,19.4 C12.6,19.4 10.9,17.7 10.9,15.7 C10.9,13.7 12.6,12 14.6,12 C14.8,12 15.1,12 15.3,12.101 L15.5,12.101 C15.7,12.101 15.8,12.201 16,12.3 C16.1,12.3 16.1,12.3 16.2,12.401 C16.4,12.501 16.599,12.601 16.7,12.701 C16.8,12.701 16.8,12.801 16.9,12.801 C17,12.9 17.1,13 17.2,13 C17.3,13.101 17.4,13.101 17.4,13.2 C17.5,13.3 17.5,13.3 17.599,13.4 C17.7,13.601 17.9,13.8 18,14 C18,14 18,14.101 18.1,14.101 C18.201,14.3 18.3,14.601 18.401,14.901 C18.3,15.101 18.3,15.3 18.3,15.7 C18.3,15.601 18.3,15.601 18.3,15.7 C18.3,15.601 18.3,15.601 18.3,15.7 C18.3,15.601 18.3,15.601 18.3,15.7 M18.6,13.601 C17.8,12.201 16.3,11.101 14.6,11.101 C12.1,11.101 10.1,13.101 10.1,15.601 L10.1,16.101 C9.6,16.101 9.1,16 8.5,15.901 L8.3,15.901 L2.2,18.3 L3.4,13.8 C3.4,13.7 3.4,13.5 3.3,13.401 C1.7,12.001 0.8,10.201 0.8,8.401 C0.8,4.201 5.4,0.801 11,0.801 C16.6,0.801 21.2,4.201 21.2,8.401 C21.2,10.4 20.2,12.2 18.6,13.601" id="Shape"></path>
            </g>
        </g>
    </g>
</svg>