<?xml version="1.0" encoding="UTF-8" standalone="no"?>

<svg width="28px" height="22px" viewBox="254 77 28 22" version="1.1" xmlns="http://www.w3.org/2000/svg" xmlns:xlink="http://www.w3.org/1999/xlink">
  <!-- Generator: Sketch 40 (33762) - http://www.bohemiancoding.com/sketch -->
  <desc>Created with Sketch.</desc>
  <defs></defs>
  <g id="chat11" stroke="none" stroke-width="1" fill="none" fill-rule="evenodd" transform="translate(254.000000, 77.000000)">
    <path d="M10.0778125,0.0409045226 C4.52101563,0.0409045226 0,4.14572864 0,9.18914573 C0,11.6478392 1.07460937,13.8832161 2.8196875,15.528794 L1.84242188,18.3196985 C1.64117187,18.8940201 1.95617187,19.2173869 2.541875,19.0382915 L6.125,17.9432663 C6.26236146,17.9053791 6.38887179,17.8350965 6.49414063,17.738191 C7.6486458,18.1368333 8.86053607,18.3393089 10.0805469,18.3373869 C15.6346094,18.3373869 20.155625,14.2336683 20.155625,9.18914573 C20.155625,4.14462312 15.6346094,0.0409045226 10.0778125,0.0409045226 Z" id="Shape" fill="#E0E5EA"></path>
    <path d="M25.8125,18.1245729 C25.80215,18.0844514 25.7895515,18.0449572 25.7747656,18.0062814 C27.1660156,16.4403015 28,14.4475879 28,12.2768844 C28,7.58613065 24.1057031,3.72341709 19.0974219,3.21155779 C20.4285156,4.8919598 21.2149219,6.95653266 21.2149219,9.18638191 C21.2149219,14.3475377 17.0039844,18.6253769 11.5664062,19.2936683 C13.3038281,20.6059296 15.535625,21.3941709 17.9703125,21.3941709 C19.3664115,21.3974509 20.7502507,21.1308365 22.0472656,20.6086935 C22.0784375,20.6219598 22.1107031,20.6346734 22.1451562,20.6468342 L25.8283594,21.8977387 C26.4080469,22.0945226 26.7580469,21.7739196 26.6054688,21.1852261 L25.8125,18.1245729 Z" id="Shape" fill="#E0E5EA"></path>
  </g>
</svg>
