<?xml version="1.0" encoding="UTF-8" standalone="no"?>
<svg width="30px" height="26px" viewBox="0 0 30 26" version="1.1" xmlns="http://www.w3.org/2000/svg" xmlns:xlink="http://www.w3.org/1999/xlink">
    <!-- Generator: Sketch 39.1 (31720) - http://www.bohemiancoding.com/sketch -->
    <title>chat1</title>
    <desc>Created with Sketch.</desc>
    <defs></defs>
    <g id="Page-1" stroke="none" stroke-width="1" fill="none" fill-rule="evenodd">
        <g id="chat1" fill="#4B4B4B">
            <g id="Group">
                <path d="M11.8,4.4 C5.7,4.4 0.8,8.2 0.8,12.9 C0.8,14.9 1.8,16.9 3.5,18.4 C3.6,18.501 3.7,18.7 3.6,18.8 L2.3,23.7 L8.9,21.1 L9.1,21.1 C10,21.3 10.9,21.3 11.7,21.3 C17.8,21.3 22.7,17.5 22.7,12.8 C22.9,8.2 17.9,4.4 11.8,4.4 M1.7,25 C1.6,25 1.5,25 1.4,24.899 C1.3,24.799 1.2,24.599 1.3,24.5 L2.8,19 C1,17.3 0,15.2 0,13 C0,7.8 5.3,3.6 11.9,3.6 C18.5,3.6 23.8,7.8 23.8,13 C23.8,18.2 18.5,22.4 11.9,22.4 C11,22.4 10.1,22.3 9.2,22.2 L1.9,25.1 C1.8,24.9 1.7,25 1.7,25" id="Shape"></path>
                <path d="M18,10.9 L6.7,10.9 C6.5,10.9 6.3,10.7 6.3,10.5 C6.3,10.3 6.5,10.1 6.7,10.1 L18,10.1 C18.2,10.1 18.4,10.3 18.4,10.5 C18.4,10.6 18.2,10.9 18,10.9" id="Shape"></path>
                <path d="M18,13.4 L6.7,13.4 C6.5,13.4 6.3,13.2 6.3,13 C6.3,12.8 6.5,12.6 6.7,12.6 L18,12.6 C18.2,12.6 18.4,12.8 18.4,13 C18.4,13.2 18.2,13.4 18,13.4" id="Shape"></path>
                <path d="M13.8,16 L6.6,16 C6.4,16 6.2,15.8 6.2,15.6 C6.2,15.4 6.4,15.2 6.6,15.2 L13.8,15.2 C14,15.2 14.2,15.4 14.2,15.6 C14.3,15.8 14.1,16 13.8,16" id="Shape"></path>
                <path d="M19.6,20.5 C22.201,20.3 24.6,19.3 26.5,17.6 C28.7,15.7 29.9,13 29.9,10.3 C29.9,7.6 28.7,4.9 26.5,3 C24.4,1.1 21.5,8.8817842e-16 18.5,8.8817842e-16 C15.5,8.8817842e-16 12.6,1.1 10.5,3 C10.4,3.1 10.3,3.2 10.2,3.3 C10.6,3.3 10.9,3.2 11.3,3.2 L11.6,3.2 C13.5,1.7 15.9,0.9 18.5,0.9 C21.3,0.9 23.9,1.9 25.9,3.6 C27.9,5.4 29,7.7 29,10.3 C29,12.9 27.9,15.199 25.9,17 C24.4,18.3 22.5,19.199 20.5,19.6 C20.2,19.8 19.9,20.2 19.6,20.5" id="Shape"></path>
            </g>
        </g>
    </g>
</svg>