<?xml version="1.0" encoding="UTF-8" standalone="no"?>
<svg width="20px" height="20px" viewBox="0 0 20 20" version="1.1" xmlns="http://www.w3.org/2000/svg" xmlns:xlink="http://www.w3.org/1999/xlink">
    <!-- Generator: Sketch 40.3 (33839) - http://www.bohemiancoding.com/sketch -->
    <title>Shape</title>
    <desc>Created with Sketch.</desc>
    <defs></defs>
    <g id="Page-1" stroke="none" stroke-width="1" fill="none" fill-rule="evenodd">
        <g id="Group-12-Copy" transform="translate(-20.000000, -10.000000)" fill="#FFFFFF">
            <g id="Group-17" transform="translate(20.000000, 10.000000)">
                <g id="成功打勾">
                    <path d="M17.0752409,2.92611257 C13.1746599,-0.974468517 6.82669365,-0.974468517 2.92611257,2.92611257 C-0.974468517,6.82669365 -0.974468517,13.1746599 2.92611257,17.0752409 C6.82669365,20.975822 13.1746599,20.975822 17.0752409,17.0752409 C20.975822,13.1746599 20.975822,6.82669365 17.0752409,2.92611257 L17.0752409,2.92611257 Z M3.66833631,16.3330172 C0.175978282,12.8406592 0.175978282,7.16069433 3.66833631,3.66833631 C7.15874111,0.175978282 12.8406592,0.175978282 16.3330172,3.66833631 C19.8253752,7.15874111 19.8253752,12.8426124 16.3330172,16.3330172 C12.8406592,19.8253752 7.15874111,19.823422 3.66833631,16.3330172 Z" id="Shape"></path>
                </g>
            </g>
        </g>
    </g>
</svg>