<svg width="16" height="16" viewBox="0 0 16 16" xmlns="http://www.w3.org/2000/svg"><title>Shape</title><path d="M7.997.01C3.58.01.002 3.587.002 7.998c0 4.41 3.58 7.985 7.995 7.985s7.995-3.575 7.995-7.985S12.412.01 7.997.01zm3.528 10.452c.292.293.292.766 0 1.06-.147.145-.34.218-.53.218-.192 0-.384-.073-.53-.22L7.997 9.056l-2.47 2.466c-.145.147-.337.22-.528.22-.193 0-.385-.073-.53-.22-.294-.292-.294-.765 0-1.058l2.467-2.465L4.47 5.53c-.294-.29-.294-.765 0-1.058.29-.292.766-.292 1.058 0l2.47 2.466 2.467-2.466c.293-.292.767-.292 1.06 0 .292.293.292.767 0 1.06l-2.47 2.465 2.47 2.465z" fill="#909090" fill-rule="evenodd"/></svg>