<?xml version="1.0" encoding="UTF-8" standalone="no"?>
<svg width="13px" height="14px" viewBox="0 0 13 14" version="1.1" xmlns="http://www.w3.org/2000/svg" xmlns:xlink="http://www.w3.org/1999/xlink">
    <!-- Generator: Sketch 39.1 (31720) - http://www.bohemiancoding.com/sketch -->
    <title>Shape</title>
    <desc>Created with Sketch.</desc>
    <defs></defs>
    <g id="Symbols" stroke="none" stroke-width="1" fill="none" fill-rule="evenodd">
        <g id="正在直播-顶部" transform="translate(-303.000000, -18.000000)" fill="#2196F3">
            <g id="弹幕开启" transform="translate(303.000000, 18.000000)">
                <path d="M1.86133335,5.1596444 L4.35685923,5.1596444 L4.35685923,1.4163556 L0.812681467,1.4163556 L0.812681467,2.2526222 L3.42767411,2.2526222 L3.42767411,4.3233778 L1.01179263,4.3233778 L0.666666667,8.14631112 L3.56041483,8.14631112 C3.56041483,9.7392 3.49404447,10.801126 3.36130371,11.3055407 C3.24183703,11.7834074 2.79051851,12.0356148 2.00734815,12.0356148 C1.67549631,12.0356148 1.35691851,12.0090667 1.03834071,11.9825185 L1.27727411,12.8718815 C1.59585187,12.8984296 1.91442963,12.9249778 2.21973335,12.9249778 C3.40112595,12.8718815 4.07810371,12.4736593 4.25066667,11.703763 C4.38340739,11.0135111 4.46305187,9.54008888 4.46305187,7.3100444 L1.63567411,7.3100444 L1.86133335,5.1596444 L1.86133335,5.1596444 Z M5.49842963,3.0092444 L5.49842963,8.33214816 L8.27271107,8.33214816 L8.27271107,9.61973332 L4.91437035,9.61973332 L4.91437035,10.5090963 L8.27271107,10.5090963 L8.27271107,13.0577185 L9.20189631,13.0577185 L9.20189631,10.5090963 L12.6133333,10.5090963 L12.6133333,9.61973332 L9.20189631,9.61973332 L9.20189631,8.33214816 L12.0292741,8.33214816 L12.0292741,3.0092444 L10.3036445,3.0092444 C10.6753185,2.45173332 11.0071703,1.80130368 11.2992,1.08450368 L10.3832889,0.76592596 C10.0912592,1.54909632 9.75940739,2.2924444 9.36118519,3.0092444 L5.49842963,3.0092444 L5.49842963,3.0092444 Z M11.1664592,7.52242964 L9.20189631,7.52242964 L9.20189631,6.08882964 L11.1664592,6.08882964 L11.1664592,7.52242964 L11.1664592,7.52242964 Z M8.27271107,7.52242964 L6.34797035,7.52242964 L6.34797035,6.08882964 L8.27271107,6.08882964 L8.27271107,7.52242964 L8.27271107,7.52242964 Z M6.34797035,5.2923852 L6.34797035,3.81896296 L8.27271107,3.81896296 L8.27271107,5.2923852 L6.34797035,5.2923852 L6.34797035,5.2923852 Z M9.20189631,3.81896296 L11.1664592,3.81896296 L11.1664592,5.2923852 L9.20189631,5.2923852 L9.20189631,3.81896296 L9.20189631,3.81896296 Z M7.06477035,0.84557036 L6.18868147,1.12432596 C6.58690371,1.65528888 6.95857779,2.2526222 7.27715555,2.94287404 L8.10014815,2.58447404 C7.80811851,1.97386668 7.46299263,1.38980744 7.06477035,0.84557036 L7.06477035,0.84557036 Z" id="Shape"></path>
            </g>
        </g>
    </g>
</svg>