<?xml version="1.0" encoding="UTF-8" standalone="no"?>
<svg width="26px" height="26px" viewBox="0 0 26 26" version="1.1" xmlns="http://www.w3.org/2000/svg" xmlns:xlink="http://www.w3.org/1999/xlink">
    <!-- Generator: Sketch 39.1 (31720) - http://www.bohemiancoding.com/sketch -->
    <title>评论 (1)</title>
    <desc>Created with Sketch.</desc>
    <defs></defs>
    <g id="Page-1" stroke="none" stroke-width="1" fill="none" fill-rule="evenodd">
        <g id="评论-(1)" fill="#2196F3">
            <path d="M12.8234925,25.8468058 C12.0154349,25.8452626 11.2109483,25.7768489 10.4166645,25.6251043 C8.73576195,25.3046403 7.12678877,24.6328489 5.71013733,23.6668273 C3.93230871,22.4544137 2.46872466,20.787795 1.49130152,18.8614101 C0.626618705,17.1562122 0.150660552,15.2617194 0.102707635,13.3476799 C0.0583256998,11.5792122 0.375631135,9.80714388 1.03982994,8.16881655 C2.00807062,5.7799964 3.7001962,3.71266906 5.83767166,2.29398561 C6.95844344,1.54966547 8.19654676,0.985381295 9.4922956,0.631482014 C10.8395683,0.263694245 12.246017,0.124294964 13.638692,0.212769784 C14.9584173,0.297129496 16.2643689,0.589302158 17.4948201,1.07745683 C18.8813735,1.62733813 20.1704905,2.42309712 21.286671,3.41843885 C22.4349901,4.44155755 23.3991499,5.6730036 24.1143624,7.0402482 C24.870896,8.48722302 25.3422629,10.0818273 25.4932635,11.7108957 C25.5452976,12.2736367 25.5626424,12.842036 25.5345848,13.4068345 C25.4851013,14.4042338 25.3065534,15.3954604 25.0586265,16.361482 C24.6627599,17.9041331 24.0725312,19.3907158 23.3292611,20.7960252 L23.3190582,20.8145432 C23.32569,21.4616439 23.3318117,22.1082302 23.333342,22.7553309 C23.3318117,23.5572626 23.3292611,24.3586799 23.3328319,25.1600971 C23.3292611,25.2192518 23.3307914,25.2346835 23.3159973,25.292295 C23.2767168,25.444554 23.1675474,25.5726367 23.024709,25.6348777 C22.961452,25.6621403 22.8997254,25.6708849 22.8318771,25.6765432 C20.4974886,25.7197518 18.1631001,25.7711906 15.8282014,25.8113129 C14.8268018,25.827259 13.8254022,25.8406331 12.8234925,25.8468058 L12.8234925,25.8468058 L12.8234925,25.8468058 Z M12.8214519,24.8180288 C15.7899411,24.8000252 18.7584303,24.726982 21.7264094,24.6683417 L22.3100066,24.6575396 C22.3074559,24.0232986 22.3135776,23.3895719 22.3130674,22.7558453 C22.3125572,22.0675935 22.3049053,21.3798561 22.2977632,20.6921187 L22.3008241,20.6267914 C22.3125572,20.5624928 22.3125572,20.5630072 22.3319424,20.5002518 C22.3829562,20.3901727 22.4436625,20.284723 22.5002878,20.1772158 C22.5686463,20.0470755 22.6344538,19.9153921 22.7002617,19.7837086 C23.2772269,18.6067878 23.7445129,17.3758561 24.0710006,16.1037734 C24.3015827,15.2056511 24.4694179,14.2833525 24.5158405,13.3553957 C24.5438981,12.7900827 24.521962,12.2206547 24.4622761,11.6579137 C24.3102551,10.2145396 23.8832701,8.80408633 23.2119293,7.52017266 C22.5538522,6.26249281 21.6672335,5.13032374 20.610739,4.18899281 C19.5833224,3.27338129 18.3977632,2.54089209 17.1213996,2.03473381 C15.9894048,1.58618705 14.7885415,1.31716187 13.5744147,1.23948921 C12.2929496,1.15770144 10.9987312,1.28629856 9.75909744,1.62476619 C8.56741663,1.9503741 7.4293002,2.4688777 6.39831263,3.15301439 C4.51182474,4.40555036 3.00181819,6.20745324 2.09530412,8.29381295 C1.44998038,9.77936691 1.11890124,11.3955755 1.11890124,13.0169281 C1.11890124,14.7843669 1.51323741,16.5435755 2.27334205,18.1361223 C3.10996731,19.8881295 4.37816874,21.4225504 5.93561806,22.5696367 C7.20126879,23.5011942 8.65158929,24.1719568 10.1794506,24.5243129 C10.8992544,24.6904604 11.6307914,24.7809928 12.36845,24.8113417 C12.5194506,24.8154568 12.6704513,24.8180288 12.8214519,24.8180288 L12.8214519,24.8180288 L12.8214519,24.8180288 Z M6.96048397,15.1521547 C6.65797254,15.1490683 6.36107258,15.0883705 6.08457814,14.9623453 C5.85093525,14.8558669 5.63667758,14.7061799 5.45506867,14.5235719 C5.27396991,14.3404496 5.12551994,14.1249209 5.0199215,13.8888165 C4.92554612,13.678946 4.86586003,13.4541583 4.84239372,13.224741 C4.82045783,13.0076691 4.8311707,12.7875108 4.87504252,12.5735252 C5.00716807,11.9233381 5.44435579,11.3600827 6.03713537,11.0715108 C6.29118377,10.9475432 6.56920863,10.8765576 6.85131459,10.8616403 C7.13648137,10.8472374 7.42368869,10.890446 7.69202094,10.989723 C7.93382602,11.0787122 8.1587966,11.2129676 8.35315891,11.3827158 C8.53374756,11.5401187 8.68780903,11.7283849 8.80667102,11.9367122 C8.91073905,12.1193201 8.98776978,12.3168453 9.03470244,12.5220863 C9.08316547,12.7340144 9.09948985,12.9531439 9.08316547,13.1702158 C9.03164161,13.8543525 8.64546763,14.4844784 8.06442118,14.8409496 C7.79353825,15.0070971 7.49204708,15.1048309 7.17780248,15.1413525 C7.10536299,15.1480396 7.03343361,15.1516403 6.96048397,15.1521547 L6.96048397,15.1521547 L6.96048397,15.1521547 Z M6.96048397,14.1233777 C7.11811643,14.1218345 7.2721779,14.0904568 7.41654676,14.0246151 C7.53795943,13.9695755 7.64967954,13.8913885 7.74405495,13.7962266 C7.83843034,13.7005504 7.91597122,13.5884137 7.97106607,13.4654748 C8.01595815,13.3646547 8.04605624,13.2576619 8.05982994,13.1480971 C8.12002618,12.6748597 7.86597778,12.205223 7.44001307,11.9979245 C7.30839764,11.9336259 7.16402878,11.8971043 7.01761935,11.8893885 C6.86916939,11.8816727 6.71918901,11.9043058 6.57941139,11.9557446 C6.45340747,12.0020396 6.33658601,12.0725108 6.23506867,12.1609856 C6.14069325,12.2432878 6.06060172,12.341536 5.99836495,12.4500719 C5.94429037,12.5447194 5.90449968,12.6470827 5.88052322,12.7530468 C5.77390452,13.2201115 5.98102026,13.7128957 6.38657946,13.9618597 C6.52737738,14.048277 6.68347941,14.0986871 6.84672334,14.1177194 C6.88498365,14.1213201 6.92222366,14.1228633 6.96048397,14.1233777 L6.96048397,14.1233777 L6.96048397,14.1233777 Z M12.8229823,15.1634712 C12.5026161,15.1593561 12.1893918,15.0924856 11.9001439,14.9515432 C11.3068542,14.6634856 10.8691563,14.0997158 10.7370307,13.4490144 C10.6936691,13.2355432 10.6829562,13.0153849 10.7048921,12.7983129 C10.7263179,12.5863849 10.7793721,12.3780576 10.8615042,12.1820755 C10.9614912,11.9433993 11.1048398,11.723241 11.2823675,11.5360036 C11.4588751,11.3492806 11.6690517,11.1944496 11.9001439,11.0823129 C12.1541923,10.9588597 12.4322171,10.8873597 12.7143231,10.8729568 C12.9989797,10.858554 13.2861871,10.9017626 13.5545193,11.0005252 C13.7963244,11.0900288 14.021295,11.2242842 14.2161674,11.3940324 C14.4095095,11.5632662 14.5722433,11.766964 14.6941661,11.9938094 C14.794153,12.1784748 14.8665925,12.3785719 14.9084238,12.5848417 C14.9482145,12.7808237 14.9604578,12.982464 14.9456638,13.1820468 C14.8936298,13.8661835 14.5084761,14.495795 13.9269195,14.8522662 C13.6560366,15.0184137 13.3545454,15.1161475 13.0403008,15.1526691 C12.9678614,15.1588417 12.8954219,15.1624424 12.8229823,15.1634712 L12.8229823,15.1634712 L12.8229823,15.1634712 Z M12.8229823,14.1346942 C12.9892871,14.1326367 13.1525311,14.0976583 13.3030216,14.0246151 C13.7203139,13.821946 13.9723218,13.3667122 13.9253891,12.9022194 C13.9146763,12.7921403 13.8871289,12.6841187 13.8442773,12.5817554 C13.7922433,12.4577878 13.7172531,12.3435935 13.6254284,12.2463741 C13.5330935,12.1486403 13.423414,12.0678813 13.3030216,12.009241 C13.170896,11.9454568 13.0270373,11.9079065 12.8806279,11.900705 C12.7316677,11.8929892 12.5816874,11.9156223 12.4419098,11.9670612 C12.3159058,12.0133561 12.1990844,12.0833129 12.097567,12.1717878 C11.99707,12.2602626 11.9118771,12.366741 11.8475997,12.4850504 C11.7960759,12.5807266 11.7583257,12.6846331 11.7368999,12.7916259 C11.6435448,13.2509748 11.852191,13.7298705 12.2490778,13.9731763 C12.3898757,14.0595935 12.5459778,14.1100036 12.7092217,14.129036 C12.7469719,14.1326367 12.784722,14.1341799 12.8229823,14.1346942 L12.8229823,14.1346942 L12.8229823,14.1346942 Z M18.7007848,15.1634712 C18.3804186,15.1593561 18.0671942,15.0919712 17.7779464,14.9515432 C17.2014912,14.6717158 16.769915,14.1300647 16.6260562,13.5009676 C16.5735121,13.271036 16.5592283,13.0323597 16.5826946,12.7977986 C16.6061609,12.5688957 16.665847,12.3435935 16.7602224,12.133723 C16.8586789,11.9135647 16.9948855,11.7103813 17.1601701,11.5360036 C17.3371877,11.3487662 17.5468542,11.1944496 17.7779464,11.0823129 C18.0319948,10.9588597 18.3100196,10.8873597 18.5921256,10.8729568 C18.8772924,10.858554 19.1644997,10.9017626 19.4323218,11.0010396 C19.6741269,11.0900288 19.8990974,11.2242842 20.0939699,11.3940324 C20.287312,11.5632662 20.4500458,11.766964 20.5724787,11.9938094 C20.6719555,12.1784748 20.744395,12.3785719 20.7862263,12.5848417 C20.826017,12.7808237 20.8382603,12.9819496 20.8234663,13.1815324 C20.7719424,13.8656691 20.3862786,14.4952806 19.8052322,14.8522662 C19.5343492,15.0184137 19.2323479,15.1161475 18.9181033,15.1526691 C18.8456638,15.1588417 18.7737345,15.1624424 18.7007848,15.1634712 L18.7007848,15.1634712 L18.7007848,15.1634712 Z M18.7007848,14.1346942 C18.8675997,14.1326367 19.0303335,14.0976583 19.1808241,14.0246151 C19.6067888,13.8178309 19.860327,13.3471655 19.8001308,12.8744424 C19.7863571,12.7653921 19.7567691,12.6578849 19.7113669,12.5575791 C19.6603532,12.4433849 19.5894441,12.3374209 19.5032309,12.2463741 C19.410896,12.1491547 19.3017266,12.0678813 19.1808241,12.009241 C19.0492086,11.9454568 18.9048398,11.9079065 18.7584303,11.900705 C18.6094702,11.8929892 18.46,11.9151079 18.3197122,11.9670612 C18.1937083,12.0133561 18.0768869,12.0833129 17.9758797,12.1717878 C17.8748725,12.2602626 17.7896795,12.366741 17.7259124,12.4850504 C17.6738783,12.5807266 17.6366383,12.6841187 17.6147024,12.7911115 C17.5218574,13.2509748 17.7294833,13.7293561 18.1268803,13.9731763 C18.2676782,14.0595935 18.4237803,14.1100036 18.5870242,14.129036 C18.6252845,14.1326367 18.6625245,14.1341799 18.7007848,14.1346942 L18.7007848,14.1346942 L18.7007848,14.1346942 Z" id="Shape"></path>
        </g>
    </g>
</svg>