<?xml version="1.0" encoding="UTF-8" standalone="no"?>


<svg width="22px" height="22px" viewBox="0 1 22 22" version="1.1" xmlns="http://www.w3.org/2000/svg" xmlns:xlink="http://www.w3.org/1999/xlink">
  <!-- Generator: Sketch 39.1 (31720) - http://www.bohemiancoding.com/sketch -->
  <desc>Created with Sketch.</desc>
  <defs></defs>
  <g id="编辑" stroke="none" stroke-width="1" fill="none" fill-rule="evenodd" transform="translate(0.000000, 1.000000)">
    <path d="M21.4283934,20.4512899 L0.570033206,20.4512899 C0.259616858,20.4512899 0.00809195402,20.7028148 0.00809195402,21.0132312 C0.00809195402,21.3236475 0.259616858,21.5751724 0.570033206,21.5751724 L21.4283934,21.5751724 C21.7388097,21.5751724 21.9903346,21.3236475 21.9903346,21.0132312 C21.9903346,20.7028148 21.7388097,20.4512899 21.4283934,20.4512899 L21.4283934,20.4512899 Z" id="Shape" fill="#4B4B4B"></path>
    <path d="M1.39338953,18.8295275 C1.44486335,18.8295275 1.49678672,18.8225594 1.54781098,18.8079489 L5.00577267,17.820281 C5.09770626,17.7939821 5.18132312,17.7447561 5.24875607,17.6770983 L16.1171494,6.80892976 C16.3367561,6.58954789 16.3367561,6.23372669 16.1171494,6.01434483 C15.8975428,5.79473819 15.5419464,5.79473819 15.3225645,6.01434483 L5.92173691,15.4147229 L4.09610217,13.5888633 C4.03136654,13.5241277 3.9542682,13.4809706 3.87267433,13.4542222 L13.070304,4.25659259 C13.2899106,4.03721073 13.2899106,3.68138953 13.070304,3.46200766 C12.8506973,3.24240102 12.4951009,3.24240102 12.275719,3.46200766 L1.49004342,14.2476833 C1.40305492,14.334447 1.34708557,14.4475096 1.33067688,14.5691137 L0.836618135,18.1916117 C0.810993614,18.3797497 0.882022989,18.5678876 1.0254304,18.6924138 C1.12882759,18.7818748 1.25987229,18.8295275 1.39338953,18.8295275 L1.39338953,18.8295275 Z M2.41859515,14.9083014 L3.16687612,14.1602452 C3.19339974,14.2416143 3.23678161,14.3187126 3.30129246,14.3834483 L5.12715198,16.2095326 L4.55711877,16.7795658 L2.06659515,17.4907586 L2.41859515,14.9083014 L2.41859515,14.9083014 Z" id="Shape" fill="#4B4B4B"></path>
    <path d="M16.4028404,5.65807407 C16.5107331,5.75787484 16.647622,5.80732567 16.7838365,5.80732567 C16.9351111,5.80732567 17.0859361,5.74663602 17.196751,5.62683014 L19.179954,3.48111367 C19.2811034,3.37164751 19.3346003,3.22644189 19.3287561,3.07763985 C19.3229119,2.9288378 19.2581762,2.78812771 19.1484853,2.68697829 L16.4244189,0.170380587 C16.1964955,-0.0402349936 15.8406743,-0.0260740741 15.6305083,0.201849298 L13.6479796,2.34756577 C13.4371392,2.57548914 13.4513001,2.93108557 13.6794483,3.14170115 L16.4028404,5.65807407 L16.4028404,5.65807407 Z M16.0746667,1.37720562 L17.973129,3.13091188 L16.7525926,4.45124904 L14.8548046,2.69731801 L16.0746667,1.37720562 L16.0746667,1.37720562 Z" id="Shape" fill="#4B4B4B"></path>
  </g>
</svg>
