<?xml version="1.0" encoding="UTF-8" standalone="no"?>
<svg width="18px" height="13px" viewBox="0 0 18 13" version="1.1" xmlns="http://www.w3.org/2000/svg" xmlns:xlink="http://www.w3.org/1999/xlink">
    <!-- Generator: Sketch 39.1 (31720) - http://www.bohemiancoding.com/sketch -->
    <title>Combined Shape</title>
    <desc>Created with Sketch.</desc>
    <defs></defs>
    <g id="Page-1" stroke="none" stroke-width="1" fill="none" fill-rule="evenodd">
        <g id="Group-3" fill="#9EA1A5">
            <g transform="translate(0.000000, 0.350812)">
                <path d="M16.8216527,0.869741296 C17.0834202,1.09048219 17.25,1.42073893 17.25,1.7893125 L17.25,10.2350625 C17.25,10.6116794 17.0758736,10.9484856 16.8039187,11.1691832 L10.1442034,6.02666918 L16.8216527,0.869741296 Z M16.2468694,0.60323003 C16.1819656,0.592350597 16.1153181,0.5866875 16.047375,0.5866875 L1.765125,0.5866875 C1.69727363,0.5866875 1.63072081,0.59232893 1.56591073,0.603167591 L8.90625,6.2722125 L16.2468694,0.60323003 Z M0.99094477,0.869528973 C0.729070775,1.09027038 0.5625,1.42062074 0.5625,1.7893125 L0.5625,10.2350625 C0.5625,10.6117975 0.736614568,10.9486969 1.0086803,11.1693908 L7.6681758,6.02653629 L0.99094477,0.869528973 Z M8.12834498,6.38193748 L1.5968318,11.4259565 C1.65183317,11.4336887 1.70801918,11.4376875 1.765125,11.4376875 L16.047375,11.4376875 C16.1045728,11.4376875 16.1608523,11.4336712 16.2159464,11.4259059 L9.68401737,6.38206629 L9.078,6.8500875 C9.027375,6.8890875 8.967,6.9085875 8.90625,6.9085875 C8.8455,6.9085875 8.785125,6.8890875 8.7345,6.8500875 L8.12834498,6.38193748 Z M16.047375,12.0001875 L1.765125,12.0001875 C0.791625,12.0001875 0,11.2081875 0,10.2350625 L0,1.7893125 C0,0.8158125 0.791625,0.0241875 1.765125,0.0241875 L16.047375,0.0241875 C17.020875,0.0241875 17.8125,0.8158125 17.8125,1.7893125 L17.8125,10.2350625 C17.8125,11.2081875 17.020875,12.0001875 16.047375,12.0001875 Z" id="Combined-Shape"></path>
            </g>
        </g>
    </g>
</svg>