<svg width="15" height="20" viewBox="0 0 15 20" xmlns="http://www.w3.org/2000/svg"><title>Shape</title><path d="M13.396 0H1.612C.73 0 .01.728.01 1.617c0 0-.02 17.825 0 17.825.04.283.28.485.58.485.2 0 .48-.243.48-.243l6.434-5.497 6.614 5.68c.2.18.52.18.72-.02.08-.082.142-.203.142-.325L15 1.617C15.02.727 14.298 0 13.396 0zm.54 18.31s-6.03-5.194-6.07-5.234c-.2-.203-.542-.203-.763 0L1.07 18.25V2.16c0-.606.482-1.09 1.083-1.09h10.722c.6 0 1.082.484 1.082 1.09l-.02 16.148z" fill="#4B4B4B" fill-rule="evenodd"/></svg>