<?xml version="1.0" encoding="UTF-8" standalone="no"?>
<svg width="26px" height="26px" viewBox="0 0 26 26" version="1.1" xmlns="http://www.w3.org/2000/svg" xmlns:xlink="http://www.w3.org/1999/xlink">
    <!-- Generator: Sketch 39.1 (31720) - http://www.bohemiancoding.com/sketch -->
    <title>-Setting</title>
    <desc>Created with Sketch.</desc>
    <defs></defs>
    <g id="Page-1" stroke="none" stroke-width="1" fill="none" fill-rule="evenodd">
        <g id="-Setting" fill="#4B4B4B">
            <path d="M13.0000764,8.33766211 L12.9999847,8.33766211 L12.999893,8.33766211 C10.4286196,8.33766211 8.33766214,10.4286196 8.33766214,12.9999236 C8.33766214,15.5712275 10.4286197,17.662185 12.999893,17.662185 L12.9999847,17.662185 L13.0000764,17.662185 C15.5713498,17.662185 17.6623073,15.5712275 17.6623073,12.9999236 C17.6623073,10.4286196 15.5713498,8.33766211 13.0000764,8.33766211 L13.0000764,8.33766211 Z M13.0000764,16.667804 L13.0000764,16.667804 L13.0000764,16.667804 L12.9999847,16.667804 L12.999893,16.667804 L12.999893,16.667804 C12.999893,16.667804 12.999893,16.667804 12.9998624,16.667804 C10.9743247,16.667804 9.33198198,15.0260115 9.33198198,12.9999235 C9.33198198,10.9738356 10.9743247,9.33204307 12.9998624,9.33204307 L12.999893,9.33204307 L12.999893,9.33204307 L12.9999847,9.33204307 L13.0000764,9.33204307 L13.0000764,9.33204307 L13.000107,9.33204307 C15.0256447,9.33204307 16.6679875,10.9738356 16.6679875,12.9999235 C16.6679875,15.0260115 15.0256447,16.667804 13.0000764,16.667804 L13.0000764,16.667804 Z M26,15.4470522 L26,10.5834872 L22.2302297,9.77610295 C22.1260166,9.4248842 21.982521,9.07397115 21.8138052,8.74898148 L23.9016445,5.6066605 L20.3754255,2.09367824 L17.2637968,4.19897308 C16.9259983,4.03013496 16.588322,3.87395281 16.223897,3.7697397 L15.5082227,0 L13.0000764,0 L12.9999236,0 L10.4917773,0 L9.77610298,3.7697397 C9.411678,3.87395284 9.07397118,4.03013496 8.73620324,4.19897308 L5.62457453,2.09367824 L2.0983249,5.6066605 L4.18616426,8.74898148 C4.01744842,9.07400174 3.87395284,9.42491476 3.7697397,9.77610295 L0,10.5834872 L0,15.4470522 L3.76977026,16.2237136 C3.8866088,16.5875883 4.03013496,16.9520133 4.2117819,17.2897201 L2.09383108,20.5235983 L5.55894072,23.9275373 L8.77493541,21.8269197 C9.09992508,21.9831018 9.42491476,22.1258943 9.77613351,22.2299546 L10.522225,25.9998471 L12.9999541,25.9998471 L13.000107,25.9998471 L15.4778362,25.9998471 L16.2239276,22.2299546 C16.5751464,22.1258943 16.900136,21.9831018 17.2251257,21.8269197 L20.4411204,23.9275373 L23.90623,20.5235983 L21.7882792,17.2897201 C21.9699262,16.9520439 22.1134523,16.5875883 22.2302909,16.2237136 L26,15.4470522 L26,15.4470522 Z M20.9484296,18.1895787 L22.5605386,20.4354344 L20.3833737,22.6127521 L18.1231501,20.990127 C17.8914906,20.8244682 17.6194482,20.7390251 17.3441042,20.7390251 C17.1476308,20.7390251 16.9499346,20.7835044 16.766484,20.8702621 C16.5060887,20.9953851 16.2253644,21.1227092 15.9349188,21.2081829 C15.4448206,21.3537572 15.0800287,21.7668191 14.9951664,22.2719884 L14.5396428,25.0294942 L13.0000764,25.0294942 L12.9999235,25.0294942 L11.4603877,25.0294942 L11.0048641,22.2719884 C10.9200018,21.7668191 10.5551794,21.3537572 10.0651117,21.2081829 C9.77466614,21.1227092 9.49391125,20.9953851 9.23354655,20.8702621 C9.05009599,20.7835044 8.85239976,20.7390251 8.65592636,20.7390251 C8.3805518,20.7390251 8.10853992,20.8244988 7.87688046,20.990127 L5.61665685,22.6127521 L3.43949194,20.4354344 L5.05160094,18.1895787 C5.34788541,17.7759666 5.38438597,17.2264708 5.1409265,16.7773669 C5.00968947,16.5325623 4.89223953,16.2480779 4.7825238,15.9054188 C4.62872614,15.4283739 4.22272594,15.0786225 3.72782819,14.9959001 L0.970658635,14.5394594 L0.970658665,11.4603572 L3.72782822,11.0040999 C4.23305865,10.9200018 4.64636504,10.5550266 4.79181711,10.0649589 C4.87337787,9.79092938 4.98691485,9.50751489 5.12325707,9.24519373 C5.35565022,8.79896341 5.31707086,8.25918891 5.0241797,7.84991772 L3.41341577,5.60555995 L5.59119207,3.43677122 L7.83943224,5.03915897 C8.07063317,5.20347273 8.34209477,5.28775422 8.61624655,5.28775422 C8.82051529,5.28775422 9.02478404,5.24058472 9.21333982,5.14600112 C9.4849237,5.01103456 9.77344338,4.87453951 10.0527003,4.79569947 C10.5487598,4.65263187 10.9186873,4.23825548 11.005017,3.72782819 L11.4603878,0.970322376 L12.9999236,0.970322376 L13.0000764,0.970322376 L14.5396122,0.970322376 L14.994983,3.72782819 C15.0813432,4.23825551 15.4512402,4.6526013 15.9472997,4.79569947 C16.2265261,4.87453951 16.5150763,5.01103456 16.7866602,5.14600112 C16.975216,5.24058469 17.1794847,5.28775422 17.3837535,5.28775422 C17.6579358,5.28775422 17.9293974,5.20347273 18.1605678,5.03915897 L20.4088079,3.43677122 L22.5865842,5.60555995 L20.9758203,7.84991772 C20.6829597,8.25921947 20.6443803,8.79899397 20.8767429,9.24519373 C21.0130852,9.50754548 21.1266221,9.79092938 21.2081829,10.0649589 C21.353635,10.5550571 21.7669719,10.9200018 22.2721718,11.0040999 L25.0293413,11.4603572 L25.0293413,14.5394288 L22.2721717,14.9958695 C21.7773046,15.0786225 21.3713044,15.4283433 21.2174761,15.9053882 C21.1077604,16.2480473 20.9903105,16.5325318 20.8590734,16.7773363 C20.6156445,17.2264708 20.6521451,17.7759666 20.9484296,18.1895787 L20.9484296,18.1895787 Z" id="Shape"></path>
        </g>
    </g>
</svg>