<?xml version="1.0" encoding="UTF-8" standalone="no"?>
<svg width="25px" height="22px" viewBox="0 0 25 22" version="1.1" xmlns="http://www.w3.org/2000/svg" xmlns:xlink="http://www.w3.org/1999/xlink">
    <!-- Generator: Sketch 39.1 (31720) - http://www.bohemiancoding.com/sketch -->
    <title>SVGID_39_-link</title>
    <desc>Created with Sketch.</desc>
    <defs></defs>
    <g id="Page-1" stroke="none" stroke-width="1" fill="none" fill-rule="evenodd">
        <g id="SVGID_39_-link" fill="#4B4B4B">
            <path d="M17.6,0 C15.5,0 13.6,1 12.3,2.6 C11.1,1 9.1,0 7,0 C3.3,0 0.4,3 0.4,6.6 C0.4,8.3 1.1,10 2.3,11.2 L11.7,20.6 L12.4,21.3 L13.1,20.6 L22.3,11.4 C23.6,10.1 24.3,8.4 24.3,6.6 C24.2,3 21.3,0 17.6,0 L17.6,0 Z M17.5,1 C20.6,1 23.1,3.5 23.1,6.7 C23.1,8.3 22.4,9.7 21.4,10.8 L12.3,20 L3,10.7 C2,9.7 1.4,8.3 1.4,6.8 C1.4,3.7 3.9,1.1 7.1,1.1 C9.4,1.1 11.5,2.5 12.3,4.6 C13.1,2.4 15.1,1 17.5,1 L17.5,1 Z" id="SVGID_39_"></path>
        </g>
    </g>
</svg>