<?xml version="1.0" encoding="UTF-8" standalone="no"?>
<svg width="18px" height="20px" viewBox="0 0 18 20" version="1.1" xmlns="http://www.w3.org/2000/svg"
     xmlns:xlink="http://www.w3.org/1999/xlink">
  <!-- Generator: Sketch 39.1 (31720) - http://www.bohemiancoding.com/sketch -->
  <title>Artboard</title>
  <desc>Created with Sketch.</desc>
  <defs></defs>
  <g id="-" stroke="none" stroke-width="1" fill="none" fill-rule="evenodd">
    <g id="Artboard" fill="#4B4B4B">
      <g id="Page-1" transform="translate(1.000000, 0.000000)">
        <g id="Group-3" transform="translate(2.857143, 0.231429)">
          <path
            d="M4.6472381,1.78180952 C6.30057143,1.78180952 7.65295238,3.12561905 7.65295238,4.78752381 C7.65295238,6.44942857 6.30914286,7.7932381 4.6472381,7.7932381 C2.98533333,7.7932381 1.64152381,6.44942857 1.64152381,4.78752381 C1.64152381,3.12561905 2.99390476,1.78180952 4.6472381,1.78180952 M4.6472381,8.85419048 C6.88438095,8.85419048 8.71390476,7.0332381 8.71390476,4.78752381 C8.71390476,2.54180952 6.89295238,0.720857143 4.6472381,0.720857143 C2.40152381,0.720857143 0.580571429,2.54180952 0.580571429,4.78752381 C0.580571429,7.0332381 2.41009524,8.85419048 4.6472381,8.85419048"
            id="Fill-1"></path>
        </g>
        <g id="Group-6" transform="translate(11.428571, 12.612381)">
          <path
            d="M5.27219048,2.62628571 L3.43504762,2.62628571 L3.43504762,0.789142857 C3.43504762,0.523428571 3.21790476,0.306285714 2.95219048,0.306285714 C2.68647619,0.306285714 2.46838095,0.523428571 2.46838095,0.789142857 L2.46838095,2.62628571 L0.632190476,2.62628571 C0.36647619,2.62628571 0.148380952,2.84342857 0.148380952,3.11009524 C0.148380952,3.37580952 0.36647619,3.59295238 0.632190476,3.59295238 L2.46838095,3.59295238 L2.46838095,5.43009524 C2.46838095,5.69580952 2.68647619,5.91295238 2.95219048,5.91295238 C3.21790476,5.91295238 3.43504762,5.69580952 3.43504762,5.43009524 L3.43504762,3.59295238 L5.27219048,3.59295238 C5.53790476,3.59295238 5.756,3.37580952 5.756,3.11009524 C5.756,2.84342857 5.53790476,2.62628571 5.27219048,2.62628571"
            id="Fill-4"></path>
        </g>
        <path
          d="M12.398,18.2190476 C12.3941905,18.2190476 12.3913333,18.2209524 12.3875238,18.2209524 L12.3875238,18.2180952 L1.48561905,18.2180952 C1.24752381,18.2180952 1.10561905,18.1295238 1.06180952,18.0857143 L1.10561905,15.7161905 C1.10561905,13.232381 3.84561905,11.367619 7.48657143,11.3666667 C9.45895238,11.3666667 11.1618095,11.9180952 12.3132381,12.8142857 L12.3170476,12.8066667 C12.3894286,12.8457143 12.4675238,12.8742857 12.5551429,12.8742857 L12.5932381,12.8742857 C12.8713333,12.8742857 13.0999048,12.6466667 13.0999048,12.3685714 L13.0999048,12.3295238 C13.0999048,12.1352381 12.9846667,11.9704762 12.8227619,11.8857143 L12.8275238,11.8771429 C11.4999048,10.9009524 9.63609524,10.3104762 7.50752381,10.3066667 L7.50752381,10.3066667 C7.50085714,10.3066667 7.49514286,10.3057143 7.48847619,10.3057143 L7.48752381,10.3057143 L7.48561905,10.3057143 C7.478,10.3057143 7.47228571,10.3066667 7.46561905,10.3066667 L7.46561905,10.3066667 C3.23419048,10.3152381 0.0446666667,12.6361905 0.0446666667,15.707619 L0.000857142858,18.0942857 C-0.00866666667,18.36 0.098,18.6247619 0.300857143,18.8285714 C0.583714286,19.12 1.01704762,19.2790476 1.48561905,19.2790476 L12.3875238,19.2790476 L12.3875238,19.2771429 C12.3913333,19.2771429 12.3941905,19.2790476 12.398,19.2790476 C12.690381,19.2790476 12.9275238,19.0419048 12.9275238,18.7485714 C12.9275238,18.4561905 12.690381,18.2190476 12.398,18.2190476"
          id="Fill-7"></path>
      </g>
    </g>
  </g>
</svg>
