<?xml version="1.0" encoding="UTF-8" standalone="no"?>
<svg width="17px" height="28px" viewBox="0 0 17 28" version="1.1" xmlns="http://www.w3.org/2000/svg" xmlns:xlink="http://www.w3.org/1999/xlink">
    <!-- Generator: Sketch 39.1 (31720) - http://www.bohemiancoding.com/sketch -->
    <title>Group</title>
    <desc>Created with Sketch.</desc>
    <defs></defs>
    <g id="Page-1" stroke="none" stroke-width="1" fill="none" fill-rule="evenodd">
        <g id="Group">
            <path d="M8,0.0995 C5.4,0.2995 3.1,2.5005 2.9,5.1995 C2.799,7.0005 2.9,8.7995 2.9,10.6995 C2.9,12.2995 2.799,13.8995 2.799,15.5995 C2.799,19.1995 6,21.8995 9.6,21.1995 C12.2,20.7005 14.1,18.3005 14.1,15.4995 L14.1,5.8995 C14.1,5.5005 14.1,4.9995 14,4.5995 C13.458,2.0715 11.367,0.2755 8.829,0.0995 L8,0.0995 L8,0.0995 L8,0.0995 Z M8.577,19.5205 C6.662,19.5205 5.066,18.2635 4.6,16.3995 C4.5,15.9995 4.5,15.6995 4.5,15.3005 L4.5,10.6005 L4.5,5.8995 C4.5,3.8995 5.9,2.1995 7.8,1.8995 C9.6,1.6005 11.5,2.6005 12.1,4.4005 C12.3,4.8995 12.401,5.4005 12.401,5.8995 L12.401,15.4995 C12.401,17.4995 10.9,19.3005 9,19.4995 C8.865,19.5135 8.733,19.5205 8.601,19.5205 L8.577,19.5205 L8.577,19.5205 L8.577,19.5205 Z" id="path-1" fill="#4B4B44"></path>
            <path d="M15.4,15.4995 C15.299,19.4995 12.1,22.3005 8.7,22.4005 C7.1,22.4995 5.6,21.9995 4.3,20.8995 C2.6,19.4995 1.799,17.6995 1.701,15.4995 L0,15.4995 C0,17.2995 0.5,18.9005 1.5,20.3995 C3,22.5995 5.1,23.8005 7.7,24.1005 L7.7,27.9005 L9.4,27.9005 L9.4,24.1005 C14.901,23.4005 17.3,18.3995 17,15.4995 L15.4,15.4995 L15.4,15.4995 L15.4,15.4995 Z" id="path-3" fill="#4B4B4B"></path>
        </g>
    </g>
</svg>