<?xml version="1.0" encoding="UTF-8" standalone="no"?>
<svg width="20px" height="4px" viewBox="0 0 20 4" version="1.1" xmlns="http://www.w3.org/2000/svg" xmlns:xlink="http://www.w3.org/1999/xlink">
    <!-- Generator: Sketch 39.1 (31720) - http://www.bohemiancoding.com/sketch -->
    <title>Combined Shape</title>
    <desc>Created with Sketch.</desc>
    <defs></defs>
    <g id="---" stroke="none" stroke-width="1" fill="none" fill-rule="evenodd">
        <g id="邀请嘉宾_1" transform="translate(-121.000000, -436.000000)" fill="#4B4B4B">
            <g id="Group-3" transform="translate(43.000000, 427.000000)">
                <g id="Group-2" transform="translate(78.000000, 9.000000)">
                    <path d="M18,4 C19.1045695,4 20,3.1045695 20,2 C20,0.8954305 19.1045695,0 18,0 C16.8954305,0 16,0.8954305 16,2 C16,3.1045695 16.8954305,4 18,4 Z M10,4 C11.1045695,4 12,3.1045695 12,2 C12,0.8954305 11.1045695,0 10,0 C8.8954305,0 8,0.8954305 8,2 C8,3.1045695 8.8954305,4 10,4 Z M2,4 C3.1045695,4 4,3.1045695 4,2 C4,0.8954305 3.1045695,0 2,0 C0.8954305,0 0,0.8954305 0,2 C0,3.1045695 0.8954305,4 2,4 Z" id="Combined-Shape"></path>
                </g>
            </g>
        </g>
    </g>
</svg>