<?xml version="1.0" encoding="UTF-8"?>
<svg width="19px" height="19px" viewBox="0 0 19 19" version="1.1" xmlns="http://www.w3.org/2000/svg" xmlns:xlink="http://www.w3.org/1999/xlink">
    <!-- Generator: Sketch 47.1 (45422) - http://www.bohemiancoding.com/sketch -->
    <title>点赞</title>
    <desc>Created with Sketch.</desc>
    <defs></defs>
    <g id="Page-1" stroke="none" stroke-width="1" fill="none" fill-rule="evenodd">
        <g id="006-bd1297-视频详情页-1204" transform="translate(-55.000000, -907.000000)" fill="#CCCCCC">
            <g id="通用/底部工具栏" transform="translate(0.000000, 899.000000)">
                <g id="底部工具栏">
                    <g id="点赞" transform="translate(38.000000, 3.000000)">
                        <g id="点赞icon" transform="translate(14.000000, 0.000000)">
                            <path d="M6.20789531,22.5572221 L4.37245849,22.5623577 L4.37944191,13.8590325 L6.20789531,13.8565193 L6.20789531,22.5572221 Z M21.6488717,12.7677705 C21.2347773,12.0730429 20.5177774,11.639248 19.7817913,11.6164109 L15.217914,11.5935739 C15.5219106,10.6771411 15.675873,9.72148099 15.675873,8.75434773 C15.675873,8.2736767 15.6359366,7.78218813 15.5478802,7.25147225 L15.4629881,6.86761289 C15.2204237,5.769467 14.296322,5 13.2133477,5 C11.9397481,5 10.9035845,6.08099078 10.9035845,7.4116595 C10.9035845,7.48902142 10.9060942,7.56430724 10.9130776,7.62768282 C10.850336,9.98623795 8.1287698,12.4201882 7.20346785,12.4201882 L7.20215846,12.4201882 L3.81127595,12.4220457 C3.36859316,12.4220457 3.00818368,12.7995675 3.00818368,13.2612259 L3,23.1589623 C3,23.6282694 3.38943428,23.970279 3.87718189,23.9841561 L6.81654323,23.9784742 L6.92925985,24 L7.02811876,23.9854673 L18.2148885,23.9899473 C18.6082509,23.9614283 18.9875375,23.8341308 19.316958,23.6149387 C19.6735485,23.3761876 19.9610686,23.0399692 20.0915711,22.74418 L20.2282932,22.5066309 C20.9990872,20.5926882 21.9396653,14.730556 21.9776376,14.4829542 L21.9929138,14.245405 C22.0314317,13.7190598 21.9123864,13.2085586 21.6488717,12.7677705 L21.6488717,12.7677705 Z" id="点赞"></path>
                        </g>
                    </g>
                </g>
            </g>
        </g>
    </g>
</svg>