
<svg width="80px" height="80px" viewBox="80 194 80 80" version="1.1" xmlns="http://www.w3.org/2000/svg" xmlns:xlink="http://www.w3.org/1999/xlink">
  <!-- Generator: Sketch 40 (33762) - http://www.bohemiancoding.com/sketch -->
  <desc>Created with Sketch.</desc>
  <defs></defs>
  <g id="noun_28973" stroke="none" stroke-width="1" fill="none" fill-rule="evenodd" transform="translate(80.000000, 194.000000)">
    <path d="M75,0 L25,0 C22.2433333,0 20,2.24333333 20,5 L20,20 C20,20.9216667 20.745,21.6666667 21.6666667,21.6666667 C22.5883333,21.6666667 23.3333333,20.9216667 23.3333333,20 L23.3333333,5 C23.3333333,4.08166667 24.08,3.33333333 25,3.33333333 L75,3.33333333 C75.92,3.33333333 76.6666667,4.08166667 76.6666667,5 L76.6666667,31.6666667 C76.6666667,32.5866667 75.92,33.3333333 75,33.3333333 L45,33.3333333 C44.0783333,33.3333333 43.3333333,34.0783333 43.3333333,35 C43.3333333,35.9216667 44.0783333,36.6666667 45,36.6666667 L48.3333333,36.6666667 L48.3333333,38.3333333 L43.3333333,38.3333333 C42.4116667,38.3333333 41.6666667,39.0783333 41.6666667,40 C41.6666667,40.9216667 42.4116667,41.6666667 43.3333333,41.6666667 L56.6666667,41.6666667 C57.5883333,41.6666667 58.3333333,40.9216667 58.3333333,40 C58.3333333,39.0783333 57.5883333,38.3333333 56.6666667,38.3333333 L51.6666667,38.3333333 L51.6666667,36.6666667 L75,36.6666667 C77.7566667,36.6666667 80,34.4233333 80,31.6666667 L80,5 C80,2.24333333 77.7566667,0 75,0 Z" id="Shape" fill="#9EA1A5"></path>
    <path d="M1.66666667,76.6666667 C0.746666667,76.6666667 0,77.4116667 0,78.3333333 C0,79.255 0.746666667,80 1.66666667,80 L78.3333333,80 C79.255,80 80,79.255 80,78.3333333 C80,77.4116667 79.255,76.6666667 78.3333333,76.6666667 L60,76.6666667 L16.6666667,76.6666667 L1.66666667,76.6666667 Z" id="Shape" fill="#9EA1A5"></path>
    <path d="M75,56.6666667 L46.3183333,56.6666667 L45.9083333,54.9666667 L44.93,50.9233333 L43.945,46.8483333 L43.7416667,46.005 C43.5166667,45.0766667 43.6216667,44.595 42.4983333,43.2283333 C41.375,41.8616667 39.995,41.6666667 38.3583333,41.6666667 L34.9766667,41.6666667 L33.3583333,41.6666667 L29.9766667,41.6666667 C28.34,41.6666667 26.9583333,41.8616667 25.8366667,43.23 C25.8166667,43.2533333 25.805,43.2716667 25.7866667,43.295 L24.9916667,42.73 C24.595,42.4483333 24.155,42.26 23.7033333,42.1183333 C23.08,41.8366667 22.395,41.6666667 21.6666667,41.6666667 L11.6666667,41.6666667 C10.03,41.6666667 8.64833333,41.8616667 7.52666667,43.23 C6.405,44.5983333 6.50833333,45.0783333 6.28333333,46.0066667 L6.08,46.85 L5.095,50.925 L4.11666667,54.9666667 L3.65666667,56.8733333 C1.555,57.465 0,59.3783333 0,61.6666667 L0,70 C0,72.7566667 2.24333333,75 5,75 L15,75 C15,75.9216667 15.745,76.6666667 16.6666667,76.6666667 C17.5883333,76.6666667 18.3333333,75.9216667 18.3333333,75 L58.3333333,75 C58.3333333,75.9216667 59.0783333,76.6666667 60,76.6666667 C60.9216667,76.6666667 61.6666667,75.9216667 61.6666667,75 L75,75 C77.7566667,75 80,72.7566667 80,70 L80,61.6666667 C80,58.91 77.7566667,56.6666667 75,56.6666667 Z M41.3516667,50.3016667 L41.95,52.7783333 L42.89,56.6666667 L26.6666667,56.6666667 L26.6666667,55.155 L27.6066667,55.8216667 C28.9116667,56.75 30.6333333,56.9266667 32.1016667,56.2833333 C32.33,56.1816667 32.5516667,56.0616667 32.765,55.9216667 L41.2516667,50.3783333 C41.2883333,50.3566667 41.3166667,50.325 41.3516667,50.3016667 Z M8.075,52.7783333 L9.38833333,47.345 L9.765,45.8333333 C9.775,45.8 9.795,45.775 9.80333333,45.7433333 C9.91833333,45.4 10.1733333,45.1416667 10.4816667,45 L11.6666667,45 L18.0116667,45 L20,45 L21.6666667,45 C22.3433333,45 22.685,45.1783333 23.0566667,45.445 L24.4816667,46.455 L27.41,48.5316667 L30.29,50.575 L38.065,45.495 C38.125,45.4566667 38.1866667,45.4216667 38.2483333,45.3933333 C38.7966667,45.1533333 39.4566667,45.34 39.795,45.855 C40.1733333,46.435 40.01,47.21 39.4333333,47.585 L30.9433333,53.13 C30.8866667,53.1683333 30.8266667,53.2033333 30.7616667,53.23 C30.365,53.4033333 29.8983333,53.36 29.5383333,53.105 L26.7783333,51.1483333 L25.9416667,50.59 C25.6716667,50.4 25.3583333,50.2633333 25.0016667,50.2633333 C24.1733333,50.2633333 23.465,50.875 23.335,51.6666667 L23.335,56.6666667 L7.135,56.6666667 L8.075,52.7783333 Z M76.6666667,70 C76.6666667,70.92 75.92,71.6666667 75,71.6666667 L5,71.6666667 C4.08,71.6666667 3.33333333,70.92 3.33333333,70 L3.33333333,61.6666667 C3.33333333,60.7466667 4.08,60 5,60 L23.3333333,60 L26.6666667,60 L75,60 C75.92,60 76.6666667,60.7466667 76.6666667,61.6666667 L76.6666667,70 Z M30.205,46.5416667 L28.3333333,45.215 C28.4283333,45.1333333 28.5183333,45.0516667 28.6316667,45 L29.8166667,45 L32.565,45 L30.205,46.5416667 Z" id="Shape" fill="#9EA1A5"></path>
    <path d="M16.6566667,38.815 C17.0866667,38.815 17.52,38.78 17.955,38.705 C19.9933333,38.3633333 21.7766667,37.245 22.975,35.56 C24.1733333,33.8733333 24.6416667,31.825 24.2966667,29.785 C23.5933333,25.625 19.6683333,22.72 15.3766667,23.4433333 C11.1683333,24.1533333 8.32333333,28.1566667 9.03333333,32.365 C9.66666667,36.1033333 12.8716667,38.815 16.6566667,38.815 Z M15.9316667,26.73 C16.1816667,26.69 16.4283333,26.6666667 16.6733333,26.6666667 C18.8283333,26.6666667 20.6516667,28.2133333 21.0116667,30.3416667 C21.2083333,31.5016667 20.94,32.6683333 20.2583333,33.63 C19.5783333,34.5866667 18.5616667,35.2233333 17.4033333,35.4183333 C14.9383333,35.8433333 12.7216667,34.18 12.3216667,31.81 C11.9166667,29.4133333 13.5366667,27.135 15.9316667,26.73 Z" id="Shape" fill="#9EA1A5"></path>
    <path d="M33.9166667,38.815 C34.3466667,38.815 34.78,38.78 35.215,38.705 C37.2533333,38.3633333 39.0366667,37.245 40.235,35.56 C41.4333333,33.8733333 41.9016667,31.825 41.5566667,29.785 C40.8533333,25.625 36.9283333,22.72 32.6366667,23.4433333 C28.4283333,24.1533333 25.5833333,28.1566667 26.2933333,32.365 C26.925,36.1033333 30.13,38.815 33.9166667,38.815 Z M33.19,26.73 C33.44,26.69 33.6883333,26.6666667 33.9316667,26.6666667 C36.0866667,26.6666667 37.91,28.2133333 38.27,30.3416667 C38.4666667,31.5016667 38.1983333,32.6683333 37.5166667,33.63 C36.8366667,34.5866667 35.82,35.2233333 34.6616667,35.4183333 C32.1966667,35.8433333 29.98,34.18 29.58,31.81 C29.1766667,29.4133333 30.7966667,27.135 33.19,26.73 Z" id="Shape" fill="#9EA1A5"></path>
    <path d="M45.54,26.965 C46.1166667,26.965 46.69,26.8166667 47.2066667,26.5183333 L56.1266667,21.37 C57.1583333,20.775 57.7933333,19.6733333 57.7933333,18.4833333 C57.7933333,17.2933333 57.1583333,16.1916667 56.1266667,15.5966667 L47.2066667,10.4466667 C46.6916667,10.1483333 46.1166667,10 45.54,10 C44.9633333,10 44.39,10.1483333 43.8733333,10.4466667 C42.8416667,11.0416667 42.2066667,12.1433333 42.2066667,13.3333333 L42.2066667,23.6316667 C42.2066667,24.8233333 42.8416667,25.9233333 43.8733333,26.5183333 C44.39,26.8166667 44.965,26.965 45.54,26.965 Z M45.54,13.3333333 L54.46,18.4833333 L45.54,23.6316667 L45.54,13.3333333 Z" id="Shape" fill="#9EA1A5"></path>
  </g>
</svg>
