<?xml version="1.0" encoding="UTF-8" standalone="no"?>
<svg width="90px" height="90px" viewBox="0 0 90 90" version="1.1" xmlns="http://www.w3.org/2000/svg" xmlns:xlink="http://www.w3.org/1999/xlink">
    <!-- Generator: Sketch 39.1 (31720) - http://www.bohemiancoding.com/sketch -->
    <title>Page 1</title>
    <desc>Created with Sketch.</desc>
    <defs>
        <path d="M11.238,0 C5.042,0 0,5.042 0,11.238 L0,69.115 C0,75.313 5.042,80.354 11.238,80.354 L40.996,80.354 C41.876,80.354 42.589,79.642 42.589,78.762 C42.589,77.882 41.876,77.17 40.996,77.17 L11.238,77.17 C6.797,77.17 3.183,73.557 3.183,69.115 L3.183,11.238 C3.183,6.796 6.796,3.182 11.238,3.182 L59.47,3.182 C63.911,3.182 67.524,6.795 67.524,11.238 L67.524,38.585 C67.524,39.463 68.236,40.176 69.116,40.176 C69.996,40.176 70.708,39.463 70.708,38.585 L70.708,11.238 C70.707,5.042 65.666,0 59.47,0 L11.238,0 L11.238,0 Z" id="path-1"></path>
        <path d="M0.408,23.703 C0.408,36.549 10.859,47 23.703,47 C36.549,47 47,36.549 47,23.703 C47,10.859 36.549,0.408 23.703,0.408 C10.859,0.408 0.408,10.859 0.408,23.703 L0.408,23.703 Z M3.592,23.703 C3.592,12.612 12.613,3.592 23.703,3.592 C34.794,3.592 43.816,12.613 43.816,23.703 C43.816,34.793 34.794,43.816 23.703,43.816 C12.613,43.816 3.592,34.793 3.592,23.703 L3.592,23.703 Z" id="path-3"></path>
        <path d="M1.653,0.293 C0.773,0.293 0.061,1.005 0.061,1.885 C0.061,2.763 0.773,3.476 1.653,3.476 L37.054,3.476 C37.934,3.476 38.646,2.763 38.646,1.885 C38.646,1.005 37.935,0.293 37.055,0.293 L1.653,0.293 L1.653,0.293 Z" id="path-5"></path>
        <path d="M1.653,0.173 C0.773,0.173 0.061,0.886 0.061,1.766 C0.061,2.644 0.773,3.357 1.653,3.357 L37.054,3.357 C37.935,3.356 38.646,2.644 38.646,1.766 C38.646,0.886 37.934,0.173 37.054,0.173 L1.653,0.173 L1.653,0.173 Z" id="path-7"></path>
        <path d="M1.653,0.055 C0.773,0.055 0.061,0.767 0.061,1.647 C0.061,2.527 0.773,3.239 1.653,3.239 L22.585,3.239 C23.465,3.239 24.177,2.527 24.177,1.647 C24.177,0.767 23.465,0.055 22.585,0.055 L1.653,0.055 L1.653,0.055 Z" id="path-9"></path>
    </defs>
    <g id="Page-1" stroke="none" stroke-width="1" fill="none" fill-rule="evenodd">
        <g id="创建话题间_申请反馈-成功" transform="translate(-143.000000, -166.000000)">
            <g id="Group-3" transform="translate(143.000000, 166.000000)">
                <g id="Page-1">
                    <g id="Group-3">
                        <mask id="mask-2" fill="white">
                            <use xlink:href="#path-1"></use>
                        </mask>
                        <g id="Clip-2"></g>
                        <polygon id="Fill-1" fill="#4B4B4B" mask="url(#mask-2)" points="-5 85.354 75.708 85.354 75.708 -5 -5 -5"></polygon>
                    </g>
                    <g id="Group-6" transform="translate(43.000000, 43.000000)">
                        <mask id="mask-4" fill="white">
                            <use xlink:href="#path-3"></use>
                        </mask>
                        <g id="Clip-5"></g>
                        <polygon id="Fill-4" fill="#4B4B4B" mask="url(#mask-4)" points="-4.592 52 52 52 52 -4.592 -4.592 -4.592"></polygon>
                    </g>
                    <g id="Group-9" transform="translate(16.000000, 19.000000)">
                        <mask id="mask-6" fill="white">
                            <use xlink:href="#path-5"></use>
                        </mask>
                        <g id="Clip-8"></g>
                        <polygon id="Fill-7" fill="#4B4B4B" mask="url(#mask-6)" points="-4.939 8.476 43.646 8.476 43.646 -4.707 -4.939 -4.707"></polygon>
                    </g>
                    <g id="Group-12" transform="translate(16.000000, 36.000000)">
                        <mask id="mask-8" fill="white">
                            <use xlink:href="#path-7"></use>
                        </mask>
                        <g id="Clip-11"></g>
                        <polygon id="Fill-10" fill="#4B4B4B" mask="url(#mask-8)" points="-4.939 8.357 43.646 8.357 43.646 -4.827 -4.939 -4.827"></polygon>
                    </g>
                    <g id="Group-15" transform="translate(16.000000, 53.000000)">
                        <mask id="mask-10" fill="white">
                            <use xlink:href="#path-9"></use>
                        </mask>
                        <g id="Clip-14"></g>
                        <polygon id="Fill-13" fill="#4B4B4B" mask="url(#mask-10)" points="-4.939 8.239 29.177 8.239 29.177 -4.945 -4.939 -4.945"></polygon>
                    </g>
                    <path d="M67.1235,55.267 C67.0805,55.239 67.0345,55.219 66.9895,55.196 C66.9425,55.17 66.8975,55.141 66.8485,55.122 C66.7935,55.1 66.7375,55.087 66.6805,55.069 C66.6375,55.056 66.5965,55.04 66.5505,55.03 C66.3455,54.99 66.1325,54.99 65.9275,55.03 C65.8815,55.04 65.8405,55.056 65.7975,55.069 C65.7405,55.087 65.6845,55.099 65.6295,55.122 C65.5795,55.142 65.5345,55.17 65.4885,55.196 C65.4435,55.219 65.3965,55.239 65.3545,55.267 C65.2775,55.32 65.2055,55.38 65.1385,55.444 C65.1295,55.452 55.4665,65.111 55.4665,65.111 C54.8445,65.732 54.8445,66.741 55.4665,67.363 C56.0875,67.984 57.0965,67.984 57.7175,67.363 L64.6455,60.433 L64.6455,75.883 C64.6455,76.762 65.3585,77.476 66.2375,77.476 C67.1165,77.476 67.8315,76.762 67.8315,75.883 L67.8315,60.433 L74.7595,67.363 C75.0715,67.674 75.4785,67.831 75.8845,67.831 C76.2915,67.831 76.6995,67.674 77.0105,67.363 C77.6325,66.741 77.6325,65.732 77.0105,65.111 L67.3655,55.465 C67.2725,55.381 67.2005,55.32 67.1235,55.267 Z" id="Shape" fill="#4B4B4B"></path>
                </g>
            </g>
        </g>
    </g>
</svg>