<?xml version="1.0" encoding="UTF-8" standalone="no"?>
<svg width="94px" height="95px" viewBox="0 0 94 95" version="1.1" xmlns="http://www.w3.org/2000/svg" xmlns:xlink="http://www.w3.org/1999/xlink">
    <!-- Generator: Sketch 39.1 (31720) - http://www.bohemiancoding.com/sketch -->
    <title>Artboard 11 Copy</title>
    <desc>Created with Sketch.</desc>
    <defs></defs>
    <g id="-" stroke="none" stroke-width="1" fill="none" fill-rule="evenodd">
        <g id="Artboard-11-Copy" fill="#4B4B4B">
            <g id="noun_411600_cc" transform="translate(2.000000, 2.000000)">
                <path d="M11.238,80.354 L40.996,80.354 C41.876,80.354 42.589,79.642 42.589,78.762 C42.589,77.882 41.876,77.17 40.996,77.17 L11.238,77.17 C6.797,77.17 3.183,73.557 3.183,69.115 L3.183,11.238 C3.183,6.796 6.796,3.182 11.238,3.182 L59.47,3.182 C63.911,3.182 67.524,6.795 67.524,11.238 L67.524,38.585 C67.524,39.463 68.236,40.176 69.116,40.176 C69.996,40.176 70.708,39.463 70.708,38.585 L70.708,11.238 C70.707,5.042 65.666,0 59.47,0 L11.238,0 C5.042,0 0,5.042 0,11.238 L0,69.115 C0,75.313 5.042,80.354 11.238,80.354 L11.238,80.354 Z" id="Shape"></path>
                <path d="M66.703,43.408 C53.859,43.408 43.408,53.859 43.408,66.703 C43.408,79.549 53.859,90 66.703,90 C79.549,90 90,79.549 90,66.703 C90,53.859 79.549,43.408 66.703,43.408 L66.703,43.408 Z M66.703,86.816 C55.613,86.816 46.592,77.793 46.592,66.703 C46.592,55.612 55.613,46.592 66.703,46.592 C77.794,46.592 86.816,55.613 86.816,66.703 C86.816,77.793 77.794,86.816 66.703,86.816 L66.703,86.816 Z" id="Shape"></path>
                <path d="M53.055,19.293 L17.653,19.293 C16.773,19.293 16.061,20.005 16.061,20.885 C16.061,21.763 16.773,22.476 17.653,22.476 L53.054,22.476 C53.934,22.476 54.646,21.763 54.646,20.885 C54.646,20.005 53.935,19.293 53.055,19.293 L53.055,19.293 Z" id="Shape"></path>
                <path d="M54.646,37.766 C54.646,36.886 53.934,36.173 53.054,36.173 L17.653,36.173 C16.773,36.173 16.061,36.886 16.061,37.766 C16.061,38.644 16.773,39.357 17.653,39.357 L53.054,39.357 C53.935,39.356 54.646,38.644 54.646,37.766 L54.646,37.766 Z" id="Shape"></path>
                <path d="M17.653,53.055 C16.773,53.055 16.061,53.767 16.061,54.647 C16.061,55.527 16.773,56.239 17.653,56.239 L38.585,56.239 C39.465,56.239 40.177,55.527 40.177,54.647 C40.177,53.767 39.465,53.055 38.585,53.055 L17.653,53.055 L17.653,53.055 Z" id="Shape"></path>
                <path d="M67.83,55.931 C67.821,55.924 67.812,55.918 67.803,55.91 C67.737,55.847 67.665,55.786 67.588,55.733 C67.545,55.705 67.499,55.685 67.454,55.662 C67.407,55.636 67.362,55.607 67.313,55.588 C67.258,55.566 67.202,55.553 67.145,55.535 C67.102,55.522 67.061,55.506 67.015,55.496 C66.81,55.456 66.597,55.456 66.392,55.496 C66.346,55.506 66.305,55.522 66.262,55.535 C66.205,55.553 66.149,55.565 66.094,55.588 C66.044,55.608 65.999,55.636 65.953,55.662 C65.908,55.685 65.861,55.705 65.819,55.733 C65.742,55.786 65.67,55.846 65.603,55.91 C65.594,55.918 65.585,55.924 65.577,55.931 L55.931,65.577 C55.309,66.198 55.309,67.207 55.931,67.829 C56.552,68.45 57.561,68.45 58.182,67.829 L65.11,60.899 L65.11,76.349 C65.11,77.228 65.823,77.942 66.702,77.942 C67.581,77.942 68.296,77.228 68.296,76.349 L68.296,60.899 L75.224,67.829 C75.536,68.14 75.943,68.297 76.349,68.297 C76.756,68.297 77.164,68.14 77.475,67.829 C78.097,67.207 78.097,66.198 77.475,65.577 L67.83,55.931 L67.83,55.931 Z" id="Shape"></path>
            </g>
        </g>
    </g>
</svg>