<?xml version="1.0" encoding="UTF-8" standalone="no"?>

<svg width="44px" height="60px" viewBox="167 1638 44 60" version="1.1" xmlns="http://www.w3.org/2000/svg" xmlns:xlink="http://www.w3.org/1999/xlink">
  <!-- Generator: Sketch 39.1 (31720) - http://www.bohemiancoding.com/sketch -->
  <desc>Created with Sketch.</desc>
  <defs></defs>
  <g id="Group" stroke="none" stroke-width="1" fill="none" fill-rule="evenodd" transform="translate(167.000000, 1638.637820)">
    <path d="M25.3644207,0.145659949 C25.3349012,0.153799544 25.3058028,0.163395812 25.2772325,0.174413505 L3.94394904,0.174413505 C1.89113065,0.174413505 0.204873724,1.86048492 0.204873724,3.91348882 L0.204873724,48.8119438 C0.204873724,50.866339 1.89177992,52.5511119 3.94394904,52.5511119 L21.7120698,52.5511119 C23.5848538,56.3276596 27.4779925,58.9279086 31.9729154,58.9279086 C38.2881238,58.9279086 43.4222103,53.7937293 43.4222103,47.4787063 C43.4222103,44.2615544 42.085912,41.3355555 39.9439576,39.2467488 L39.9439576,14.1453026 C39.9445519,14.1261381 39.9445519,14.1069599 39.9439576,14.0877955 C39.9441061,14.0782115 39.9441061,14.0686258 39.9439576,14.0590419 C39.9445519,14.0398775 39.9445519,14.0206992 39.9439576,14.0015348 C39.9382393,13.9525537 39.9286243,13.9041065 39.915204,13.856654 C39.9153526,13.84707 39.9153526,13.8374844 39.915204,13.8279004 C39.9062869,13.8084049 39.8966966,13.7892243 39.8864505,13.7703933 C39.8870448,13.7512289 39.8870448,13.7320506 39.8864505,13.7128862 C39.8770772,13.7030927 39.8674904,13.6935059 39.8576969,13.6841326 C39.8483237,13.6743392 39.8387368,13.6647523 39.8289434,13.6553791 C39.8195701,13.6455856 39.8099833,13.6359988 39.8001898,13.6266255 C39.768224,13.5644395 39.7293297,13.5060669 39.6842481,13.4526201 C39.6843966,13.4430362 39.6843966,13.4334505 39.6842481,13.4238666 C39.6746641,13.423718 39.6650784,13.423718 39.6554945,13.4238666 C39.6556431,13.4142826 39.6556431,13.404697 39.6554945,13.395113 L32.7570527,6.78643282 L26.1483725,0.409636143 C26.1387885,0.409487589 26.1292029,0.409487589 26.1196189,0.409636143 C26.0844697,0.367642334 26.045671,0.328843553 26.0036772,0.293694386 C25.9940932,0.293545831 25.9845075,0.293545831 25.9749236,0.293694386 C25.8193268,0.194572411 25.6377077,0.144097551 25.4532784,0.148720812 C25.4242318,0.147354245 25.3951369,0.147354245 25.3660902,0.148720812 L25.3644207,0.145659949 Z M3.94413454,2.02975989 L24.5528284,2.02975989 L24.5528284,11.2760687 C24.5528284,13.327403 26.2416824,15.0152368 28.2919037,15.0152368 L38.089075,15.0152368 L38.089075,37.7976623 C36.3182269,36.6693171 34.222,36.0006578 31.9731009,36.0006578 C29.2102552,36.0006578 26.6775306,36.9976642 24.6977092,38.6382864 C24.4095244,38.8771265 24.1497221,39.1264476 23.8861169,39.3919079 C23.6324363,39.6474435 23.3615036,39.8962081 23.1325882,40.1745611 L23.1325882,40.2033147 C21.5071775,42.186568 20.5238059,44.7243012 20.5238059,47.4787991 C20.5238059,47.8146592 20.5442117,48.1422642 20.5822406,48.4642113 C20.5915159,48.5217184 20.5729652,48.5806168 20.5822406,48.6382167 C20.6045014,48.803596 20.6388201,48.968326 20.6694288,49.1309228 C20.7473416,49.6655534 20.838982,50.1879406 20.9882222,50.6961365 L3.94478382,50.6961365 C2.89917467,50.6961365 2.06077663,49.8596863 2.06077663,48.8120366 L2.06077663,3.91358157 C2.06077663,2.8686217 2.89982394,2.02957438 3.94478382,2.02957438 L3.94413454,2.02975989 Z M26.4078965,3.27608741 L36.6687421,13.102105 L36.7262492,13.1605397 L28.2914399,13.1605397 C27.2439757,13.1605397 26.4074327,12.3249242 26.4074327,11.2764397 L26.4074327,3.27645842 L26.4078965,3.27608741 Z M5.30649657,17.1311275 C4.79431463,17.1872605 4.4245804,17.6479213 4.48061429,18.1601141 C4.53664818,18.6723069 4.99723739,19.0421303 5.50944103,18.9861956 L34.7557031,18.9861956 C35.0902052,18.9909263 35.4013422,18.8151812 35.5699738,18.5262566 C35.7386054,18.237332 35.7386054,17.879991 35.5699738,17.5910664 C35.4013422,17.3021418 35.0902052,17.1263968 34.7557031,17.1311275 L5.50944103,17.1311275 C5.44199646,17.1237052 5.37394114,17.1237052 5.30649657,17.1311275 L5.30649657,17.1311275 Z M5.30649657,22.6093291 C4.79431463,22.6654622 4.4245804,23.126123 4.48061429,23.6383158 C4.53664818,24.1505086 4.99723739,24.520332 5.50944103,24.4643973 L34.7557031,24.4643973 C35.0902052,24.469128 35.4013422,24.2933829 35.5699738,24.0044583 C35.7386054,23.7155337 35.7386054,23.3581927 35.5699738,23.0692681 C35.4013422,22.7803435 35.0902052,22.6045985 34.7557031,22.6093291 L5.50944103,22.6093291 C5.44199646,22.6019069 5.37394114,22.6019069 5.30649657,22.6093291 L5.30649657,22.6093291 Z M5.30649657,28.0876236 C4.79687172,28.1466239 4.43047555,28.6059892 4.48626912,29.1159751 C4.54206269,29.6259609 4.99911429,29.9952393 5.50944103,29.9426546 L34.7557031,29.9426546 C35.090497,29.9478414 35.4021031,29.7722011 35.5710153,29.4830946 C35.7399275,29.1939881 35.7399275,28.8362901 35.5710153,28.5471836 C35.4021031,28.2580771 35.090497,28.0824368 34.7557031,28.0876236 L5.50944103,28.0876236 C5.44199646,28.0802013 5.37394114,28.0802013 5.30649657,28.0876236 L5.30649657,28.0876236 Z M5.33525013,33.5368491 C4.82305628,33.5849799 4.44683035,34.0391693 4.49487489,34.5513712 C4.54291943,35.0635732 4.99704549,35.4398755 5.50925552,35.3919172 L21.2483028,35.3919172 C21.5828049,35.3966479 21.8939419,35.2209029 22.0625735,34.9319783 C22.2312051,34.6430537 22.2312051,34.2857126 22.0625735,33.9967881 C21.8939419,33.7078635 21.5828049,33.5321184 21.2483028,33.5368491 L5.50925552,33.5368491 C5.48020885,33.5354825 5.45111399,33.5354825 5.42206732,33.5368491 C5.39302062,33.5354839 5.36392582,33.5354839 5.33487912,33.5368491 L5.33525013,33.5368491 Z M31.9729154,37.884665 C32.282619,37.884665 32.5984443,37.885407 32.9004494,37.9134186 L32.9579565,37.9134186 C34.4366313,38.060711 35.7837818,38.5642692 36.9868862,39.3047197 L37.0156398,39.3047197 C37.0267702,39.313995 37.0332629,39.3269805 37.0443934,39.3334732 C37.2772972,39.4790961 37.5208676,39.6324174 37.7400439,39.7972403 C37.7613772,39.8130083 37.7771453,39.8389793 37.797551,39.8547474 C38.0042056,40.0128919 38.213179,40.1729843 38.4062916,40.3474535 C38.4506179,40.3908509 38.4991855,40.4296926 38.5512652,40.4633952 C40.4086522,42.2187534 41.5657509,44.7162316 41.5657509,47.4780571 C41.5657509,52.7905084 37.2842537,57.0721912 31.9715241,57.0721912 C28.05631,57.0721912 24.712086,54.740927 23.2179213,51.391045 C23.2028559,51.3411919 23.1836189,51.292696 23.1604142,51.2460714 C23.1511389,51.234941 23.1362984,51.2284483 23.1316607,51.2173179 C22.7683456,50.355917 22.5339577,49.4332989 22.4360101,48.4636548 C22.4016914,48.1390178 22.3775755,47.8137316 22.3775755,47.4782426 C22.3775755,47.1460926 22.4026189,46.8158905 22.4360101,46.4926449 C22.5983286,44.8843936 23.1483563,43.3911565 24.0011311,42.1157971 L24.0011311,42.0870436 C24.3415361,41.5808883 24.7618018,41.1272313 25.1895805,40.6957425 C25.4063452,40.4789778 25.6194925,40.2534015 25.8561992,40.0581556 C26.0929987,39.8619821 26.3547488,39.680371 26.6099134,39.5073859 C28.1407156,38.4746694 29.9796447,37.8842012 31.9721733,37.8842012 L31.9729154,37.884665 Z M36.8135301,43.7687556 C36.602051,43.7990388 36.4075062,43.9013894 36.2627604,44.0585172 L30.8134978,49.5078726 L29.0743714,47.7687462 C28.8413644,47.5305697 28.4989913,47.4347934 28.1762209,47.5174951 C27.8534505,47.6001969 27.5993192,47.8488124 27.5095558,48.1696907 C27.4197924,48.490569 27.5080342,48.8349609 27.7410412,49.0731374 L30.1467863,51.4788825 C30.508176,51.8361907 31.0897877,51.8361907 31.4511775,51.4788825 L37.5670588,45.3630011 C37.8585417,45.0872907 37.9397316,44.655434 37.7682791,44.2926908 C37.5968266,43.9299477 37.2115975,43.7185464 36.8135301,43.7687556 L36.8135301,43.7687556 Z" id="Shape" fill="#4B4B4B"></path>
  </g>
</svg>
