<?xml version="1.0" encoding="UTF-8" standalone="no"?>
<svg width="90px" height="90px" viewBox="0 0 90 90" version="1.1" xmlns="http://www.w3.org/2000/svg" xmlns:xlink="http://www.w3.org/1999/xlink">
    <!-- Generator: Sketch 39.1 (31720) - http://www.bohemiancoding.com/sketch -->
    <title>noun_411600_cc</title>
    <desc>Created with Sketch.</desc>
    <defs></defs>
    <g id="Page-1" stroke="none" stroke-width="1" fill="none" fill-rule="evenodd">
        <g id="创建话题间_申请反馈" transform="translate(-143.000000, -156.000000)" fill="#4B4B4B">
            <g id="Group-3" transform="translate(137.000000, 156.000000)">
                <g id="noun_411600_cc" transform="translate(6.000000, 0.000000)">
                    <path d="M11.238,80.354 L40.996,80.354 C41.876,80.354 42.589,79.642 42.589,78.762 C42.589,77.882 41.876,77.17 40.996,77.17 L11.238,77.17 C6.797,77.17 3.183,73.557 3.183,69.115 L3.183,11.238 C3.183,6.796 6.796,3.182 11.238,3.182 L59.47,3.182 C63.911,3.182 67.524,6.795 67.524,11.238 L67.524,38.585 C67.524,39.463 68.236,40.176 69.116,40.176 C69.996,40.176 70.708,39.463 70.708,38.585 L70.708,11.238 C70.707,5.042 65.666,0 59.47,0 L11.238,0 C5.042,0 0,5.042 0,11.238 L0,69.115 C0,75.313 5.042,80.354 11.238,80.354 L11.238,80.354 Z" id="Shape"></path>
                    <path d="M66.295,43 C53.451,43 43,53.451 43,66.295 C43,79.141 53.451,89.592 66.295,89.592 C79.141,89.592 89.592,79.141 89.592,66.295 C89.592,53.451 79.141,43 66.295,43 L66.295,43 Z M66.295,86.408 C55.205,86.408 46.184,77.385 46.184,66.295 C46.184,55.204 55.205,46.184 66.295,46.184 C77.386,46.184 86.408,55.205 86.408,66.295 C86.408,77.385 77.386,86.408 66.295,86.408 L66.295,86.408 Z" id="Shape"></path>
                    <path d="M53.055,19.293 L17.653,19.293 C16.773,19.293 16.061,20.005 16.061,20.885 C16.061,21.763 16.773,22.476 17.653,22.476 L53.054,22.476 C53.934,22.476 54.646,21.763 54.646,20.885 C54.646,20.005 53.935,19.293 53.055,19.293 L53.055,19.293 Z" id="Shape"></path>
                    <path d="M54.646,37.766 C54.646,36.886 53.934,36.173 53.054,36.173 L17.653,36.173 C16.773,36.173 16.061,36.886 16.061,37.766 C16.061,38.644 16.773,39.357 17.653,39.357 L53.054,39.357 C53.935,39.356 54.646,38.644 54.646,37.766 L54.646,37.766 Z" id="Shape"></path>
                    <path d="M17.653,53.055 C16.773,53.055 16.061,53.767 16.061,54.647 C16.061,55.527 16.773,56.239 17.653,56.239 L38.585,56.239 C39.465,56.239 40.177,55.527 40.177,54.647 C40.177,53.767 39.465,53.055 38.585,53.055 L17.653,53.055 L17.653,53.055 Z" id="Shape"></path>
                    <path d="M74.2272803,60.0443462 C73.8792803,60.0443462 73.5322803,60.2183462 73.1842803,60.5653462 L63.8022803,69.9483462 L60.8482803,66.9943462 C60.5002803,66.6473462 59.8052803,66.4733462 59.2842803,66.4733462 C58.7632803,66.6473462 58.2412803,66.9943462 58.0682803,67.6893462 C57.8942803,68.2113462 58.0682803,68.9063462 58.4152803,69.2533462 L62.5852803,73.4233462 C63.2802803,74.1183462 64.1492803,74.1183462 64.8442803,73.4233462 L75.4432803,62.8243462 C75.9652803,62.3033462 76.1382803,61.6083462 75.7912803,60.9133462 C75.6172803,60.2183462 74.9222803,59.8703462 74.2272803,60.0443462" id="Fill-16"></path>
                </g>
            </g>
        </g>
    </g>
</svg>