<?xml version="1.0" encoding="UTF-8" standalone="no"?>
<svg width="29px" height="28px" viewBox="0 0 29 28" version="1.1" xmlns="http://www.w3.org/2000/svg" xmlns:xlink="http://www.w3.org/1999/xlink">
    <!-- Generator: Sketch 39.1 (31720) - http://www.bohemiancoding.com/sketch -->
    <title>Group</title>
    <desc>Created with Sketch.</desc>
    <defs></defs>
    <g id="Page-1" stroke="none" stroke-width="1" fill="none" fill-rule="evenodd">
        <g id="Group" fill="#2196F3">
            <path d="M14.3,0 C6.6,0 0.3,6.3 0.3,14 C0.3,21.7 6.6,28 14.3,28 C22,28 28.3,21.7 28.3,14 C28.3,6.3 22,0 14.3,0 L14.3,0 Z M14.3,27.2 C7,27.2 1.1,21.2 1.1,14 C1.1,6.7 7.1,0.8 14.3,0.8 C21.6,0.8 27.5,6.8 27.5,14 C27.5,21.3 21.5,27.2 14.3,27.2 L14.3,27.2 Z" id="Shape"></path>
            <path d="M11.9,9.7 C11.6,9.7 11.5,10.1 11.5,10.2 L11.5,17.8 C11.5,18.2 11.7,18.3 11.9,18.3 C12.2,18.3 12.3,17.9 12.3,17.8 L12.3,10.2 C12.3,10 12.2,9.7 11.9,9.7 L11.9,9.7 Z" id="Shape"></path>
            <path d="M16.7,9.7 C16.4,9.7 16.3,10.1 16.3,10.2 L16.3,17.8 C16.3,18.2 16.5,18.3 16.7,18.3 C17,18.3 17.1,17.9 17.1,17.8 L17.1,10.2 C17.1,10 17,9.7 16.7,9.7 L16.7,9.7 Z" id="Shape"></path>
        </g>
    </g>
</svg>