<?xml version="1.0" encoding="UTF-8" standalone="no"?>
<svg width="28px" height="28px" viewBox="0 0 28 28" version="1.1" xmlns="http://www.w3.org/2000/svg" xmlns:xlink="http://www.w3.org/1999/xlink">
    <!-- Generator: Sketch 39.1 (31720) - http://www.bohemiancoding.com/sketch -->
    <title>play</title>
    <desc>Created with Sketch.</desc>
    <defs></defs>
    <g id="Page-1" stroke="none" stroke-width="1" fill="none" fill-rule="evenodd">
        <g id="play" fill="#4B4B4B">
            <path d="M11.4,9.316 C11.3,9.316 11.2,9.316 11.2,9.416 C11.1,9.516 11,9.616 11,9.816 L11,18.316 C11,18.516 11.1,18.617 11.2,18.716 C11.3,18.816 11.5,18.816 11.6,18.716 L18.4,14.516 C18.5,14.416 18.599,14.316 18.599,14.117 C18.599,13.917 18.499,13.817 18.4,13.717 L11.6,9.417 C11.6,9.316 11.5,9.316 11.4,9.316 M11.4,19.516 C11.2,19.516 11,19.416 10.8,19.316 C10.4,19.117 10.1,18.617 10.1,18.216 L10.1,9.716 C10.1,9.216 10.3,8.816 10.8,8.616 C11.2,8.416 11.7,8.416 12.1,8.616 L18.9,12.816 C19.299,13.016 19.5,13.416 19.5,13.916 C19.5,14.315 19.3,14.716 18.9,15.016 L12.1,19.316 C11.9,19.416 11.7,19.516 11.4,19.516 M14,0.816 C6.8,0.816 0.8,6.716 0.8,14.016 C0.8,21.216 6.7,27.216 14,27.216 C21.3,27.216 27.2,21.316 27.2,14.016 C27.2,6.816 21.2,0.816 14,0.816 M14,28.016 C6.3,28.016 0,21.716 0,14.016 C0,6.316 6.3,0.016 14,0.016 C21.7,0.016 28,6.316 28,14.016 C28,21.716 21.7,28.016 14,28.016" id="Shape"></path>
        </g>
    </g>
</svg>