<?xml version="1.0" encoding="UTF-8" standalone="no"?>

<svg width="165px" height="96px" viewBox="107 210 165 96" version="1.1" xmlns="http://www.w3.org/2000/svg" xmlns:xlink="http://www.w3.org/1999/xlink">
  <!-- Generator: Sketch 39.1 (31720) - http://www.bohemiancoding.com/sketch -->
  <desc>Created with Sketch.</desc>
  <defs></defs>
  <g id="Group-3" stroke="none" stroke-width="1" fill="none" fill-rule="evenodd" transform="translate(107.000000, 210.000000)">
    <g id="Page-1" transform="translate(31.000000, 0.000000)" fill="#00EDDA">
      <polygon id="Fill-1" points="72.6442838 61.1263202 76.2027166 61.1263202 76.2027166 39.919238 72.6442838 39.919238"></polygon>
      <polygon id="Fill-2" points="2.98380546 16.0352486 2.98380546 57.5793888 -5.55007852e-05 57.5793888 -5.55007852e-05 60.9953466 2.98380546 60.9953466 2.98380546 64.2574536 6.54223829 64.2574536 6.54223829 60.9953466 53.0806178 60.9953466 54.8598342 60.9953466 54.8598342 59.2872295 54.8598342 39.7767912 51.3014014 39.7767912 51.3014014 57.5793888 6.54223829 57.5793888 6.54223829 16.0352486"></polygon>
      <polygon id="Fill-3" points="28.0751692 20.4393487 11.9385935 20.4201347 11.9334597 23.8360925 46.6286654 23.8774235 46.6337992 20.4614657 31.6336021 20.4436339 31.6336021 9.64574038 76.0625355 9.64574038 76.0625355 6.2299208 65.4678519 6.2299208 65.4678519 0.351658979 61.9094191 0.351658979 61.9094191 6.2299208 31.6336021 6.2299208 31.6336021 0.351658979 28.0751692 0.351658979 28.0751692 6.2299208 15.1573615 6.2299208 15.1573615 0.351658979 11.5989287 0.351658979 11.5989287 9.64574038 28.0751692 9.64574038"></polygon>
      <path d="M18.6081645,48.9546897 L39.6862526,48.9546897 L39.6862526,33.3458138 L18.6081645,33.3458138 L18.6081645,48.9546897 Z M15.0495929,52.3705093 L43.2446854,52.3705093 L43.2446854,29.929856 L15.0495929,29.929856 L15.0495929,52.3705093 Z" id="Fill-4"></path>
      <path d="M54.7064301,28.4791245 L72.6707854,28.4791245 L72.6707854,17.2239637 L54.7064301,17.2239637 L54.7064301,28.4791245 Z M76.1755212,31.8442134 L76.1755212,13.859013 L51.201833,13.859013 L51.201833,31.8442134 L61.9771717,31.8442134 L61.9771717,57.7103624 L58.1215321,57.7103624 L58.1215321,61.1263202 L65.5356045,61.1263202 L65.5356045,31.8442134 L76.1755212,31.8442134 Z" id="Fill-5"></path>
      <polygon id="Fill-6" points="2.98427721 13.4678201 6.54271004 13.4678201 6.54271004 0.351658979 2.98427721 0.351658979"></polygon>
      <g id="Group-12" transform="translate(79.643627, 0.118464)">
        <g id="Group-9">
          <path d="M16.1391149,0.0197531714 L16.1391149,6.11144324 L10.13837,6.11144324 C10.1358725,2.83233385 10.1342075,0.47729689 10.1342075,0.233181419 L6.57563589,0.233181419 C6.57563589,0.47743512 6.57743966,2.83205739 6.5799372,6.11144324 L0.348309052,6.11144324 L0.348309052,9.52726282 L6.58243473,9.52726282 C6.58756855,16.2122392 6.5940899,24.6412727 6.59658743,28.2009904 L0.125889656,28.2009904 L0.125889656,61.0078427 L3.68446124,61.0078427 L3.68446124,31.6169483 L10.1584891,31.6169483 L10.156824,29.9077253 C10.156824,29.9077253 10.1475277,18.23649 10.1410063,9.52726282 L19.6975477,9.52726282 L19.6975477,0.0197531714 L16.1391149,0.0197531714 Z" id="Fill-7"></path>
        </g>
        <polygon id="Fill-10" points="16.1391149 57.5918848 10.8014657 57.5918848 10.8014657 35.1036802 7.24289407 35.1036802 7.24289407 61.0078427 19.6975477 61.0078427 19.6975477 23.4328596 16.1391149 23.4328596"></polygon>
      </g>
    </g>
    <text id="发现最有创造力的声音" font-family=".PingFangSC-Regular, .PingFang SC" font-size="16" font-weight="normal" line-spacing="16" fill="#D9D9D9">
      <tspan x="0" y="97">发现最有创造力的声音</tspan>
    </text>
  </g>
</svg>
