<?xml version="1.0" encoding="UTF-8"?>
<svg width="896px" height="831px" viewBox="0 0 896 831" version="1.1" xmlns="http://www.w3.org/2000/svg" xmlns:xlink="http://www.w3.org/1999/xlink">
    <!-- Generator: Sketch 46.1 (44463) - http://www.bohemiancoding.com/sketch -->
    <title>Shape</title>
    <desc>Created with Sketch.</desc>
    <defs></defs>
    <g id="Page-1" stroke="none" stroke-width="1" fill="none" fill-rule="evenodd">
        <g id="present" fill-rule="nonzero" fill="#2F2F2F">
            <path d="M865.248,191 L789.632,191 C808.32,191 825.152,153.624 832.8,128.984 C842.176,98.552 836.448,68.632 816.224,42.04 C814.848,40.216 813.28,38.648 811.552,37.176 C714.272,-45.992 582.592,34.136 529.056,73.464 C514.624,83.48 510.976,103.288 520.896,117.816 C530.88,132.44 550.784,136.184 565.376,126.2 C565.664,126.008 568,124.312 568.32,124.12 C598.912,101.592 702.816,32.92 767.2,83.672 C773.216,92.632 774.528,101.048 771.648,110.52 C764.032,135.16 731.968,157.88 716.448,163.064 C656.256,185.656 636.64,187.96 611.456,189.784 C609.344,189.944 607.584,191 605.664,191 L517.248,191 C515.84,191 514.72,186.904 512.704,185.048 C479.712,154.296 401.504,82.04 385.984,71.672 C268.448,-8.936 161.664,-21.48 93.088,37.176 C91.36,38.648 89.792,40.376 88.416,42.168 C68.16,68.792 62.432,98.552 71.84,128.984 C79.456,153.656 96.32,191 114.88,191 L33.344,191 C15.68,191 0,206.168 0,223.832 L0,383.832 C0,401.496 0,415.832 32,415.832 L32,728.728 C32,784.536 74.624,831 125.344,831 L770.624,831 C821.92,831 864,783.608 864,728.728 L864,415.832 C896,415.832 896,401.496 896,383.832 L896,223.832 C896,206.168 882.944,191 865.248,191 Z M293.216,189.816 C268,187.96 248.32,185.464 187.04,162.488 C172.672,157.688 140.608,135.032 132.992,110.424 C130.048,100.952 131.424,92.6 137.408,83.64 C201.472,33.208 307.008,94.904 352.064,125.784 C358.4,130.328 389.664,159 425.376,191 L299.008,191 C297.056,191 295.296,189.976 293.216,189.816 Z M832,255 L832,351 L67.968,351 C67.04,351 64,352.152 64,352.248 L64,255 L832,255 Z M770.624,767 L125.344,767 C108.832,767 96,746.328 96,728.728 L96,415 L800,415 L800,728.728 C800,747.832 786.368,767 770.624,767 Z" id="Shape"></path>
        </g>
    </g>
</svg>