<?xml version="1.0" encoding="UTF-8"?>
<svg width="25px" height="25px" viewBox="0 0 25 25" version="1.1" xmlns="http://www.w3.org/2000/svg" xmlns:xlink="http://www.w3.org/1999/xlink">
    <!-- Generator: Sketch 41 (35326) - http://www.bohemiancoding.com/sketch -->
    <title>r</title>
    <desc>Created with Sketch.</desc>
    <defs></defs>
    <g id="-话题间" stroke="none" stroke-width="1" fill="none" fill-rule="evenodd">
        <g id="Artboard-4" fill="#4B4B4B">
            <g id="r">
                <path d="M15.790389,14.8721663 C15.4875021,14.4480949 15.1845657,14.0240732 14.8817284,13.6000018 C14.5182245,13.1759801 14.4406945,13.0947221 14.0772402,12.9130198 C14.9859008,12.7312678 15.6522915,12.3677639 16.1369303,11.8831251 C16.5609521,11.3984863 16.8033211,10.7927622 16.8033211,9.94461949 C16.8033211,9.58116517 16.742704,9.15714343 16.6215691,8.85420697 C16.5004342,8.49070306 16.3186823,8.18781623 16.0157458,7.94554641 C15.7734264,7.703227 15.4705396,7.46090759 15.1070852,7.33977272 C14.8041984,7.21858821 14.5013115,7.15797117 14.1984247,7.0974533 C13.8349704,7.03688585 13.4109486,7.03688585 12.9262602,7.03688585 L9.41270326,7.03688585 C8.92806444,7.03688585 8.62517761,7.15802076 8.3828582,7.33977272 C8.20110624,7.52147508 8.07997133,7.88492936 8.07997133,8.36961778 L8.07997133,16.6083287 C8.07997133,17.0324001 8.20110624,17.3958544 8.3828582,17.5776063 C8.56461015,17.8199753 8.86749702,17.9411102 9.17038385,17.9411102 C9.47327072,17.9411102 9.8460768,17.5776559 9.81633176,16.7109454 L9.81633176,13.2579559 L11.0482228,13.2160058 C11.4117268,13.2160058 11.775181,13.2766229 12.0175004,13.3977578 C12.2598199,13.5188927 12.5021393,13.7006447 12.7444586,13.942964 C12.9867781,14.1852338 13.2896649,14.6093548 13.5926013,15.1545115 L14.4406945,16.6084279 C14.6223968,16.9718822 14.8041488,17.2142016 14.9253333,17.395904 C15.0464682,17.5776559 15.1676527,17.6987908 15.3494046,17.8199753 C15.5311566,17.9411598 15.712859,18.0017273 15.9551783,18.0017273 C16.1369303,18.0017273 16.3016701,18.0449321 16.5003846,17.8805428 C16.6990991,17.7161535 16.6990991,17.0530905 16.6990991,16.931906 C16.6990991,16.8107711 16.638482,16.5684517 16.4567797,16.2049478 C16.2750278,15.720309 16.0327084,15.2962377 15.790389,14.8721663 Z M13.9775507,11.7122199 C13.5128127,11.7840325 12.9707029,11.8558451 12.2736592,11.8558451 L9.79522544,11.8558451 L9.79522544,8.33637995 L12.3510944,8.33637995 C13.280507,8.33637995 13.9775507,8.40819257 14.2872915,8.55181782 C14.5971591,8.69550186 14.9069634,8.91093973 15.0618338,9.1264364 C15.2167042,9.41374569 15.371638,9.70105499 15.371638,10.0601769 C15.371638,10.4911702 15.2167676,10.8502921 14.9843986,11.1375426 C14.7519661,11.4249106 14.3647901,11.6404073 13.9775507,11.7122199 Z" id="Shape"></path>
                <path d="M12.5021393,0.0097223491 C5.59616028,0.0097223491 0.0229132137,5.58301905 0.0229132137,12.488998 C0.0229132137,19.3949274 5.59620991,24.9682241 12.5021393,24.9682241 C19.4080686,24.9682241 24.9813653,19.3949274 24.9813653,12.488998 C24.981415,5.58301905 19.3475508,0.0097223491 12.5021393,0.0097223491 Z M12.5021393,23.6728915 C6.31813446,23.6728915 1.31824575,18.6730567 1.31824575,12.488998 C1.31824575,6.30493934 6.31813446,1.30510448 12.5021393,1.30510448 C18.6861441,1.30510448 23.6860328,6.30493929 23.6860328,12.488998 C23.6860867,18.6730029 18.6204227,23.6728915 12.5021393,23.6728915 Z" id="Shape"></path>
            </g>
        </g>
    </g>
</svg>