<?xml version="1.0" standalone="no"?><!DOCTYPE svg PUBLIC "-//W3C//DTD SVG 1.1//EN" "http://www.w3.org/Graphics/SVG/1.1/DTD/svg11.dtd"><svg width="209.9609375" height="200" viewBox="0 0 209.9609375 200" version="1.1" xmlns="http://www.w3.org/2000/svg" xmlns:xlink="http://www.w3.org/1999/xlink"><defs><style type="text/css"><![CDATA[
@font-face { font-family: ifont; src: url("//at.alicdn.com/t/font_1442373896_4754455.eot?#iefix") format("embedded-opentype"), url("//at.alicdn.com/t/font_1442373896_4754455.woff") format("woff"), url("//at.alicdn.com/t/font_1442373896_4754455.ttf") format("truetype"), url("//at.alicdn.com/t/font_1442373896_4754455.svg#ifont") format("svg"); }

]]></style></defs><g class="transform-group"><g transform="scale(0.1953125, 0.1953125)"><path d="M923.487318 393.00372l-286.647278 0c26.058843-136.787284 78.17653-306.169767-32.551911-358.330741-117.308083-52.117687-123.844437 19.565776-136.873859 136.830572-13.029422 123.80115-195.441326 254.095367-195.441326 254.095367l0 573.38113 618.962462 0c84.669598-39.131552 136.830572-384.389584 162.889415-508.234021C1079.883666 366.944877 923.487318 393.00372 923.487318 393.00372M17.877579 1005.516402l182.411904 0L200.289483 425.598918 17.877579 425.598918 17.877579 1005.516402zM923.487318 393.00372l-286.647278 0c26.058843-136.787284 78.17653-306.169767-32.551911-358.330741-117.308083-52.117687-123.844437 19.565776-136.873859 136.830572-13.029422 123.80115-195.441326 254.095367-195.441326 254.095367l0 573.38113 618.962462 0c84.669598-39.131552 136.830572-384.389584 162.889415-508.234021C1079.883666 366.944877 923.487318 393.00372 923.487318 393.00372zM17.877579 1005.516402l182.411904 0L200.289483 425.598918 17.877579 425.598918 17.877579 1005.516402z" fill="#272636"></path></g></g></svg>