<?xml version="1.0" encoding="UTF-8" standalone="no"?>
<svg width="18px" height="16px" viewBox="0 0 18 16" version="1.1" xmlns="http://www.w3.org/2000/svg" xmlns:xlink="http://www.w3.org/1999/xlink">
    <!-- Generator: Sketch 39.1 (31720) - http://www.bohemiancoding.com/sketch -->
    <title>直播 (1)</title>
    <desc>Created with Sketch.</desc>
    <defs></defs>
    <g id="Page-1" stroke="none" stroke-width="1" fill="none" fill-rule="evenodd">
        <g id="直播-(1)" fill="#9EA1A5">
            <path d="M6.6090384,9.55865877 L11.2584828,6.57031947 L6.6090384,3.5822915 L6.6090384,9.55865877 L6.6090384,9.55865877 L6.6090384,9.55865877 Z M15.6801969,12.6428067 L1.88271741,12.6428067 C0.922626606,12.6428067 0.141486328,11.8616664 0.141486328,10.9015756 L0.141486328,2.31144517 C0.141486328,1.35135436 0.922626625,0.570233531 1.88271741,0.570233531 L15.6801969,0.570233531 C16.640385,0.570233531 17.4214863,1.35135436 17.4214863,2.31144517 L17.4214863,10.9015562 C17.4214863,11.8616664 16.640385,12.6428067 15.6801969,12.6428067 L15.6801969,12.6428067 L15.6801969,12.6428067 Z M1.88271741,1.3601297 C1.35816301,1.3601297 0.93138248,1.78689078 0.93138248,2.31144518 L0.93138248,10.9015562 C0.93138248,11.4261301 1.35814355,11.8528911 1.88271741,11.8528911 L15.6801969,11.8528911 C16.2048486,11.8528911 16.6315902,11.4261301 16.6315902,10.9015562 L16.6315902,2.31144517 C16.6315902,1.78689076 16.2048291,1.36012968 15.6801969,1.36012968 L1.88271741,1.3601297 L1.88271741,1.3601297 L1.88271741,1.3601297 Z M11.639441,15.1744982 L5.92362895,15.1744982 C5.70558835,15.1744982 5.52871977,14.997727 5.52871977,14.7795891 C5.52871977,14.5614512 5.70558833,14.3845826 5.92362895,14.3845826 L11.639441,14.3845826 C11.8574816,14.3845826 12.0343502,14.5614512 12.0343502,14.7795891 C12.0343502,14.997727 11.8574816,15.1744982 11.639441,15.1744982 L11.639441,15.1744982 L11.639441,15.1744982 Z" id="Shape"></path>
        </g>
    </g>
</svg>