<?xml version="1.0" encoding="UTF-8" standalone="no"?>
<svg width="4px" height="30px" viewBox="0 0 4 30" version="1.1" xmlns="http://www.w3.org/2000/svg" xmlns:xlink="http://www.w3.org/1999/xlink">
    <!-- Generator: Sketch 39.1 (31720) - http://www.bohemiancoding.com/sketch -->
    <title>Shape</title>
    <desc>Created with Sketch.</desc>
    <defs></defs>
    <g id="Page-1" stroke="none" stroke-width="1" fill="none" fill-rule="evenodd">
        <g id="warning" transform="translate(-1.000000, 0.000000)" fill="#616161">
            <g id="Page-1">
                <g id="Group">
                    <path d="M3,22.0935 C2.166,22.0935 1.491,21.417 1.491,20.5845 L1.491,1.6695 C1.491,0.8355 2.166,0.1605 3,0.1605 C3.834,0.1605 4.509,0.837 4.509,1.6695 L4.509,20.5845 C4.5105,21.417 3.8355,22.0935 3,22.0935 L3,22.0935 L3,22.0935 Z M0.981,27.822 C0.981,28.9370629 1.8849371,29.841 3,29.841 C4.1150629,29.841 5.019,28.9370629 5.019,27.822 C5.019,26.7069371 4.1150629,25.803 3,25.803 C1.8849371,25.803 0.981,26.7069371 0.981,27.822 L0.981,27.822 L0.981,27.822 Z" id="Shape"></path>
                </g>
            </g>
        </g>
    </g>
</svg>