<?xml version="1.0" encoding="UTF-8"?>
<svg width="21px" height="20px" viewBox="0 0 21 20" version="1.1" xmlns="http://www.w3.org/2000/svg" xmlns:xlink="http://www.w3.org/1999/xlink">
    <!-- Generator: Sketch 41.2 (35397) - http://www.bohemiancoding.com/sketch -->
    <title>Shape</title>
    <desc>Created with Sketch.</desc>
    <defs></defs>
    <g id="Symbols" stroke="none" stroke-width="1" fill="none" fill-rule="evenodd">
        <g id="Group-13" transform="translate(-246.000000, -9.000000)" fill="#4B4B4B">
            <g id="波形图">
                <g transform="translate(246.000000, 9.000000)">
                    <path d="M9.6,20 C9.264,20 9,19.78 9,19.5 L9,0.5 C9,0.22 9.264,0 9.6,0 C9.936,0 10.2,0.22 10.2,0.5 L10.2,19.5 C10.2,19.78 9.936,20 9.6,20 L9.6,20 Z M5.6,16.6 C5.264,16.6 5,16.336 5,16 L5,4.6 C5,4.264 5.264,4 5.6,4 C5.936,4 6.2,4.264 6.2,4.6 L6.2,16 C6.2,16.336 5.936,16.6 5.6,16.6 L5.6,16.6 Z M0.6,13.852 C0.264,13.852 0,13.588 0,13.252 L0,7.6 C0,7.264 0.264,7 0.6,7 C0.936,7 1.2,7.264 1.2,7.6 L1.2,13.252 C1.2,13.588 0.936,13.852 0.6,13.852 L0.6,13.852 Z M14.6,16.6 C14.264,16.6 14,16.336 14,16 L14,4.6 C14,4.264 14.264,4 14.6,4 C14.936,4 15.2,4.264 15.2,4.6 L15.2,16 C15.2,16.336 14.936,16.6 14.6,16.6 L14.6,16.6 Z M19.6,13.852 C19.264,13.852 19,13.588 19,13.252 L19,7.6 C19,7.264 19.264,7 19.6,7 C19.936,7 20.2,7.264 20.2,7.6 L20.2,13.252 C20.2,13.588 19.936,13.852 19.6,13.852 L19.6,13.852 Z" id="Shape"></path>
                </g>
            </g>
        </g>
    </g>
</svg>