<?xml version="1.0" encoding="UTF-8" standalone="no"?>
<svg width="108px" height="19px" viewBox="0 0 108 19" version="1.1" xmlns="http://www.w3.org/2000/svg" xmlns:xlink="http://www.w3.org/1999/xlink">
    <!-- Generator: Sketch 39.1 (31720) - http://www.bohemiancoding.com/sketch -->
    <title>icon 2</title>
    <desc>Created with Sketch.</desc>
    <defs></defs>
    <g id="Page-1" stroke="none" stroke-width="1" fill="none" fill-rule="evenodd">
        <g id="icon-2" fill="#4B4B4B">
            <path d="M106.513,9.929 C106.513,9.758 106.658,9.619 106.825,9.619 C106.997,9.619 107.137,9.763 107.137,9.929 C107.137,10.1 106.992,10.239 106.825,10.239 C106.652,10.239 106.513,10.095 106.513,9.929 L106.513,9.929 Z M104.644,9.622 C104.644,9.449 104.789,9.308 104.956,9.308 C105.128,9.308 105.268,9.441 105.268,9.622 L105.268,10.236 C105.268,10.409 105.123,10.549 104.956,10.549 C104.784,10.549 104.644,10.416 104.644,10.236 L104.644,9.622 L104.644,9.622 Z M102.931,9.467 C102.931,9.294 103.076,9.153 103.243,9.153 C103.415,9.153 103.555,9.296 103.555,9.467 L103.555,10.391 C103.555,10.564 103.41,10.704 103.243,10.704 C103.071,10.704 102.931,10.561 102.931,10.391 L102.931,9.467 L102.931,9.467 Z M101.062,8.992 C101.062,8.824 101.206,8.688 101.373,8.688 C101.545,8.688 101.685,8.821 101.685,8.992 L101.685,10.866 C101.685,11.034 101.54,11.17 101.373,11.17 C101.201,11.17 101.062,11.037 101.062,10.866 L101.062,8.992 L101.062,8.992 Z M99.193,8.992 C99.193,8.824 99.338,8.688 99.505,8.688 C99.677,8.688 99.817,8.821 99.817,8.992 L99.817,10.866 C99.817,11.034 99.672,11.17 99.505,11.17 C99.332,11.17 99.193,11.037 99.193,10.866 L99.193,8.992 L99.193,8.992 Z M97.324,9.622 C97.324,9.449 97.469,9.308 97.636,9.308 C97.809,9.308 97.948,9.441 97.948,9.622 L97.948,10.236 C97.948,10.409 97.803,10.549 97.636,10.549 C97.464,10.549 97.324,10.416 97.324,10.236 L97.324,9.622 L97.324,9.622 Z M95.455,8.384 C95.455,8.209 95.601,8.067 95.767,8.067 C95.939,8.067 96.078,8.208 96.078,8.384 L96.078,11.474 C96.078,11.649 95.934,11.79 95.767,11.79 C95.595,11.79 95.455,11.649 95.455,11.474 L95.455,8.384 L95.455,8.384 Z M93.586,7.907 C93.586,7.738 93.732,7.601 93.898,7.601 C94.07,7.601 94.209,7.736 94.209,7.907 L94.209,11.951 C94.209,12.12 94.065,12.257 93.898,12.257 C93.726,12.257 93.586,12.122 93.586,11.951 L93.586,7.907 L93.586,7.907 Z M91.719,7.142 C91.719,6.967 91.863,6.826 92.03,6.826 C92.202,6.826 92.342,6.967 92.342,7.142 L92.342,12.716 C92.342,12.892 92.196,13.032 92.03,13.032 C91.858,13.032 91.719,12.891 91.719,12.716 L91.719,7.142 L91.719,7.142 Z M89.85,6.826 C89.85,6.654 89.994,6.515 90.161,6.515 C90.333,6.515 90.473,6.658 90.473,6.826 L90.473,13.032 C90.473,13.204 90.327,13.343 90.161,13.343 C89.989,13.343 89.85,13.2 89.85,13.032 L89.85,6.826 L89.85,6.826 Z M87.98,6.201 C87.98,6.032 88.125,5.895 88.292,5.895 C88.465,5.895 88.604,6.035 88.604,6.201 L88.604,13.657 C88.604,13.826 88.459,13.963 88.292,13.963 C88.12,13.963 87.98,13.823 87.98,13.657 L87.98,6.201 L87.98,6.201 Z M86.268,8.992 C86.268,8.824 86.413,8.688 86.579,8.688 C86.752,8.688 86.891,8.821 86.891,8.992 L86.891,10.866 C86.891,11.034 86.745,11.17 86.579,11.17 C86.407,11.17 86.268,11.037 86.268,10.866 L86.268,8.992 L86.268,8.992 Z M84.398,8.686 C84.398,8.516 84.543,8.377 84.71,8.377 C84.883,8.377 85.022,8.511 85.022,8.686 L85.022,11.172 C85.022,11.342 84.877,11.482 84.71,11.482 C84.538,11.482 84.398,11.348 84.398,11.172 L84.398,8.686 L84.398,8.686 Z M82.529,6.363 C82.529,6.19 82.675,6.05 82.841,6.05 C83.013,6.05 83.152,6.184 83.152,6.363 L83.152,13.495 C83.152,13.668 83.008,13.808 82.841,13.808 C82.668,13.808 82.529,13.673 82.529,13.495 L82.529,6.363 L82.529,6.363 Z M80.661,2.479 C80.661,2.308 80.806,2.169 80.973,2.169 C81.145,2.169 81.285,2.304 81.285,2.479 L81.285,17.377 C81.285,17.548 81.14,17.688 80.973,17.688 C80.801,17.688 80.661,17.552 80.661,17.377 L80.661,2.479 L80.661,2.479 Z M78.792,8.384 C78.792,8.209 78.937,8.067 79.104,8.067 C79.276,8.067 79.416,8.208 79.416,8.384 L79.416,11.474 C79.416,11.649 79.271,11.79 79.104,11.79 C78.932,11.79 78.792,11.649 78.792,11.474 L78.792,8.384 L78.792,8.384 Z M76.924,6.826 C76.924,6.654 77.069,6.515 77.236,6.515 C77.408,6.515 77.548,6.658 77.548,6.826 L77.548,13.032 C77.548,13.204 77.403,13.343 77.236,13.343 C77.064,13.343 76.924,13.2 76.924,13.032 L76.924,6.826 L76.924,6.826 Z M75.055,7.757 C75.055,7.585 75.2,7.446 75.367,7.446 C75.539,7.446 75.679,7.589 75.679,7.757 L75.679,12.101 C75.679,12.273 75.534,12.412 75.367,12.412 C75.195,12.412 75.055,12.269 75.055,12.101 L75.055,7.757 L75.055,7.757 Z M73.187,9.305 C73.187,9.136 73.331,8.998 73.498,8.998 C73.67,8.998 73.81,9.144 73.81,9.305 L73.81,10.553 C73.81,10.723 73.665,10.861 73.498,10.861 C73.326,10.861 73.187,10.715 73.187,10.553 L73.187,9.305 L73.187,9.305 Z M71.317,1.241 C71.317,1.069 71.461,0.929 71.628,0.929 C71.801,0.929 71.94,1.064 71.94,1.241 L71.94,18.617 C71.94,18.789 71.794,18.929 71.628,18.929 C71.456,18.929 71.317,18.794 71.317,18.617 L71.317,1.241 L71.317,1.241 Z M69.448,5.271 C69.448,5.1 69.593,4.962 69.76,4.962 C69.932,4.962 70.072,5.103 70.072,5.271 L70.072,14.585 C70.072,14.756 69.927,14.895 69.76,14.895 C69.588,14.895 69.448,14.753 69.448,14.585 L69.448,5.271 L69.448,5.271 Z M67.579,7.142 C67.579,6.967 67.725,6.826 67.891,6.826 C68.063,6.826 68.202,6.967 68.202,7.142 L68.202,12.716 C68.202,12.892 68.058,13.032 67.891,13.032 C67.719,13.032 67.579,12.891 67.579,12.716 L67.579,7.142 L67.579,7.142 Z M65.71,4.958 C65.71,4.789 65.856,4.653 66.022,4.653 C66.194,4.653 66.333,4.787 66.333,4.958 L66.333,14.9 C66.333,15.069 66.189,15.205 66.022,15.205 C65.85,15.205 65.71,15.071 65.71,14.9 L65.71,4.958 L65.71,4.958 Z M63.843,4.653 C63.843,4.482 63.987,4.343 64.154,4.343 C64.326,4.343 64.466,4.484 64.466,4.653 L64.466,15.205 C64.466,15.376 64.32,15.516 64.154,15.516 C63.982,15.516 63.843,15.374 63.843,15.205 L63.843,4.653 L63.843,4.653 Z M62.13,7.452 C62.13,7.278 62.274,7.136 62.441,7.136 C62.613,7.136 62.753,7.274 62.753,7.452 L62.753,12.406 C62.753,12.58 62.608,12.722 62.441,12.722 C62.269,12.722 62.13,12.583 62.13,12.406 L62.13,7.452 L62.13,7.452 Z M60.261,6.985 C60.261,6.811 60.405,6.67 60.572,6.67 C60.744,6.67 60.884,6.807 60.884,6.985 L60.884,12.873 C60.884,13.047 60.738,13.188 60.572,13.188 C60.4,13.188 60.261,13.05 60.261,12.873 L60.261,6.985 L60.261,6.985 Z M58.392,3.028 C58.392,2.854 58.537,2.713 58.704,2.713 C58.876,2.713 59.016,2.856 59.016,3.028 L59.016,16.83 C59.016,17.004 58.87,17.145 58.704,17.145 C58.531,17.145 58.392,17.001 58.392,16.83 L58.392,3.028 L58.392,3.028 Z M56.522,7.604 C56.522,7.431 56.667,7.29 56.834,7.29 C57.007,7.29 57.146,7.42 57.146,7.604 L57.146,12.252 C57.146,12.425 57.001,12.566 56.834,12.566 C56.662,12.566 56.522,12.436 56.522,12.252 L56.522,7.604 L56.522,7.604 Z M54.653,1.869 C54.653,1.693 54.799,1.55 54.965,1.55 C55.137,1.55 55.276,1.695 55.276,1.869 L55.276,17.988 C55.276,18.165 55.132,18.308 54.965,18.308 C54.792,18.308 54.653,18.162 54.653,17.988 L54.653,1.869 L54.653,1.869 Z M52.785,2.167 C52.785,1.997 52.929,1.859 53.096,1.859 C53.268,1.859 53.408,1.999 53.408,2.167 L53.408,17.69 C53.408,17.86 53.263,17.998 53.096,17.998 C52.924,17.998 52.785,17.858 52.785,17.69 L52.785,2.167 L52.785,2.167 Z M50.917,5.749 C50.917,5.572 51.061,5.429 51.228,5.429 C51.4,5.429 51.54,5.57 51.54,5.749 L51.54,14.109 C51.54,14.286 51.395,14.428 51.228,14.428 C51.056,14.428 50.917,14.287 50.917,14.109 L50.917,5.749 L50.917,5.749 Z M49.047,4.811 C49.047,4.638 49.192,4.498 49.359,4.498 C49.531,4.498 49.67,4.635 49.67,4.811 L49.67,15.047 C49.67,15.22 49.526,15.36 49.359,15.36 C49.187,15.36 49.047,15.223 49.047,15.047 L49.047,4.811 L49.047,4.811 Z M47.178,1.869 C47.178,1.693 47.323,1.55 47.49,1.55 C47.662,1.55 47.801,1.695 47.801,1.869 L47.801,17.988 C47.801,18.165 47.657,18.308 47.49,18.308 C47.318,18.308 47.178,18.162 47.178,17.988 L47.178,1.869 L47.178,1.869 Z M45.311,4.029 C45.311,3.859 45.455,3.722 45.622,3.722 C45.794,3.722 45.933,3.862 45.933,4.029 L45.933,15.829 C45.933,15.999 45.789,16.136 45.622,16.136 C45.45,16.136 45.311,15.996 45.311,15.829 L45.311,4.029 L45.311,4.029 Z M43.597,9.305 C43.597,9.136 43.741,8.998 43.908,8.998 C44.08,8.998 44.219,9.144 44.219,9.305 L44.219,10.553 C44.219,10.723 44.075,10.861 43.908,10.861 C43.736,10.861 43.597,10.715 43.597,10.553 L43.597,9.305 L43.597,9.305 Z M41.729,8.686 C41.729,8.516 41.873,8.377 42.04,8.377 C42.212,8.377 42.352,8.511 42.352,8.686 L42.352,11.172 C42.352,11.342 42.207,11.482 42.04,11.482 C41.868,11.482 41.729,11.348 41.729,11.172 L41.729,8.686 L41.729,8.686 Z M39.859,7.757 C39.859,7.585 40.003,7.446 40.17,7.446 C40.342,7.446 40.482,7.589 40.482,7.757 L40.482,12.101 C40.482,12.273 40.337,12.412 40.17,12.412 C39.998,12.412 39.859,12.269 39.859,12.101 L39.859,7.757 L39.859,7.757 Z M37.99,8.384 C37.99,8.209 38.135,8.067 38.302,8.067 C38.474,8.067 38.613,8.208 38.613,8.384 L38.613,11.474 C38.613,11.649 38.469,11.79 38.302,11.79 C38.13,11.79 37.99,11.649 37.99,11.474 L37.99,8.384 L37.99,8.384 Z M36.122,5.583 C36.122,5.412 36.267,5.273 36.434,5.273 C36.606,5.273 36.745,5.404 36.745,5.583 L36.745,14.273 C36.745,14.444 36.601,14.583 36.434,14.583 C36.262,14.583 36.122,14.452 36.122,14.273 L36.122,5.583 L36.122,5.583 Z M34.253,4.958 C34.253,4.789 34.397,4.653 34.564,4.653 C34.736,4.653 34.876,4.787 34.876,4.958 L34.876,14.9 C34.876,15.069 34.731,15.205 34.564,15.205 C34.392,15.205 34.253,15.071 34.253,14.9 L34.253,4.958 L34.253,4.958 Z M32.384,7.142 C32.384,6.967 32.528,6.826 32.695,6.826 C32.867,6.826 33.007,6.967 33.007,7.142 L33.007,12.716 C33.007,12.892 32.862,13.032 32.695,13.032 C32.523,13.032 32.384,12.891 32.384,12.716 L32.384,7.142 L32.384,7.142 Z M30.516,4.958 C30.516,4.789 30.661,4.653 30.828,4.653 C31,4.653 31.139,4.787 31.139,4.958 L31.139,14.9 C31.139,15.069 30.994,15.205 30.828,15.205 C30.656,15.205 30.516,15.071 30.516,14.9 L30.516,4.958 L30.516,4.958 Z M28.646,4.029 C28.646,3.859 28.791,3.722 28.958,3.722 C29.13,3.722 29.269,3.862 29.269,4.029 L29.269,15.829 C29.269,15.999 29.125,16.136 28.958,16.136 C28.786,16.136 28.646,15.996 28.646,15.829 L28.646,4.029 L28.646,4.029 Z M26.777,5.893 C26.777,5.723 26.922,5.584 27.089,5.584 C27.261,5.584 27.4,5.721 27.4,5.893 L27.4,13.965 C27.4,14.135 27.256,14.275 27.089,14.275 C26.917,14.275 26.777,14.137 26.777,13.965 L26.777,5.893 L26.777,5.893 Z M25.064,9.622 C25.064,9.449 25.209,9.308 25.376,9.308 C25.548,9.308 25.687,9.441 25.687,9.622 L25.687,10.236 C25.687,10.409 25.543,10.549 25.376,10.549 C25.204,10.549 25.064,10.416 25.064,10.236 L25.064,9.622 L25.064,9.622 Z M23.196,7.298 C23.196,7.123 23.34,6.981 23.507,6.981 C23.679,6.981 23.819,7.126 23.819,7.298 L23.819,12.56 C23.819,12.735 23.674,12.876 23.507,12.876 C23.335,12.876 23.196,12.731 23.196,12.56 L23.196,7.298 L23.196,7.298 Z M21.328,8.384 C21.328,8.209 21.472,8.067 21.639,8.067 C21.811,8.067 21.951,8.208 21.951,8.384 L21.951,11.474 C21.951,11.649 21.806,11.79 21.639,11.79 C21.467,11.79 21.328,11.649 21.328,11.474 L21.328,8.384 L21.328,8.384 Z M19.458,5.475 C19.458,5.3 19.603,5.157 19.77,5.157 C19.942,5.157 20.081,5.292 20.081,5.475 L20.081,14.383 C20.081,14.559 19.937,14.701 19.77,14.701 C19.598,14.701 19.458,14.566 19.458,14.383 L19.458,5.475 L19.458,5.475 Z M17.589,8.992 C17.589,8.824 17.734,8.688 17.901,8.688 C18.073,8.688 18.212,8.821 18.212,8.992 L18.212,10.866 C18.212,11.034 18.068,11.17 17.901,11.17 C17.729,11.17 17.589,11.037 17.589,10.866 L17.589,8.992 L17.589,8.992 Z M15.721,6.667 C15.721,6.497 15.865,6.36 16.032,6.36 C16.204,6.36 16.343,6.496 16.343,6.667 L16.343,13.191 C16.343,13.361 16.199,13.498 16.032,13.498 C15.86,13.498 15.721,13.362 15.721,13.191 L15.721,6.667 L15.721,6.667 Z M13.853,7.142 C13.853,6.967 13.997,6.826 14.164,6.826 C14.336,6.826 14.476,6.967 14.476,7.142 L14.476,12.716 C14.476,12.892 14.331,13.032 14.164,13.032 C13.992,13.032 13.853,12.891 13.853,12.716 L13.853,7.142 L13.853,7.142 Z M11.983,8.992 C11.983,8.824 12.127,8.688 12.294,8.688 C12.466,8.688 12.606,8.821 12.606,8.992 L12.606,10.866 C12.606,11.034 12.461,11.17 12.294,11.17 C12.122,11.17 11.983,11.037 11.983,10.866 L11.983,8.992 L11.983,8.992 Z M10.114,7.604 C10.114,7.431 10.259,7.29 10.426,7.29 C10.598,7.29 10.737,7.42 10.737,7.604 L10.737,12.252 C10.737,12.425 10.593,12.566 10.426,12.566 C10.254,12.566 10.114,12.436 10.114,12.252 L10.114,7.604 L10.114,7.604 Z M8.246,9.305 C8.246,9.136 8.391,8.998 8.558,8.998 C8.73,8.998 8.869,9.144 8.869,9.305 L8.869,10.553 C8.869,10.723 8.725,10.861 8.558,10.861 C8.386,10.861 8.246,10.715 8.246,10.553 L8.246,9.305 L8.246,9.305 Z M6.377,9.467 C6.377,9.294 6.521,9.153 6.688,9.153 C6.86,9.153 7,9.296 7,9.467 L7,10.391 C7,10.564 6.855,10.704 6.688,10.704 C6.516,10.704 6.377,10.561 6.377,10.391 L6.377,9.467 L6.377,9.467 Z M4.665,9.929 C4.665,9.758 4.809,9.619 4.976,9.619 C5.148,9.619 5.287,9.763 5.287,9.929 C5.287,10.1 5.143,10.239 4.976,10.239 C4.803,10.239 4.665,10.095 4.665,9.929 L4.665,9.929 Z M2.795,9.467 C2.795,9.294 2.939,9.153 3.106,9.153 C3.278,9.153 3.418,9.296 3.418,9.467 L3.418,10.391 C3.418,10.564 3.273,10.704 3.106,10.704 C2.934,10.704 2.795,10.561 2.795,10.391 L2.795,9.467 L2.795,9.467 Z M0.926,9.929 C0.926,9.758 1.07,9.619 1.237,9.619 C1.409,9.619 1.549,9.763 1.549,9.929 C1.549,10.1 1.404,10.239 1.237,10.239 C1.065,10.239 0.926,10.095 0.926,9.929 L0.926,9.929 Z" id="Shape"></path>
        </g>
    </g>
</svg>