<?xml version="1.0" encoding="UTF-8" standalone="no"?>
<svg width="106px" height="24px" viewBox="0 0 106 24" version="1.1" xmlns="http://www.w3.org/2000/svg" xmlns:xlink="http://www.w3.org/1999/xlink">
    <!-- Generator: Sketch 39.1 (31720) - http://www.bohemiancoding.com/sketch -->
    <title>Group</title>
    <desc>Created with Sketch.</desc>
    <defs></defs>
    <g id="Page-1" stroke="none" stroke-width="1" fill="none" fill-rule="evenodd">
        <g id="Group" stroke="#4B4B4B">
            <path d="M0.5,0 L0.5,23.1769387" id="Path-2"></path>
            <path d="M2.5,1 L2.5,22.5" id="Path-2"></path>
            <path d="M0,11.25 L105.501183,11.25" id="Path-2" stroke-width="0.5"></path>
            <path d="M4.5,2 L4.5,20.5" id="Path-2-Copy"></path>
            <path d="M6.5,3 L6.5,19.6207695" id="Path-2-Copy-2"></path>
            <path d="M8.5,4 L8.5,19.5322247" id="Path-2-Copy-3"></path>
            <path d="M10.5,4 L10.5,19.5322247" id="Path-2-Copy-4"></path>
            <path d="M12.5,5 L12.5,18.5" id="Path-2-Copy-5"></path>
            <path d="M14.5,6 L14.5,17.5" id="Path-2-Copy-6"></path>
            <path d="M16.5,7 L16.5,16.5" id="Path-2-Copy-7"></path>
            <path d="M18.5,7 L18.5,15.5" id="Path-2-Copy-8"></path>
            <path d="M20.5,9 L20.5,13.5" id="Path-2-Copy-9"></path>
            <path d="M22.5,10 L22.5,13.5" id="Path-2-Copy-10"></path>
            <path d="M24.5,10 L24.5,13.5" id="Path-2-Copy-11"></path>
            <path d="M26.5,10 L26.5,12.5" id="Path-2-Copy-12"></path>
            <path d="M28.5,8 L28.5,14.5" id="Path-2-Copy-13"></path>
            <path d="M30.5,9 L30.5,13.5" id="Path-2-Copy-14"></path>
            <path d="M32.5,9 L32.5,14.5" id="Path-2-Copy-15"></path>
            <path d="M34.5,8 L34.5,14.5" id="Path-2-Copy-16"></path>
            <path d="M36.5,8 L36.5,15.5" id="Path-2-Copy-17"></path>
            <path d="M38.5,7 L38.5,15.5" id="Path-2-Copy-18"></path>
            <path d="M40.5,7 L40.5,16.5" id="Path-2-Copy-19"></path>
            <path d="M42.5,7 L42.5,16.5" id="Path-2-Copy-20"></path>
            <path d="M44.5,6 L44.5,16.5" id="Path-2-Copy-21"></path>
            <path d="M46.5,6 L46.5,17.5" id="Path-2-Copy-22"></path>
            <path d="M48.5,5 L48.5,17.5" id="Path-2-Copy-23"></path>
            <path d="M50.5,6 L50.5,16.5" id="Path-2-Copy-24"></path>
            <path d="M52.5,8 L52.5,15.5" id="Path-2-Copy-25"></path>
            <path d="M54.5,9 L54.5,14.5" id="Path-2-Copy-26"></path>
            <path d="M56.5,9 L56.5,13.5" id="Path-2-Copy-27"></path>
            <path d="M58.5,10 L58.5,13.5" id="Path-2-Copy-27"></path>
            <path d="M60.5,10 L60.5,12.5" id="Path-2-Copy-28"></path>
            <path d="M62.5,11 L62.5,12.5" id="Path-2-Copy-29"></path>
            <path d="M64.5,10 L64.5,12.5" id="Path-2-Copy-30"></path>
            <path d="M66.5,9 L66.5,13.5" id="Path-2-Copy-31"></path>
            <path d="M68.5,9 L68.5,14.5" id="Path-2-Copy-32"></path>
            <path d="M70.5,9 L70.5,13.5" id="Path-2-Copy-33"></path>
            <path d="M72.5,7 L72.5,16.5" id="Path-2-Copy-34"></path>
            <path d="M74.5,5 L74.5,18.5" id="Path-2-Copy-35"></path>
            <path d="M76.5,9 L76.5,14.5" id="Path-2-Copy-36"></path>
            <path d="M78.5,7 L78.5,15.5" id="Path-2-Copy-37"></path>
            <path d="M80.5,8 L80.5,14.5" id="Path-2-Copy-38"></path>
            <path d="M82.5,8 L82.5,14.5" id="Path-2-Copy-39"></path>
            <path d="M84.5,8 L84.5,14.5" id="Path-2-Copy-40"></path>
            <path d="M86.5,9 L86.5,14.5" id="Path-2-Copy-41"></path>
            <path d="M88.5,10 L88.5,12.5" id="Path-2-Copy-42"></path>
            <path d="M90.5,9 L90.5,13.5" id="Path-2-Copy-43"></path>
            <path d="M92.5,10 L92.5,12.5" id="Path-2-Copy-44"></path>
            <path d="M94.5,10 L94.5,12.5" id="Path-2-Copy-45"></path>
            <path d="M96.5,10 L96.5,12.5" id="Path-2-Copy-46"></path>
            <path d="M98.5,10 L98.5,12.5" id="Path-2-Copy-47"></path>
            <path d="M100.5,10.5 L100.5,12.5" id="Path-2-Copy-48"></path>
        </g>
    </g>
</svg>