<svg width="126" height="86" viewBox="0 0 126 86" xmlns="http://www.w3.org/2000/svg"><title>Combined Shape</title><path d="M16.673 69.624v-29.22H58.21v29.22H16.674zm4.57-4.57h32.4V44.973h-32.4v20.083zM94.114 45.35H81.87v35.927h-7.74v-4.51h3.173V45.348H65.23V19.702h28.885V45.35zM69.73 40.847h19.885V24.204H69.73v16.644zm51.185 35.918v-53.41h4.568v57.92h-14.885V47.052h4.568v29.716h5.75zM120.95 0h4.567v12.48h-13.69c.008 11.647 0 26.18 0 26.18v2.286h-7.313v40.33h-4.57v-44.9h7.31c-.004-4.76.006-14.956 0-23.897h-7.2V7.91h7.2c-.004-4.387 0-7.584 0-7.91h4.572c0 .326-.003 3.524 0 7.91h9.123V0zM88.613 81.277V54.91h4.568v26.367h-4.568zM77.094 0h4.567v7.91h13.35v4.57H40.52v15.047l17.132.024-.007 4.57-41.415-.056.007-4.568 19.716.025V12.48H16.217V0h4.57v7.91h15.166V0h4.568v7.91h36.573V0zm-11.72 76.59V54.91h4.57v26.368H9.307v4.246h-4.57v-4.246H.91V76.59h3.83V26.212l4.57.002V76.59h56.067zM4.74 20.394V0h4.568v20.393h-4.57z" fill-rule="nonzero" fill="#00ECD8"/></svg>