<?xml version="1.0" encoding="UTF-8" standalone="no"?>
<svg width="23px" height="18px" viewBox="0 0 23 18" version="1.1" xmlns="http://www.w3.org/2000/svg" xmlns:xlink="http://www.w3.org/1999/xlink">
    <!-- Generator: Sketch 39.1 (31720) - http://www.bohemiancoding.com/sketch -->
    <title>chat3</title>
    <desc>Created with Sketch.</desc>
    <defs></defs>
    <g id="Page-1" stroke="none" stroke-width="1" fill="none" fill-rule="evenodd">
        <g id="chat3" fill="#4B4B4B">
            <path d="M22.1,10.4 C22.1,7.9 20,5.8 17,4.8 C16.1,2 12.7,0 8.6,0 C3.9,0 0,2.7 0,6.1 C0,7.7 0.9,9.2 2.4,10.3 L1.1,12.7 C1,12.9 1,13.2 1.2,13.4 C1.3,13.5 1.5,13.6 1.6,13.6 C1.7,13.6 1.8,13.6 1.9,13.499 L5.1,11.8 C6,14.499 9.4,16.4 13.4,16.4 C14.5,16.4 15.599,16.3 16.599,16 L20,17.8 C20.1,17.8 20.2,17.9 20.3,17.9 C20.401,17.9 20.6,17.8 20.7,17.7 C20.9,17.5 20.9,17.2 20.8,17 L19.5,14.6 C21.2,13.5 22.1,12 22.1,10.4 L22.1,10.4 Z M19,14.2 C18.7,14.4 18.6,14.7 18.8,15.1 L20.1,17 L17.4,15.2 C17.299,15.1 17.2,15.1 17.099,15.1 L16.9,15.1 C15.9,15.4 14.7,15.6 13.599,15.6 C10.2,15.6 7.2,14.1 6.099,12.1 C6.799,12.2 7.599,12.4 8.299,12.4 C13.299,12.4 17.199,9.5 17.199,5.9 C19.499,6.8 21.299,8.5 21.299,10.5 C21.3,11.8 20.5,13.2 19,14.2 L19,14.2 Z M3.5,10.7 C3.7,10.4 3.6,10 3.3,9.8 C1.7,8.8 0.9,7.5 0.9,6 C0.9,3.1 4.4,0.8 8.7,0.8 C13,0.8 16.5,3.1 16.5,6 C16.5,8.9 13,11.2 8.7,11.2 C7.6,11.2 6.4,11 5.4,10.7 C5.2,10.6 5.1,10.7 4.9,10.801 L2.2,12.5 L3.5,10.7 L3.5,10.7 Z" id="Shape"></path>
        </g>
    </g>
</svg>