<?xml version="1.0" encoding="UTF-8" standalone="no"?>
<svg width="22px" height="20px" viewBox="0 0 22 20" version="1.1" xmlns="http://www.w3.org/2000/svg" xmlns:xlink="http://www.w3.org/1999/xlink">
    <!-- Generator: Sketch 39.1 (31720) - http://www.bohemiancoding.com/sketch -->
    <title>Shape</title>
    <desc>Created with Sketch.</desc>
    <defs></defs>
    <g id="Page-1" stroke="none" stroke-width="1" fill="none" fill-rule="evenodd">
        <g id="chat2" fill="#4B4B4B">
            <path d="M10.5,11.412 L6.2,11.412 C6.1,11.412 5.9,11.259 5.9,11.012 C5.9,10.812 6,10.612 6.2,10.612 L10.5,10.612 C10.6,10.612 10.8,10.73 10.8,11.012 C10.8,11.317 10.6,11.412 10.5,11.412 M14.2,9.112 L6.2,9.112 C6,9.112 5.9,8.912 5.9,8.712 C5.9,8.512 6,8.312 6.2,8.312 L14.2,8.312 C14.4,8.312 14.5,8.512 14.5,8.712 C14.5,8.912 14.4,9.112 14.2,9.112 M16.7,6.812 L6.3,6.812 C6.1,6.812 5.9,6.612 5.9,6.412 C5.9,6.212 6.1,6.012 6.3,6.012 L16.7,6.012 C16.9,6.012 17.099,6.212 17.099,6.412 C17.1,6.612 16.9,6.812 16.7,6.812 M11,0.912 C5.4,0.912 0.8,4.312 0.8,8.512 C0.8,10.312 1.7,12.112 3.3,13.512 C3.4,13.612 3.5,13.812 3.4,13.912 L2.2,18.412 L8.3,16.012 L8.5,16.012 C9.3,16.212 10.1,16.212 10.9,16.212 C16.5,16.212 21.1,12.812 21.1,8.612 C21.2,4.312 16.6,0.912 11,0.912 M1.6,19.412 C1.5,19.412 1.4,19.412 1.3,19.311 C1.2,19.211 1.1,19.011 1.2,18.912 L2.5,13.912 C0.9,12.412 0,10.512 0,8.512 C0,3.812 4.9,0.012 11,0.012 C17.1,0.012 22,3.812 22,8.512 C22,13.212 17.1,17.012 11,17.012 C10.2,17.012 9.3,16.912 8.5,16.812" id="Shape"></path>
        </g>
    </g>
</svg>