<?xml version="1.0" encoding="UTF-8" standalone="no"?>

<svg width="19px" height="22px" viewBox="0 0 19 22" version="1.1" xmlns="http://www.w3.org/2000/svg" xmlns:xlink="http://www.w3.org/1999/xlink">
  <!-- Generator: Sketch 39.1 (31720) - http://www.bohemiancoding.com/sketch -->
  <desc>Created with Sketch.</desc>
  <defs></defs>
  <path d="M18.0888889,3.00666667 L13.0777778,3.00666667 L13.0777778,0.708888889 C13.0777778,0.44 12.8577778,0.22 12.5888889,0.22 L5.98888889,0.22 C5.72,0.22 5.5,0.44 5.5,0.708888889 L5.5,3.00666667 L0.488888889,3.00666667 C0.22,3.00666667 0,3.22666667 0,3.49555556 C0,3.76444444 0.22,3.98444444 0.488888889,3.98444444 L2.32222222,3.98444444 L2.34666667,21.3155556 C2.34666667,21.5844444 2.56666667,21.78 2.83555556,21.78 L15.7666667,21.78 C16.0355556,21.78 16.2555556,21.56 16.2555556,21.3155556 L16.28,3.98444444 L18.0888889,3.98444444 C18.3577778,3.98444444 18.5777778,3.76444444 18.5777778,3.49555556 C18.5777778,3.22666667 18.3577778,3.00666667 18.0888889,3.00666667 L18.0888889,3.00666667 Z M6.47777778,1.19777778 L12.1,1.19777778 L12.1,3.00666667 L6.47777778,3.00666667 L6.47777778,1.19777778 L6.47777778,1.19777778 Z M15.2777778,20.8022222 L3.3,20.8022222 L3.3,3.98444444 L15.2777778,3.98444444 L15.2777778,20.8022222 L15.2777778,20.8022222 Z" id="Shape" stroke="none" fill="#FFFFFF" fill-rule="evenodd"></path>
  <path d="M9.28888889,6.86888889 C9.02,6.86888889 8.8,7.08888889 8.8,7.35777778 L8.8,17.0377778 C8.8,17.3066667 9.02,17.5266667 9.28888889,17.5266667 C9.55777778,17.5266667 9.77777778,17.3066667 9.77777778,17.0377778 L9.77777778,7.35777778 C9.77777778,7.08888889 9.55777778,6.86888889 9.28888889,6.86888889 L9.28888889,6.86888889 Z M12.3933333,6.86888889 C12.1244444,6.86888889 11.9044444,7.08888889 11.9044444,7.33333333 L11.88,17.0133333 C11.88,17.2822222 12.0755556,17.5022222 12.3444444,17.5266667 L12.3688889,17.5266667 C12.6377778,17.5266667 12.8577778,17.3066667 12.8577778,17.0622222 L12.8822222,7.38222222 C12.8822222,7.11333333 12.6866667,6.89333333 12.3933333,6.86888889 L12.3933333,6.86888889 Z M6.16,6.86888889 C5.89111111,6.86888889 5.67111111,7.08888889 5.69555556,7.38222222 L5.72,17.0622222 C5.72,17.3311111 5.94,17.5266667 6.20888889,17.5266667 L6.23333333,17.5266667 C6.50222222,17.5266667 6.72222222,17.3066667 6.69777778,17.0133333 L6.67333333,7.33333333 C6.67333333,7.08888889 6.45333333,6.86888889 6.16,6.86888889 L6.16,6.86888889 Z" id="Shape" stroke="none" fill="#FFFFFF" fill-rule="evenodd"></path>
</svg>
