<?xml version="1.0" standalone="no"?><!DOCTYPE svg PUBLIC "-//W3C//DTD SVG 1.1//EN" "http://www.w3.org/Graphics/SVG/1.1/DTD/svg11.dtd"><svg width="200" height="200" viewBox="0 0 200 200" version="1.1" xmlns="http://www.w3.org/2000/svg" xmlns:xlink="http://www.w3.org/1999/xlink"><defs><style type="text/css"><![CDATA[
@font-face { font-family: ifont; src: url("//at.alicdn.com/t/font_1442373896_4754455.eot?#iefix") format("embedded-opentype"), url("//at.alicdn.com/t/font_1442373896_4754455.woff") format("woff"), url("//at.alicdn.com/t/font_1442373896_4754455.ttf") format("truetype"), url("//at.alicdn.com/t/font_1442373896_4754455.svg#ifont") format("svg"); }

]]></style></defs><g class="transform-group"><g transform="scale(0.1953125, 0.1953125)"><path d="M277.692 416.656c-45.197 0-81.966-36.774-81.966-81.972s36.769-81.966 81.966-81.966 81.966 36.769 81.966 81.966S322.89 416.656 277.692 416.656zM277.692 274.803c-33.017 0-59.882 26.864-59.882 59.882s26.865 59.882 59.882 59.882c33.018 0 59.882-26.864 59.882-59.882S310.71 274.803 277.692 274.803zM135.845 724.001c-3.359 0-6.671-1.523-8.844-4.413-3.661-4.883-2.667-11.807 2.209-15.468l189.141-141.848c4.395-3.299 10.548-2.859 14.432 1.03l86.758 86.758 228.612-228.618c4.142-4.142 11.476-4.142 15.617 0l236.427 236.427c4.317 4.317 4.317 11.301 0 15.618-4.316 4.316-11.301 4.316-15.617 0L655.961 444.869 427.349 673.481c-4.142 4.142-11.475 4.142-15.617 0l-87.788-87.794L142.468 721.791C140.481 723.284 138.157 724.001 135.845 724.001zM896.367 924.96 122.792 924.96c-35.173 0-63.783-26.588-63.783-59.274L59.009 158.314c0-32.687 28.61-59.274 63.783-59.274l773.575 0c35.173 0 63.789 26.587 63.789 59.274l0 707.371C960.156 898.372 931.54 924.96 896.367 924.96zM122.792 121.13c-22.993 0-41.699 16.683-41.699 37.184l0 707.371c0 20.507 18.706 37.184 41.699 37.184l773.575 0c22.993 0 41.699-16.683 41.699-37.184L938.066 158.314c0-20.507-18.706-37.184-41.699-37.184L122.792 121.13z" fill="#272636"></path></g></g></svg>