<?xml version="1.0" encoding="UTF-8" standalone="no"?>

<svg width="21px" height="20px" viewBox="19 20 21 20" version="1.1" xmlns="http://www.w3.org/2000/svg"
     xmlns:xlink="http://www.w3.org/1999/xlink">
  <!-- Generator: Sketch 39.1 (31720) - http://www.bohemiancoding.com/sketch -->
  <desc>Created with Sketch.</desc>
  <defs></defs>
  <path
    d="M31.725539,28.274611 L31.725539,21.7245413 C31.725539,20.774224 30.9485695,20.00035 30.0013477,20.00035 C29.0510305,20.00035 28.2771564,20.774224 28.2771564,21.7245413 L28.2771564,28.274611 L21.7239913,28.274611 C20.7767695,28.274611 19.9998,29.0515805 19.9998,29.9988023 C19.9998,30.946024 20.7767695,31.7229936 21.7239913,31.7229936 L28.2771564,31.7229936 L28.2771564,38.2730632 C28.2771564,39.2233805 29.0510305,39.9972545 30.0013477,39.9972545 C30.9485695,39.9972545 31.725539,39.2233805 31.725539,38.2730632 L31.725539,31.7229936 L38.2756087,31.7229936 C39.2228305,31.7229936 39.9998,30.946024 39.9998,29.9988023 C39.9998,29.0515805 39.2228305,28.274611 38.2756087,28.274611 L31.725539,28.274611 Z"
    id="Fill-1" stroke="none" fill="#4B4B4B" fill-rule="evenodd"></path>
</svg>
