<?xml version="1.0" encoding="UTF-8"?>
<svg width="10px" height="10px" viewBox="0 0 10 10" version="1.1" xmlns="http://www.w3.org/2000/svg" xmlns:xlink="http://www.w3.org/1999/xlink">
    <!-- Generator: Sketch 41.2 (35397) - http://www.bohemiancoding.com/sketch -->
    <title>主</title>
    <desc>Created with Sketch.</desc>
    <defs></defs>
    <g id="Symbols" stroke="none" stroke-width="1" fill="none" fill-rule="evenodd">
        <g id="主" transform="translate(-4.000000, -3.000000)" fill="#000000">
            <path d="M8.64,6.24 L8.64,8.6 L5.4,8.6 L5.4,9.27 L8.64,9.27 L8.64,11.95 L4.57,11.95 L4.57,12.66 L13.44,12.66 L13.44,11.95 L9.37,11.95 L9.37,9.27 L12.61,9.27 L12.61,8.6 L9.37,8.6 L9.37,6.24 L13.09,6.24 L13.09,5.53 L8.97,5.53 L9.36,5.38 C9.22,4.9 9.03,4.38 8.78,3.81 L8.08,4 C8.32,4.49 8.53,5 8.7,5.53 L4.92,5.53 L4.92,6.24 L8.64,6.24 Z"></path>
        </g>
    </g>
</svg>