<?xml version="1.0" encoding="UTF-8" standalone="no"?>


<svg width="22px" height="22px" viewBox="0 0 22 22" version="1.1" xmlns="http://www.w3.org/2000/svg" xmlns:xlink="http://www.w3.org/1999/xlink">
  <!-- Generator: Sketch 40 (33762) - http://www.bohemiancoding.com/sketch -->
  <desc>Created with Sketch.</desc>
  <defs></defs>
  <path d="M11,0 C4.95000988,0 0,4.9499879 0,11 C0,17.0500121 4.95000988,22 11,22 C17.0499901,22 22,17.0499901 22,11 C22,4.95000988 17.0499901,0 11,0 L11,0 L11,0 Z M11,21.2142747 C5.38212692,21.2142747 0.785725273,16.6178511 0.785725273,11 C0.785725273,5.3821489 5.3821489,0.785703295 11,0.785703295 C16.6178511,0.785703295 21.2142967,5.38212692 21.2142967,11 C21.2142967,16.6178731 16.6178511,21.2142747 11,21.2142747 L11,21.2142747 L11,21.2142747 Z M16.466132,14.3660718 L5.53646229,14.3660718 C5.32555929,14.3660718 5.15464716,14.1950937 5.15464716,13.9842347 L5.15464716,13.3160637 C5.15464716,13.1051607 5.32555927,12.9342266 5.53646229,12.9342266 L15.4161459,12.9342266 L15.4161459,8.06602324 C15.4161459,7.85514222 15.587058,7.6842081 15.797961,7.6842081 L16.4661539,7.6842081 C16.677013,7.6842081 16.8479691,7.85512022 16.8479691,8.06602324 L16.8479691,13.3160857 L16.8479691,13.5069823 L16.8479691,13.9842347 C16.8479691,14.1951377 16.677035,14.3660718 16.466132,14.3660718 L16.466132,14.3660718 L16.466132,14.3660718 Z M13.8411117,11.7410516 L10.7865467,11.7410516 C10.5756437,11.7410516 10.4047316,11.5700955 10.4047316,11.3592364 L10.4047316,10.6910435 C10.4047316,10.4801625 10.5756437,10.3092283 10.7865467,10.3092283 L13.8411337,10.3092283 C14.0520367,10.3092283 14.2229488,10.4801405 14.2229488,10.6910435 L14.2229488,11.3592364 C14.2229488,11.5701175 14.0519928,11.7410516 13.8411117,11.7410516 L13.8411117,11.7410516 L13.8411117,11.7410516 Z M13.8411117,9.11603133 L12.2183699,9.11603133 C12.0074669,9.11603133 11.8365548,8.94507524 11.8365548,8.73419422 L11.8365548,8.06602324 C11.8365548,7.85514222 12.0075109,7.68418612 12.2183699,7.68418612 L13.8411117,7.68418612 C14.0520147,7.68418612 14.2229269,7.85514222 14.2229269,8.06602324 L14.2229269,8.73419422 C14.2229488,8.94507524 14.0519928,9.11603133 13.8411117,9.11603133 L13.8411117,9.11603133 L13.8411117,9.11603133 Z M10.5001469,9.11603133 L8.87740513,9.11603133 C8.66650213,9.11603133 8.49559,8.94507524 8.49559,8.73419422 L8.49559,8.06602324 C8.49559,7.85514222 8.66650211,7.68418612 8.87740513,7.68418612 L10.5001469,7.68418612 C10.7110499,7.68418612 10.8819621,7.85514222 10.8819621,8.06602324 L10.8819621,8.73419422 C10.882006,8.94507524 10.7110499,9.11603133 10.5001469,9.11603133 L10.5001469,9.11603133 L10.5001469,9.11603133 Z M7.15922606,9.11603133 L5.53648427,9.11603133 C5.32558127,9.11603133 5.15466914,8.94507524 5.15466914,8.73419422 L5.15466914,8.06602324 C5.15466914,7.85514222 5.32558125,7.68418612 5.53648427,7.68418612 L7.15922606,7.68418612 C7.37012906,7.68418612 7.54104119,7.85514222 7.54104119,8.06602324 L7.54104119,8.73419422 C7.54104117,8.94507524 7.37010708,9.11603133 7.15922606,9.11603133 L7.15922606,9.11603133 L7.15922606,9.11603133 Z M5.53646229,10.3092064 L8.59104929,10.3092064 C8.80193031,10.3092064 8.97286442,10.4801625 8.97286442,10.6910215 L8.97286442,11.3592145 C8.97286442,11.5701175 8.80195231,11.7410296 8.59104929,11.7410296 L5.53646229,11.7410296 C5.32555929,11.7410296 5.15464716,11.5700735 5.15464716,11.3592145 L5.15464716,10.6910215 C5.15464716,10.4801625 5.32560325,10.3092064 5.53646229,10.3092064 L5.53646229,10.3092064 L5.53646229,10.3092064 Z" id="Shape" stroke="none" fill="#272636" fill-rule="evenodd"></path>
</svg>
