<svg width="66" height="66" viewBox="0 0 66 66" xmlns="http://www.w3.org/2000/svg" xmlns:xlink="http://www.w3.org/1999/xlink"><title>Group</title><defs><path d="M0 30.006C0 46.582 13.44 60 30 60c16.56 0 30-13.43 30-30.006S46.56 0 30 0C13.44 0 0 13.43 0 30.006z" id="b"/><filter x="-6.2%" y="-6.2%" width="112.5%" height="112.5%" filterUnits="objectBoundingBox" id="a"><feMorphology radius=".75" operator="dilate" in="SourceAlpha" result="shadowSpreadOuter1"/><feOffset in="shadowSpreadOuter1" result="shadowOffsetOuter1"/><feGaussianBlur stdDeviation="1" in="shadowOffsetOuter1" result="shadowBlurOuter1"/><feComposite in="shadowBlurOuter1" in2="SourceAlpha" operator="out" result="shadowBlurOuter1"/><feColorMatrix values="0 0 0 0 0.563190901 0 0 0 0 0.563190901 0 0 0 0 0.563190901 0 0 0 1 0" in="shadowBlurOuter1"/></filter></defs><g fill="none" fill-rule="evenodd"><g transform="translate(3 3)"><use fill="#000" filter="url(#a)" xlink:href="#b"/><use stroke="#FFF" stroke-width="1.5" fill-opacity=".3" fill="#FFF" xlink:href="#b"/></g><path d="M29.257 20.7c-.215-.24-.526-.395-.872-.395-.25 0-.49.084-.682.215-.06.036-.108.084-.155.132-.287.287-.395.682-.323 1.052V44.32c-.072.37.036.765.323 1.052.454.454 1.195.454 1.65 0L44.18 33.855c.227-.227.347-.538.335-.85 0-.31-.108-.61-.335-.848L29.257 20.7z" fill="#FFF"/></g></svg>