
<svg width="15px" height="20px" viewBox="0 0 15 20" version="1.1" xmlns="http://www.w3.org/2000/svg" xmlns:xlink="http://www.w3.org/1999/xlink">
  <!-- Generator: Sketch 43.1 (39012) - http://www.bohemiancoding.com/sketch -->
  <desc>Created with Sketch.</desc>
  <defs></defs>
  <g id="Page-1" stroke="none" stroke-width="1" fill="none" fill-rule="evenodd">
    <g id="底部工具栏-copy" transform="translate(-290.000000, -14.000000)" fill="#00D7C6">
      <g id="收藏" transform="translate(290.000000, 14.000000)">
        <path d="M13.3963105,-1.77635684e-15 L1.61218897,-1.77635684e-15 C0.730383951,-1.77635684e-15 0.00890712136,0.727544685 0.00890712136,1.61676597 C0.00890712136,1.61676597 -0.0111339017,19.4416107 0.00890712136,19.4416107 C0.0489891675,19.7245448 0.289481444,19.9266405 0.59009679,19.9266405 C0.790507021,19.9266405 1.07108134,19.6841256 1.07108134,19.6841256 L7.50424974,14.1871213 L14.1177874,19.8660118 C14.3181976,20.047898 14.638854,20.047898 14.8392642,19.8458022 C14.9194283,19.7649639 14.9795513,19.6437065 14.9795513,19.522449 L14.9995924,1.61676597 C15.0196334,0.727544685 14.2981566,-1.77635684e-15 13.3963105,-1.77635684e-15 Z" id="Shape"></path>
      </g>
    </g>
  </g>
</svg>
