<?xml version="1.0" encoding="UTF-8" standalone="no"?>
<svg width="22px" height="20px" viewBox="0 0 22 20" version="1.1" xmlns="http://www.w3.org/2000/svg" xmlns:xlink="http://www.w3.org/1999/xlink">
    <!-- Generator: Sketch 39.1 (31720) - http://www.bohemiancoding.com/sketch -->
    <title>Group</title>
    <desc>Created with Sketch.</desc>
    <defs></defs>
    <g id="Page-1" stroke="none" stroke-width="1" fill="none" fill-rule="evenodd">
        <g id="chat2-disabled" fill="#4B4B4B">
            <g id="Group">
                <path d="M14.5,8.715 C14.5,8.515 14.4,8.315 14.2,8.315 L6.2,8.315 C6,8.315 5.9,8.515 5.9,8.715 C5.9,8.915 6,9.115 6.2,9.115 L14.2,9.115 C14.4,9.115 14.5,8.915 14.5,8.715" id="Shape"></path>
                <path d="M6.3,6.815 L16.7,6.815 C16.9,6.815 17.099,6.615 17.099,6.415 C17.099,6.215 16.9,6.015 16.7,6.015 L6.3,6.015 C6.1,6.015 5.9,6.215 5.9,6.415 C5.9,6.615 6.1,6.815 6.3,6.815" id="Shape"></path>
                <path d="M10.5,10.615 L6.2,10.615 C6,10.615 5.9,10.815 5.9,11.015 C5.9,11.262 6.1,11.414 6.2,11.414 L10.5,11.414 C10.6,11.414 10.8,11.32 10.8,11.015 C10.8,10.733 10.6,10.615 10.5,10.615" id="Shape"></path>
                <path d="M18.414,14.677 L15.114,14.677 C14.914,14.677 14.814,14.877 14.814,15.077 C14.814,15.324 15.013,15.476 15.114,15.476 L18.414,15.476 C18.514,15.476 18.714,15.382 18.714,15.077 C18.714,14.795 18.514,14.677 18.414,14.677" id="Shape"></path>
                <path d="M22,8.515 C22,3.815 17.1,0.015 11,0.015 C4.9,0.015 0,3.815 0,8.515 C0,10.515 0.9,12.415 2.5,13.915 L1.2,18.915 C1.1,19.016 1.2,19.215 1.3,19.315 C1.4,19.415 1.5,19.415 1.6,19.415 L8.5,16.815 C9.3,16.915 10.2,17.015 11,17.015 C11.562,17.015 12.108,16.973 12.646,16.91 C13.357,18.387 14.855,19.416 16.6,19.416 C19.026,19.416 21,17.441 21,15.016 C21,14.241 20.78,13.523 20.428,12.889 C21.42,11.61 22,10.118 22,8.515 M20.199,15.015 C20.199,17 18.585,18.615 16.599,18.615 C15.262,18.615 14.107,17.875 13.486,16.79 C13.348,16.549 13.239,16.292 13.16,16.02 C13.066,15.699 13,15.366 13,15.015 C13,13.03 14.614,11.415 16.6,11.415 C17.742,11.415 18.75,11.959 19.409,12.791 C19.592,13.02 19.751,13.266 19.874,13.534 C20.077,13.988 20.199,14.486 20.199,15.015 M16.6,10.615 C14.174,10.615 12.2,12.59 12.2,15.015 C12.2,15.402 12.266,15.77 12.36,16.127 C11.882,16.179 11.397,16.214 10.9,16.214 C10.1,16.214 9.3,16.214 8.5,16.015 L8.3,16.015 L2.2,18.414 L3.4,13.914 C3.5,13.814 3.4,13.614 3.3,13.515 C1.7,12.115 0.8,10.315 0.8,8.515 C0.8,4.315 5.4,0.915 11,0.915 C16.6,0.915 21.2,4.315 21.1,8.615 C21.1,9.895 20.669,11.098 19.916,12.156 C19.108,11.22 17.929,10.615 16.6,10.615" id="Shape"></path>
            </g>
        </g>
    </g>
</svg>