<?xml version="1.0" encoding="UTF-8" standalone="no"?>
<svg width="20px" height="20px" viewBox="0 0 20 20" version="1.1" xmlns="http://www.w3.org/2000/svg" xmlns:xlink="http://www.w3.org/1999/xlink">
    <!-- Generator: Sketch 40.3 (33839) - http://www.bohemiancoding.com/sketch -->
    <title>Shape</title>
    <desc>Created with Sketch.</desc>
    <defs></defs>
    <g id="Page-1" stroke="none" stroke-width="1" fill="none" fill-rule="evenodd">
        <g id="Group-12-Copy" transform="translate(-20.000000, -10.000000)" fill="#FFFFFF">
            <g id="Group-17" transform="translate(20.000000, 10.000000)">
                <g id="成功打勾">
                    <path d="M17.0752409,2.92611257 C13.1746599,-0.974468517 6.82669365,-0.974468517 2.92611257,2.92611257 C-0.974468517,6.82669365 -0.974468517,13.1746599 2.92611257,17.0752409 C6.82669365,20.975822 13.1746599,20.975822 17.0752409,17.0752409 C20.975822,13.1746599 20.975822,6.82669365 17.0752409,2.92611257 L17.0752409,2.92611257 Z M3.66833631,16.3330172 C0.175978282,12.8406592 0.175978282,7.16069433 3.66833631,3.66833631 C7.15874111,0.175978282 12.8406592,0.175978282 16.3330172,3.66833631 C19.8253752,7.15874111 19.8253752,12.8426124 16.3330172,16.3330172 C12.8406592,19.8253752 7.15874111,19.823422 3.66833631,16.3330172 Z M14.5985575,7.12553637 C13.2039582,8.60607741 8.69592555,13.4051399 8.69592555,13.4051399 C8.69592555,13.4051399 6.52199127,11.27027 5.6039777,10.3717886 C5.38326379,10.1549812 5.02777769,10.1569344 4.809017,10.3756951 L4.809017,10.3756951 C4.58634988,10.5983622 4.5883031,10.9577547 4.81292345,11.1765154 L8.21543333,14.5301948 L8.23887198,14.5516802 C8.2408252,14.5536334 8.24473164,14.5575399 8.24668486,14.5594931 L8.24668486,14.5614463 C8.29160893,14.6005107 8.336533,14.6239494 8.37950385,14.647388 L8.45958588,14.6942653 C8.54162114,14.7255168 8.62756283,14.7430958 8.71350453,14.7430958 C8.80725911,14.7430958 8.89710724,14.7255168 8.98304894,14.6884056 C9.02016013,14.6727799 9.04555199,14.6532477 9.08266318,14.629809 C9.11586793,14.6102768 9.15883877,14.584885 9.20180962,14.5458206 L15.4325826,7.91268418 C15.6435304,7.68806383 15.639624,7.33453095 15.4208633,7.11577026 L15.4208633,7.11577026 C15.1923365,6.88529026 14.8192714,6.89114992 14.5985575,7.12553637 L14.5985575,7.12553637 Z" id="Shape"></path>
                </g>
            </g>
        </g>
    </g>
</svg>