<?xml version="1.0" encoding="UTF-8"?>
<svg width="20px" height="20px" viewBox="0 0 20 20" version="1.1" xmlns="http://www.w3.org/2000/svg" xmlns:xlink="http://www.w3.org/1999/xlink">
    <!-- Generator: Sketch 41.2 (35397) - http://www.bohemiancoding.com/sketch -->
    <title>Shape</title>
    <desc>Created with Sketch.</desc>
    <defs></defs>
    <g id="Page-1" stroke="none" stroke-width="1" fill="none" fill-rule="evenodd">
        <g id="话题间介绍_直播未开始" transform="translate(-27.000000, -633.000000)" fill="#FFFFFF">
            <g id="Group-3-Copy" transform="translate(27.000000, 633.000000)">
                <path d="M3.38068182,0 C1.51858386,0 0,1.51858636 0,3.38068182 C0,4.31038636 0.374368955,5.1613 0.987215909,5.77414773 C1.16431513,5.94923446 1.44932123,5.94923446 1.62642045,5.77414773 L5.77414773,1.62642045 C5.94923446,1.44932123 5.94923446,1.16431513 5.77414773,0.987215909 C5.16130091,0.374370455 4.31038568,0 3.38068182,0 L3.38068182,0 Z M16.6193182,0 C15.6896143,0 14.8386991,0.374370455 14.2258523,0.987215909 C14.0507655,1.16431513 14.0507655,1.44932123 14.2258523,1.62642045 L18.3735795,5.77414773 C18.5506788,5.94923446 18.8356849,5.94923446 19.0127841,5.77414773 C19.6256311,5.1613 20,4.31038636 20,3.38068182 C20,1.51858636 18.4814161,0 16.6193182,0 L16.6193182,0 Z M3.38068182,0.909090909 C3.90037636,0.909090909 4.35485341,1.10089773 4.75142045,1.37073864 L1.37073864,4.74431818 C1.10189341,4.34821136 0.909090909,3.89933182 0.909090909,3.38068182 C0.909090909,2.00989545 2.00989386,0.909090909 3.38068182,0.909090909 L3.38068182,0.909090909 Z M16.6193182,0.909090909 C17.9901061,0.909090909 19.0909091,2.00989545 19.0909091,3.38068182 C19.0909091,3.89933182 18.8981066,4.34821136 18.6292614,4.74431818 L15.2485795,1.37073864 C15.6451466,1.10089773 16.0996236,0.909090909 16.6193182,0.909090909 L16.6193182,0.909090909 Z M10,2.27272727 C5.11013273,2.27272727 1.13636364,6.24649318 1.13636364,11.1363636 C1.13636364,16.0262273 5.11013273,20 10,20 C14.889867,20 18.8636364,16.0262273 18.8636364,11.1363636 C18.8636364,6.24649318 14.889867,2.27272727 10,2.27272727 L10,2.27272727 Z M10,3.18181818 C14.3985577,3.18181818 17.9545455,6.73780227 17.9545455,11.1363636 C17.9545455,15.5349091 14.3985577,19.0909091 10,19.0909091 C5.60144205,19.0909091 2.04545455,15.5349091 2.04545455,11.1363636 C2.04545455,6.73780227 5.60144205,3.18181818 10,3.18181818 L10,3.18181818 Z M9.95028409,5.22017045 C9.71610404,5.24590456 9.54038765,5.4462829 9.54545455,5.68181818 L9.54545455,11.1363636 C9.54547963,11.3873918 9.74897187,11.590884 10,11.5909091 L15.4545455,11.5909091 C15.6184705,11.5932268 15.7709451,11.5071014 15.853584,11.3655119 C15.9362229,11.2239223 15.9362229,11.048805 15.853584,10.9072154 C15.7709451,10.7656258 15.6184705,10.6795005 15.4545455,10.6818182 L10.4545455,10.6818182 L10.4545455,5.68181818 C10.4573654,5.55091083 10.4036021,5.42514471 10.3070243,5.33672848 C10.2104466,5.24831224 10.0804345,5.20583329 9.95028409,5.22017045 L9.95028409,5.22017045 Z" id="Shape"></path>
            </g>
        </g>
    </g>
</svg>