<?xml version="1.0" encoding="UTF-8" standalone="no"?>
<svg width="18px" height="18px" viewBox="0 0 18 18" version="1.1" xmlns="http://www.w3.org/2000/svg" xmlns:xlink="http://www.w3.org/1999/xlink">
    <!-- Generator: Sketch 39.1 (31720) - http://www.bohemiancoding.com/sketch -->
    <title>noun_565777_cc</title>
    <desc>Created with Sketch.</desc>
    <defs></defs>
    <g id="Page-1" stroke="none" stroke-width="1" fill="none" fill-rule="evenodd">
        <g id="noun_565777_cc" fill="#4B4B4B">
            <path d="M17.4728842,0.167115789 L17.4728842,0.167115789 C17.2500632,-0.0557052632 16.8786947,-0.0557052632 16.6558737,0.167115789 L8.82,8.00298947 L0.984126316,0.167115789 C0.761305263,-0.0557052632 0.389936842,-0.0557052632 0.167115789,0.167115789 L0.167115789,0.167115789 C-0.0557052632,0.389936842 -0.0557052632,0.761305263 0.167115789,0.984126316 L8.00298947,8.82 L0.167115789,16.6558737 C-0.0557052632,16.8786947 -0.0557052632,17.2500632 0.167115789,17.4728842 L0.167115789,17.4728842 C0.389936842,17.6957053 0.761305263,17.6957053 0.984126316,17.4728842 L8.82,9.63701053 L16.6558737,17.4728842 C16.8786947,17.6957053 17.2500632,17.6957053 17.4728842,17.4728842 L17.4728842,17.4728842 C17.6957053,17.2500632 17.6957053,16.8786947 17.4728842,16.6558737 L9.63701053,8.82 L17.4728842,0.984126316 C17.6957053,0.761305263 17.6957053,0.389936842 17.4728842,0.167115789 L17.4728842,0.167115789 Z" id="Shape"></path>
        </g>
    </g>
</svg>