
<svg width="22px" height="20px" viewBox="0 0 22 20" version="1.1" xmlns="http://www.w3.org/2000/svg" xmlns:xlink="http://www.w3.org/1999/xlink">
  <!-- Generator: Sketch 43.1 (39012) - http://www.bohemiancoding.com/sketch -->
  <desc>Created with Sketch.</desc>
  <defs></defs>
  <g id="Page-1" stroke="none" stroke-width="1" fill="none" fill-rule="evenodd">
    <g id="免费文章（文字内容）详情页" transform="translate(-298.000000, -2598.000000)" fill-rule="nonzero" fill="#4B4B4B">
      <g id="底部工具栏" transform="translate(0.000000, 2573.000000)">
        <g id="评论" transform="translate(298.000000, 4.000000)">
          <g transform="translate(0.000000, 21.000000)" id="Shape">
            <path d="M1.68797895,19.3770652 C1.51091298,19.3770652 1.3439821,19.3471157 1.17378878,19.2755771 C0.702489438,19.0692294 0.4,18.6066293 0.4,18.0886615 L0.4,4.75585199 C0.4,2.35470771 2.3521915,0.4 4.75585199,0.4 L17.244148,0.4 C19.6424532,0.4 21.6,2.35821115 21.6,4.75585199 L21.6,12.0870029 C21.6,14.490607 19.6442898,16.4428549 17.244148,16.4428549 L5.2717769,16.4428549 L2.58466347,19.0048048 C2.38452777,19.2068096 2.12271776,19.3318464 1.84552532,19.3656034 L1.68797895,19.3770652 Z M1.74437556,18.1482854 L4.79137621,15.2428549 L17.244148,15.2428549 C18.9820237,15.2428549 20.4,13.8273889 20.4,12.0870029 L20.4,4.75585199 C20.4,3.02086172 18.9796203,1.6 17.244148,1.6 L4.75585199,1.6 C3.01527947,1.6 1.6,3.01710364 1.6,4.75585199 L1.6,18.0886615 C1.6,18.1299683 1.62037552,18.1611288 1.64672299,18.1727396 C1.7087769,18.1748778 1.72369766,18.168812 1.74437556,18.1482854 Z"></path>
          </g>
        </g>
      </g>
    </g>
  </g>
</svg>
