<?xml version="1.0" encoding="UTF-8"?>
<svg width="20px" height="22px" viewBox="0 0 20 22" version="1.1" xmlns="http://www.w3.org/2000/svg" xmlns:xlink="http://www.w3.org/1999/xlink">
    <!-- Generator: Sketch 41.2 (35397) - http://www.bohemiancoding.com/sketch -->
    <title>编辑 (6)</title>
    <desc>Created with Sketch.</desc>
    <defs></defs>
    <g id="Page-1" stroke="none" stroke-width="1" fill="none" fill-rule="evenodd">
        <g id="主持人视角_设置" transform="translate(-127.000000, -516.000000)" fill="#4B4B4B">
            <g id="Group-4" transform="translate(25.000000, 514.000000)">
                <g id="编辑-(6)" transform="translate(102.000000, 2.000000)">
                    <path d="M16.2541412,21.9872615 L2.84300273,21.9872615 C2.14886495,21.9872615 1.42613994,21.640467 0.879295742,21.0197257 C0.332427596,20.3992289 0.00786456212,19.6005663 0.00786456212,18.812555 L0.00786456212,2.99249666 C0.00786456212,2.17926987 0.345811394,1.42731566 0.939989695,0.901078097 C1.46095217,0.439509604 2.14371733,0.171160265 2.84300273,0.171160265 L10.1214655,0.171160265 C10.4866108,0.171160265 10.7825867,0.509993438 10.7825867,0.924364393 C10.7825867,1.33865385 10.4866109,1.6774055 10.1214655,1.6774055 L2.84300273,1.6774055 C2.12568872,1.6774055 1.33520676,2.1941057 1.33520673,2.99249666 L1.33520673,18.8127723 C1.33520673,19.6353462 2.11817079,20.4808804 2.84300273,20.4808804 L16.2540454,20.4808804 C16.957425,20.4808804 17.3729212,19.6266241 17.3729212,18.8127723 L17.3729212,10.6525175 C17.3729212,10.2380922 17.6713392,9.9022479 18.0364606,9.9022479 C18.4014624,9.9022479 18.7,10.2380922 18.7,10.6525175 L18.7,18.8125006 C18.7,19.6061093 18.4836087,20.3595852 18.0768993,20.9507906 C17.613231,21.6250333 16.9706412,21.9872615 16.2541412,21.9872615 L16.2541412,21.9872615 Z" id="Shape"></path>
                    <path d="M8.22610152,13.0467406 C7.98288614,13.0467406 7.73980662,12.9539487 7.55416845,12.7685822 C7.18316379,12.3972787 7.18316379,11.7957751 7.55416845,11.4246346 L17.589907,1.38889596 C17.9609389,1.01775543 18.5628229,1.01775543 18.9338276,1.38889596 C19.3049681,1.75998214 19.3049681,2.36162161 18.9338276,2.73270776 L8.8980346,12.7685822 C8.7125051,12.9539487 8.46931689,13.0467406 8.22610152,13.0467406 L8.22610152,13.0467406 Z" id="Shape"></path>
                </g>
            </g>
        </g>
    </g>
</svg>