<?xml version="1.0" encoding="UTF-8" standalone="no"?>

<svg width="16px" height="4px" viewBox="441 359 16 4" version="1.1" xmlns="http://www.w3.org/2000/svg" xmlns:xlink="http://www.w3.org/1999/xlink">
  <!-- Generator: Sketch 39.1 (31720) - http://www.bohemiancoding.com/sketch -->
  <desc>Created with Sketch.</desc>
  <defs></defs>
  <path d="M442.64,359.62 C442.28,359.62 442,359.74 441.78,359.98 C441.54,360.22 441.42,360.5 441.42,360.86 C441.42,361.2 441.54,361.48 441.78,361.72 C442,361.96 442.28,362.08 442.64,362.08 C442.96,362.08 443.26,361.96 443.5,361.72 C443.74,361.48 443.86,361.2 443.86,360.86 C443.86,360.5 443.74,360.22 443.5,359.98 C443.26,359.74 442.96,359.62 442.64,359.62 L442.64,359.62 Z M448.3,359.62 C447.94,359.62 447.66,359.74 447.44,359.98 C447.2,360.22 447.08,360.5 447.08,360.86 C447.08,361.2 447.2,361.48 447.44,361.72 C447.66,361.96 447.94,362.08 448.3,362.08 C448.62,362.08 448.92,361.96 449.16,361.72 C449.4,361.48 449.52,361.2 449.52,360.86 C449.52,360.5 449.4,360.22 449.16,359.98 C448.92,359.74 448.62,359.62 448.3,359.62 L448.3,359.62 Z M453.96,359.62 C453.6,359.62 453.32,359.74 453.1,359.98 C452.86,360.22 452.74,360.5 452.74,360.86 C452.74,361.2 452.86,361.48 453.1,361.72 C453.32,361.96 453.6,362.08 453.96,362.08 C454.28,362.08 454.58,361.96 454.82,361.72 C455.06,361.48 455.18,361.2 455.18,360.86 C455.18,360.5 455.06,360.22 454.82,359.98 C454.58,359.74 454.28,359.62 453.96,359.62 L453.96,359.62 Z" id="..." stroke="none" fill="#4B4B4B" fill-rule="evenodd"></path>
</svg>
