<?xml version="1.0" encoding="UTF-8" standalone="no"?>
<svg width="24px" height="25px" viewBox="0 0 24 25" version="1.1" xmlns="http://www.w3.org/2000/svg" xmlns:xlink="http://www.w3.org/1999/xlink">
    <!-- Generator: Sketch 39.1 (31720) - http://www.bohemiancoding.com/sketch -->
    <title>Group</title>
    <desc>Created with Sketch.</desc>
    <defs></defs>
    <g id="Page-1" stroke="none" stroke-width="1" fill="none" fill-rule="evenodd">
        <g id="Group" fill="#4B4B4B">
            <g id="SVGID_31_-link">
                <path d="M12,1.8 C5.9,1.8 0.9,6.8 0.9,12.9 C0.9,19 5.9,24 12,24 C18.1,24 23.1,19 23.1,12.9 C23.1,6.8 18.1,1.8 12,1.8 L12,1.8 Z M12,24.9 C5.4,24.9 0,19.5 0,12.9 C0,6.3 5.4,0.9 12,0.9 C18.6,0.9 24,6.3 24,12.9 C24,19.5 18.6,24.9 12,24.9 L12,24.9 Z" id="SVGID_31_"></path>
            </g>
            <g id="SVGID_33_-link" transform="translate(4.000000, 12.000000)">
                <path d="M8,9.5 C3.6,9.5 0,5.9 0,1.4 C0,1.2 0.2,0.9 0.5,0.9 C0.8,0.9 1,1.1 1,1.4 C1,5.4 4.2,8.6 8.1,8.6 C12.1,8.6 15.3,5.4 15.3,1.4 C15.3,1.2 15.5,0.9 15.8,0.9 C16,0.9 16.3,1.1 16.3,1.4 C16.1,5.9 12.4,9.5 8,9.5 L8,9.5 Z" id="SVGID_33_"></path>
            </g>
            <g id="SVGID_35_-link" transform="translate(4.000000, 5.000000)">
                <path d="M2,2.7 L2.5,3.2 C2.6,3.3 2.6,3.4 2.6,3.5 L2.5,4.2 L3.1,3.9 C3.2,3.8 3.3,3.8 3.4,3.9 L4,4.2 L3.9,3.5 C3.9,3.4 3.9,3.3 4,3.2 L4.5,2.7 L3.8,2.6 C3.7,2.6 3.6,2.5 3.5,2.4 L3.2,1.8 L2.9,2.4 C2.8,2.5 2.7,2.6 2.6,2.6 L2,2.7 L2,2.7 Z M4.6,5.2 L4.4,5.2 L3.3,4.6 L2.2,5.2 C2.1,5.3 1.9,5.3 1.8,5.2 C1.7,5.1 1.6,5 1.6,4.8 L1.8,3.6 L0.9,2.8 C0.8,2.7 0.7,2.6 0.8,2.4 C0.8,2.2 1,2.2 1.1,2.1 L2.4,1.9 L3,0.8 C3.1,0.7 3.2,0.6 3.3,0.6 C3.4,0.6 3.6,0.7 3.6,0.8 L4.1,1.9 L5.3,2.1 C5.5,2.1 5.6,2.2 5.6,2.4 C5.6,2.6 5.6,2.7 5.5,2.8 L4.6,3.6 L4.8,4.8 C4.8,5 4.8,5.1 4.6,5.2 C4.7,5.2 4.7,5.2 4.6,5.2 L4.6,5.2 Z" id="SVGID_35_"></path>
            </g>
            <g id="SVGID_37_-link" transform="translate(14.000000, 5.000000)">
                <path d="M1.4,2.7 L1.9,3.2 C2,3.3 2,3.4 2,3.5 L1.9,4.2 L2.5,3.9 C2.6,3.8 2.7,3.8 2.8,3.9 L3.4,4.2 L3.3,3.5 C3.3,3.4 3.3,3.3 3.4,3.2 L3.9,2.7 L3.2,2.6 C3.1,2.6 3,2.5 2.9,2.4 L2.6,1.8 L2.3,2.4 C2.2,2.5 2.1,2.6 2,2.6 L1.4,2.7 L1.4,2.7 Z M4,5.2 L3.8,5.2 L2.7,4.6 L1.6,5.2 C1.5,5.3 1.3,5.3 1.2,5.2 C1.1,5.1 1,5 1,4.8 L1.2,3.5 L0.3,2.7 C0.2,2.6 0.1,2.5 0.2,2.3 C0.2,2.1 0.4,2.1 0.5,2 L1.7,1.8 L2.3,0.7 C2.4,0.6 2.5,0.5 2.6,0.5 C2.8,0.5 2.9,0.6 2.9,0.7 L3.4,1.8 L4.6,2 C4.8,2 4.9,2.1 4.9,2.3 C4.9,2.5 4.9,2.6 4.8,2.7 L3.9,3.5 L4.1,4.8 C4.1,5 4.1,5.1 3.9,5.2 L4,5.2 L4,5.2 Z" id="SVGID_37_"></path>
            </g>
        </g>
    </g>
</svg>