<?xml version="1.0" standalone="no"?><!DOCTYPE svg PUBLIC "-//W3C//DTD SVG 1.1//EN" "http://www.w3.org/Graphics/SVG/1.1/DTD/svg11.dtd"><svg width="200" height="200" viewBox="0 0 200 200" version="1.1" xmlns="http://www.w3.org/2000/svg" xmlns:xlink="http://www.w3.org/1999/xlink"><defs><style type="text/css"><![CDATA[
@font-face { font-family: ifont; src: url("//at.alicdn.com/t/font_1442373896_4754455.eot?#iefix") format("embedded-opentype"), url("//at.alicdn.com/t/font_1442373896_4754455.woff") format("woff"), url("//at.alicdn.com/t/font_1442373896_4754455.ttf") format("truetype"), url("//at.alicdn.com/t/font_1442373896_4754455.svg#ifont") format("svg"); }

]]></style></defs><g class="transform-group"><g transform="scale(0.1953125, 0.1953125)"><path d="M977.877333 300.842667c-64.810667-142.592-192.896-250.069333-348.501333-286.72C591.616 5.205333 552.448 0 512 0c-41.088 0-80.896 5.418667-119.253333 14.592C238.037333 51.669333 110.634667 158.848 46.122667 300.842667 16.768 365.312 0 436.650667 0 512c0 35.882667 3.754667 70.912 10.794667 104.704C59.221333 848.981333 265.386667 1024 512 1024c246.570667 0 452.736-175.018667 501.162667-407.338667C1020.202667 582.869333 1024 547.882667 1024 512 1024 436.650667 1007.232 365.312 977.877333 300.842667M608.768 273.408c1.28-6.442667 6.4-10.282667 12.885333-11.605333l7.765333-1.109333 45.141333-6.613333 24.490667-49.024c2.602667-5.162667 9.045333-9.002667 14.208-9.002667 6.4 0 11.562667 3.84 14.165333 9.002667l23.253333 49.024 52.821333 7.722667c6.442667 1.322667 11.605333 5.162667 12.928 11.605333 1.237333 6.485333 0 12.928-3.925333 16.768l-11.008 10.666667-26.368 25.472 9.002667 54.144c1.322667 6.442667-1.237333 11.605333-6.4 15.488-3.84 2.56-6.442667 2.56-10.325333 2.56-2.56 0-5.12 0-7.722667-1.28l-47.701333-24.490667L664.149333 397.226667c-5.162667 2.602667-11.605333 2.602667-16.768-1.28-5.162667-3.882667-7.765333-9.045333-6.442667-15.488l9.045333-54.144-20.608-19.882667-5.76-5.589333-11.050667-10.666667C608.768 286.336 606.122667 279.893333 608.768 273.408M205.098667 274.688c1.28-6.485333 6.442667-10.325333 12.885333-11.605333l54.144-7.765333 24.533333-48.981333c2.56-5.162667 7.722667-9.045333 14.165333-9.045333 6.442667 0 11.605333 3.882667 14.208 9.045333l23.210667 48.981333 44.501333 6.528L401.066667 263.125333c6.442667 1.28 11.605333 5.12 12.885333 11.605333 1.322667 6.442667 0 12.885333-3.84 16.768L400.085333 300.842667 392.746667 307.712 371.456 327.594667l10.325333 52.864c1.28 6.442667-1.322667 11.605333-6.442667 15.488C371.456 398.506667 368.853333 398.506667 364.970667 398.506667c-2.602667 0-5.162667 0-7.765333-1.28L309.504 372.736 261.802667 397.226667C256.682667 399.829333 250.197333 399.829333 245.034667 395.946667 239.914667 392.021333 237.312 386.901333 238.549333 380.458667l9.045333-52.864L218.922667 300.842667 208.896 291.498667C205.098667 287.616 202.496 281.173333 205.098667 274.688M845.525333 616.661333c-35.882667 151.765333-172.416 265.472-334.848 265.472-162.389333 0-297.984-113.706667-333.610667-265.472-5.930667-25.429333-9.429333-51.754667-9.429333-78.890667 0-10.325333 9.045333-19.370667 19.328-19.370667 10.325333 0 19.370667 9.045333 19.370667 19.370667 0 27.349333 3.925333 53.674667 10.624 78.890667 34.730667 130.602667 153.173333 226.773333 293.717333 226.773333 141.653333 0 260.266667-96.213333 295.082667-226.773333 6.656-25.216 10.624-51.541333 10.624-78.890667 0-10.325333 9.045333-19.370667 19.285333-19.370667 10.325333 0 19.370667 9.045333 19.370667 19.370667C855.04 564.906667 851.541333 591.232 845.525333 616.661333" fill="#272636"></path></g></g></svg>