<svg width="14" height="18" viewBox="0 0 14 18" xmlns="http://www.w3.org/2000/svg"><title>Shape</title><path d="M12.503 0H1.505C.682 0 .008.655.008 1.455c0 0-.018 16.042 0 16.042.038.255.262.437.543.437.188 0 .45-.218.45-.218l6.004-4.948 6.173 5.11c.187.165.486.165.673-.017.075-.072.13-.18.13-.29L14 1.455C14.018.655 13.345 0 12.503 0zm.505 16.48s-5.63-4.676-5.667-4.712c-.186-.182-.504-.182-.71 0L1 16.424V1.946C1 1.4 1.45.964 2.01.964h10.007c.56 0 1.01.437 1.01.982l-.02 14.533z" fill="#FFF" fill-rule="evenodd"/></svg>