<?xml version="1.0" encoding="UTF-8"?>
<svg width="25px" height="25px" viewBox="0 0 25 25" version="1.1" xmlns="http://www.w3.org/2000/svg" xmlns:xlink="http://www.w3.org/1999/xlink">
    <!-- Generator: Sketch 41.2 (35397) - http://www.bohemiancoding.com/sketch -->
    <title>Shape</title>
    <desc>Created with Sketch.</desc>
    <defs></defs>
    <g id="Symbols" stroke="none" stroke-width="1" fill="none" fill-rule="evenodd">
        <g id="live-tab" transform="translate(-271.000000, -70.000000)" fill="#4B4B4B">
            <g id="setting-(3)">
                <g transform="translate(271.000000, 70.000000)">
                    <path d="M12.5090498,17.6800257 C13.9566689,17.6800257 15.1851641,17.1721339 16.1945355,16.1563505 C17.203907,15.1405671 17.7085927,13.9151254 17.7085927,12.4800257 C17.7085927,11.0449259 17.1990308,9.81948425 16.179907,8.80370081 C15.1607832,7.78791737 13.9368593,7.28002565 12.5081355,7.28002565 C11.0605165,7.28002565 9.83202125,7.78791737 8.82264982,8.80370081 C7.81327839,9.81948425 7.30859268,11.0449259 7.30859268,12.4800257 C7.30859268,13.9151254 7.81815458,15.1405671 8.83727839,16.1563505 C9.8564022,17.1721339 11.080326,17.6800257 12.5090498,17.6800257 L12.5090498,17.6800257 Z M12.5085927,16.6400257 C11.3699827,16.6400257 10.3919969,16.2313448 9.57463519,15.4139831 C8.75727351,14.5966215 8.34859268,13.6186356 8.34859268,12.4800257 C8.34859268,11.3414157 8.75727351,10.3634298 9.57463519,9.54606817 C10.3919969,8.72870649 11.3699827,8.32002565 12.5085927,8.32002565 C13.6472027,8.32002565 14.6251885,8.72870649 15.4425502,9.54606817 C16.2599118,10.3634298 16.6685927,11.3414157 16.6685927,12.4800257 C16.6685927,13.6186356 16.2599118,14.5966215 15.4425502,15.4139831 C14.6251885,16.2313448 13.6472027,16.6400257 12.5085927,16.6400257 L12.5085927,16.6400257 Z M5.35052098,22.0036735 C6.27782125,22.8047465 7.29587363,23.4435306 8.40467811,23.9200257 C9.60481642,22.7760714 10.9727879,22.2040943 12.5085927,22.2040943 C14.0443974,22.2040943 15.4123689,22.7760714 16.6125072,23.9200257 C17.7940297,23.4435306 18.8120821,22.8047465 19.6666644,22.0036735 C19.3211083,20.4784012 19.5212283,18.9244537 20.2670244,17.3418312 C21.1216067,15.8354722 22.2850951,14.8629586 23.7574897,14.4242903 C23.8848917,13.5664771 23.9485927,12.9231173 23.9485927,12.4942107 C23.9485927,12.0653041 23.8848917,11.4219442 23.7574897,10.5641311 C22.2850951,10.1065494 21.1216067,9.13403576 20.2670244,7.64659019 C19.4851602,6.25493173 19.2850402,4.70098428 19.6666644,2.98474787 C18.7393641,2.18367484 17.7213117,1.53543411 16.6125072,1.04002565 C15.4123689,2.20289327 14.0443974,2.78432708 12.5085927,2.78432708 C10.9727879,2.78432708 9.60481642,2.20289327 8.40467811,1.04002565 C7.22315561,1.51652073 6.20510323,2.16476147 5.35052098,2.98474787 C5.69607704,4.51002019 5.49595703,6.06396763 4.75016094,7.64659019 C3.87754462,9.13403576 2.71405619,10.1065494 1.25969565,10.5641311 C1.13229367,11.4219442 1.06859268,12.0653041 1.06859268,12.4942107 C1.06859268,12.9231173 1.13229367,13.5664771 1.25969565,14.4242903 C2.71405619,14.8629586 3.87754462,15.8354722 4.75016094,17.3418312 C5.49537528,18.9244537 5.69549529,20.4784012 5.35052098,22.0036735 L5.35052098,22.0036735 Z M4.36448539,22.4383458 C4.14769075,22.2145286 4.08438672,21.9999626 4.17457329,21.7946476 C4.62608425,20.4141432 4.48155449,19.1085429 3.74098402,17.8778467 C3.03625692,16.5910471 2.02454862,15.8076869 0.705859118,15.5277662 C0.416799604,15.4346583 0.272269847,15.2573951 0.272269847,14.9959766 C0.1098184,14.1938158 0.0285926761,13.3639016 0.0285926761,12.5062342 C0.0285926761,11.7225756 0.1098184,10.8831119 0.272269847,9.98784312 C0.362456415,9.74552371 0.506986172,9.56826049 0.705859118,9.45605348 C2.133235,9.0645226 3.1449433,8.29041354 3.74098402,7.1337263 C4.40928962,5.94003461 4.55381937,4.62518322 4.17457329,3.18917212 C4.08438672,2.87224698 4.14769075,2.6576809 4.36448539,2.54547388 C5.48488007,1.55709716 6.83999107,0.727183018 8.4298184,0.055731444 C8.64661304,-0.0188742864 8.84548598,0.0372292229 9.02643724,0.224041972 C10.074567,1.30612349 11.2308051,1.84716424 12.4951514,1.84716424 C13.940449,1.84716424 15.096687,1.30612349 15.9638656,0.224041972 C16.1806602,0.000224780603 16.388494,-0.0558787287 16.587367,0.055731444 C18.1592726,0.615572845 19.5143836,1.44548699 20.6527,2.54547388 C20.8694946,2.76929107 20.9327986,2.98385715 20.8426121,3.18917212 C20.3911011,4.56967656 20.5356309,5.88452795 21.2762013,7.1337263 C21.9809284,8.40202372 22.9926367,9.17613277 24.3113262,9.45605348 C24.6003857,9.54916143 24.7449155,9.72642464 24.7449155,9.98784312 C24.907367,10.7900039 24.9885927,11.6294676 24.9885927,12.5062342 C24.9885927,13.2707937 24.907367,14.1007078 24.7449155,14.9959766 C24.6547289,15.2573951 24.5101992,15.4346583 24.3113262,15.5277662 C22.8839504,15.9192971 21.8722421,16.7026573 21.2762013,17.8778467 C20.6078957,19.0530362 20.463366,20.3586365 20.8426121,21.7946476 C20.9327986,22.1115727 20.8694946,22.3261388 20.6527,22.4383458 C19.5323053,23.4267226 18.1771943,24.2566367 16.587367,24.9280883 C16.3705723,25.002694 16.1627385,24.9465905 15.9638656,24.7597777 C14.9342356,23.6776962 13.7779975,23.1366555 12.4951514,23.1366555 C11.0498538,23.1366555 9.89361578,23.6776962 9.02643724,24.7597777 C8.91775086,24.8719848 8.7732211,24.9280883 8.59284797,24.9280883 L8.4298184,24.9280883 C6.85791276,24.3682469 5.50280176,23.5383327 4.36448539,22.4383458 Z" id="Shape"></path>
                </g>
            </g>
        </g>
    </g>
</svg>