<?xml version="1.0" encoding="UTF-8" standalone="no"?>

<svg width="23px" height="15px" viewBox="0 0 23 15" version="1.1" xmlns="http://www.w3.org/2000/svg"
     xmlns:xlink="http://www.w3.org/1999/xlink">
  <!-- Generator: Sketch 39.1 (31720) - http://www.bohemiancoding.com/sketch -->
  <desc>Created with Sketch.</desc>
  <defs></defs>
  <path
    d="M0.476536178,0.00065854198 C0.29813097,0.0106509236 0.137724505,0.134112681 0.0557544373,0.324526121 C-0.0262156303,0.51493956 -0.0172926326,0.743368301 0.0791614397,0.923745383 C0.175615512,1.10412246 0.344942914,1.20903669 0.523344777,1.19895868 L21.4935971,1.19895868 C21.6736596,1.20201451 21.8411448,1.0884902 21.9319192,0.901856425 C22.0226936,0.715222645 22.0226936,0.484394573 21.9319192,0.297760793 C21.8411448,0.111127013 21.6736596,-0.00239729684 21.4935971,0.00065854198 L0.523344777,0.00065854198 C0.50775049,-0.000219513993 0.492130466,-0.000219513993 0.476536178,0.00065854198 L0.476536178,0.00065854198 Z M0.476536178,6.59130928 C0.29813097,6.60130166 0.137724505,6.72476342 0.0557544373,6.91517686 C-0.0262156303,7.1055903 -0.0172926326,7.33401904 0.0791614397,7.51439612 C0.175615512,7.6947732 0.344942914,7.79968743 0.523344777,7.78960941 L21.4935971,7.78960941 C21.6736596,7.79266525 21.8411448,7.67914094 21.9319192,7.49250716 C22.0226936,7.30587338 22.0226936,7.07504531 21.9319192,6.88841153 C21.8411448,6.70177775 21.6736596,6.58825344 21.4935971,6.59130928 L0.523344777,6.59130928 C0.50775049,6.59043122 0.492130466,6.59043122 0.476536178,6.59130928 L0.476536178,6.59130928 Z M0.476536178,13.18196 C0.29813097,13.1919524 0.137724505,13.3154142 0.0557544373,13.5058276 C-0.0262156303,13.696241 -0.0172926326,13.9246698 0.0791614397,14.1050469 C0.175615512,14.2854239 0.344942914,14.3903382 0.523344777,14.3802601 L21.4935971,14.3802601 C21.6736596,14.383316 21.8411448,14.2697917 21.9319192,14.0831579 C22.0226936,13.8965241 22.0226936,13.665696 21.9319192,13.4790623 C21.8411448,13.2924285 21.6736596,13.1789042 21.4935971,13.18196 L0.523344777,13.18196 C0.50775049,13.181082 0.492130466,13.181082 0.476536178,13.18196 L0.476536178,13.18196 Z"
    id="Shape" stroke="none" fill="#FFFFFF" fill-rule="evenodd"></path>
</svg>
