<?xml version="1.0" encoding="UTF-8" standalone="no"?>
<svg width="28px" height="27px" viewBox="0 0 28 27" version="1.1" xmlns="http://www.w3.org/2000/svg" xmlns:xlink="http://www.w3.org/1999/xlink">
    <!-- Generator: Sketch 39.1 (31720) - http://www.bohemiancoding.com/sketch -->
    <title>图片 </title>
    <desc>Created with Sketch.</desc>
    <defs></defs>
    <g id="Page-1" stroke="none" stroke-width="1" fill="none" fill-rule="evenodd">
        <g id="图片-" fill="#4B4B4B">
            <path d="M25.7548877,26.048754 L2.36196751,26.048754 C1.1433513,26.048754 0.151974972,24.7941355 0.151974972,23.2519376 L0.151974972,2.96295762 C0.151974972,1.42075974 1.1433513,0.166141222 2.36196751,0.166141222 L25.7548877,0.166141222 C26.9735039,0.166141222 27.9648803,1.42071683 27.9648803,2.96295762 L27.9648803,23.2519376 C27.9648803,24.7941355 26.9735039,26.048754 25.7548877,26.048754 L25.7548877,26.048754 L25.7548877,26.048754 Z M2.36196751,1.16614122 C1.76035844,1.16614122 1.27094479,1.81102498 1.27094479,2.60374493 L1.27094479,23.7285375 C1.27094479,24.5213021 1.76035841,25.1661412 2.36196751,25.1661412 L25.7548877,25.1661412 C26.3564968,25.1661412 26.8459104,24.5213021 26.8459104,23.7285375 L26.8459104,2.60374493 C26.8459104,1.81102502 26.3564968,1.16614122 25.7548877,1.16614122 L2.36196751,1.16614122 L2.36196751,1.16614122 L2.36196751,1.16614122 Z M17.0884339,9.21304798 C15.7965583,9.21304798 14.7456926,8.16204664 14.7456926,6.87030668 C14.7456926,5.57843106 15.7966939,4.52756537 17.0884339,4.52756537 C18.3801738,4.52756537 19.4311752,5.57843106 19.4311752,6.87030668 C19.4312091,8.16204661 18.3801738,9.21304798 17.0884339,9.21304798 L17.0884339,9.21304798 L17.0884339,9.21304798 Z M17.0884339,5.64653516 C16.4136671,5.64653516 15.8646624,6.19543817 15.8646624,6.87030664 C15.8646624,7.54503949 16.4135654,8.09407813 17.0884339,8.09407813 C17.7632006,8.09407813 18.3122054,7.54503946 18.3122054,6.87030664 C18.3122054,6.19553992 17.7632006,5.64653516 17.0884339,5.64653516 L17.0884339,5.64653516 L17.0884339,5.64653516 Z M25.3721412,18.1926858 L20.9590411,13.7795858 C20.8484058,13.6689166 20.7032097,13.6146504 20.558285,13.6159731 C20.4133602,13.6146504 20.2679945,13.6689505 20.1575288,13.7795858 L17.466093,16.470886 C17.4602594,16.4768552 17.4551041,16.4832315 17.4495418,16.4893026 L11.2432139,10.2828729 C11.132002,10.1717289 10.9857545,10.1173948 10.8400158,10.1193959 C10.6944126,10.1173948 10.5481312,10.1717289 10.4369872,10.2828729 L2.64747577,18.0722487 C2.42902025,18.2907382 2.42902025,18.6450288 2.64747577,18.8635861 L2.64747577,18.8635861 C2.86606694,19.0820756 3.22035766,19.0820756 3.43881317,18.8635861 L10.8400158,11.4622818 L19.662926,20.285158 C19.8813815,20.5036475 20.2358078,20.5036475 20.4542634,20.285158 L20.4542634,20.285158 C20.6727189,20.0667364 20.6727189,19.7124458 20.4542634,19.4939563 L18.2389799,17.2787067 C18.2450848,17.2731445 18.2514272,17.2680909 18.2573965,17.2621216 L20.5582849,14.9612671 L24.5809394,18.9838876 C24.7993949,19.202377 25.1536857,19.202377 25.3721412,18.9838876 L25.3722768,18.9838876 C25.5907323,18.7654321 25.5907323,18.4111414 25.3721412,18.1926858 L25.3721412,18.1926858 L25.3721412,18.1926858 Z" id="Shape"></path>
        </g>
    </g>
</svg>