<?xml version="1.0" encoding="UTF-8" standalone="no"?>

<svg width="26px" height="25px" viewBox="12 12 26 25" version="1.1" xmlns="http://www.w3.org/2000/svg" xmlns:xlink="http://www.w3.org/1999/xlink">
  <!-- Generator: Sketch 39.1 (31720) - http://www.bohemiancoding.com/sketch -->
  <desc>Created with Sketch.</desc>
  <defs></defs>
  <g id="主页-(1)" stroke="none" stroke-width="1" fill="none" fill-rule="evenodd" transform="translate(12.000000, 13.000000)">
    <path d="M10.0460379,22.5704685 L10.0460379,16.3144617 C10.0460379,14.68532 11.3667284,13.365149 12.9953507,13.365149 C14.6239729,13.365149 15.9446634,14.68532 15.9446634,16.3144617 L15.9446634,22.5704685 L17.0171319,22.5704685 L17.0171319,16.3144617 C17.0171319,14.0930613 15.2167836,12.2926805 12.9953507,12.2926805 C10.7739502,12.2926805 8.97356936,14.0930288 8.97356936,16.3144617 L8.97356936,22.5704685 L10.0460379,22.5704685 L10.0460379,22.5704685 Z" id="Shape" fill="#4B4B4B"></path>
    <path d="M10.0460379,22.2575692 L6.02425663,22.2575692 C5.43251739,22.2575692 4.95178812,21.7773594 4.95178812,21.1851007 L4.95178812,11.0191018 L3.87928713,11.0191018 L3.87928713,21.1850682 C3.87928713,22.3695532 4.83967423,23.3300052 6.02422416,23.3300052 L10.0460379,23.3300052 L10.0460379,22.2575692 L10.0460379,22.2575692 Z" id="Shape" fill="#4B4B4B"></path>
    <path d="M21.0388808,11.0191018 L21.0388808,21.1850682 C21.0388808,21.7773269 20.5592229,22.2575367 19.9664123,22.2575367 L15.9454102,22.2575367 L15.9454102,23.3300052 L19.9663798,23.3300052 C21.1509297,23.3300052 22.1113168,22.3695532 22.1113168,21.1850682 L22.1113168,11.0191018 L21.0388808,11.0191018 L21.0388808,11.0191018 Z" id="Shape" fill="#4B4B4B"></path>
    <path d="M2.6047344,11.0191018 L12.2370803,1.3864637 C12.6559894,0.967781817 13.334647,0.967781817 13.7536211,1.3864637 L23.3859994,11.0191018 L24.9030597,11.0191018 L14.511924,0.628193286 C13.6745277,-0.209397762 12.3161412,-0.209397762 11.4788099,0.628193286 L1.08764164,11.0191018 L2.6047344,11.0191018 L2.6047344,11.0191018 Z" id="Shape" fill="#4B4B4B"></path>
    <polygon id="Shape" fill="#4B4B4B" points="24.9030597 11.0191018 21.0839146 11.0191018 21.0839146 12.0915703 25.9761127 12.0915703"></polygon>
    <polygon id="Shape" fill="#4B4B4B" points="4.90672179 11.0191018 1.08764164 11.0191018 0.0218940964 12.0915703 4.90672179 12.0915703"></polygon>
  </g>
</svg>
