<?xml version="1.0" encoding="UTF-8"?>
<svg width="18px" height="19px" viewBox="0 0 18 19" version="1.1" xmlns="http://www.w3.org/2000/svg" xmlns:xlink="http://www.w3.org/1999/xlink">
    <!-- Generator: Sketch 41.2 (35397) - http://www.bohemiancoding.com/sketch -->
    <title>Combined Shape</title>
    <desc>Created with Sketch.</desc>
    <defs></defs>
    <g id="Symbols" stroke="none" stroke-width="1" fill="none" fill-rule="evenodd">
        <g id="Group-10" transform="translate(-236.000000, -425.000000)" fill="#4B4B4B">
            <g id="Group-4">
                <g transform="translate(236.000000, 425.000000)">
                    <g id="Page-1">
                        <path d="M7.50438095,2.0132381 C9.15771429,2.0132381 10.5100952,3.35704762 10.5100952,5.01895238 C10.5100952,6.68085714 9.16628571,8.02466667 7.50438095,8.02466667 C5.84247619,8.02466667 4.49866667,6.68085714 4.49866667,5.01895238 C4.49866667,3.35704762 5.85104762,2.0132381 7.50438095,2.0132381 M7.50438095,9.08561905 C9.74152381,9.08561905 11.5710476,7.26466667 11.5710476,5.01895238 C11.5710476,2.7732381 9.75009524,0.952285714 7.50438095,0.952285714 C5.25866667,0.952285714 3.43771429,2.7732381 3.43771429,5.01895238 C3.43771429,7.26466667 5.2672381,9.08561905 7.50438095,9.08561905 Z M16.7007619,14.2386667 L14.863619,14.2386667 L14.863619,12.4015238 C14.863619,12.1358095 14.6464762,11.9186667 14.3807619,11.9186667 C14.1150476,11.9186667 13.8969524,12.1358095 13.8969524,12.4015238 L13.8969524,14.2386667 L12.0607619,14.2386667 C11.7950476,14.2386667 11.5769524,14.4558095 11.5769524,14.7224762 C11.5769524,14.9881905 11.7950476,15.2053333 12.0607619,15.2053333 L13.8969524,15.2053333 L13.8969524,17.0424762 C13.8969524,17.3081905 14.1150476,17.5253333 14.3807619,17.5253333 C14.6464762,17.5253333 14.863619,17.3081905 14.863619,17.0424762 L14.863619,15.2053333 L16.7007619,15.2053333 C16.9664762,15.2053333 17.1845714,14.9881905 17.1845714,14.7224762 C17.1845714,14.4558095 16.9664762,14.2386667 16.7007619,14.2386667 Z M12.398,17.2190476 C12.3941905,17.2190476 12.3913333,17.2209524 12.3875238,17.2209524 L12.3875238,17.2180952 L1.48561905,17.2180952 C1.24752381,17.2180952 1.10561905,17.1295238 1.06180952,17.0857143 L1.10561905,14.7161905 C1.10561905,12.232381 3.84561905,10.367619 7.48657143,10.3666667 C9.45895238,10.3666667 11.1618095,10.9180952 12.3132381,11.8142857 L12.3170476,11.8066667 C12.3894286,11.8457143 12.4675238,11.8742857 12.5551429,11.8742857 L12.5932381,11.8742857 C12.8713333,11.8742857 13.0999048,11.6466667 13.0999048,11.3685714 L13.0999048,11.3295238 C13.0999048,11.1352381 12.9846667,10.9704762 12.8227619,10.8857143 L12.8275238,10.8771429 C11.4999048,9.90095238 9.63609524,9.31047619 7.50752381,9.30666667 C7.50085714,9.30666667 7.49514286,9.30571429 7.48847619,9.30571429 L7.48752381,9.30571429 L7.48561905,9.30571429 C7.478,9.30571429 7.47228571,9.30666667 7.46561905,9.30666667 C3.23419048,9.3152381 0.0446666667,11.6361905 0.0446666667,14.707619 L0.000857142858,17.0942857 C-0.00866666667,17.36 0.098,17.6247619 0.300857143,17.8285714 C0.583714286,18.12 1.01704762,18.2790476 1.48561905,18.2790476 L12.3875238,18.2790476 L12.3875238,18.2771429 C12.3913333,18.2771429 12.3941905,18.2790476 12.398,18.2790476 C12.690381,18.2790476 12.9275238,18.0419048 12.9275238,17.7485714 C12.9275238,17.4561905 12.690381,17.2190476 12.398,17.2190476 Z" id="Combined-Shape"></path>
                    </g>
                </g>
            </g>
        </g>
    </g>
</svg>