<svg width="911" height="953" viewBox="0 0 911 953" xmlns="http://www.w3.org/2000/svg"><title>Shape</title><path d="M639.136 295.32L745.14 149.54c13.59-18.696 9.458-44.873-9.238-58.464-18.696-13.59-44.862-9.448-58.453 9.238L571.443 246.09c-13.59 18.698-9.458 44.866 9.238 58.457 7.43 5.41 16.04 8.014 24.576 8.014 12.93 0 25.684-5.982 33.876-17.24m71.426 142.2l171.498-55.684c21.98-7.146 34.013-30.75 26.878-52.732-7.146-21.993-30.728-33.983-52.73-26.88L684.72 357.908c-21.98 7.146-34.023 30.75-26.877 52.732 5.744 17.69 22.148 28.94 39.788 28.94 4.29 0 8.644-.67 12.933-2.062M908.94 623.294c7.134-21.982-4.898-45.586-26.88-52.732L710.563 514.88c-21.97-7.147-45.584 4.896-52.72 26.878-7.145 21.982 4.897 45.596 26.878 52.732l171.488 55.693c4.3 1.392 8.652 2.05 12.942 2.05 17.64 0 34.044-11.247 39.788-28.94m-173.036 238.03c18.696-13.6 22.83-39.77 9.238-58.466l-106.004-145.77c-13.58-18.685-39.746-22.83-58.453-9.237-18.696 13.6-22.828 39.77-9.238 58.466L677.45 852.082c8.19 11.27 20.945 17.243 33.876 17.243 8.537 0 17.148-2.605 24.576-8.004m-238.164 49.083v-180.19c0-23.112-18.737-41.85-41.85-41.85-23.11 0-41.848 18.738-41.848 41.85v180.19c0 23.112 18.738 41.85 41.85 41.85 23.11 0 41.848-18.738 41.848-41.85m-263.41-58.32l105.995-145.766c13.6-18.697 9.468-44.865-9.228-58.466-18.696-13.59-44.862-9.447-58.453 9.24L166.64 802.854c-13.592 18.697-9.46 44.864 9.226 58.466 7.44 5.4 16.05 8.006 24.587 8.006 12.93 0 25.685-5.974 33.877-17.243m-178.77-201.9l171.498-55.692c21.98-7.135 34.013-30.75 26.878-52.73-7.135-21.983-30.728-33.974-52.73-26.88L29.72 570.562c-21.983 7.146-34.025 30.75-26.89 52.732 5.755 17.692 22.16 28.94 39.8 28.94 4.29 0 8.64-.67 12.93-2.05M253.936 410.64c7.135-21.983-4.897-45.587-26.878-52.733L55.56 302.224c-21.98-7.146-45.584 4.886-52.73 26.88-7.135 21.98 4.907 45.585 26.89 52.73l171.486 55.684c4.3 1.402 8.652 2.06 12.942 2.06 17.64 0 34.044-11.257 39.788-28.94m77.16-106.09c18.695-13.592 22.828-39.76 9.227-58.457L234.33 100.316c-13.59-18.697-39.768-22.84-58.464-9.238-18.685 13.59-22.818 39.768-9.227 58.465l106 145.778c8.182 11.267 20.935 17.24 33.877 17.24 8.526 0 17.147-2.604 24.575-8.013m124.794-40.5c-23.112 0-41.85-18.74-41.85-41.852v-180.2c0-23.112 18.738-41.85 41.85-41.85 23.11 0 41.848 18.738 41.848 41.85v180.2c0 23.112-18.737 41.85-41.85 41.85" fill-rule="nonzero" fill="#000"/></svg>