<svg xmlns="http://www.w3.org/2000/svg" viewBox="0 0 114.29 114.3"><defs><style>.cls-1{fill:#16178c;}</style></defs><title>Asset 1</title><g id="Layer_2" data-name="Layer 2"><path class="cls-1" d="M57.15 114.3a57.15 57.15 0 1 1 57.14-57.11 57.05 57.05 0 0 1-57.14 57.11zm28.32-22.49H39.83a14.81 14.81 0 0 1-2.22-.14 10.34 10.34 0 0 1-7.12-4.21 8.45 8.45 0 0 1-1.55-6.51A9.1 9.1 0 0 1 32.7 75a11.31 11.31 0 0 1 7-2.22h36.18c.15-1.6.08-51.51-.08-52H35.55a9.37 9.37 0 0 0-3.8.81c-3 1.47-4.12 4.15-4.45 7.28v53.57a10.74 10.74 0 0 0 .1 1.61 11.39 11.39 0 0 0 11.3 9.55c15.9-.06 31.8 0 47.7 0h.68V39.66h-1.61zM75.9 81H39.59a4.64 4.64 0 0 0-.67 0 1.69 1.69 0 0 0-1.45 1.61 1.64 1.64 0 0 0 1.41 1.64 3.57 3.57 0 0 0 .6 0H75.9z" id="图层_1" data-name="图层 1"/></g></svg>