<svg xmlns="http://www.w3.org/2000/svg" viewBox="0 0 117.1 117.09"><title>Asset 1</title><g data-name="图层 1"><path d="M0 58.55a58.55 58.55 0 1 1 58.52 58.54A58.51 58.51 0 0 1 0 58.55zm33.69 29.26a4.81 4.81 0 0 0 3.69-1.33Q53.11 70.77 68.82 55l17.43-17.38a5 5 0 0 0 1.57-3.32 4.79 4.79 0 0 0-5.16-5 5.14 5.14 0 0 0-3.25 1.61L31.09 79.24c-.2.2-.41.4-.59.61a4.58 4.58 0 0 0-.78 5.15 4.48 4.48 0 0 0 3.97 2.81zm6.57-32.93a14.64 14.64 0 1 0-14.65-14.62 14.59 14.59 0 0 0 14.65 14.62zm51.21 22a14.63 14.63 0 1 0-14.65 14.59 14.57 14.57 0 0 0 14.66-14.6z"/><path d="M40.23 34.77a5.48 5.48 0 1 1-5.47 5.51 5.47 5.47 0 0 1 5.47-5.51zM82.33 76.84a5.48 5.48 0 1 1-5.5-5.47 5.44 5.44 0 0 1 5.5 5.47z"/></g></svg>