<svg xmlns="http://www.w3.org/2000/svg" viewBox="0 0 118.36 118.36"><defs><style>.cls-1{fill:#16178c;}</style></defs><title>Asset 1</title><g id="Layer_2" data-name="Layer 2"><g id="图层_1" data-name="图层 1"><path class="cls-1" d="M59.19 0A59.18 59.18 0 1 1 0 59 59.22 59.22 0 0 1 59.19 0zM8.26 59.18A50.93 50.93 0 1 0 59.17 8.26 50.86 50.86 0 0 0 8.26 59.18z"/><path class="cls-1" d="M33 59.12V30.33a4 4 0 0 1 2-3.54 4.06 4.06 0 0 1 4.41 0c5.53 3.17 11.07 6.31 16.57 9.52q16.31 9.54 32.62 19.17a4.12 4.12 0 0 1 1.66 5.74 4.3 4.3 0 0 1-1.69 1.62C79.82 68 71.1 73.26 62.32 78.39 54.71 82.84 47 87.16 39.38 91.54A4.14 4.14 0 0 1 33 87.83V59.12zm8.28-21.7v43.39l.41-.21c.6-.34 1.18-.71 1.79-1a.88.88 0 0 0 .54-.91V39.63a2.21 2.21 0 0 0 0-.39.46.46 0 0 0-.14-.29c-.83-.52-1.67-1-2.58-1.52z"/></g></g></svg>