<?xml version="1.0" encoding="UTF-8" standalone="no"?>
<svg width="28px" height="28px" viewBox="0 0 28 28" version="1.1" xmlns="http://www.w3.org/2000/svg" xmlns:xlink="http://www.w3.org/1999/xlink">
    <!-- Generator: Sketch 39.1 (31720) - http://www.bohemiancoding.com/sketch -->
    <title>more</title>
    <desc>Created with Sketch.</desc>
    <defs></defs>
    <g id="Page-1" stroke="none" stroke-width="1" fill="none" fill-rule="evenodd">
        <g id="more" transform="translate(-1.000000, 0.000000)">
            <g id="Group">
                <path d="M10.65,0.724 C3.35,3.124 -0.75,11.024 1.65,18.324 C4.05,25.624 11.95,29.624 19.35,27.324 C26.651,24.925 30.75,17.024 28.35,9.724 C25.95,2.323 18.05,-1.677 10.65,0.724 M19.05,26.323 C16.55,27.123 13.95,27.123 11.55,26.523 C7.55,25.423 4.05,22.323 2.65,18.023 C0.45,11.223 4.15,3.923 10.95,1.723 C17.75,-0.477 25.05,3.223 27.349,10.023 C28.749,14.323 27.749,18.823 25.15,22.123 C23.65,24.023 21.55,25.523 19.05,26.323" id="Shape" fill="#4B4B4B"></path>
                <path d="M15.45,12.523 C14.65,12.523 14.05,13.223 14.05,13.923 C14.05,14.723 14.65,15.323 15.45,15.323 C16.25,15.323 16.849,14.723 16.849,13.923 C16.95,13.124 16.25,12.523 15.45,12.523 M15.45,14.623 C15.15,14.623 14.85,14.323 14.85,14.023 C14.85,13.723 15.15,13.423 15.45,13.423 C15.849,13.423 16.05,13.723 16.05,14.023 C16.05,14.323 15.85,14.623 15.45,14.623" id="Shape" fill="#4B4B4B"></path>
                <path d="M15.45,8.523 C14.65,8.523 14.05,9.223 14.05,9.923 C14.05,10.723 14.65,11.323 15.45,11.323 C16.25,11.323 16.849,10.723 16.849,9.923 C16.85,9.124 16.25,8.523 15.45,8.523 M15.45,10.523 C15.15,10.523 14.85,10.223 14.85,9.923 C14.85,9.623 15.15,9.323 15.45,9.323 C15.75,9.323 16.05,9.623 16.05,9.923 C16.05,10.224 15.75,10.523 15.45,10.523" id="Shape" fill="#4B4B4B"></path>
                <path d="M15.55,16.623 C14.75,16.623 14.15,17.323 14.15,18.023 C14.15,18.823 14.75,19.423 15.55,19.423 C16.35,19.423 16.95,18.822 16.95,18.023 C16.95,17.224 16.35,16.623 15.55,16.623 M15.55,18.623 C15.25,18.623 14.95,18.323 14.95,18.023 C14.95,17.723 15.25,17.423 15.55,17.423 C15.85,17.423 16.151,17.723 16.151,18.023 C16.151,18.323 15.85,18.623 15.55,18.623" id="Shape" fill="#655454"></path>
            </g>
        </g>
    </g>
</svg>