<?xml version="1.0" encoding="UTF-8"?>
<svg width="48px" height="48px" viewBox="0 0 48 48" version="1.1" xmlns="http://www.w3.org/2000/svg" xmlns:xlink="http://www.w3.org/1999/xlink">
    <!-- Generator: Sketch 47.1 (45422) - http://www.bohemiancoding.com/sketch -->
    <title>直播/播放按钮</title>
    <desc>Created with Sketch.</desc>
    <defs></defs>
    <g id="Page-1" stroke="none" stroke-width="1" fill="none" fill-rule="evenodd">
        <g id="006-bd1297-视频详情页-1204" transform="translate(-164.000000, -81.000000)">
            <g id="视频封面">
                <g id="通用/视频/播放" transform="translate(164.000000, 81.000000)">
                    <g id="播放" stroke-width="1" fill-opacity="0.6" fill="#FFFFFF">
                        <path d="M24,2.13162821e-14 C10.7460742,2.13162821e-14 -7.10542736e-15,10.7461105 -7.10542736e-15,24.0000234 C-7.10542736e-15,37.2548739 10.7460742,48 24,48 C37.2539258,48 48,37.2548739 48,24.0000234 C48,10.7461105 37.2539258,2.13162821e-14 24,2.13162821e-14 Z" id="Shape"></path>
                    </g>
                    <path d="M32.4132336,25.7840363 L20.5512025,32.0892051 L20.5512025,32.0892051 C19.819694,32.4780326 18.9114823,32.2002348 18.5226547,31.4687264 C18.4074264,31.2519451 18.347168,31.0101947 18.347168,30.7646918 L18.347168,17.4391244 L18.347168,17.4391244 C18.347168,16.6106973 19.0187408,15.9391244 19.847168,15.9391244 C20.1159673,15.9391244 20.3798281,16.0113547 20.6111503,16.14826 L32.4731815,23.1686586 L32.4731815,23.1686586 C33.1861062,23.5905944 33.4219993,24.5105807 33.0000635,25.2235054 C32.8596716,25.4607188 32.6566305,25.6546606 32.4132336,25.7840363 Z" id="Triangle" fill="#000000"></path>
                </g>
            </g>
        </g>
    </g>
</svg>