<?xml version="1.0" encoding="UTF-8"?>
<svg width="20px" height="20px" viewBox="0 0 20 20" version="1.1" xmlns="http://www.w3.org/2000/svg" xmlns:xlink="http://www.w3.org/1999/xlink">
    <!-- Generator: Sketch 47.1 (45422) - http://www.bohemiancoding.com/sketch -->
    <title>Combined Shape</title>
    <desc>Created with Sketch.</desc>
    <defs></defs>
    <g id="Page-1" stroke="none" stroke-width="1" fill="none" fill-rule="evenodd">
        <g id="006-bd1297-视频详情页-1204" transform="translate(-304.000000, -906.000000)" fill="#CCCCCC">
            <g id="通用/底部工具栏" transform="translate(0.000000, 899.000000)">
                <g id="底部工具栏">
                    <g id="评论" transform="translate(288.000000, 3.000000)">
                        <g id="评论按钮" transform="translate(13.000000, 0.000000)">
                            <path d="M22.1674157,9.25174438 C22.6885393,10.3132893 22.952809,11.4410028 22.952809,12.6036629 C22.952809,13.7659944 22.6885393,14.8935983 22.1674157,15.9551433 C21.664382,16.9797697 20.9444944,17.8998848 20.0276404,18.6898539 C19.1114607,19.4793848 18.0446067,20.0991124 16.8569663,20.5320562 C15.6276404,20.980118 14.3220225,21.2072163 12.9761798,21.2072163 C12.3820225,21.2072163 11.7637079,21.1564944 11.1380899,21.0561461 L6.71595506,23.6982865 L6.71595506,19.2962163 C5.58752809,18.510191 4.65505618,17.5055028 4.01775281,16.3887444 C3.34247191,15.2051601 3,13.9317444 3,12.6036629 C3,11.4410028 3.26426966,10.3132893 3.7852809,9.25174438 C4.28831461,8.22711798 5.00820225,7.30700281 5.92505618,6.51703371 C6.84123596,5.72761236 7.90797753,5.10788483 9.09561798,4.67505056 C10.3248315,4.22709831 11.6304494,4 12.9761798,4 C14.3220225,4 15.6276404,4.22709831 16.8569663,4.67505056 C18.0447191,5.10788483 19.1114607,5.72761236 20.0277528,6.51703371 C20.9444944,7.30700281 21.6644944,8.22711798 22.1674157,9.25174438 Z M12.9761573,13.8889868 C13.696382,13.8889868 14.2824494,13.3124222 14.2825618,12.6036301 C14.2825618,11.8948379 13.6964944,11.3182733 12.9761573,11.3182733 C12.2560449,11.3182733 11.6703146,11.8948379 11.6703146,12.6036301 C11.6703146,13.3124222 12.2561573,13.8889868 12.9761573,13.8889868 Z M8.02176404,11.3182185 C7.30176404,11.3182185 6.71592135,11.8948927 6.71592135,12.6035753 C6.71592135,13.3123674 7.30176404,13.888932 8.02176404,13.888932 C8.74210112,13.888932 9.32805618,13.3123674 9.32805618,12.6035753 C9.32805618,11.8948927 8.74198876,11.3182185 8.02176404,11.3182185 Z M17.9309551,13.8889868 C18.6510674,13.8889868 19.2369101,13.3124222 19.2369101,12.6036301 C19.2369101,11.8948379 18.6510674,11.3182733 17.9309551,11.3182733 C17.2107303,11.3182733 16.6246629,11.8948379 16.6246629,12.6036301 C16.6246629,13.3124222 17.2107303,13.8889868 17.9309551,13.8889868 Z" id="Combined-Shape"></path>
                        </g>
                    </g>
                </g>
            </g>
        </g>
    </g>
</svg>