
<svg width="22px" height="16px" viewBox="439 334 22 16" version="1.1" xmlns="http://www.w3.org/2000/svg" xmlns:xlink="http://www.w3.org/1999/xlink">
  <!-- Generator: Sketch 40 (33762) - http://www.bohemiancoding.com/sketch -->
  <desc>Created with Sketch.</desc>
  <defs></defs>
  <path d="M459.495245,335.413106 C458.936651,334.858419 458.030401,334.862325 457.475714,335.424825 L447.061651,345.952169 L442.452276,341.213888 C441.901495,340.647481 440.995245,340.635763 440.432745,341.186544 C439.866339,341.737325 439.85462,342.643575 440.405401,343.206075 L446.030401,348.987325 C446.034308,348.991231 446.038214,348.991231 446.04212,348.995138 C446.046026,348.999044 446.046026,349.00295 446.049933,349.006856 C446.139776,349.0967 446.253058,349.151388 446.358526,349.209981 C446.413214,349.241231 446.460089,349.288106 446.514776,349.311544 C446.686651,349.381856 446.870245,349.417013 447.053839,349.417013 C447.233526,349.417013 447.41712,349.381856 447.588995,349.311544 C447.643683,349.288106 447.686651,349.241231 447.741339,349.213888 C447.846808,349.155294 447.960089,349.100606 448.049933,349.010763 C448.053839,349.006856 448.053839,349.00295 448.057745,348.999044 C448.061651,348.995138 448.065558,348.995138 448.069464,348.991231 L459.506964,337.428731 C460.061651,336.870138 460.053839,335.967794 459.495245,335.413106 L459.495245,335.413106 Z" id="Path" stroke="#979797" stroke-width="1" fill="#D8D8D8" fill-rule="evenodd"></path>
</svg>
