
<svg width="61px" height="63px" viewBox="99 193 61 63" version="1.1" xmlns="http://www.w3.org/2000/svg" xmlns:xlink="http://www.w3.org/1999/xlink">
  <!-- Generator: Sketch 40 (33762) - http://www.bohemiancoding.com/sketch -->
  <desc>Created with Sketch.</desc>
  <defs></defs>
  <g id="Page-1" stroke="none" stroke-width="1" fill="none" fill-rule="evenodd" transform="translate(99.000000, 194.587879)">
    <path d="M31.9033,55.7739 C31.0913,56.7459 29.9063,57.4619 28.5803,57.4619 C26.7343,57.4619 25.1533,56.0849 24.4843,54.5479 L30.6403,54.5479 C29.7833,53.6309 29.0223,52.6279 28.3673,51.5479 L21.1343,51.5479 L3.0003,51.5479 L3.0003,49.0259 L9.6513,42.1969 L9.6513,28.2239 C9.6513,18.9909 15.8043,11.2409 24.6143,9.3779 L25.8033,9.1259 L25.8033,5.9539 C25.8033,4.3529 27.0753,2.9999 28.5803,2.9999 C30.0853,2.9999 31.3563,4.3529 31.3563,5.9539 L31.3563,9.1259 L32.5463,9.3779 C40.0953,10.9749 45.6803,16.8999 47.1283,24.3709 C48.2253,24.5719 49.2853,24.8769 50.3043,25.2659 C49.1723,16.3429 42.9883,9.0559 34.3563,6.7289 L34.3563,5.9539 C34.3563,2.7269 31.7113,-9.99999997e-05 28.5803,-9.99999997e-05 C25.4493,-9.99999997e-05 22.8033,2.7269 22.8033,5.9539 L22.8033,6.7289 C13.2333,9.3089 6.6513,17.9789 6.6513,28.2239 L6.6513,40.9779 L0.0003,47.8069 L0.0003,54.5479 L21.3403,54.5479 C22.0863,57.5779 24.9423,60.4619 28.5803,60.4619 C30.9403,60.4619 32.9673,59.2439 34.3073,57.5609 C33.4563,57.0309 32.6533,56.4339 31.9033,55.7739" id="Fill-1" fill="#9EA1A5"></path>
    <path d="M44.1885,28.5464 C36.5845,28.5464 30.3985,34.7324 30.3985,42.3354 C30.3985,49.9394 36.5845,56.1234 44.1885,56.1234 C51.7925,56.1234 57.9765,49.9394 57.9765,42.3354 C57.9765,34.7324 51.7925,28.5464 44.1885,28.5464 M44.1885,58.8314 C35.0915,58.8314 27.6915,51.4314 27.6915,42.3354 C27.6915,33.2394 35.0915,25.8384 44.1885,25.8384 C53.2845,25.8384 60.6845,33.2394 60.6845,42.3354 C60.6845,51.4314 53.2845,58.8314 44.1885,58.8314" id="Fill-4" fill="#9EA1A5"></path>
    <polygon id="Fill-7" fill="#9EA1A5" points="50.9248 38.981 42.8948 47.109 42.6588 47.331 42.4238 47.109 37.4498 42.076 39.0718 40.434 42.6578 44.065 49.3038 37.339"></polygon>
  </g>
</svg>
