<?xml version="1.0" encoding="UTF-8"?>
<svg width="20px" height="19px" viewBox="0 0 20 19" version="1.1" xmlns="http://www.w3.org/2000/svg" xmlns:xlink="http://www.w3.org/1999/xlink">
    <!-- Generator: Sketch 41.2 (35397) - http://www.bohemiancoding.com/sketch -->
    <title>历史记录</title>
    <desc>Created with Sketch.</desc>
    <defs></defs>
    <g id="Page-1" stroke="none" stroke-width="1" fill="none" fill-rule="evenodd">
        <g id="正在直播-主持人-" transform="translate(-323.000000, -2330.000000)" fill="#FFFFFF">
            <g id="Group-11" transform="translate(313.000000, 2319.000000)">
                <g id="历史记录" transform="translate(10.000000, 11.000000)">
                    <path d="M13.1332731,7.74804606 C13.1332731,7.45733096 12.8977525,7.22277177 12.6080446,7.22277177 L3.22515094,7.22277177 C2.93542022,7.22277177 2.69987664,7.45733094 2.69987664,7.74804606 C2.69987664,8.03876119 2.93544311,8.27327456 3.22515094,8.27327456 L12.6080446,8.27327456 C12.8977525,8.27329745 13.1332731,8.03878407 13.1332731,7.74804606 L13.1332731,7.74804606 Z" id="Shape"></path>
                    <path d="M9.10955074,11.2080801 C9.10955074,10.917365 8.87400718,10.6828058 8.58427644,10.6828058 L3.22515094,10.6828058 C2.93542022,10.6828058 2.69987664,10.917365 2.69987664,11.2080801 C2.69987664,11.4987952 2.93544311,11.7333544 3.22515094,11.7333544 L8.58425358,11.7333544 C8.8739843,11.7333773 9.10955074,11.4988181 9.10955074,11.2080801 L9.10955074,11.2080801 Z" id="Shape"></path>
                    <path d="M3.22416653,4.81324051 L12.6070373,4.81324051 C12.8977524,4.81324051 13.1323116,4.57868134 13.1323116,4.28796622 C13.1323116,3.99725112 12.8967452,3.76269192 12.6070373,3.76269192 L3.22416653,3.76269195 C2.93443582,3.76269195 2.69893803,3.99725112 2.69893803,4.28796624 C2.69891515,4.57870423 2.93443582,4.81324051 3.22416653,4.81324051 L3.22416653,4.81324051 Z" id="Shape"></path>
                    <path d="M3.22615821,14.143893 C2.93640459,14.143893 2.70088391,14.3784064 2.70088391,14.6691215 C2.70088391,14.9598366 2.93640459,15.1943957 3.22615821,15.1943957 L6.94538405,15.1943957 C7.23511477,15.1943957 7.47065834,14.9598366 7.47065834,14.6691215 C7.47065834,14.3784064 7.23509188,14.143893 6.94538405,14.143893 L3.22615821,14.143893 L3.22615821,14.143893 Z" id="Shape"></path>
                    <path d="M17.8380321,14.77658 C17.8380321,14.4858649 17.6024657,14.2513057 17.3127578,14.2513057 L15.8158234,14.2513057 L15.8158234,12.0861776 C15.8158234,11.7954625 15.5802569,11.5609033 15.2905491,11.5609033 C15.0007955,11.5609033 14.7652748,11.7954624 14.7652748,12.0861776 L14.7652748,15.3028158 L17.3127578,15.3028158 C17.6024885,15.3028158 17.8380321,15.0672952 17.8380321,14.77658 L17.8380321,14.77658 Z" id="Shape"></path>
                    <path d="M2.33031888,18.9452136 L10.0989528,18.9452136 C10.3896679,18.9452136 10.6251886,18.7096471 10.6251886,18.418932 C10.6251886,18.1282169 10.3896679,17.8937035 10.0999601,17.8937035 L2.33031888,17.8937035 C1.63458512,17.8937035 1.06792074,17.3280006 1.06792074,16.6322669 L1.06792074,2.32488951 C1.06792074,1.62910998 1.63357785,1.06246848 2.33031888,1.06246848 L13.5048226,1.06246848 C14.2005563,1.06246848 14.7662592,1.62913286 14.7662592,2.32488951 L14.7662592,7.74806897 C14.7662592,8.03878407 15.0017799,8.27329747 15.2914877,8.27329747 C15.5812413,8.27329747 15.816762,8.03878407 15.816762,7.74806897 L15.816762,2.32488951 C15.816762,1.04964852 14.7790334,0.0109355034 13.5038153,0.0109355034 L2.33031888,0.0109355034 C1.0541164,0.0109355034 0.016364877,1.04962564 0.016364877,2.32488951 L0.016364877,16.6322669 C0.0163877629,17.9074621 1.05512369,18.9452136 2.33031888,18.9452136 L2.33031888,18.9452136 Z" id="Shape"></path>
                    <path d="M15.2905491,18.9452136 C17.881391,18.9452136 19.9893789,16.8372257 19.9893789,14.2463838 C19.9893789,11.6555419 17.881391,9.54755407 15.2905491,9.54755407 C12.6996614,9.54755407 10.5927266,11.6555419 10.5927266,14.2463838 C10.5927266,16.8372257 12.7006687,18.9452136 15.2905491,18.9452136 L15.2905491,18.9452136 Z M15.2905491,10.5990412 C17.3019067,10.5990412 18.937823,12.2349576 18.937823,14.2463609 C18.937823,16.2577643 17.3019067,17.8936806 15.2905491,17.8936806 C13.280153,17.8936806 11.6442367,16.2577643 11.6442367,14.2463609 C11.6442367,12.2349576 13.2801302,10.5990412 15.2905491,10.5990412 L15.2905491,10.5990412 Z" id="Shape"></path>
                </g>
            </g>
        </g>
    </g>
</svg>