<svg width="784" height="896" viewBox="0 0 784 896" xmlns="http://www.w3.org/2000/svg"><title>Shape</title><path d="M587.866 532.27h-251.83c-15.452 0-27.98 12.516-27.98 27.983 0 15.412 12.528 27.927 27.98 27.927h251.83c15.453 0 27.982-12.515 27.982-27.927 0-15.467-12.53-27.982-27.982-27.982zm0-531.966H252.094c-59.2 0-111.924 54.323-111.924 111.924l-32.325.765C48.63 112.993.265 166.55.265 224.153v559.62c0 57.6 52.724 111.923 111.925 111.923h419.715c59.2 0 111.924-54.323 111.924-111.924h27.98c59.2 0 111.924-54.323 111.924-111.924v-447.04L587.866.303zm-55.96 839.43H112.188c-29.376 0-55.964-27.488-55.964-55.962v-559.62c0-28.528 23.937-55.088 53.298-55.088l30.645-.874v503.66c0 57.6 52.723 111.923 111.923 111.923h335.772c0 28.472-26.6 55.962-55.96 55.962zM727.77 671.85c0 28.473-26.587 55.963-55.963 55.963H252.093c-29.375 0-55.962-27.488-55.962-55.962v-559.62c0-28.528 26.587-55.963 55.962-55.963h279.81c-.45 64.434 0 112.634 0 112.634 0 58.093 52.315 111.213 111.925 111.213h83.942v391.735zM643.83 224.152c-29.813 0-55.964-54.16-55.964-83.233V57.085l139.906 167.066H643.83zM587.865 392.53h-251.83c-15.452 0-27.98 12.515-27.98 27.927 0 15.465 12.528 27.98 27.98 27.98h251.83c15.453 0 27.982-12.514 27.982-27.98 0-15.412-12.53-27.927-27.982-27.927z" fill-rule="nonzero" fill="#000"/></svg>