<svg width="19" height="22" viewBox="0 0 19 22" xmlns="http://www.w3.org/2000/svg"><title>文章</title><g fill-rule="nonzero" fill="#4B4B4B"><path d="M16.622 21.978H1.97c-1.074 0-1.96-.87-1.96-1.96V1.982C.01.907.883.023 1.97.023h11.495l5.116 5.115V20.02c0 1.074-.884 1.958-1.958 1.958zM1.97 1.246c-.408 0-.734.327-.734.735v18.04c0 .407.326.734.734.734h14.652c.408 0 .734-.327.734-.735V5.64L12.95 1.232H1.97v.014z"/><path d="M17.968 6.007h-3.863c-.83 0-1.51-.68-1.51-1.51V.634h1.224v3.863c0 .15.135.286.285.286h3.863v1.224zM10.01 7.49H4.745c-.34 0-.612-.272-.612-.612 0-.34.272-.612.612-.612h5.265c.34 0 .612.272.612.612 0 .34-.272.612-.612.612zm3.823 4.285H4.745c-.34 0-.612-.272-.612-.612 0-.34.272-.612.612-.612h9.088c.34 0 .612.273.612.613 0 .34-.272.612-.612.612zm0 4.15H4.745c-.34 0-.612-.272-.612-.613 0-.34.272-.612.612-.612h9.088c.34 0 .612.272.612.612 0 .34-.272.613-.612.613z"/></g></svg>
