<?xml version="1.0" encoding="UTF-8" standalone="no"?>
<svg width="26px" height="26px" viewBox="0 0 26 26" version="1.1" xmlns="http://www.w3.org/2000/svg" xmlns:xlink="http://www.w3.org/1999/xlink">
    <!-- Generator: Sketch 39.1 (31720) - http://www.bohemiancoding.com/sketch -->
    <title>Shape</title>
    <desc>Created with Sketch.</desc>
    <defs></defs>
    <g id="Page-1" stroke="none" stroke-width="1" fill="none" fill-rule="evenodd">
        <g id="icon_stop" transform="translate(-497.000000, -54.000000)" fill="#4B4B4B">
            <path d="M510,54.7 C503.3,54.7 497.7,60.2 497.7,67 C497.7,73.7 503.2,79.3 510,79.3 C516.8,79.3 522.3,73.8 522.3,67 C522.3,60.3 516.7,54.7 510,54.7 L510,54.7 Z M510,80 C502.8,80 497,74.2 497,67 C497,59.8 502.8,54 510,54 C517.2,54 523,59.8 523,67 C523,74.2 517.2,80 510,80 Z M507.8,62.9 C507.5,62.9 507.4,63.2 507.4,63.4 L507.4,70.5 C507.4,70.8 507.6,71 507.8,71 C508,71 508.2,70.7 508.2,70.5 L508.2,63.4 C508.2,63.3 508.1,62.9 507.8,62.9 Z M512.2,62.9 C511.9,62.9 511.8,63.2 511.8,63.4 L511.8,70.5 C511.8,70.8 512,71 512.2,71 C512.4,71 512.6,70.7 512.6,70.5 L512.6,63.4 C512.6,63.3 512.5,62.9 512.2,62.9 Z" id="Shape"></path>
        </g>
    </g>
</svg>