<?xml version="1.0" encoding="UTF-8" standalone="no"?>
<svg width="18px" height="18px" viewBox="0 0 18 18" version="1.1" xmlns="http://www.w3.org/2000/svg" xmlns:xlink="http://www.w3.org/1999/xlink">
    <!-- Generator: Sketch 39.1 (31720) - http://www.bohemiancoding.com/sketch -->
    <title>Fill-1</title>
    <desc>Created with Sketch.</desc>
    <defs></defs>
    <g id="Page-1" stroke="none" stroke-width="1" fill="none" fill-rule="evenodd">
        <g id="invite-people" fill="#9EA1A5">
            <path d="M8.9998,11.3277 C11.5658,11.3277 13.6558,8.7867 13.6558,5.6637 C13.6558,2.5397 11.5668,-0.0003 8.9998,-0.0003 C7.7298,-0.0003 6.5438,0.6077 5.6608,1.7097 C4.8108,2.7727 4.3428,4.1767 4.3448,5.6637 C4.3448,8.7867 6.4318,11.3277 8.9998,11.3277 M8.9998,1.2417 C10.8808,1.2417 12.4138,3.2247 12.4138,5.6637 C12.4138,8.1017 10.8808,10.0867 8.9998,10.0867 C7.1178,10.0867 5.5858,8.1017 5.5848,5.6637 C5.5848,3.2257 7.1158,1.2417 8.9998,1.2417 M12.9098,10.7067 C12.5668,10.7067 12.2888,10.9857 12.2888,11.3277 C12.2888,11.6717 12.5668,11.9487 12.9098,11.9487 C15.0318,11.9487 16.7588,13.6757 16.7588,15.7987 C16.7588,16.0717 16.5358,16.2947 16.2618,16.2947 L1.7368,16.2947 C1.4628,16.2947 1.2418,16.0717 1.2418,15.7987 C1.2418,13.6757 2.9678,11.9487 5.0888,11.9487 C5.4328,11.9487 5.7098,11.6717 5.7098,11.3277 C5.7098,10.9857 5.4328,10.7067 5.0888,10.7067 C2.2828,10.7067 -0.0002,12.9897 -0.0002,15.7977 C-0.0002,16.7557 0.7798,17.5357 1.7368,17.5357 L16.2618,17.5357 C17.2188,17.5357 17.9998,16.7557 17.9998,15.7977 C17.9998,12.9897 15.7158,10.7067 12.9098,10.7067" id="Fill-1"></path>
        </g>
    </g>
</svg>