<?xml version="1.0" encoding="UTF-8" standalone="no"?>
<svg width="26px" height="26px" viewBox="0 0 26 26" version="1.1" xmlns="http://www.w3.org/2000/svg" xmlns:xlink="http://www.w3.org/1999/xlink">
    <!-- Generator: Sketch 39.1 (31720) - http://www.bohemiancoding.com/sketch -->
    <title>Shape</title>
    <desc>Created with Sketch.</desc>
    <defs></defs>
    <g id="Page-1" stroke="none" stroke-width="1" fill="none" fill-rule="evenodd">
        <g id="icon_stop" transform="translate(-497.000000, -54.000000)" fill="#4B4B4B">
            <path d="M507.6,62.6 C507.5,62.6 507.4,62.6 507.4,62.7 C507.3,62.8 507.2,62.9 507.2,63.1 L507.2,71 C507.2,71.2 507.3,71.3 507.4,71.4 C507.5,71.5 507.7,71.5 507.8,71.4 L514.1,67.5 C514.2,67.4 514.3,67.3 514.3,67.1 C514.3,66.9 514.2,66.8 514.1,66.7 L507.8,62.7 C507.8,62.6 507.7,62.6 507.6,62.6 L507.6,62.6 Z M507.6,72.1 C507.4,72.1 507.2,72 507,71.9 C506.6,71.7 506.3,71.2 506.3,70.9 L506.3,63 C506.3,62.5 506.5,62.2 507,62 C507.4,61.8 507.8,61.8 508.2,62 L514.5,65.9 C514.9,66.1 515.1,66.5 515.1,66.9 C515.1,67.3 514.9,67.6 514.5,67.9 L508.2,71.9 C508,72 507.9,72.1 507.6,72.1 L507.6,72.1 Z M510,54.7 C503.3,54.7 497.7,60.2 497.7,67 C497.7,73.7 503.2,79.3 510,79.3 C516.8,79.3 522.3,73.8 522.3,67 C522.3,60.3 516.7,54.7 510,54.7 L510,54.7 Z M510,80 C502.8,80 497,74.2 497,67 C497,59.8 502.8,54 510,54 C517.2,54 523,59.8 523,67 C523,74.2 517.2,80 510,80 L510,80 Z" id="Shape"></path>
        </g>
    </g>
</svg>