<?xml version="1.0" encoding="UTF-8" standalone="no"?>
<svg width="9px" height="10px" viewBox="0 0 9 10" version="1.1" xmlns="http://www.w3.org/2000/svg" xmlns:xlink="http://www.w3.org/1999/xlink">
    <!-- Generator: Sketch 39.1 (31720) - http://www.bohemiancoding.com/sketch -->
    <title>Shape</title>
    <desc>Created with Sketch.</desc>
    <defs></defs>
    <g id="Symbols" stroke="none" stroke-width="1" fill="none" fill-rule="evenodd">
        <g id="dialog-4" transform="translate(-278.000000, -43.000000)" fill="#4B4B4B">
            <g id="Group-3" transform="translate(278.000000, 43.000000)">
                <path d="M1.2063132,10 C1.00035729,10 0.794401378,9.94352376 0.617867738,9.85880941 C0.235378186,9.66114259 0,9.26580894 0,8.84223718 L0,1.1614692 C0,0.73789744 0.235378186,0.370801912 0.617867738,0.144896972 C1.00035729,-0.0527698512 1.47111366,-0.0527698512 1.82418094,0.173135089 L8.23823651,4.01351908 C8.59130379,4.2111859 8.7972597,4.57828143 8.7972597,4.97361507 C8.7972597,5.36894872 8.59130379,5.73604425 8.23823651,5.93371107 L8.23823651,5.93371107 L1.85360321,9.83057129 C1.6476473,9.94352376 1.44169139,10 1.2063132,10 L1.2063132,10 Z M1.3883417,1 C1.33286432,1 1.24964824,1.0266223 1.19417085,1.05324459 C1.08321608,1.10648918 1,1.23960067 1,1.37271215 L1,8.640599 C1,8.77371048 1.08321608,8.90682196 1.19417085,8.96006656 C1.30512562,9.01331115 1.47155778,9.01331115 1.58251255,8.96006656 L7.62954762,5.33943428 C7.74050239,5.25956739 7.82371847,5.1530782 7.82371847,5.01996672 C7.82371847,4.88685524 7.76824108,4.78036606 7.62954762,4.70049917 L1.61025124,1.05324459 C1.52703517,1 1.47155778,1 1.3883417,1 L1.3883417,1 Z" id="Shape"></path>
            </g>
        </g>
    </g>
</svg>