<svg width="20" height="18" viewBox="0 0 20 18" xmlns="http://www.w3.org/2000/svg"><title>Page 1</title><path d="M1 17h1.512V8.436H1V17zm-1 1V7.436h3.512V18H0zm5.892-1.12h10.63c.397-.395 1.002-1.967 1.543-4.228.263-1.098.916-4.305.902-4.246.094-.42.036-.486-.423-.567-.26-.047-.562-.05-.84-.023-.06.006-.1.01-.114.013l-.156.012h-6.74l.242-1.197c.057-.285.08-.386.23-1.076.058-.263.095-.438.132-.614.492-2.353.383-3.372-.397-3.72-.668-.28-.845-.276-.865-.253-.118.136-.225.576-.347 1.595l-.04.34c-.016.147-.042.295-.078.444-.263 1.092-1.01 2.16-2.088 3.22-.443.436-.915.84-1.386 1.208l-.204.157v8.934zM12.085 6.05c-.06.27-.117.535-.17.794h5.52s3.01-.474 2.51 1.78c-.503 2.257-1.507 8.547-3.137 9.26H4.892V7.435s3.512-2.373 3.763-4.63c.25-2.135.376-3.44 2.634-2.49 1.235.55 1.5 2.46.795 5.732z" fill-rule="nonzero" fill="#FFF"/></svg>