<?xml version="1.0" encoding="UTF-8"?>
<svg width="20px" height="20px" viewBox="0 0 20 20" version="1.1" xmlns="http://www.w3.org/2000/svg" xmlns:xlink="http://www.w3.org/1999/xlink">
    <!-- Generator: Sketch 47.1 (45422) - http://www.bohemiancoding.com/sketch -->
    <title>取消</title>
    <desc>Created with Sketch.</desc>
    <defs></defs>
    <g id="v3" stroke="none" stroke-width="1" fill="none" fill-rule="evenodd">
        <g id="v3-造就题先生-17" transform="translate(-20.000000, -20.000000)" fill="#898B99">
            <path d="M20,30 C20,24.4771085 24.4772228,20 30,20 C35.5227772,20 40,24.4771085 40,30 C40,35.5227772 35.5227772,39.9998857 30,39.9998857 C24.4772228,39.9998857 20,35.5227772 20,30 Z M27.3478613,26.2896696 C27.0549681,25.9967764 26.5800943,25.9967764 26.2872011,26.2896696 C25.9943079,26.5825628 25.9943079,27.0574366 26.2872011,27.3503298 L28.9388515,30.0019802 L26.2872011,32.6536306 C25.9943079,32.9465239 25.9943079,33.4213976 26.2872011,33.7142908 C26.5800943,34.007184 27.0549681,34.007184 27.3478613,33.7142908 L29.9995117,31.0626404 L32.6511621,33.7142908 C32.9440554,34.007184 33.4189291,34.007184 33.7118223,33.7142908 C34.0047155,33.4213976 34.0047155,32.9465239 33.7118223,32.6536306 L31.0601719,30.0019802 L33.7118223,27.3503298 C34.0047155,27.0574366 34.0047155,26.5825628 33.7118223,26.2896696 C33.4189291,25.9967764 32.9440554,25.9967764 32.6511621,26.2896696 L29.9995117,28.94132 L27.3478613,26.2896696 Z" id="取消"></path>
        </g>
    </g>
</svg>