<?xml version="1.0" encoding="UTF-8"?>
<svg width="19px" height="20px" viewBox="0 0 19 20" version="1.1" xmlns="http://www.w3.org/2000/svg" xmlns:xlink="http://www.w3.org/1999/xlink">
    <!-- Generator: Sketch 41.2 (35397) - http://www.bohemiancoding.com/sketch -->
    <title>回放 (1)</title>
    <desc>Created with Sketch.</desc>
    <defs></defs>
    <g id="Page-1" stroke="none" stroke-width="1" fill="none" fill-rule="evenodd">
        <g id="主持人视角-历史记录" transform="translate(-258.000000, -1683.000000)" fill="#4B4B4B">
            <g id="Group-18" transform="translate(19.000000, 1660.000000)">
                <g id="Group-16" transform="translate(1.000000, 23.000000)">
                    <g id="Group-15" transform="translate(238.000000, 0.000000)">
                        <g id="回放-(1)">
                            <path d="M15.8748889,2.92810714 C12.0652138,-0.881041454 5.92372832,-0.957846644 2.00757899,2.68363539 L0.819238926,1.49538689 C0.682569172,1.36114376 0.483631119,1.32087541 0.307906331,1.39349123 C0.133394855,1.46610705 0.0186792394,1.63695568 0.0186792394,1.82671374 L0.0186792394,5.23764282 C0.0186792394,5.49635385 0.228582931,5.70625754 0.48729396,5.70625754 L3.89822304,5.70625754 C4.08738588,5.70625754 4.25823452,5.59216004 4.33144555,5.41703045 C4.40344327,5.24190087 4.3631749,5.04055908 4.2301451,4.90631595 L3.0674449,3.74368443 C6.39845541,0.688348546 11.5883577,0.762406622 14.8156182,3.98859116 C18.1276964,7.30126454 18.1276964,12.692852 14.8156182,16.0061206 C11.5011134,19.3169626 6.11076215,19.3194121 2.79625734,16.0061206 C2.5033674,15.7132307 2.02864034,15.7132307 1.7357504,16.0061206 C1.4440738,16.2990105 1.4440738,16.7737376 1.73696371,17.0666275 C3.68589273,19.0149384 6.24621857,19.9893915 8.80530821,19.9893915 C11.365634,19.9893915 13.9259599,19.0149384 15.8748889,17.0666275 C19.772724,13.1681743 19.772724,6.82594226 15.8748889,2.92810714 L15.8748889,2.92810714 Z" id="Shape"></path>
                            <path d="M7.75336318,13.8576812 L13.3157764,10.6462854 C13.5476571,10.5126604 13.6904392,10.264915 13.6904392,9.99704682 C13.6904392,9.72917868 13.5476571,9.48143327 13.3157764,9.34780826 L7.75336318,6.13641242 C7.52150535,6.00216928 7.23591821,6.00216928 7.00406038,6.13641242 C6.77220255,6.27003743 6.62939754,6.51778284 6.62939754,6.78565098 L6.62939754,13.2084198 C6.62939754,13.4762879 6.77217966,13.7240333 7.00406038,13.8576583 C7.11998931,13.9247799 7.24935626,13.9583407 7.37872322,13.9583407 C7.50809018,13.9583407 7.63743425,13.9248028 7.75336318,13.8576812 L7.75336318,13.8576812 Z M8.12802602,8.08412814 L11.4413175,9.99704685 L8.12802602,11.9099655 L8.12802602,8.08412814 L8.12802602,8.08412814 Z" id="Shape"></path>
                        </g>
                    </g>
                </g>
            </g>
        </g>
    </g>
</svg>