
<svg width="13px" height="12px" viewBox="0 0 13 12" version="1.1" xmlns="http://www.w3.org/2000/svg" xmlns:xlink="http://www.w3.org/1999/xlink">
  <!-- Generator: Sketch 44.1 (41455) - http://www.bohemiancoding.com/sketch -->
  <desc>Created with Sketch.</desc>
  <defs></defs>
  <g id="Page-1" stroke="none" stroke-width="1" fill="none" fill-rule="evenodd">
    <g id="精彩片段详情页-" transform="translate(-317.000000, -2227.000000)" fill="#909090">
      <g id="评论-copy-2" transform="translate(15.000000, 2181.000000)">
        <g id="评论一" transform="translate(0.000000, 38.000000)">
          <g id="回复" transform="translate(302.000000, 6.000000)">
            <g id="评论" transform="translate(0.000000, 2.000000)">
              <path d="M0.19362537,11.1497328 L0.204757252,11.138846 C0.200886098,11.1424008 0.19717233,11.1460316 0.19362537,11.1497328 Z M2.29436393,9.09523661 L10.5586962,9.09523661 C11.4574533,9.09523661 12.2,8.33499851 12.2,7.39133528 L12.2,2.50390133 C12.2,1.56365686 11.4556872,0.8 10.5586962,0.8 L2.4413038,0.8 C1.54108949,0.8 0.8,1.56107148 0.8,2.50390133 L0.8,10.556706 L2.29436393,9.09523661 Z M0.204757252,11.138846 C0.262364359,11.0859461 0.354780731,11.0499185 0.450236947,11.0499185 L0.295686238,11.0499185 L0.204757252,11.138846 Z M0.450236947,11.8499185 C0.385152261,11.8513768 0.326679571,11.8419761 0.269380201,11.8172992 C0.105971397,11.7439199 0,11.5800304 0,11.392441 L0,2.50390133 C0,1.12555078 1.09285677,0 2.4413038,0 L10.5586962,0 C11.902588,0 13,1.1267825 13,2.50390133 L13,7.39133528 C13,8.7748817 11.9013871,9.89523661 10.5586962,9.89523661 L2.6205317,9.89523661 L0.752980814,11.7216782 C0.671690524,11.8058315 0.561136282,11.8499185 0.450236947,11.8499185 Z" id="Shape" fill-rule="nonzero"></path>
              <path d="M3.51239205,4.45250961 C3.10781791,4.45250961 2.78552794,4.78818852 2.78552794,5.19801127 C2.78552794,5.6129591 3.10820442,5.94351293 3.51239205,5.94351293 C3.91199684,5.94351293 4.23414878,5.61256269 4.23414878,5.19801127 C4.23414878,4.7881602 3.9114723,4.45250961 3.51239205,4.45250961 Z" id="Path"></path>
              <path d="M6.47837642,4.45250961 C6.07877164,4.45250961 5.75661969,4.78818852 5.75661969,5.19801127 C5.75661969,5.6129591 6.07929618,5.94351293 6.47837642,5.94351293 C6.88295056,5.94351293 7.20524054,5.61256269 7.20524054,5.19801127 C7.20524054,4.7881602 6.88256406,4.45250961 6.47837642,4.45250961 Z" id="Path"></path>
              <path d="M9.44890223,4.45250961 C9.04929744,4.45250961 8.7271455,4.78818852 8.7271455,5.19801127 C8.7271455,5.6129591 9.04982198,5.94351293 9.44890223,5.94351293 C9.85347637,5.94351293 10.1757663,5.61256269 10.1757663,5.19801127 C10.1757663,4.7881602 9.85308986,4.45250961 9.44890223,4.45250961 Z" id="Path"></path>
            </g>
          </g>
        </g>
      </g>
    </g>
  </g>
</svg>
