<?xml version="1.0" standalone="no"?><!DOCTYPE svg PUBLIC "-//W3C//DTD SVG 1.1//EN" "http://www.w3.org/Graphics/SVG/1.1/DTD/svg11.dtd"><svg width="200" height="200" viewBox="0 0 200 200" version="1.1" xmlns="http://www.w3.org/2000/svg" xmlns:xlink="http://www.w3.org/1999/xlink"><defs><style type="text/css"><![CDATA[
@font-face { font-family: ifont; src: url("//at.alicdn.com/t/font_1442373896_4754455.eot?#iefix") format("embedded-opentype"), url("//at.alicdn.com/t/font_1442373896_4754455.woff") format("woff"), url("//at.alicdn.com/t/font_1442373896_4754455.ttf") format("truetype"), url("//at.alicdn.com/t/font_1442373896_4754455.svg#ifont") format("svg"); }

]]></style></defs><g class="transform-group"><g transform="scale(0.1953125, 0.1953125)"><path d="M357.399769 513.666552 626.820183 783.086966C635.446083 791.712865 649.432339 791.712865 658.058238 783.086966 666.684138 774.461066 666.684138 760.474809 658.058238 751.84891L402.436534 496.227209 658.057102 240.605503C666.683002 231.979606 666.683002 217.993347 658.057102 209.36745 649.431202 200.741548 635.444946 200.741548 626.819047 209.36745L357.39863 478.787863C352.622506 483.563991 350.495867 489.984823 351.009624 496.228344 350.497001 502.470726 352.623641 508.890423 357.399769 513.666552L357.399769 513.666552ZM71.212896 687.556462C95.969878 746.088461 131.407786 798.652004 176.540033 843.784249 221.673415 888.91763 274.235818 924.354404 332.768956 949.11252 393.379852 974.749253 457.753002 987.747776 524.097073 987.747776 590.442279 987.747776 654.814292 974.748117 715.426326 949.11252 773.958325 924.35554 826.521868 888.918765 871.654112 843.784249 916.787494 798.650867 952.225404 746.088461 976.982384 687.556462 1002.619117 626.944428 1015.61764 562.572415 1015.61764 496.227209 1015.61764 429.882003 1002.617981 365.509988 976.982384 304.897954 952.225404 246.365958 916.787493 193.803551 871.654112 148.670169 826.521868 103.536787 773.958325 68.100014 715.426326 43.343032 654.814292 17.706299 590.442279 4.707779 524.097073 4.707779 457.753002 4.707779 393.379852 17.707438 332.768956 43.343032 274.235822 68.100014 221.673415 103.536787 176.540033 148.670169 131.407786 193.803551 95.969878 246.365958 71.212896 304.897954 45.576163 365.509988 32.577638 429.882003 32.577638 496.227209 32.576504 562.571276 45.576163 626.943291 71.212896 687.556462L71.212896 687.556462ZM113.08528 322.608951C135.550812 269.49528 167.715222 221.7897 208.688529 180.817527 249.660703 139.845358 297.366278 107.67981 350.478819 85.215416 405.45543 61.962199 463.869219 50.171916 524.095934 50.171916 584.322654 50.171916 642.736442 61.962199 697.714191 85.215416 750.827865 107.680948 798.532307 139.845358 839.504479 180.817527 880.477787 221.7897 912.643335 269.49528 935.107728 322.608951 958.360944 377.585566 970.151227 435.999355 970.151227 496.226071 970.151227 556.452786 958.360944 614.866577 935.107728 669.844326 912.642198 722.958 880.477787 770.663579 839.504479 811.63575 798.532307 852.607922 750.826728 884.773469 697.714191 907.237862 642.736441 930.491078 584.32265 942.282498 524.095934 942.282498 463.869219 942.282498 405.45543 930.492216 350.478819 907.237862 297.365144 884.773468 249.660703 852.607921 208.688529 811.63575 167.715222 770.663578 135.549673 722.958 113.08528 669.844326 89.832063 614.866575 78.04178 556.453925 78.04178 496.226071 78.04178 435.998216 89.832063 377.586704 113.08528 322.608951L113.08528 322.608951Z" fill="#272636"></path></g></g></svg>