<svg width="68" height="47" viewBox="0 0 68 47" xmlns="http://www.w3.org/2000/svg"><title>share-star</title><g fill-rule="nonzero" fill="#4B4B4B"><path d="M49.522 2.56H19.314V29.49c0 7.698 6.743 14.03 15.104 14.03 8.36 0 15.104-6.332 15.104-14.03V2.56zM34.418 46.08c-9.74 0-17.664-7.442-17.664-16.588V0h35.328V29.49c0 9.148-7.924 16.59-17.664 16.59zm4.167-23.222l.983 5.735-5.15-2.708-5.15 2.708.983-5.735-4.166-4.062 5.758-.837 2.576-5.218 2.575 5.217 5.76.836-4.168 4.062zm4.383 10.415l-1.633-9.52 6.918-6.744-9.56-1.39-4.275-8.662-4.276 8.662-9.56 1.39L27.5 23.75l-1.633 9.52 8.55-4.494 8.55 4.495z"/><path d="M51.6 23.68V5.76h10.135l-9.016 8.96 9.015 8.96H51.6zm6.567-7.155L56.35 14.72l1.806-1.794L67.942 3.2H51.6v23.04h16.342l-9.775-9.715zM17.142 23.68V5.76H7.007l9.016 8.96-9.016 8.96h10.135zm-6.567-7.155l1.816-1.805-1.803-1.794L.8 3.2h16.342v23.04H.8l9.775-9.715z"/></g></svg>