<?xml version="1.0" encoding="UTF-8"?>
<svg width="108px" height="107px" viewBox="0 0 108 107" version="1.1" xmlns="http://www.w3.org/2000/svg" xmlns:xlink="http://www.w3.org/1999/xlink">
    <!-- Generator: Sketch 41.2 (35397) - http://www.bohemiancoding.com/sketch -->
    <title>Page 1</title>
    <desc>Created with Sketch.</desc>
    <defs></defs>
    <g id="Page-1" stroke="none" stroke-width="1" fill="none" fill-rule="evenodd" opacity="0.8">
        <g id="邀请嘉宾_3" transform="translate(-249.000000, -342.000000)" fill="#43D6CB">
            <g id="Page-1" transform="translate(249.000000, 341.000000)">
                <path d="M27.0897231,19.8141538 C26.6719648,20.3587692 26.2542066,20.9126154 25.8364484,21.4572308 C26.1022945,21.4572308 26.8143824,21.5218462 27.7923165,21.6695385 L27.6688879,22.8326154 C27.0897231,22.6941538 26.3966242,22.4818462 25.6845363,22.2141538 C25.8364484,23.0264615 25.8364484,23.7187692 25.9598769,24.1987692 L24.6876132,24.3372308 L24.6876132,22.288 C24.1274374,22.6941538 23.4343385,23.0264615 22.8741626,23.3126154 L22.4374154,22.1495385 C23.4343385,21.7987692 24.1274374,21.5956923 24.4122725,21.5218462 C23.7096791,20.9126154 23.1400088,20.4326154 22.8741626,20.1556923 L23.8520967,19.408 C24.1274374,19.7403077 24.5641846,20.2203077 24.9819429,20.8387692 C24.9819429,20.8387692 24.9819429,20.9126154 25.1243604,20.9772308 C25.266778,20.5064615 25.6845363,19.888 25.9598769,19.1956923 L27.0897231,19.8141538 L27.0897231,19.8141538 Z M21.0322286,25.4356923 C20.6049758,26.0541538 20.4530637,26.6726154 20.0353055,27.2818462 C20.4530637,27.2172308 21.0322286,27.1433846 22.1620747,27.1433846 L22.1620747,28.3156923 C21.6018989,28.2418462 20.889811,28.2418462 19.8928879,28.1126154 C20.3296352,28.8603077 20.6049758,29.4787692 20.7473934,29.968 L19.6175473,30.3095385 C19.3327121,29.0726154 19.199789,28.4541538 19.199789,28.3156923 C18.6396132,28.8603077 18.0604484,29.2849231 17.5002725,29.6172308 L16.9306022,28.5926154 C17.7851077,28.1126154 18.4971956,27.7618462 18.6396132,27.6418462 C17.9275253,27.1433846 17.3673495,26.8110769 16.9306022,26.5249231 L17.6426901,25.6387692 C18.0604484,25.9064615 18.6396132,26.3310769 19.199789,26.8756923 L19.199789,27.0233846 C19.3327121,26.4695385 19.4751297,25.7864615 19.7599648,25.0295385 L21.0322286,25.4356923 L21.0322286,25.4356923 Z" id="Fill-1"></path>
                <path d="M83.0304,81.2587692 C82.6126418,81.8033846 82.1948835,82.3572308 81.7771253,82.9018462 C82.0429714,82.9018462 82.7550593,82.9664615 83.7329934,83.1141538 L83.6095648,84.2772308 C83.0304,84.1387692 82.3373011,83.9264615 81.6252132,83.6587692 C81.7771253,84.4710769 81.7771253,85.1633846 81.9005538,85.6433846 L80.6282901,85.7818462 L80.6282901,83.7326154 C80.0681143,84.1387692 79.3750154,84.4710769 78.8148396,84.7572308 L78.3780923,83.5941538 C79.3750154,83.2433846 80.0681143,83.0403077 80.3529495,82.9664615 C79.650356,82.3572308 79.0806857,81.8772308 78.8148396,81.6003077 L79.7927736,80.8526154 C80.0681143,81.1849231 80.5048615,81.6649231 80.9226198,82.2833846 C80.9226198,82.2833846 80.9226198,82.3572308 81.0650374,82.4218462 C81.2074549,81.9510769 81.6252132,81.3326154 81.9005538,80.6403077 L83.0304,81.2587692 Z M76.9729055,86.8803077 C76.5456527,87.4987692 76.3937407,88.1172308 75.9759824,88.7264615 C76.3937407,88.6618462 76.9729055,88.588 78.1027516,88.588 L78.1027516,89.7603077 C77.5425758,89.6864615 76.8304879,89.6864615 75.8335648,89.5572308 C76.2703121,90.3049231 76.5456527,90.9233846 76.6880703,91.4126154 L75.5582242,91.7541538 C75.273389,90.5172308 75.1404659,89.8987692 75.1404659,89.7603077 C74.5802901,90.3049231 74.0011253,90.7295385 73.4409495,91.0618462 L72.8712791,90.0372308 C73.7257846,89.5572308 74.4378725,89.2064615 74.5802901,89.0864615 C73.8682022,88.588 73.3080264,88.2556923 72.8712791,87.9695385 L73.583367,87.0833846 C74.0011253,87.3510769 74.5802901,87.7756923 75.1404659,88.3203077 L75.1404659,88.468 C75.273389,87.9141538 75.4158066,87.2310769 75.7006418,86.4741538 L76.9729055,86.8803077 Z" id="Fill-3"></path>
                <path d="M68.5816615,80.4372308 C68.2968264,80.5756923 68.1449143,80.6495385 68.0214857,80.7141538 L68.5816615,80.4372308 Z M34.4299253,77.2895385 L33.8602549,77.4187692 L33.7178374,77.4833846 L33.5944088,78.3141538 L33.3000791,78.4526154 L33.1576615,78.5264615 L33.0247385,78.5818462 C30.1953758,76.3203077 27.7932659,73.5787692 26.103244,70.5603077 L26.5210022,71.1787692 L26.8153319,71.1049231 L27.0906725,71.1049231 L27.3755077,71.0403077 L28.2300132,70.7726154 L28.2300132,70.4956923 L27.3755077,70.5603077 L27.0906725,70.5603077 L26.5210022,70.6341538 L26.3975736,70.4956923 L25.9608264,70.4956923 C25.6854857,69.8033846 25.2677275,69.0556923 24.8309802,68.3726154 C24.8309802,68.3726154 24.9828923,68.2987692 25.1253099,68.2987692 L25.4006505,68.2987692 L25.5430681,68.2987692 L26.255156,68.2987692 L26.5210022,68.1603077 L26.8153319,68.1603077 C27.2330901,69.0556923 27.7932659,69.9418462 28.3629363,70.7726154 L28.3629363,70.9664615 L28.5053538,71.0403077 C30.1953758,73.3756923 32.170233,75.508 34.4299253,77.2895385 L34.4299253,77.2895385 Z M84.0956835,49.5787692 L84.2381011,49.5787692 C84.2381011,49.6526154 84.2381011,49.6526154 84.0956835,49.6526154 L84.0956835,49.5787692 Z M34.857178,30.9972308 L35.5502769,30.5726154 C35.2844308,30.7110769 35.1325187,30.8587692 34.857178,30.9972308 L34.857178,30.9972308 Z M22.0206066,49.1726154 C22.2959473,49.2926154 22.7232,49.5049231 22.8656176,49.5049231 C22.9985407,49.6526154 23.4352879,49.7172308 23.5587165,49.7910769 L23.7106286,49.3664615 C23.4352879,51.0187692 23.2928703,52.6710769 23.2928703,54.4526154 C23.4352879,59.0495385 24.413222,63.4249231 26.3975736,67.348 L25.2677275,67.7541538 L25.2677275,67.4772308 C25.2677275,67.2095385 26.255156,66.7941538 25.9608264,66.7941538 L25.1253099,66.7941538 C24.8309802,66.7941538 24.5556396,66.8587692 24.2708044,67.0618462 C23.7106286,65.8249231 23.1409582,64.5233846 22.8656176,63.2310769 C22.8656176,63.1572308 22.9985407,63.0187692 22.9985407,63.0187692 C22.9985407,62.8803077 22.8656176,62.7510769 22.8656176,62.7510769 L22.7232,62.6772308 C22.0206066,60.2126154 21.6028484,57.6649231 21.6028484,54.9972308 L21.6028484,55.4772308 C21.8686945,55.4033846 22.2959473,54.9972308 22.2959473,54.8587692 C22.1630242,54.5264615 22.2959473,54.5818462 21.8686945,54.4526154 C21.7262769,54.2403077 21.6028484,54.3141538 21.6028484,54.4526154 C21.6028484,53.3541538 21.6028484,52.1910769 21.7262769,51.0833846 L21.8686945,51.0187692 C22.0206066,50.8156923 21.8686945,50.6772308 21.7262769,50.6033846 C21.8686945,50.1233846 21.8686945,49.6526154 22.0206066,49.1726154 L22.0206066,49.1726154 Z M22.9985407,44.5756923 C22.8656176,45.2495385 22.7232,45.8033846 22.5807824,46.4864615 L23.7106286,46.4864615 L23.9954637,46.5603077 L24.2708044,46.5603077 C24.6885626,45.6003077 24.9828923,44.6310769 25.2677275,43.7449231 C25.1253099,43.8187692 24.6885626,43.9572308 24.5556396,43.9572308 L24.2708044,43.9572308 C23.9954637,43.9572308 23.4352879,44.7049231 23.4352879,44.7049231 C23.1409582,44.7049231 23.1409582,44.6310769 22.9985407,44.5756923 L22.9985407,44.5756923 Z M27.0906725,36.5449231 C27.5274198,36.7572308 28.0875956,36.8956923 28.2300132,36.8218462 L28.3629363,36.6833846 L28.790189,36.6833846 L29.0655297,36.8218462 L28.790189,37.4403077 L28.3629363,37.4403077 L28.2300132,37.4403077 L27.6698374,38.188 L27.0906725,38.188 L26.8153319,38.2526154 L26.5210022,38.2526154 C25.8279033,38.2526154 25.2677275,39.4895385 25.8279033,39.2218462 L26.103244,39.1572308 L26.3975736,39.1572308 L26.6729143,39.1572308 C26.9577495,39.1572308 27.2330901,39.2218462 27.3755077,39.3510769 L27.2330901,39.7018462 L27.0906725,39.7018462 L26.8153319,39.7018462 L26.5210022,39.8403077 L25.9608264,39.8403077 L25.8279033,39.9695385 L25.2677275,39.9141538 L25.1253099,40.0433846 L24.9828923,40.0433846 C25.6854857,38.8064615 26.3975736,37.6341538 27.0906725,36.5449231 L27.0906725,36.5449231 Z M29.4832879,33.5264615 C28.9231121,34.1449231 28.3629363,34.6895385 27.945178,35.308 L28.6477714,35.2526154 L29.4832879,35.2526154 C29.6352,35.1787692 29.0655297,34.6341538 29.0655297,34.6341538 C29.0655297,34.2833846 29.4832879,34.5603077 29.4832879,34.2833846 C29.7776176,33.9418462 29.4832879,33.8033846 29.3598593,33.5910769 L29.4832879,33.5264615 Z M84.9406945,45.3233846 L84.8077714,45.3233846 C84.0956835,45.3233846 83.5355077,44.8433846 82.6810022,44.3633846 C81.8454857,41.6310769 80.4308044,39.1572308 78.7407824,36.8956923 L78.864211,37.0895385 L79.0161231,37.0895385 L79.1585407,37.0895385 L79.3009582,37.0895385 C79.4433758,37.0895385 79.7187165,37.3018462 80.0130462,37.3018462 C80.0130462,37.3018462 80.2883868,37.0895385 80.2883868,36.8956923 C80.2883868,36.5449231 79.8611341,36.3418462 79.4433758,36.2033846 C79.0161231,35.9264615 79.0161231,36.1295385 78.864211,35.5203077 C78.7407824,35.1141538 78.5983648,35.1141538 78.1711121,34.9664615 C77.7438593,34.9018462 77.4685187,34.6895385 77.174189,34.6895385 L76.8988484,34.6895385 C77.174189,35.1141538 77.6109363,35.5203077 77.8862769,35.9264615 C75.0664088,32.2987692 71.2591121,29.3541538 66.8726505,27.3603077 L66.8726505,27.4249231 C67.0245626,27.2864615 67.3093978,27.148 67.0245626,27.148 L66.749222,27.148 L66.749222,27.2864615 C66.3124747,27.148 66.0371341,27.0187692 65.6098813,26.8803077 C65.6098813,26.8064615 65.6098813,26.7418462 65.4769582,26.7418462 L65.3345407,26.7418462 C61.8025846,25.3018462 57.8433758,24.5449231 53.7607385,24.5449231 C46.9816615,24.6187692 40.4969143,26.8064615 35.5502769,30.5726154 L35.4268484,30.5726154 C34.9901011,30.5726154 34.857178,30.0926154 34.5723429,30.2310769 L33.8602549,30.6464615 L33.7178374,30.6464615 L33.5944088,30.6464615 C33.3000791,30.6464615 32.7399033,31.0618462 32.4645626,31.0618462 C32.4645626,31.0618462 32.4645626,30.6464615 32.0278154,30.8587692 C31.9043868,31.1356923 31.7524747,31.6156923 31.325222,31.6156923 C32.4645626,30.4433846 33.7178374,29.3541538 35.1325187,28.3849231 C34.9901011,28.4495385 34.9901011,28.5233846 34.9901011,28.5233846 L34.9901011,28.6618462 L34.9901011,28.8556923 C34.9901011,29.0033846 34.7147604,29.068 34.7147604,29.2803077 C34.7147604,29.4741538 34.857178,29.548 34.9901011,29.548 L35.4268484,29.548 L35.5502769,29.548 C35.702189,29.548 35.9870242,29.2156923 36.1199473,29.2156923 L36.5472,29.2156923 L36.8225407,29.2156923 C37.1168703,29.2156923 37.9523868,28.9295385 37.9523868,28.6618462 C37.9523868,28.5233846 37.8194637,28.4495385 37.5346286,28.4495385 L37.2592879,28.4495385 C37.1168703,28.4495385 37.1168703,28.0433846 36.8225407,28.0433846 L35.9870242,28.0433846 L35.8446066,28.0433846 L35.5502769,28.0433846 C35.9870242,27.7664615 36.4047824,27.5633846 36.6991121,27.2864615 C36.8225407,27.4987692 37.2592879,27.6926154 37.2592879,27.6926154 L37.5346286,27.6926154 C37.9523868,27.6926154 37.392211,27.5633846 37.392211,27.2126154 L37.392211,27.0187692 L37.392211,26.8803077 L37.9523868,26.5941538 L38.0948044,26.5941538 L38.0948044,26.5295385 C42.7471121,24.0003077 48.1210022,22.4864615 53.7607385,22.4864615 C63.0748484,22.4126154 71.4015297,26.2618462 77.3261011,32.3541538 L77.174189,32.2987692 L77.0507604,32.2987692 L76.6140132,32.428 L76.6140132,32.7787692 L77.0507604,32.9726154 L77.3261011,32.9726154 L77.7438593,32.9172308 L77.6109363,32.5664615 C80.8485626,36.1295385 83.5355077,40.5141538 84.9406945,45.3233846 L84.9406945,45.3233846 Z M84.5134418,54.7849231 L84.5134418,55.2649231 C84.6653538,55.2003077 84.8077714,55.1356923 84.8077714,54.9972308 C84.8077714,54.8587692 84.6653538,54.7849231 84.6653538,54.7849231 L84.5134418,54.7849231 Z M86.0800352,52.1910769 L86.0800352,50.4741538 L86.0800352,50.6033846 L85.9376176,50.5295385 L85.9376176,50.2618462 L86.0800352,50.1972308 C85.9376176,50.0587692 85.9376176,49.8556923 85.9376176,49.6526154 L85.6432879,49.6526154 L85.5008703,49.5787692 L85.0831121,49.5787692 L84.8077714,49.4403077 C84.6653538,49.4403077 84.3710242,49.5049231 84.3710242,49.6526154 C84.3710242,49.9110769 84.8077714,49.7172308 84.9406945,49.9110769 C85.0831121,50.1233846 84.8077714,50.3356923 84.5134418,50.3356923 L84.3710242,50.3356923 L84.2381011,50.3356923 L84.2381011,50.8156923 C84.5134418,50.8803077 84.8077714,50.9541538 84.8077714,50.9541538 C84.9406945,50.9541538 85.0831121,51.0187692 85.0831121,51.148 C85.0831121,51.3603077 84.6653538,51.5726154 84.3710242,51.5726154 L84.3710242,51.7018462 C84.6653538,51.7018462 84.6653538,52.1910769 84.9406945,52.2464615 L85.3679473,52.3849231 L85.5008703,52.3849231 C85.6432879,52.3849231 86.0800352,52.3849231 86.0800352,52.1910769 L86.0800352,52.1910769 Z M84.2381011,57.6003077 C84.2381011,58.4310769 84.0956835,59.2526154 83.8108484,60.0741538 C84.2381011,60.2126154 84.5134418,60.3510769 84.8077714,60.4249231 C85.3679473,60.6187692 85.5008703,60.6926154 85.5008703,60.8310769 L84.2381011,57.6003077 Z M86.0800352,57.3972308 L85.9376176,57.3972308 L85.6432879,57.3972308 L85.5008703,57.3972308 L85.3679473,57.1941538 L85.3679473,56.9818462 L85.3679473,56.7787692 C85.3679473,56.3633846 85.0831121,55.9572308 84.9406945,56.3633846 L84.8077714,56.7787692 L84.3710242,56.7787692 C84.3710242,56.428 84.3710242,56.0218462 84.5134418,55.6156923 L84.6653538,55.6156923 C84.8077714,55.5510769 84.8077714,55.2649231 84.9406945,55.2649231 L85.5008703,55.2649231 C85.9376176,55.2649231 85.5008703,54.5818462 84.9406945,54.5818462 L84.8077714,54.5818462 L84.5134418,54.5818462 L84.5134418,54.1664615 C84.5134418,53.4833846 84.5134418,52.8095385 84.3710242,52.1172308 L84.9406945,52.5233846 C85.0831121,52.6710769 85.3679473,52.5233846 85.3679473,52.8649231 L85.3679473,52.9387692 L85.3679473,53.2156923 L85.2255297,53.548 L84.8077714,53.548 C84.6653538,53.548 84.5134418,53.8341538 84.5134418,54.1018462 C84.5134418,54.3141538 84.8077714,54.3787692 85.0831121,54.3787692 L85.3679473,54.3787692 L85.5008703,54.3787692 L86.2034637,54.9326154 L86.2034637,54.5264615 C86.2034637,55.4772308 86.2034637,56.428 86.0800352,57.3972308 L86.0800352,57.3972308 Z M85.5008703,60.8310769 C85.6432879,60.5449231 85.6432879,60.2126154 85.6432879,59.9264615 L85.6432879,59.8064615 C85.5008703,59.4464615 85.6432879,59.4464615 85.6432879,59.188 C85.6432879,59.0495385 84.9406945,58.8372308 84.9406945,58.6895385 C84.8077714,58.2187692 85.0831121,58.4310769 85.5008703,58.4310769 L85.9376176,58.4310769 L86.0800352,58.4310769 L86.0800352,57.8126154 L85.5008703,60.8310769 Z M74.7815736,30.028 L74.7815736,30.0926154 L74.7815736,30.028 Z M74.0694857,77.1510769 L74.506233,77.1510769 L74.506233,76.9387692 L74.0694857,76.9387692 L74.0694857,77.1510769 Z M28.790189,73.2464615 C28.9231121,73.2464615 28.790189,73.3018462 28.9231121,73.108 C29.0655297,73.0341538 28.9231121,72.8956923 28.790189,72.8956923 C28.5053538,72.8956923 28.790189,72.7572308 28.5053538,72.9603077 C28.5053538,73.108 28.6477714,73.2464615 28.790189,73.2464615 L28.790189,73.2464615 Z M38.8068923,28.3110769 C39.0917275,28.0433846 38.6644747,27.7664615 38.5125626,28.0433846 C38.2467165,28.2464615 38.5125626,28.6618462 38.8068923,28.3110769 L38.8068923,28.3110769 Z M28.3629363,37.228 C28.5053538,37.228 28.3629363,36.8956923 28.3629363,36.8956923 C27.945178,36.8956923 27.7932659,37.228 27.7932659,37.228 L28.3629363,37.228 Z M22.9985407,54.5264615 L22.9985407,54.1018462 L22.7232,54.1018462 C22.2959473,54.1018462 22.9985407,54.8587692 22.9985407,54.5264615 L22.9985407,54.5264615 Z M86.2034637,55.3387692 C86.2034637,55.3387692 86.0800352,55.3387692 86.0800352,55.4033846 L86.0800352,55.9572308 L86.2034637,56.0218462 L86.2034637,55.3387692 Z M40.3544967,26.4003077 C40.6393319,26.4003077 40.9336615,27.148 41.1995077,26.8803077 C41.4938374,26.7418462 41.0570901,26.188 40.7817495,26.188 L40.2215736,26.188 C39.7848264,26.188 39.6613978,26.4003077 39.7848264,26.4003077 L40.3544967,26.4003077 Z M72.5218813,29.7603077 L72.5218813,30.3049231 L72.9491341,30.3787692 L73.2339692,30.3787692 L73.5093099,30.3787692 L73.9460571,30.3049231 L73.9460571,30.028 L73.5093099,29.8987692 L73.3763868,29.8987692 L73.2339692,29.8987692 L72.5218813,29.7603077 Z M69.7115077,27.2864615 C69.2747604,27.148 69.2747604,26.4003077 68.9994198,26.5941538 L68.5816615,26.8064615 C68.1449143,26.9541538 68.7145846,27.4987692 68.7145846,27.8310769 C68.7145846,28.0433846 68.7145846,28.1172308 68.9994198,28.1172308 L69.1418374,28.1172308 C69.2747604,28.1172308 69.1418374,27.6372308 69.2747604,27.6372308 L69.8349363,27.5633846 L70.4141011,27.4987692 C70.4141011,27.4987692 70.8318593,27.7664615 70.8318593,28.1172308 C70.8318593,28.1172308 70.4141011,28.1172308 70.4141011,28.3110769 C70.4141011,28.3110769 70.5470242,28.5233846 70.6894418,28.5233846 C70.9837714,28.5233846 70.8318593,28.1172308 71.1072,27.9787692 C72.1041231,27.6926154 71.2591121,28.5972308 71.8192879,28.5972308 L72.2370462,28.5972308 C72.816211,28.5972308 72.6737934,28.6618462 72.9491341,29.1418462 C73.2339692,29.3541538 73.5093099,29.6218462 73.9460571,29.6218462 C73.9460571,29.6218462 74.0694857,29.548 74.0694857,29.4095385 C73.0915516,28.6618462 72.1041231,27.9787692 70.9837714,27.2864615 L70.8318593,27.2864615 L70.4141011,27.0741538 L69.9868484,27.0741538 C69.9868484,27.0741538 69.8349363,27.3603077 69.7115077,27.2864615 L69.7115077,27.2864615 Z M54.0455736,84.0741538 C49.3837714,84.0741538 44.7314637,83.0495385 40.7817495,81.1941538 L40.3544967,81.1941538 L39.9367385,81.1941538 L39.2246505,80.9172308 L38.9493099,80.9172308 L38.5125626,80.7141538 L38.3891341,80.7141538 L38.0948044,80.7141538 L37.9523868,80.5756923 L37.392211,80.5756923 L36.1199473,80.5756923 L35.5502769,80.5756923 C40.9336615,84.148 47.1240791,86.1972308 54.0455736,86.1972308 C61.3848264,86.1418462 68.0214857,83.7418462 73.3763868,79.6895385 L72.9491341,79.6895385 L72.816211,79.5510769 C72.1041231,79.2741538 71.8192879,78.6556923 72.3794637,78.6556923 L73.0915516,78.6556923 C73.3763868,78.6556923 74.2119033,78.388 74.2119033,78.1756923 C74.2119033,77.8341538 73.9460571,78.0372308 73.9460571,77.8341538 L73.9460571,77.6310769 C73.9460571,77.2249231 74.639156,77.908 75.0664088,78.0372308 C75.2088264,78.1018462 75.2088264,78.1018462 75.3417495,78.1756923 C78.7407824,75.2218462 81.4087385,71.6587692 83.241178,67.6156923 L83.0987604,67.6156923 L82.8234198,67.6803077 L82.4056615,67.8926154 L81.9784088,67.8926154 C81.8454857,67.8926154 81.5606505,67.6803077 81.5606505,67.4772308 C81.5606505,67.0618462 81.9784088,66.8587692 82.263244,66.8587692 L82.5385846,66.8587692 L82.9753319,66.8587692 C83.241178,66.8587692 83.0987604,66.6556923 83.3930901,66.6556923 L83.6684308,66.6556923 L83.9532659,66.1110769 C83.9532659,65.9726154 83.9532659,65.8987692 84.0956835,65.8249231 L84.2381011,65.4187692 C83.8108484,65.2803077 83.5355077,65.1418462 83.5355077,65.1418462 L83.0987604,65.1418462 L82.6810022,65.0126154 L82.6810022,64.6618462 L82.6810022,64.468 C82.4056615,65.0126154 82.263244,65.4926154 81.9784088,65.9726154 C82.1208264,66.0372308 82.263244,66.0372308 82.263244,66.0372308 L82.9753319,65.9726154 C83.0987604,65.8987692 82.6810022,66.4433846 82.4056615,66.4433846 L82.263244,66.4433846 C82.1208264,66.4433846 81.9784088,66.3787692 81.8454857,66.2495385 C80.9909802,68.3726154 79.7187165,70.4218462 78.3040352,72.2033846 C78.3040352,72.3510769 78.4464527,72.4895385 78.4464527,72.628 C78.4464527,72.8956923 78.1711121,73.3018462 77.8862769,73.3018462 L77.6109363,73.3018462 C75.2088264,75.988 72.5218813,78.2495385 69.2747604,80.0310769 L69.2747604,80.0956923 C68.5816615,80.5756923 68.2968264,80.8618462 68.0214857,80.788 C63.7869363,82.8372308 58.992211,84.0741538 54.0455736,84.0741538 L54.0455736,84.0741538 Z" id="Fill-5"></path>
                <g id="Group-9" transform="translate(0.000000, 0.623692)">
                    <path d="M78.3049846,97.2449231 C77.8872264,97.3741538 77.6118857,97.5126154 77.4694681,97.6510769 L78.3049846,97.2449231 Z M21.6037978,91.9649231 L20.5973802,92.1587692 L20.3315341,92.3710769 L20.0372044,93.6726154 L19.7618637,93.9403077 L19.4770286,94.0141538 C19.4770286,94.0141538 19.2016879,94.0141538 18.9073582,94.1526154 C14.4069626,90.3033846 10.5901714,85.7803077 7.62788571,80.7126154 L8.18806154,81.8110769 L8.90014945,81.6633846 L9.31790769,81.6633846 L9.61223736,81.5987692 L11.0079297,81.1187692 L11.0079297,80.5741538 L9.61223736,80.7864615 L9.03307253,80.7864615 L8.33997363,80.8510769 L7.90322637,80.6387692 L7.48546813,80.6387692 C6.77338022,79.4756923 6.07078681,78.3126154 5.50111648,77.0756923 C5.50111648,77.0018462 5.65302857,77.0018462 5.79544615,77.0018462 L6.49803956,77.0018462 L6.63096264,77.0018462 L7.7703033,76.9372308 L8.18806154,76.7895385 L8.90014945,76.7895385 C9.61223736,78.3126154 10.4477538,79.7433846 11.4256879,81.1926154 L11.4256879,81.4603077 L11.7200176,81.5249231 C14.4069626,85.448 17.7870066,88.9464615 21.6037978,91.9649231 L21.6037978,91.9649231 Z M104.139534,45.7926154 L104.262963,45.7926154 C104.557292,45.8664615 104.414875,45.8664615 104.262963,45.9310769 L104.139534,45.7926154 Z M22.2968967,14.7956923 L23.1419077,14.1218462 C22.866567,14.3156923 22.7241495,14.528 22.2968967,14.7956923 L22.2968967,14.7956923 Z M0.706391209,45.1187692 C1.27606154,45.3864615 1.83623736,45.6633846 1.97865495,45.7372308 C2.53883077,45.8664615 2.97557802,46.0787692 3.53575385,46.2172308 L3.53575385,45.4603077 C3.1085011,48.1926154 2.97557802,51.0172308 2.97557802,53.8972308 C2.97557802,61.568 4.80801758,68.8418462 8.04564396,75.3587692 L6.07078681,75.9772308 L6.07078681,75.6264615 C6.07078681,75.1464615 7.7703033,74.4633846 7.34305055,74.4633846 L5.79544615,74.4633846 C5.50111648,74.4633846 4.94094066,74.6018462 4.52318242,74.888 C3.53575385,72.8203077 2.83316044,70.6972308 2.27298462,68.5095385 C2.39641319,68.4356923 2.39641319,68.2233846 2.39641319,68.0849231 C2.39641319,68.0110769 2.39641319,67.6787692 2.27298462,67.6049231 L1.83623736,67.5310769 C0.706391209,63.488 0.146215385,59.2326154 0.0037978022,54.8572308 L0.0037978022,55.6141538 C0.573468132,55.4756923 1.41847912,54.8572308 1.14313846,54.5710769 C0.848808791,54.0264615 1.27606154,54.1649231 0.706391209,53.8972308 C0.288632967,53.6203077 0.146215385,53.6849231 0.0037978022,53.8326154 L0.0037978022,53.8972308 C0.0037978022,52.0418462 0.146215385,50.1864615 0.288632967,48.3403077 L0.573468132,48.1926154 C0.706391209,47.9249231 0.573468132,47.5741538 0.431050549,47.5095385 C0.573468132,46.6972308 0.573468132,45.9310769 0.706391209,45.1187692 L0.706391209,45.1187692 Z M2.53883077,37.5033846 C2.27298462,38.528 1.83623736,39.5618462 1.70331429,40.6510769 L3.53575385,40.5864615 L3.96300659,40.7895385 L4.6656,40.7895385 C5.08335824,39.1464615 5.65302857,37.5587692 6.2132044,35.9895385 C5.93786374,36.128 5.22577582,36.4695385 4.94094066,36.4695385 L4.52318242,36.4695385 C4.10542418,36.4695385 3.1085011,37.6326154 2.97557802,37.6326154 C2.83316044,37.6326154 2.69074286,37.5587692 2.69074286,37.5587692 L2.53883077,37.5033846 Z M9.17549011,24.0633846 C9.87808352,24.4049231 10.8655121,24.7372308 11.3022593,24.5433846 L11.4256879,24.3310769 L12.0048527,24.3310769 L12.6979516,24.5433846 L12.0048527,25.568 L11.4256879,25.568 L11.3022593,25.568 L10.0299956,26.8049231 L9.17549011,26.8049231 L8.75773187,26.8695385 L8.4634022,26.8695385 C7.06770989,26.8695385 6.07078681,28.928 7.21012747,28.5864615 L7.62788571,28.3741538 L7.90322637,28.3741538 L8.4634022,28.3741538 C8.90014945,28.3741538 9.46032527,28.5218462 9.87808352,28.7249231 L9.61223736,29.3433846 L9.31790769,29.3433846 L8.75773187,29.3987692 L8.4634022,29.5464615 L7.34305055,29.5464615 L7.06770989,29.7495385 L6.2132044,29.7495385 L5.93786374,29.888 L5.65302857,29.888 C6.77338022,27.9033846 7.90322637,25.9003077 9.17549011,24.0633846 L9.17549011,24.0633846 Z M13.1346989,19.1249231 C12.1377758,20.0018462 11.4256879,21.0449231 10.732589,21.9956923 L11.8624352,21.9310769 L13.1346989,21.8572308 C13.5524571,21.7926154 12.5650286,20.9064615 12.5650286,20.8326154 C12.5650286,20.288 13.1346989,20.8326154 13.4100396,20.3526154 C13.6948747,19.7341538 13.4100396,19.5310769 12.9922813,19.1895385 L13.1346989,19.1249231 Z M105.535226,38.7310769 L105.535226,38.7310769 C104.139534,38.7310769 103.142611,37.8449231 101.870347,37.088 C100.322743,32.5649231 98.0725451,28.448 95.2336879,24.6818462 L95.5280176,25.0233846 L95.8033582,25.0233846 L95.9457758,25.0233846 L96.230611,25.0233846 C96.5059516,25.0233846 96.9237099,25.3556923 97.3604571,25.3556923 C97.5028747,25.3556923 97.7782154,25.0233846 97.7782154,24.6818462 C97.7782154,24.0633846 96.9237099,23.7864615 96.5059516,23.5187692 C95.6704352,23.0941538 95.8033582,23.3803077 95.3856,22.3372308 C95.1102593,21.6633846 95.1102593,21.7372308 94.2557538,21.4510769 C93.8379956,21.3126154 93.2683253,21.0449231 92.8410725,21.0449231 L92.2714022,21.0449231 C92.8410725,21.6633846 93.4012484,22.3372308 93.9614242,23.0295385 C89.0432703,17.0018462 82.6819516,12.128 75.6370286,8.84184615 L75.7794462,8.84184615 C75.9028747,8.62953846 76.0547868,8.34338462 75.7794462,8.34338462 L75.2097758,8.34338462 L75.2097758,8.62953846 C74.630611,8.41723077 74.0704352,8.14953846 73.5102593,7.93723077 C73.5102593,7.79876923 73.3773363,7.72492308 73.0925011,7.72492308 L72.940589,7.72492308 C67.0255121,5.39876923 60.5312703,4.10646154 53.6097758,4.10646154 C42.1878857,4.17107692 31.7534242,7.87261538 23.1419077,14.1218462 L22.9994901,14.1218462 C22.4393143,14.1218462 22.1639736,13.3649231 21.7272264,13.5587692 L20.5973802,14.2418462 L20.3315341,14.2418462 L20.0372044,14.2418462 C19.7618637,14.2418462 18.6415121,14.9341538 18.2047648,14.9341538 C18.0623473,14.9341538 18.0623473,14.2418462 17.4926769,14.6018462 C17.0749187,14.9987692 16.9325011,15.8295385 16.5147429,15.8295385 L16.2394022,15.8295385 C18.2047648,13.9095385 20.3315341,12.128 22.5817319,10.5495385 C22.4393143,10.6233846 22.4393143,10.6787692 22.4393143,10.6787692 L22.4393143,10.8910769 L22.4393143,11.2233846 C22.4393143,11.5095385 21.869644,11.648 21.869644,11.9156923 C21.869644,12.3310769 22.021556,12.3956923 22.2968967,12.3956923 L22.9994901,12.3956923 L23.4362374,12.3956923 C23.5596659,12.3956923 24.1293363,11.9156923 24.2717538,11.9156923 L24.8319297,11.9156923 L25.5440176,11.9156923 C25.8288527,11.9156923 27.2340396,11.3710769 27.2340396,10.8910769 C27.2340396,10.6787692 27.091622,10.5495385 26.6738637,10.5495385 L26.5219516,10.5495385 L26.3985231,10.5495385 C25.9617758,10.5495385 25.9617758,9.93107692 25.4016,9.93107692 L24.1293363,9.93107692 L23.711578,9.93107692 L23.4362374,9.93107692 C24.1293363,9.51569231 24.6895121,9.10030769 25.2686769,8.69415385 C25.6864352,9.03569231 25.9617758,9.38646154 26.246611,9.38646154 L26.6738637,9.38646154 C27.3764571,9.38646154 26.3985231,9.10030769 26.5219516,8.55569231 L26.5219516,8.22338462 L26.5219516,8.01107692 L27.2340396,7.60492308 L27.6707868,7.53107692 L27.6707868,7.39261538 C35.2758857,3.13723077 44.3146549,0.672615385 53.6097758,0.608 C69.1427868,0.534153846 83.0997099,6.91261538 92.9834901,17.1218462 L92.8410725,17.0018462 L92.6986549,17.0018462 L92.2714022,17.0018462 L91.853644,17.1956923 L91.5688088,17.8141538 L92.5657319,18.1649231 L92.9834901,18.0910769 L93.8379956,18.0264615 L93.2683253,17.4726154 C98.9080615,23.4449231 103.142611,30.7095385 105.535226,38.7310769 L105.535226,38.7310769 Z M104.832633,54.5156923 L104.832633,55.2633846 C105.117468,55.1249231 105.259886,54.9956923 105.259886,54.7833846 C105.259886,54.5710769 105.117468,54.5156923 104.832633,54.5156923 L104.832633,54.5156923 Z M107.661996,50.1864615 C107.661996,49.2356923 107.519578,48.2664615 107.37716,47.3064615 L107.37716,47.5095385 L107.10182,47.4449231 L107.10182,46.9556923 L107.225248,46.9003077 C107.225248,46.5495385 107.225248,46.2172308 107.10182,45.9310769 L106.80749,45.9310769 L106.532149,45.7372308 L105.952985,45.7926154 L105.535226,45.5987692 L105.259886,45.5987692 C104.975051,45.5987692 104.69971,45.7372308 104.69971,45.9310769 C104.69971,46.2818462 105.535226,46.0049231 105.687138,46.4110769 C105.829556,46.7618462 105.392809,47.1033846 104.832633,47.1033846 L104.69971,47.1033846 L104.414875,47.1033846 L104.557292,47.8603077 C104.832633,47.9987692 105.259886,48.128 105.392809,48.128 C105.687138,48.128 105.952985,48.1926154 105.952985,48.4787692 C105.952985,48.7464615 104.975051,49.1618462 104.69971,49.0233846 L104.69971,49.2910769 C105.117468,49.3649231 105.259886,50.1864615 105.535226,50.2603077 L106.104897,50.4541538 L106.532149,50.4541538 C106.949908,50.4541538 107.519578,50.4541538 107.661996,50.1864615 L107.661996,50.1864615 Z M104.557292,59.1772308 C104.414875,60.5433846 104.139534,61.9187692 103.997116,63.2941538 C104.414875,63.4233846 104.832633,63.7003077 105.392809,63.8387692 C106.247314,64.1803077 106.389732,64.3187692 106.532149,64.5864615 L104.557292,59.1772308 Z M107.519578,58.8264615 L107.10182,58.8264615 L106.949908,58.8264615 L106.532149,58.8264615 L106.247314,58.4203077 L106.247314,58.1433846 L106.247314,57.8018462 C106.247314,57.1187692 105.829556,56.4264615 105.535226,57.1187692 L105.392809,57.8018462 L104.69971,57.8018462 C104.69971,57.1833846 104.832633,56.5649231 104.832633,55.8726154 L105.117468,55.808 C105.392809,55.7341538 105.392809,55.328 105.829556,55.328 L106.389732,55.328 C107.225248,55.2633846 106.665073,54.0910769 105.829556,54.0910769 L105.392809,54.1649231 L104.832633,54.1649231 L104.832633,53.4726154 C104.832633,52.3095385 104.832633,51.1464615 104.69971,50.048 L105.535226,50.6664615 C105.952985,51.0172308 106.389732,50.7403077 106.389732,51.2849231 L106.389732,51.4233846 L106.389732,51.7649231 L105.952985,52.448 L105.392809,52.448 C104.975051,52.448 104.975051,52.928 104.975051,53.2787692 C104.975051,53.6849231 105.535226,53.8326154 105.952985,53.8326154 L106.247314,53.8326154 L106.532149,53.8326154 L107.794919,54.7095385 L107.794919,53.9526154 C107.794919,55.6141538 107.661996,57.2572308 107.519578,58.8264615 L107.519578,58.8264615 Z M106.532149,64.5864615 C106.665073,64.1064615 106.80749,63.5618462 106.949908,63.0818462 C106.80749,63.0172308 106.665073,62.8049231 106.665073,62.6756923 C106.665073,62.2603077 106.949908,62.2603077 106.949908,61.8449231 C106.949908,61.568 105.687138,61.2264615 105.535226,61.0233846 C105.392809,60.1372308 105.952985,60.4695385 106.532149,60.4695385 L107.10182,60.4695385 L107.225248,60.4695385 L107.519578,59.5187692 L106.532149,64.5864615 Z M88.7489407,13.2910769 L88.7489407,13.3649231 L88.8913582,13.3649231 L88.7489407,13.2910769 Z M87.628589,91.6787692 L88.0463473,91.6787692 L88.0463473,91.4018462 L87.628589,91.4018462 L87.628589,91.6787692 Z M12.0048527,85.1618462 C12.422611,85.1618462 12.1377758,85.3741538 12.422611,84.968 C12.5650286,84.8295385 12.2801934,84.6172308 12.0048527,84.6172308 C11.7200176,84.6910769 12.0048527,84.4787692 11.8624352,84.8295385 C11.5681055,84.968 11.8624352,85.1618462 12.0048527,85.1618462 L12.0048527,85.1618462 Z M28.7911385,10.4110769 C29.0664791,9.93107692 28.5063033,9.46030769 28.2309626,9.93107692 C27.7942154,10.2726154 28.3638857,10.8910769 28.7911385,10.4110769 L28.7911385,10.4110769 Z M11.4256879,25.2264615 C11.5681055,25.2264615 11.4256879,24.6818462 11.0079297,24.6818462 C10.8655121,24.6818462 10.4477538,25.2264615 10.5901714,25.2264615 L11.4256879,25.2264615 Z M2.53883077,54.0264615 L2.53883077,53.3526154 L1.97865495,53.3526154 C1.41847912,53.408 2.53883077,54.6449231 2.53883077,54.0264615 L2.53883077,54.0264615 Z M107.794919,55.4018462 C107.794919,55.4018462 107.661996,55.4018462 107.661996,55.4756923 L107.519578,56.5003077 L107.794919,56.5003077 L107.794919,55.4018462 Z M31.3261714,7.18030769 C31.8958418,7.18030769 32.1711824,8.41723077 32.7408527,8.01107692 C33.3010286,7.72492308 32.5889407,6.848 32.0287648,6.848 L30.8989187,6.848 C30.6330725,6.848 30.1963253,7.18030769 30.4811604,7.18030769 L31.3261714,7.18030769 Z M84.9321495,12.8110769 L84.9321495,13.6972308 L85.6442374,13.8356923 L86.0809846,13.8356923 L86.6411604,13.8356923 L87.2013363,13.6326154 L87.2013363,13.2172308 L86.6411604,13.0141538 L86.3563253,13.0141538 L86.0809846,12.9495385 L84.9321495,12.8110769 Z M80.2798418,8.69415385 C79.4443253,8.41723077 79.7196659,7.25415385 79.0170725,7.53107692 L78.3049846,7.87261538 C77.6118857,8.07569231 78.4474022,8.96184615 78.4474022,9.51569231 C78.4474022,9.93107692 78.7417319,10.0049231 79.0170725,10.0049231 L79.1594901,10.0049231 C79.7196659,10.0049231 79.1594901,9.248 79.5772484,9.17415385 L80.5741714,9.10030769 L81.2672703,8.96184615 C81.4096879,8.96184615 82.1217758,9.51569231 81.9793582,10.0049231 C81.8464352,10.2726154 81.4096879,10.0603077 81.4096879,10.3372308 C81.4096879,10.4849231 81.7040176,10.6787692 81.8464352,10.6787692 C82.406611,10.6787692 82.1217758,10.0049231 82.5395341,9.86646154 C84.096633,9.31261538 82.6819516,10.8172308 83.8117978,10.8172308 L84.2390505,10.8172308 C85.2264791,10.8172308 84.9321495,10.9556923 85.6442374,11.7218462 C86.0809846,12.0541538 86.6411604,12.5341538 87.2013363,12.5341538 C87.3342593,12.5341538 87.3342593,12.3956923 87.4766769,12.2664615 C85.9290725,10.9556923 84.2390505,9.79261538 82.406611,8.69415385 L81.9793582,8.69415385 L81.2672703,8.34338462 L80.7070945,8.34338462 C80.7070945,8.34338462 80.4317538,8.69415385 80.2798418,8.69415385 L80.2798418,8.69415385 Z M54.1794462,103.272615 C46.2895121,103.272615 38.6654242,101.555692 32.0287648,98.4633846 L31.3261714,98.4633846 L30.6330725,98.4633846 L29.4842374,97.9926154 L28.9240615,97.9926154 L28.3638857,97.6510769 L27.936633,97.6510769 L27.6707868,97.6510769 L27.3764571,97.4387692 L26.5219516,97.4387692 L24.556589,97.4387692 L23.4362374,97.4387692 C32.1711824,103.337231 42.7480615,106.835692 54.1794462,106.771077 C66.1805011,106.697231 77.4694681,102.718769 86.3563253,96.008 L86.2044132,95.9341538 L85.7866549,95.9341538 L85.3688967,95.7310769 C84.096633,95.3249231 83.6693802,94.2910769 84.6663033,94.2910769 L85.9290725,94.2264615 C86.4987429,94.2264615 87.8944352,93.8018462 87.8944352,93.3956923 C87.8944352,92.9156923 87.3342593,93.2572308 87.3342593,92.9156923 L87.3342593,92.5095385 C87.3342593,91.8264615 88.4736,93.0633846 89.1666989,93.2572308 C89.318611,93.3218462 89.4610286,93.3956923 89.6034462,93.3956923 C95.1102593,88.5956923 99.6201495,82.568 102.86727,75.8387692 L102.86727,75.9126154 L102.572941,75.9126154 L102.155182,75.9126154 L101.300677,76.2449231 L100.740501,76.2449231 L100.598084,76.2449231 C100.322743,76.2449231 100.037908,75.9772308 100.037908,75.5710769 C100.037908,74.9526154 100.598084,74.6018462 101.158259,74.6018462 L101.595007,74.6018462 L102.2976,74.528 C102.86727,74.528 102.430523,74.2695385 103.000193,74.2695385 L103.560369,74.2695385 L103.997116,73.2910769 C103.997116,73.1710769 103.997116,73.0326154 104.139534,72.9587692 L104.414875,72.2018462 C103.702787,71.9341538 103.142611,71.7218462 103.000193,71.7218462 L102.724853,71.7218462 L102.2976,71.7218462 L101.870347,71.5095385 L101.870347,70.9095385 C101.870347,70.7618462 101.870347,70.6972308 101.72793,70.6233846 C101.595007,71.5095385 101.158259,72.3403077 100.740501,73.1710769 C101.034831,73.2356923 101.158259,73.2356923 101.300677,73.2356923 L102.2976,73.0972308 C102.724853,73.0326154 101.870347,73.9187692 101.452589,73.9187692 L101.158259,73.9187692 C101.034831,73.9187692 100.740501,73.7895385 100.598084,73.6510769 C98.9080615,77.1403077 96.9237099,80.5003077 94.5310945,83.5187692 C94.6735121,83.7310769 94.8159297,83.9987692 94.8159297,84.1372308 C94.8159297,84.6172308 94.1133363,85.3095385 93.8379956,85.3095385 C93.695578,85.3095385 93.4012484,85.3095385 93.2683253,85.2356923 C89.4610286,89.7587692 84.8087209,93.608 79.4443253,96.5526154 C79.5772484,96.6264615 79.4443253,96.6818462 79.4443253,96.7556923 C78.3049846,97.3741538 77.8872264,97.9187692 77.1751385,97.7895385 C70.4150505,101.288 62.515622,103.198769 54.1794462,103.272615 L54.1794462,103.272615 Z" id="Fill-7"></path>
                </g>
                <path d="M46.0578462,60.9067692 L49.7986813,60.9067692 L49.7986813,58.876 L46.0578462,58.876 L46.0578462,60.9067692 Z M51.032967,62.6790769 L49.7986813,62.6790769 L49.7986813,61.9775385 L46.0673407,61.9775385 L46.0673407,62.6790769 L44.8140659,62.6790769 L44.8140659,57.8236923 L51.032967,57.8236923 L51.032967,62.6790769 Z M41.2251429,54.316 L41.8232967,55.6267692 L46.0483516,55.6267692 L46.7889231,54.316 L41.2251429,54.316 Z M39.2597802,53.3283077 L48.5454066,53.3283077 L48.5454066,52.0544615 L39.2597802,52.0544615 L39.2597802,53.3283077 Z M43.256967,49.0544615 L43.256967,47.9283077 L36.250022,47.9283077 L36.250022,46.8667692 L43.256967,46.8667692 L43.256967,45.7406154 L44.5956923,45.7406154 L44.5956923,46.8667692 L51.6026374,46.8667692 L51.6026374,47.9283077 L44.5956923,47.9283077 L44.5956923,49.0544615 L50.8525714,49.0544615 L50.8525714,50.1344615 L37.0285714,50.1344615 L37.0285714,49.0544615 L43.256967,49.0544615 Z M37.978022,54.316 L37.978022,51.0667692 L49.8366593,51.0667692 L49.8366593,54.316 L48.2225934,54.316 L47.482022,55.6267692 L52.3432088,55.6267692 L52.3432088,56.716 L40.5225495,56.716 C40.4086154,57.1775385 40.3136703,57.6021538 40.1997363,58.0083077 L43.6367473,58.0083077 C43.5987692,60.196 43.3898901,61.516 42.9911209,61.9406154 C42.5733626,62.3652308 41.8422857,62.5775385 40.8263736,62.5775385 C40.5605275,62.5775385 40.2187253,62.5590769 39.8294505,62.5221538 L39.5541099,61.4606154 C39.9528791,61.4975385 40.2661978,61.516 40.5415385,61.5344615 C41.3010989,61.5344615 41.7948132,61.3775385 41.9847033,61.1283077 C42.1745934,60.8883077 42.279033,60.2144615 42.3265055,59.1529231 L39.800967,59.1529231 C39.6300659,59.5406154 39.4496703,59.8913846 39.2692747,60.1775385 C38.6426374,61.1467692 37.6931868,61.996 36.4209231,62.7529231 L35.6233846,61.7467692 C36.7247473,61.1283077 37.5602637,60.4083077 38.1299341,59.6329231 C38.2248791,59.4667692 38.3198242,59.3006154 38.4147692,59.1529231 L36.0981099,59.1529231 L36.0981099,58.0083077 L38.9084835,58.0083077 C39.0414066,57.6021538 39.1553407,57.1590769 39.2502857,56.716 L35.4904615,56.716 L35.4904615,55.6267692 L40.4086154,55.6267692 L39.800967,54.316 L37.978022,54.316 Z" id="Fill-10"></path>
                <path d="M70.6353231,61.6415385 L69.8947516,62.7492308 C68.1002901,61.5676923 66.2868396,60.6538462 64.4259165,59.98 L65.1095209,58.9646154 C67.122356,59.7030769 68.9547956,60.6076923 70.6353231,61.6415385 L70.6353231,61.6415385 Z M59.2419165,57.0630769 L65.1474989,57.0630769 L65.1474989,54.1553846 L59.2419165,54.1553846 L59.2419165,57.0630769 Z M70.6068396,50.5923077 L69.2301363,50.5923077 L69.2301363,48.3030769 L56.5929495,48.3030769 L56.5929495,50.5923077 L55.1972571,50.5923077 L55.1972571,47.1030769 L62.1472352,47.1030769 C61.919367,46.66 61.6914989,46.2353846 61.4446418,45.8476923 L62.9447736,45.6261538 C63.1726418,46.0692308 63.3815209,46.5492308 63.609389,47.1030769 L70.6068396,47.1030769 L70.6068396,50.5923077 Z M61.4256527,59.7769231 C59.9065319,60.8846154 58.0645978,61.8630769 55.8808615,62.6938462 L55.0453451,61.6415385 C57.1721143,60.8661538 58.9760703,59.98 60.4572132,58.9646154 L61.4256527,59.7769231 Z M57.9316747,50.4630769 C61.5395868,50.3246154 64.6537846,49.9369231 67.2552791,49.3 L67.9388835,50.4076923 C65.375367,50.9430769 62.4700484,51.3123077 59.2419165,51.5246154 L59.2419165,52.9369231 L69.2111473,52.9369231 L69.2111473,54.1461538 L66.4577407,54.1461538 L66.4577407,57.0630769 L71.2049934,57.0630769 L71.2049934,58.3461538 L54.6465758,58.3461538 L54.6465758,57.0630769 L57.9316747,57.0630769 L57.9316747,50.4630769 Z" id="Fill-12"></path>
                <polygon id="Fill-13" points="47.8637011 8.20369231 47.9966242 11.4898462 52.1077451 11.3329231 51.974822 8.04676923 53.2945582 8.00061538 53.6173714 15.8744615 52.2881407 15.9298462 52.1552176 12.4406154 48.0535912 12.5975385 48.1770198 16.0867692 46.8572835 16.1329231 46.5249758 8.24984615"></polygon>
                <path d="M61.0857495,10.7283077 C60.5255736,11.1344615 60.1457934,11.7621538 59.9274198,12.6483077 C59.6995516,13.5067692 59.7280352,14.236 60.0223648,14.8452308 C60.3356835,15.4821538 60.8958593,15.9067692 61.7028923,16.1006154 C62.5099253,16.3036923 63.2220132,16.2021538 63.782189,15.8052308 C64.3328703,15.4083077 64.7411341,14.7621538 64.9595077,13.8667692 C65.1968703,12.9713846 65.1588923,12.2144615 64.8550681,11.6052308 C64.551244,10.9775385 63.9910681,10.5806154 63.1840352,10.3867692 C62.3770022,10.1929231 61.6744088,10.3036923 61.0857495,10.7283077 M66.0039033,11.116 C66.4786286,11.9836923 66.5640791,13.0083077 66.2507604,14.1806154 C65.9564308,15.3529231 65.3867604,16.2206154 64.5417495,16.7652308 C63.6587604,17.3467692 62.6238593,17.4852308 61.4275516,17.1990769 C60.2217495,16.9036923 59.3767385,16.2944615 58.8925187,15.3806154 C58.4272879,14.5036923 58.3418374,13.4790769 58.636167,12.3344615 C58.9304967,11.1713846 59.4906725,10.3036923 60.345178,9.74984615 C61.2186725,9.14061538 62.2535736,9.00215385 63.4593758,9.28830769 C64.6556835,9.58369231 65.5006945,10.1744615 66.0039033,11.116" id="Fill-14"></path>
                <polygon id="Fill-15" points="74.7986637 13.7116923 75.2069275 20.5701538 75.2449055 20.5978462 78.2546637 15.7424615 79.4034989 16.4163077 75.2259165 23.1363077 74.1245538 22.4901538 73.7162901 15.5393846 73.6783121 15.5116923 70.6210813 20.4409231 69.4817407 19.7670769 73.6593231 13.0470769"></polygon>
                <path d="M84.5248352,22.9969231 C83.8317363,23.0338462 83.1386374,23.3569231 82.4455385,23.9569231 C81.7619341,24.5661538 81.3631648,25.1938462 81.2492308,25.8769231 C81.1542857,26.5784615 81.3916484,27.2338462 81.9518242,27.8430769 C82.512,28.4615385 83.1481319,28.7476923 83.8602198,28.72 C84.5533187,28.6923077 85.2559121,28.3692308 85.9585055,27.7507692 C86.6800879,27.1230769 87.0883516,26.4676923 87.1927912,25.7938462 C87.2972308,25.1107692 87.0503736,24.4553846 86.4807033,23.8553846 C85.911033,23.2461538 85.2654066,22.96 84.5248352,22.9969231 M88.4270769,25.9969231 C88.3226374,27.0030769 87.8004396,27.8984615 86.869978,28.72 C85.9395165,29.5323077 84.9710769,29.9476923 83.9361758,29.9569231 C82.8632967,29.9569231 81.9138462,29.5046154 81.0783297,28.6092308 C80.2333187,27.7046154 79.882022,26.7261538 79.995956,25.7015385 C80.1098901,24.7046154 80.6415824,23.8092308 81.5530549,23.0061538 C82.474022,22.1938462 83.4424615,21.7692308 84.4678681,21.76 C85.5597363,21.7323077 86.5186813,22.1846154 87.3541978,23.0892308 C88.1992088,23.9846154 88.56,24.9538462 88.4270769,25.9969231" id="Fill-16"></path>
                <path d="M90.6260044,33.9944615 L91.5564659,35.8129231 C91.7843341,36.2744615 92.0596747,36.5698462 92.3634989,36.7083077 C92.6768176,36.8283077 93.0186198,36.8098462 93.379411,36.6344615 C93.7781802,36.4498462 94.0060484,36.2006154 94.0725099,35.896 C94.1389714,35.6006154 94.0535209,35.2221538 93.8066637,34.7421538 L92.8951912,32.9144615 L90.6260044,33.9944615 Z M94.8985319,34.4190769 C95.2688176,35.1390769 95.4017407,35.776 95.2688176,36.3575385 C95.1264,36.9575385 94.7086418,37.4375385 94.0250374,37.7698462 C93.6452571,37.9636923 93.2559824,38.0190769 92.8572132,37.9636923 C92.4299604,37.8898462 92.0596747,37.6867692 91.7748396,37.3636923 L91.7558505,37.3636923 C91.9267516,38.0467692 91.6798945,38.5913846 91.0057846,39.0067692 L89.904422,39.6898462 C89.4771692,39.9390769 89.1923341,40.2529231 89.0499165,40.6129231 L88.4232791,39.3667692 C88.5562022,39.0898462 88.8315429,38.8406154 89.2113231,38.6098462 L90.0468396,38.0929231 C90.4266198,37.8621538 90.6544879,37.6221538 90.730444,37.336 C90.8158945,37.0406154 90.7399385,36.6990769 90.5405538,36.3021538 L89.6195868,34.4744615 L86.6667956,35.8775385 L86.0781363,34.7329231 L93.3319385,31.2713846 L94.8985319,34.4190769 Z" id="Fill-17"></path>
                <polygon id="Fill-18" points="99.3884835 48.652 98.2681319 48.8550769 97.4136264 44.5258462 95.2014066 44.9412308 96.0084396 49.012 94.8785934 49.2150769 94.0715604 45.1443077 91.659956 45.5873846 92.5429451 50.1104615 91.4225934 50.332 90.2832527 44.5350769 98.2871209 43.0396923"></polygon>
                <path d="M92.6749187,55.8270769 L92.5514901,57.1655385 C92.4660396,58.1347692 92.6369407,58.864 93.0546989,59.3532308 C93.4819516,59.8424615 94.1940396,60.1286154 95.1909626,60.2116923 C96.1973802,60.2947692 96.9759297,60.1470769 97.4601495,59.7501538 C97.9728527,59.3347692 98.2576879,58.6516923 98.3431385,57.664 L98.4760615,56.3347692 L92.6749187,55.8270769 Z M99.4539956,58.0055385 C99.330567,59.2886154 98.8843253,60.2116923 98.0962813,60.7932308 C97.3652044,61.3655385 96.3587868,61.5870769 95.0770286,61.4855385 C93.7952703,61.3747692 92.8553143,60.9686154 92.2191824,60.2763077 C91.5640615,59.5563077 91.2887209,58.5778462 91.4026549,57.2947692 L91.6779956,54.4424615 L99.7103473,55.1532308 L99.4539956,58.0055385 Z" id="Fill-19"></path>
                <path d="M33.8865758,93.4187692 C33.5447736,92.8003077 33.4783121,92.0526154 33.7061802,91.1756923 L34.9404659,91.7018462 C34.8360264,92.2095385 34.9119824,92.6526154 35.1398505,93.0218462 C35.3772132,93.4187692 35.7949714,93.7141538 36.3646418,93.9633846 C37.0577407,94.2495385 37.7128615,94.268 38.3394989,93.9726154 C39.0041143,93.668 39.5358066,93.0772308 39.9345758,92.1818462 C40.3238505,91.3326154 40.4093011,90.5756923 40.219411,89.9572308 C40.0105319,89.2926154 39.4598505,88.748 38.5388835,88.3695385 C38.1780923,88.2218462 37.8173011,88.1203077 37.4754989,88.0649231 C37.1526857,88.028 36.839367,88.028 36.5070593,88.0649231 L35.8519385,89.5603077 L37.8267956,90.4003077 L37.3710593,91.4156923 L34.171411,90.068 L35.5386198,86.9849231 C36.0703121,86.8372308 36.6304879,86.8095385 37.2191473,86.8649231 C37.8362901,86.9295385 38.4629275,87.1049231 39.1465319,87.3910769 C40.3428396,87.8987692 41.0929055,88.6464615 41.4157187,89.6710769 C41.7385319,90.6033846 41.6435868,91.628 41.159367,92.708 C40.6751473,93.7972308 39.9725538,94.5633846 39.0325978,95.0064615 C38.0451692,95.4864615 37.0007736,95.4772308 35.8899165,95.0064615 C34.9214769,94.6003077 34.2568615,94.0741538 33.8865758,93.4187692" id="Fill-20"></path>
                <path d="M25.7640264,89.0101538 L29.0681143,85.2532308 C29.5238505,84.7270769 29.7232352,84.2378462 29.6947516,83.7855385 C29.6662681,83.3332308 29.381433,82.8809231 28.8212571,82.4286154 C28.2895648,81.9855385 27.7768615,81.7824615 27.3116308,81.8286154 C26.8464,81.8655385 26.3811692,82.1424615 25.925433,82.6686154 L22.6403341,86.4347692 L21.6149275,85.5855385 L24.8905319,81.8470769 C25.5836308,81.0624615 26.3336967,80.6470769 27.1502242,80.6009231 C27.9477626,80.564 28.7642901,80.8963077 29.5713231,81.5701538 C30.4068396,82.2532308 30.8625758,82.9732308 30.9480264,83.7301538 C31.0429714,84.5424615 30.7391473,85.3270769 30.0555429,86.1024615 L26.7799385,89.8501538 L25.7640264,89.0101538 Z" id="Fill-21"></path>
                <polygon id="Fill-22" points="14.0629978 76.1286154 14.9934593 75.5101538 17.5284923 79.1101538 19.3799209 77.8732308 16.9968 74.4947692 17.917767 73.8763077 20.3103824 77.264 22.3232176 75.9255385 19.6742505 72.1593846 20.6047121 71.5409231 23.9942505 76.3593846 17.3575912 80.7993846"></polygon>
                <path d="M9.67748571,65.4467692 C9.88636484,64.7821538 10.3990681,64.2652308 11.2155956,63.9052308 L11.6428484,65.1236923 C11.2155956,65.3821538 10.9497495,65.696 10.8358154,66.0283077 C10.7123868,66.3975385 10.7693538,66.8313846 10.9687385,67.376 C11.1396396,67.8467692 11.3295297,68.1790769 11.5573978,68.3821538 C11.8327385,68.6498462 12.1555516,68.7052308 12.5163429,68.5667692 C12.839156,68.4652308 13.0480352,68.1975385 13.1050022,67.7821538 C13.1429802,67.5975385 13.1429802,67.1175385 13.1239912,66.3513846 C13.0860132,65.2252308 13.1050022,64.496 13.1809582,64.136 C13.3423648,63.3606154 13.7696176,62.8529231 14.4817055,62.6036923 C15.1653099,62.3729231 15.8109363,62.4467692 16.3901011,62.8344615 C16.9692659,63.2313846 17.4344967,63.896 17.7857934,64.8467692 C18.1181011,65.7606154 18.1845626,66.536 18.004167,67.1729231 C17.7857934,67.9575385 17.2066286,68.5390769 16.238189,68.936 L15.8109363,67.7175385 C16.3521231,67.4406154 16.7034198,67.1083077 16.8363429,66.6929231 C16.9502769,66.3236923 16.9028044,65.8344615 16.6749363,65.2252308 C16.4755516,64.6713846 16.2192,64.2744615 15.9248703,64.0252308 C15.6115516,63.776 15.317222,63.6929231 15.0039033,63.8036923 C14.5861451,63.9421538 14.3487824,64.2836923 14.2728264,64.8283077 C14.2538374,65.0036923 14.2538374,65.5483077 14.3013099,66.4436923 C14.3202989,67.4775385 14.3202989,68.1236923 14.2728264,68.3729231 C14.1209143,69.0836923 13.7126505,69.5267692 13.0385407,69.7667692 C12.3549363,69.9975385 11.7188044,69.9052308 11.1396396,69.4806154 C10.5794637,69.0929231 10.152211,68.4836923 9.86737582,67.6713846 C9.54456264,66.8036923 9.4781011,66.0467692 9.67748571,65.4467692" id="Fill-23"></path>
                <polygon id="Fill-24" points="7.2298022 52.6732308 8.35015385 52.5901538 8.56852747 55.1655385 15.5185055 54.6209231 15.6324396 55.9132308 8.67296703 56.4578462 8.89134066 59.0332308 7.752 59.1163077"></polygon>
            </g>
        </g>
    </g>
</svg>