<?xml version="1.0" encoding="UTF-8"?>
<svg width="512px" height="616px" viewBox="0 0 512 616" version="1.1" xmlns="http://www.w3.org/2000/svg" xmlns:xlink="http://www.w3.org/1999/xlink">
    <!-- Generator: Sketch 46.1 (44463) - http://www.bohemiancoding.com/sketch -->
    <title>Combined Shape</title>
    <desc>Created with Sketch.</desc>
    <defs></defs>
    <g id="Page-1" stroke="none" stroke-width="1" fill="none" fill-rule="evenodd">
        <g id="ticket" fill-rule="nonzero" fill="#000000">
            <path d="M344.2176,0.8 L435.2,0.8 C463.4624,0.8 512,49.3376 512,77.6 L512,538.4 C512,566.6624 463.4624,615.2 435.2,615.2 L344.2176,615.2 C326.4512,584.736 293.7856,564 256,564 C218.2144,564 185.5488,584.736 167.7824,615.2 L76.8,615.2 C48.5376,615.2 0,566.6624 0,538.4 L0,77.6 C0,49.3376 48.5376,0.8 76.8,0.8 L167.7824,0.8 C185.5488,31.264 218.2144,52 256,52 C293.7856,52 326.4512,31.264 344.2176,0.8 Z M388.445775,26.593575 C361.072098,73.531148 311.215756,103.2 256,103.2 C200.784244,103.2 150.927902,73.531148 123.554225,26.593575 L167.7824,0.8 L167.7824,52 L76.8,52 C76.814579,52 51.2,77.614579 51.2,77.6 L51.2,538.4 C51.2,538.385423 76.814579,564 76.8,564 L167.7824,564 L167.7824,615.2 L123.554225,589.406423 C150.927902,542.468854 200.784244,512.8 256,512.8 C311.215756,512.8 361.072098,542.468854 388.445775,589.406423 L344.2176,615.2 L344.2176,564 L435.2,564 C435.185421,564 460.8,538.385423 460.8,538.4 L460.8,77.6 C460.8,77.614579 435.185421,52 435.2,52 L344.2176,52 L344.2176,0.8 L388.445775,26.593575 Z M230.4,256.8 L230.4,205.6 L281.6,205.6 L281.6,256.8 L230.4,256.8 Z M332.8,256.8 L332.8,205.6 L384,205.6 L384,256.8 L332.8,256.8 Z M128,256.8 L128,205.6 L179.2,205.6 L179.2,256.8 L128,256.8 Z" id="Combined-Shape"></path>
        </g>
    </g>
</svg>