<?xml version="1.0" encoding="UTF-8" standalone="no"?>
<svg width="26px" height="26px" viewBox="0 0 26 26" version="1.1" xmlns="http://www.w3.org/2000/svg" xmlns:xlink="http://www.w3.org/1999/xlink">
    <!-- Generator: Sketch 39.1 (31720) - http://www.bohemiancoding.com/sketch -->
    <title>打赏 (2)</title>
    <desc>Created with Sketch.</desc>
    <defs></defs>
    <g id="Page-1" stroke="none" stroke-width="1" fill="none" fill-rule="evenodd">
        <g id="打赏-(2)" fill="#4B4B4B">
            <path d="M26,2.74848956 L25.9998303,2.74848956 C25.9998303,2.48810011 25.9521047,2.24143322 25.8843132,2.00285581 L25.7905165,1.70142578 C25.3779131,0.703280311 24.3956996,0 23.2469769,0 L2.75302303,0 C2.22867811,0 1.74378628,0.154166859 1.32668599,0.408160891 L1.2314046,0.459747471 C0.48968554,0.952276622 2.57360704e-15,1.79257058 2.57360704e-15,2.74832019 L2.57360704e-15,23.2092231 C2.57360704e-15,24.7270039 1.2325924,25.9574162 2.75302303,25.9574162 L23.2471466,25.9574162 C24.7674076,25.9574162 25.9998303,24.7270039 25.9998303,23.2092231 L25.9998303,15.1748019 C26,15.1746325 26,2.74832019 26,2.74832019 L26,2.74848956 L26,2.74848956 Z M23.539821,1.10500345 L12.9173817,6.87351113 L3.18849235,1.09987869 L23.539821,1.10500345 L23.539821,1.10500345 L23.539821,1.10500345 Z M23.1021457,24.8577069 L2.89798147,24.8577069 C2.09776151,24.8577069 1.06718615,23.8632462 1.06718615,23.0642893 L1.06718615,2.89308453 C1.06718615,2.67191442 1.31294102,2.01560427 1.76550677,1.61820113 L12.9999363,8.1503851 L24.4953082,1.78363395 C24.8251025,1.97587658 24.8983241,2.82197294 24.8983241,2.89308453 L24.8983241,23.0642893 C24.8983241,23.8632462 23.9022384,24.8577069 23.1021457,24.8577069 L23.1021457,24.8577069 Z M16.5614517,16.442104 L16.5614517,16.436471 C16.9056274,16.436471 17.184684,16.1571918 17.184684,15.8134082 C17.184684,15.4696248 16.9056274,15.1910233 16.5614517,15.1910233 L13.679506,15.1906844 L16.4843696,11.8983756 L16.4805516,11.8938861 C16.7383969,11.6662359 16.7609659,11.2721364 16.5329436,11.0153893 C16.3039034,10.7574564 15.9098386,10.734289 15.6523326,10.9626168 L13.0087179,14.0335861 L10.3032507,10.828102 C10.0459145,10.5997742 9.65184975,10.6231109 9.42280942,10.881044 C9.19478724,11.137791 9.21731373,11.5317211 9.47520149,11.7595408 L9.47138342,11.7638608 L12.4260416,15.1610793 L12.4260416,15.1906844 L9.45645056,15.1910233 C9.11210531,15.1910233 8.83304864,15.47026 8.83304864,15.814086 C8.83304864,16.1577001 9.11210531,16.4363016 9.45645056,16.4363016 L9.45645056,16.4396052 L12.4260416,16.4417652 L12.4260416,17.7054249 L9.45611122,17.7055943 C9.11193562,17.7055943 8.83270926,17.9855088 8.83270926,18.3286571 C8.83270926,18.6729489 9.11193562,18.9517198 9.45611122,18.9517198 L9.45611122,18.9541762 L12.4260416,18.9565057 L12.4260416,20.421853 L12.4290113,20.421853 C12.4290113,20.7649588 12.7084074,21.0435603 13.0527951,21.0435603 C13.3971404,21.0435603 13.6765364,20.7649588 13.6765364,20.421853 L13.6793363,20.421853 L13.6793363,18.9565057 L16.5609427,18.9568445 L16.5609427,18.9517198 C16.905288,18.9517198 17.1843447,18.6717629 17.1843447,18.3286571 C17.1843447,17.9843652 16.905288,17.7057637 16.5609427,17.7057637 L13.6793363,17.7054249 L13.6793363,16.4419346 L16.561282,16.4422734 L16.5614517,16.442104 L16.5614517,16.442104 Z" id="Shape"></path>
        </g>
    </g>
</svg>