<?xml version="1.0" encoding="UTF-8" standalone="no"?>
<svg width="12px" height="11px" viewBox="0 0 12 11" version="1.1" xmlns="http://www.w3.org/2000/svg" xmlns:xlink="http://www.w3.org/1999/xlink">
    <!-- Generator: Sketch 39.1 (31720) - http://www.bohemiancoding.com/sketch -->
    <title>Shape</title>
    <desc>Created with Sketch.</desc>
    <defs></defs>
    <g id="Page-1" stroke="none" stroke-width="1" fill="none" fill-rule="evenodd">
        <path d="M0.58478879,6.76561172 C0.723554829,6.763764 0.857002489,6.71194656 0.960653038,6.61966443 L0.996640044,6.59467346 L5.82289693,1.76841657 C5.90682294,1.68452142 6.04286116,1.68452142 6.12678717,1.76841657 L10.9840329,6.62466263 C11.0959924,6.70563338 11.2259455,6.76561172 11.3728924,6.76561172 C11.6958624,6.76561172 11.9576812,6.50379286 11.9576812,6.18082293 C11.9551443,5.98384497 11.675783,5.65901139 11.6607884,5.64301716 L6.12678717,0.110015543 C6.04286116,0.0261203905 5.90682294,0.0261203905 5.82289693,0.110015543 L0.288895657,5.64301716 C0.271901791,5.66101067 0.00272620956,5.98829274 0,6.18082293 C0,6.50370632 0.261905402,6.76561172 0.58478879,6.76561172 Z M0.58478879,10.9670943 C0.723554827,10.9652465 0.857002488,10.9134291 0.960653038,10.821147 L0.996640044,10.7971556 L5.82289693,5.96989911 C5.90682294,5.88600396 6.04286116,5.88600396 6.12678717,5.96989911 L10.9840329,10.8271448 C11.0959924,10.9081156 11.2259455,10.9670943 11.3728924,10.9670943 C11.6954724,10.9670947 11.9571298,10.7058846 11.9576812,10.3833051 C11.9552971,10.1860211 11.675783,9.86049394 11.6607884,9.84549935 L6.12678717,4.31249772 C6.04286116,4.22860256 5.90682294,4.22860256 5.82289693,4.31249772 L0.288895657,9.84549935 C0.271901791,9.86249321 0.00272620956,10.1907749 0,10.3833051 C0,10.7051889 0.261905402,10.9670943 0.58478879,10.9670943 Z" id="Shape" fill="#000000"></path>
    </g>
</svg>