<?xml version="1.0" encoding="UTF-8" standalone="no"?>
<svg width="20px" height="20px" viewBox="0 0 20 20" version="1.1" xmlns="http://www.w3.org/2000/svg" xmlns:xlink="http://www.w3.org/1999/xlink">
    <!-- Generator: Sketch 39.1 (31720) - http://www.bohemiancoding.com/sketch -->
    <title>Group</title>
    <desc>Created with Sketch.</desc>
    <defs></defs>
    <g id="Page-1" stroke="none" stroke-width="1" fill="none" fill-rule="evenodd">
        <g id="Group" fill="#272636">
            <path d="M10.3266162,5.54059596 C10.3260101,5.5399899 10.325404,5.53938384 10.324798,5.53877778 L10.3065152,5.52059596 C10.304798,5.51877778 10.3025758,5.51756566 10.3007576,5.51584848 C10.2877273,5.50392929 10.2741919,5.49281818 10.2602525,5.48271717 C10.2241919,5.45463636 10.1861111,5.43059596 10.145101,5.41413131 C10.134798,5.4099899 10.1239899,5.40807071 10.1134848,5.40463636 C10.094798,5.39867677 10.0764141,5.39190909 10.0573232,5.38827273 C10.0466162,5.38615152 10.0357071,5.38625253 10.024899,5.38493939 C10.0038889,5.38140404 9.98520202,5.37978788 9.96893939,5.37938384 L9.96813131,5.37938384 C9.96641414,5.37938384 9.96439394,5.37908081 9.96277778,5.37908081 C9.945,5.37918182 9.92823232,5.38261616 9.9109596,5.38463636 C9.8990404,5.38594949 9.88691919,5.38594949 9.875,5.38827273 C9.87409091,5.38847475 9.87308081,5.38847475 9.87207071,5.38867677 C9.84863636,5.39332323 9.82641414,5.401 9.80429293,5.40887879 C9.79863636,5.411 9.79277778,5.41190909 9.78722222,5.41423232 C9.78590909,5.41473737 9.78459596,5.4150404 9.78328283,5.41554545 C9.75782828,5.42605051 9.7339899,5.43928283 9.71106061,5.45382828 C9.70742424,5.45605051 9.70358586,5.45746465 9.70015152,5.45978788 C9.67479798,5.47665657 9.65136364,5.49594949 9.62984848,5.51736364 C9.62853535,5.51857576 9.6270202,5.51928283 9.62580808,5.52059596 L6.86954545,8.2730202 C6.68328283,8.46120202 6.68388889,8.76261616 6.87207071,8.94958586 C7.06015152,9.13655556 7.36217172,9.1340303 7.54853535,8.94706061 C7.54853535,8.94706061 8.66954545,7.82716162 9.48762626,7.0099899 L9.48893939,14.6361515 C9.49015152,14.900596 9.70449495,15.1127172 9.96954545,15.1115051 C10.2336869,15.1102929 10.4461111,14.8956465 10.444899,14.631202 C10.444899,14.631202 10.4439899,9.39887879 10.4435859,7.00877778 C11.2617677,7.82605051 12.3838889,8.94706061 12.3838889,8.94706061 C12.5701515,9.1340303 12.8721717,9.13655556 13.0603535,8.94958586 C13.2485354,8.76251515 13.2491414,8.46120202 13.0627778,8.2730202 L10.3266162,5.54059596 Z" id="Fill-1"></path>
            <path d="M9.99989899,19.6075758 C4.70222222,19.6075758 0.392323232,15.2977778 0.392323232,9.99989899 C0.392323232,4.7020202 4.70222222,0.392222222 9.99989899,0.392222222 C15.2976768,0.392222222 19.6075758,4.70212121 19.6074747,9.99989899 C19.6074747,15.2977778 15.2977778,19.6075758 9.99989899,19.6075758 M9.99989899,0 C4.4859596,0 0,4.48606061 0,9.99989899 C0,15.5137374 4.48606061,19.999798 9.99989899,19.999798 C15.5137374,19.999798 19.999697,15.5137374 19.999697,9.99989899 C19.999697,4.48606061 15.5136364,0 9.99989899,0" id="Fill-3"></path>
        </g>
    </g>
</svg>