<svg width="26" height="22" viewBox="0 0 26 22" xmlns="http://www.w3.org/2000/svg"><title>Combined Shape</title><path d="M24.832 15.68V11.6h-2.725v4.083h2.725zm0 1.197h-2.725v3.92h.677c1.128 0 2.048-.95 2.048-2.115v-1.805zm0-6.475v-3.49h-2.725v3.49h2.725zm0-4.687V3.318c0-1.166-.92-2.116-2.048-2.116h-.677v4.513h2.725zM1.168 15.68h2.72V11.6h-2.72v4.083zm0 1.197v1.805c0 1.166.92 2.116 2.048 2.116h.67v-3.92H1.17zm0-6.475h2.72v-3.49h-2.72v3.49zm0-4.687h2.72V1.202h-.672v.006c-1.128 0-2.048.95-2.048 2.116v2.39zM20.95 1.202H5.044v19.596H20.95V1.202zm1.834 20.786H3.216c-1.764 0-3.204-1.483-3.204-3.312V3.318C.012 1.495 1.446.006 3.216.006h19.568c1.764 0 3.204 1.483 3.204 3.312v15.358c-.005 1.823-1.44 3.312-3.204 3.312zM10.44 15.28c-.098 0-.202-.023-.29-.077-.178-.108-.288-.305-.288-.52V7.317c0-.215.11-.412.29-.52.18-.107.398-.107.578 0l6.17 3.683c.18.107.29.305.29.52 0 .215-.11.412-.29.52l-6.17 3.677c-.093.054-.19.083-.29.083zm.58-6.928v5.296L15.454 11 11.02 8.352z" fill-rule="nonzero" fill="#4B4B4B"/></svg>