<?xml version="1.0" encoding="UTF-8"?>
<svg width="14px" height="9px" viewBox="0 0 14 9" version="1.1" xmlns="http://www.w3.org/2000/svg" xmlns:xlink="http://www.w3.org/1999/xlink">
    <!-- Generator: Sketch 41.2 (35397) - http://www.bohemiancoding.com/sketch -->
    <title>Shape</title>
    <desc>Created with Sketch.</desc>
    <defs></defs>
    <g id="Symbols" stroke="none" stroke-width="1" fill="none" fill-rule="evenodd">
        <g id="Group" transform="translate(0.000000, -2.000000)" fill="#939EA5">
            <g id="Group-2">
                <g>
                    <path d="M12.4325683,9.1528065 L10.7661516,7.46888498 C10.1719756,6.86277402 10.1719756,5.88015968 10.7661516,5.27402977 L12.4326062,3.58969147 C12.7296942,3.28661705 13.5987361,2.7948931 13.9871935,2.7948931 L13.9871935,9.94682815 C13.5987361,9.94682815 12.7296752,9.45506631 12.4326062,9.15288227 L12.4325683,9.1528065 Z M7.62960217,10.7424411 L2.54322598,10.7424411 C1.13886874,10.7424222 3.78890392e-05,9.62407037 1.89445196e-05,8.24445467 L0,4.49798647 C0,3.11840866 1.1388498,2.00003789 2.54320704,2 L7.62958322,2 C9.03394046,2 10.4903572,3.24300677 10.4903762,4.62258457 L10.4903762,4.62258457 L9.4940839,5.27395399 C8.90161299,5.8800839 8.90159405,6.86271719 9.4940839,7.4688092 L10.4903572,8.11979973 C10.4903572,9.49937754 9.03392152,10.7423843 7.62956428,10.7423843 L7.62960217,10.7424411 Z M6.11938295,5.49681732 L5.24516915,4.62260352 C4.94209472,4.32466306 4.07388633,3.68269012 3.49676049,3.7484276 L3.49676049,8.99403248 C4.07384844,9.05891746 4.94209472,8.41694452 5.24516915,8.11985656 L6.11938295,7.24522598 C7.41958322,6.15760217 7.1336157,6.40348309 6.11938295,5.49685521 L6.11938295,5.49681732 Z" id="Shape"></path>
                </g>
            </g>
        </g>
    </g>
</svg>