<?xml version="1.0" encoding="UTF-8" standalone="no"?>
<svg width="24px" height="24px" viewBox="0 0 24 24" version="1.1" xmlns="http://www.w3.org/2000/svg" xmlns:xlink="http://www.w3.org/1999/xlink">
    <!-- Generator: Sketch 39.1 (31720) - http://www.bohemiancoding.com/sketch -->
    <title>Artboard 11</title>
    <desc>Created with Sketch.</desc>
    <defs></defs>
    <g id="-" stroke="none" stroke-width="1" fill="none" fill-rule="evenodd">
        <g id="Artboard-11" fill="#F32121">
            <g id="感叹号-df270f">
                <path d="M12,24 C5.372625,24 0,18.627375 0,12 C0,5.372625 5.372625,0 12,0 C18.627375,0 24,5.372625 24,12 C24,18.627375 18.627375,24 12,24 L12,24 Z M13.125,5.625 C13.125,5.003625 12.621375,4.5 12,4.5 C11.378625,4.5 10.875,5.003625 10.875,5.625 L10.875,13.875 C10.875,14.496375 11.378625,15 12,15 C12.621375,15 13.125,14.496375 13.125,13.875 L13.125,5.625 L13.125,5.625 Z M12,17.25 C11.378625,17.25 10.875,17.753625 10.875,18.375 C10.875,18.996375 11.378625,19.5 12,19.5 C12.621375,19.5 13.125,18.996375 13.125,18.375 C13.125,17.753625 12.621375,17.25 12,17.25 L12,17.25 Z" id="Shape"></path>
            </g>
        </g>
    </g>
</svg>