<svg width="22" height="24" viewBox="0 0 22 24" xmlns="http://www.w3.org/2000/svg"><title>Combined Shape</title><path d="M10.184 1.57c0-.453.365-.82.816-.82.45 0 .816.367.816.82v20.86c0 .453-.365.82-.816.82-.45 0-.816-.367-.816-.82V1.57zM5.467 4.413c0-.452.365-.82.816-.82.45 0 .816.368.816.82v15.172c0 .452-.366.82-.817.82-.45 0-.816-.368-.816-.82V4.414zm9.434 0c0-.452.366-.82.817-.82.45 0 .816.368.816.82v15.172c0 .452-.365.82-.816.82-.45 0-.816-.368-.816-.82V4.414zm4.718 3.793c0-.452.365-.82.816-.82.45 0 .816.368.816.82v7.586c0 .452-.365.82-.816.82-.45 0-.816-.368-.816-.82V8.207zm-18.868 0c0-.452.365-.82.816-.82.45 0 .816.368.816.82v7.586c0 .452-.365.82-.816.82-.45 0-.816-.368-.816-.82V8.207z" fill="#4B4B4B" fill-rule="nonzero"/></svg>