<?xml version="1.0" encoding="UTF-8"?>
<svg width="854px" height="684px" viewBox="0 0 854 684" version="1.1" xmlns="http://www.w3.org/2000/svg" xmlns:xlink="http://www.w3.org/1999/xlink">
    <!-- Generator: Sketch 46.1 (44463) - http://www.bohemiancoding.com/sketch -->
    <title>Shape</title>
    <desc>Created with Sketch.</desc>
    <defs></defs>
    <g id="Page-1" stroke="none" stroke-width="1" fill="none" fill-rule="evenodd">
        <g id="wechat2" fill-rule="nonzero" fill="#353535">
            <path d="M320.333333,0.666667 C143.693333,0.666667 0.333333,115.44 0.333333,256.666667 C0.333333,337.306667 46.413333,408.56 118.946667,455.493333 L85.666667,555.333333 L192.333333,491.333333 C230.306667,504.56 272.12,512.666667 316.493333,512.666667 C305.4,485.786667 299,457.2 299,427.333333 C299,286.106667 432.546667,171.333333 597.666667,171.333333 C605.773333,171.333333 613.88,171.333333 621.56,172.613333 C578.04,72.773333 460.28,0.666667 320.333333,0.666667 L320.333333,0.666667 Z M192.333333,107.333333 C215.8,107.333333 235,126.533333 235,150 C235,173.466667 215.8,192.666667 192.333333,192.666667 C168.866667,192.666667 149.666667,173.466667 149.666667,150 C149.666667,126.533333 168.866667,107.333333 192.333333,107.333333 L192.333333,107.333333 Z M405.666667,107.333333 C429.133333,107.333333 448.333333,126.533333 448.333333,150 C448.333333,173.466667 429.133333,192.666667 405.666667,192.666667 C382.2,192.666667 363,173.466667 363,150 C363,126.533333 382.2,107.333333 405.666667,107.333333 L405.666667,107.333333 Z M597.666667,214 C456.44,214 341.666667,309.573333 341.666667,427.333333 C341.666667,545.093333 456.44,640.666667 597.666667,640.666667 C626.253333,640.666667 653.56,637.253333 679.16,630 L768.333333,683.333333 L741.88,603.546667 C808.866667,564.72 853.666667,500.293333 853.666667,427.333333 C853.666667,309.573333 738.893333,214 597.666667,214 L597.666667,214 Z M512.333333,320.666667 C535.8,320.666667 555,339.866667 555,363.333333 C555,386.8 535.8,406 512.333333,406 C488.866667,406 469.666667,386.8 469.666667,363.333333 C469.666667,339.866667 488.866667,320.666667 512.333333,320.666667 L512.333333,320.666667 Z M683,320.666667 C706.466667,320.666667 725.666667,339.866667 725.666667,363.333333 C725.666667,386.8 706.466667,406 683,406 C659.533333,406 640.333333,386.8 640.333333,363.333333 C640.333333,339.866667 659.533333,320.666667 683,320.666667 Z" id="Shape"></path>
        </g>
    </g>
</svg>