<svg width="50" height="50" viewBox="0 0 50 50" xmlns="http://www.w3.org/2000/svg"><title>Combined Shape</title><path d="M25 50C11.193 50 0 38.807 0 25S11.193 0 25 0s25 11.193 25 25-11.193 25-25 25zm4.922-28.8c.287 0 .57.02.855.052C30.01 17.665 26.2 15 21.847 15 16.985 15 13 18.334 13 22.57c0 2.446 1.325 4.454 3.54 6.013l-.884 2.677 3.094-1.56c1.106.22 1.994.446 3.098.446.28 0 .554-.013.825-.033-.17-.596-.273-1.22-.273-1.868.002-3.89 3.32-7.046 7.522-7.046zm-4.756-2.414c.668 0 1.107.44 1.107 1.11 0 .668-.44 1.114-1.107 1.114-.66 0-1.327-.446-1.327-1.113 0-.67.663-1.11 1.326-1.11zm-6.193 2.224c-.664 0-1.332-.446-1.332-1.113 0-.67.67-1.11 1.333-1.11.665 0 1.105.44 1.105 1.11 0 .667-.44 1.113-1.105 1.113zM38 28.138c0-3.56-3.54-6.46-7.517-6.46-4.21 0-7.525 2.902-7.525 6.46 0 3.57 3.315 6.46 7.525 6.46.88 0 1.77-.222 2.655-.445l2.426 1.34-.666-2.227C36.675 31.924 38 30.146 38 28.138zm-9.958-1.114c-.44 0-.884-.44-.884-.89 0-.444.445-.89.884-.89.672 0 1.108.446 1.108.89 0 .45-.436.89-1.108.89zm4.867 0c-.437 0-.88-.44-.88-.89 0-.444.442-.89.88-.89.665 0 1.107.446 1.107.89 0 .45-.442.89-1.108.89z" fill="#55C13D" fill-rule="evenodd"/></svg>