<?xml version="1.0" encoding="UTF-8" standalone="no"?>
<svg width="164px" height="25px" viewBox="0 0 164 25" version="1.1" xmlns="http://www.w3.org/2000/svg" xmlns:xlink="http://www.w3.org/1999/xlink">
    <!-- Generator: Sketch 39.1 (31720) - http://www.bohemiancoding.com/sketch -->
    <title>Artboard</title>
    <desc>Created with Sketch.</desc>
    <defs></defs>
    <g id="Page-1" stroke="none" stroke-width="1" fill="none" fill-rule="evenodd">
        <g id="Artboard" fill="#9EA1A5">
            <g id="Group-3-Copy" transform="translate(1.000000, 5.000000)">
                <path d="M1.856,5.84 L5.824,5.84 C4.704,9.408 2.992,12.208 0.656,14.256 L1.248,15.312 C3.072,13.824 4.576,11.824 5.744,9.296 C6.272,10.416 7.152,11.456 8.4,12.416 C7.2,13.2 5.712,13.92 3.92,14.576 L4.528,15.648 C6.464,14.896 8.096,14.064 9.408,13.136 C10.752,14.016 12.448,14.832 14.496,15.584 L15.088,14.512 C13.232,13.872 11.648,13.168 10.352,12.4 C11.664,11.28 12.528,10.032 12.96,8.656 L12.96,7.664 L6.416,7.664 C6.64,7.088 6.832,6.48 7.024,5.84 L14.816,5.84 L14.816,4.736 L7.328,4.736 C7.616,3.552 7.872,2.304 8.08,0.96 L6.912,0.816 C6.72,2.192 6.464,3.488 6.144,4.736 L3.344,4.736 L4.256,1.584 L3.12,1.392 L1.856,5.84 Z M6.608,8.72 L11.792,8.72 C11.344,9.808 10.528,10.816 9.344,11.744 C8.064,10.816 7.152,9.808 6.608,8.72 L6.608,8.72 Z M10.768,0.944 L10,1.696 C11.2,2.656 12.144,3.552 12.816,4.4 L13.632,3.584 C12.864,2.704 11.92,1.824 10.768,0.944 L10.768,0.944 Z M30.048,1.568 L22.944,1.568 L22.944,10.416 L24.08,10.416 L24.08,2.672 L28.88,2.672 L28.88,10.416 L30.048,10.416 L30.048,1.568 Z M29.696,15.344 C30.208,15.344 30.592,15.216 30.848,14.976 C31.12,14.688 31.312,13.872 31.408,12.56 L30.336,12.224 C30.272,13.216 30.176,13.824 30.048,14.032 C29.936,14.192 29.744,14.288 29.488,14.288 L28.368,14.288 C28.032,14.288 27.872,14.112 27.872,13.776 L27.872,10.352 L26.72,10.352 L26.72,14.016 C26.72,14.896 27.152,15.344 28.032,15.344 L29.696,15.344 Z M25.872,3.808 L25.872,7.712 C25.84,9.504 25.488,10.96 24.848,12.08 C24.16,13.136 22.944,14 21.216,14.672 L21.84,15.648 C23.632,14.976 24.912,14.032 25.68,12.848 C26.48,11.568 26.912,9.856 26.976,7.712 L26.976,3.808 L25.872,3.808 Z M17.008,6.848 L17.008,7.968 L18.848,7.968 L18.848,11.952 C18.144,12.144 17.44,12.304 16.72,12.432 L16.992,13.536 C18.8,13.104 20.496,12.576 22.08,11.936 L22.08,10.832 C21.408,11.104 20.736,11.36 20.032,11.6 L20.032,7.968 L21.824,7.968 L21.824,6.848 L20.032,6.848 L20.032,3.104 L22.048,3.104 L22.048,2 L16.8,2 L16.8,3.104 L18.848,3.104 L18.848,6.848 L17.008,6.848 Z M32.96,7.168 L32.96,8.096 L34.496,8.096 L34.496,13.632 L33.008,13.696 L33.152,14.688 C35.376,14.56 37.248,14.4 38.768,14.224 L38.768,15.632 L39.888,15.632 L39.888,14.08 C40.208,14.016 40.528,13.968 40.816,13.92 L40.816,13.008 C40.528,13.056 40.208,13.104 39.888,13.152 L39.888,8.096 L47.072,8.096 L47.072,7.168 L32.96,7.168 Z M35.536,13.584 L35.536,12.208 L38.768,12.208 L38.768,13.296 C37.808,13.408 36.72,13.504 35.536,13.584 L35.536,13.584 Z M35.536,11.36 L35.536,10.16 L38.768,10.16 L38.768,11.36 L35.536,11.36 Z M35.536,9.296 L35.536,8.096 L38.768,8.096 L38.768,9.296 L35.536,9.296 Z M34.992,1.504 L34.992,6.112 L45.104,6.112 L45.104,1.504 L34.992,1.504 Z M44,5.28 L36.096,5.28 L36.096,4.208 L44,4.208 L44,5.28 Z M36.096,3.392 L36.096,2.368 L44,2.368 L44,3.392 L36.096,3.392 Z M41.232,10.112 C41.552,11.28 42.144,12.32 43.04,13.248 C42.352,13.824 41.52,14.304 40.56,14.72 L41.152,15.616 C42.192,15.168 43.088,14.624 43.824,13.984 C44.544,14.576 45.44,15.12 46.496,15.616 L47.088,14.656 C46.096,14.24 45.264,13.776 44.56,13.248 C45.328,12.352 45.872,11.296 46.176,10.064 L46.176,9.168 L40.72,9.168 L40.72,10.112 L41.232,10.112 Z M43.744,12.56 C43.008,11.84 42.512,11.024 42.224,10.112 L45.136,10.112 C44.848,11.008 44.384,11.824 43.744,12.56 L43.744,12.56 Z M53.6,6.688 L59.952,6.688 L59.952,8.432 L53.6,8.432 L53.6,6.688 Z M59.952,9.44 L59.952,11.136 L53.6,11.136 L53.6,9.44 L59.952,9.44 Z M59.952,12.144 L59.952,13.968 C59.952,14.352 59.744,14.544 59.328,14.544 C58.8,14.544 58.224,14.512 57.616,14.48 L57.904,15.536 L59.696,15.536 C60.592,15.504 61.04,15.104 61.04,14.32 L61.04,5.68 L53.616,5.68 C54,5.088 54.336,4.464 54.656,3.824 L63.088,3.824 L63.088,2.704 L55.136,2.704 C55.36,2.144 55.552,1.568 55.744,0.976 L54.576,0.832 C54.384,1.456 54.144,2.08 53.872,2.704 L49.104,2.704 L49.104,3.824 L53.344,3.824 C52.24,5.888 50.688,7.712 48.672,9.312 L49.424,10.288 C50.576,9.36 51.616,8.32 52.512,7.2 L52.512,15.568 L53.6,15.568 L53.6,12.144 L59.952,12.144 Z M70.864,7.088 L70.864,9.968 C70.864,10.4 70.64,10.624 70.224,10.624 C69.744,10.624 69.2,10.592 68.592,10.528 L68.88,11.616 C69.44,11.648 70.032,11.664 70.64,11.664 C71.52,11.632 71.968,11.184 71.984,10.32 L71.984,6.064 L66.288,6.064 L66.288,14.096 C66.288,14.912 66.72,15.328 67.616,15.328 L71.424,15.328 C72.176,15.328 72.688,15.2 72.944,14.944 C73.232,14.624 73.44,13.792 73.552,12.432 L72.464,12.08 C72.4,12.96 72.288,13.552 72.144,13.856 C72.016,14.112 71.664,14.256 71.12,14.256 L68.064,14.256 C67.648,14.256 67.456,14.064 67.456,13.696 L67.456,7.088 L70.864,7.088 Z M68.832,1.072 C67.552,2.992 66.128,4.656 64.56,6.08 L65.232,7.008 C66.8,5.536 68.16,3.92 69.344,2.16 C70.368,3.248 71.568,4.704 72.944,6.528 L73.696,5.728 C72.416,4.096 71.072,2.544 69.68,1.072 L68.832,1.072 Z M74.64,2.336 L74.64,12.304 L75.76,12.304 L75.76,2.336 L74.64,2.336 Z M77.312,15.456 C78.208,15.456 78.672,14.96 78.672,14 L78.672,0.976 L77.52,0.976 L77.52,13.712 C77.52,14.192 77.312,14.432 76.912,14.432 C76.176,14.432 75.392,14.4 74.576,14.352 L74.832,15.456 L77.312,15.456 Z M82.032,1.056 L81.248,1.792 C82.4,2.752 83.296,3.664 83.952,4.496 L84.752,3.696 C84.016,2.816 83.12,1.936 82.032,1.056 L82.032,1.056 Z M91.312,15.312 L95.04,15.312 L95.328,14.16 C94.896,14.192 94.288,14.208 93.504,14.224 C92.704,14.24 91.92,14.256 91.152,14.256 C89.904,14.256 88.848,14.24 88.016,14.224 C87.056,14.192 86.336,14.064 85.84,13.84 C85.392,13.632 84.976,13.296 84.592,12.832 C84.464,12.688 84.336,12.56 84.208,12.464 L84.208,6.48 L80.864,6.48 L80.864,7.536 L83.136,7.536 L83.136,12.4 C82.464,12.688 81.712,13.52 80.848,14.88 L81.712,15.664 C82.608,14.16 83.248,13.424 83.648,13.424 C83.84,13.424 84.048,13.552 84.272,13.824 C84.768,14.4 85.328,14.8 85.952,14.992 C86.592,15.168 87.44,15.264 88.464,15.28 C89.488,15.296 90.448,15.312 91.312,15.312 L91.312,15.312 Z M87.44,3.936 L89.904,3.936 L89.904,6.016 L85.328,6.016 L85.328,7.072 L95.12,7.072 L95.12,6.016 L91.008,6.016 L91.008,3.936 L94.288,3.936 L94.288,2.864 L91.008,2.864 L91.008,0.944 L89.904,0.944 L89.904,2.864 L87.872,2.864 C88.032,2.432 88.176,1.984 88.304,1.504 L87.264,1.28 C86.912,2.624 86.336,3.856 85.568,4.96 L86.528,5.552 C86.864,5.056 87.168,4.512 87.44,3.936 L87.44,3.936 Z M86.704,8.352 L86.704,12.848 L93.872,12.848 L93.872,8.352 L86.704,8.352 Z M92.752,11.776 L87.824,11.776 L87.824,9.424 L92.752,9.424 L92.752,11.776 Z M102.672,0.976 L102.672,2.448 C102.656,2.96 102.64,3.488 102.608,4 L97.856,4 L97.856,5.104 L102.528,5.104 C102.352,7.04 101.984,8.704 101.44,10.08 C100.608,11.952 99.152,13.456 97.072,14.576 L97.696,15.584 C99.84,14.48 101.376,12.944 102.32,10.976 C103.024,9.408 103.488,7.44 103.712,5.104 L108.752,5.104 C108.656,8.992 108.48,11.52 108.192,12.704 C107.904,13.84 107.328,14.416 106.448,14.416 C105.84,14.416 105.216,14.4 104.544,14.368 L104.864,15.488 L107.024,15.488 C107.84,15.424 108.432,15.072 108.8,14.416 C109.184,13.728 109.456,12.528 109.616,10.816 C109.776,9.072 109.872,6.8 109.936,4 L103.792,4 C103.824,3.504 103.84,2.992 103.856,2.448 L103.856,0.976 L102.672,0.976 Z M118.464,3.696 L115.888,3.696 C116.208,2.896 116.448,2.016 116.64,1.072 L115.488,0.912 C115.344,1.872 115.12,2.8 114.8,3.696 L113.312,3.696 L113.312,15.072 L114.432,15.072 L114.432,13.696 L117.344,13.696 L117.344,14.608 L118.464,14.608 L118.464,3.696 Z M114.432,12.624 L114.432,9.12 L117.344,9.12 L117.344,12.624 L114.432,12.624 Z M114.432,8.08 L114.432,4.784 L117.344,4.784 L117.344,8.08 L114.432,8.08 Z M121.248,7.408 L120.32,7.984 C121.424,9.296 122.304,10.48 122.96,11.536 L123.872,10.896 C123.264,9.904 122.4,8.736 121.248,7.408 L121.248,7.408 Z M126.736,3.712 L121.632,3.712 C121.92,2.88 122.144,1.984 122.336,1.04 L121.2,0.896 C120.784,3.168 120.032,5.088 118.912,6.656 L119.6,7.568 C120.224,6.752 120.752,5.84 121.2,4.832 L125.6,4.832 C125.568,9.44 125.504,12.208 125.408,13.104 C125.28,13.92 124.848,14.336 124.096,14.336 C123.6,14.336 123.024,14.32 122.352,14.288 L122.624,15.344 C123.392,15.376 123.936,15.408 124.256,15.408 C125.6,15.408 126.336,14.784 126.496,13.568 C126.656,12.32 126.736,9.024 126.736,3.712 L126.736,3.712 Z M129.088,2.224 L129.088,3.28 L135.408,3.28 L135.408,4.736 L129.968,4.736 L129.968,5.776 L142.064,5.776 L142.064,4.736 L136.592,4.736 L136.592,3.28 L142.896,3.28 L142.896,2.224 L136.592,2.224 L136.592,0.912 L135.408,0.912 L135.408,2.224 L129.088,2.224 Z M135.568,7.968 L135.568,9.92 L131.504,9.92 C131.52,9.664 131.536,9.424 131.536,9.168 L131.536,7.968 L135.568,7.968 Z M136.72,9.92 L136.72,7.968 L140.624,7.968 L140.624,9.92 L136.72,9.92 Z M131.408,10.944 L141.744,10.944 L141.744,6.944 L130.4,6.944 L130.4,9.168 C130.384,11.488 129.824,13.376 128.72,14.848 L129.664,15.696 C130.592,14.32 131.168,12.736 131.408,10.944 L131.408,10.944 Z M156.992,8.464 L147.072,8.464 L147.072,15.6 L148.24,15.6 L148.24,14.864 L155.824,14.864 L155.824,15.6 L156.992,15.6 L156.992,8.464 Z M148.24,13.84 L148.24,12.176 L155.824,12.176 L155.824,13.84 L148.24,13.84 Z M148.24,11.184 L148.24,9.488 L155.824,9.488 L155.824,11.184 L148.24,11.184 Z M145.696,2.496 L145.696,3.552 L148.192,3.552 C148.512,4.336 148.816,5.184 149.072,6.112 L144.944,6.112 L144.944,7.184 L159.056,7.184 L159.056,6.112 L154.8,6.112 C155.216,5.296 155.536,4.448 155.776,3.552 L158.32,3.552 L158.32,2.496 L152.672,2.496 C152.448,1.856 152.208,1.296 151.952,0.8 L150.736,0.992 C151.008,1.44 151.264,1.952 151.504,2.496 L145.696,2.496 Z M149.408,3.552 L154.624,3.552 C154.432,4.448 154.112,5.296 153.68,6.112 L150.224,6.112 C149.968,5.184 149.696,4.32 149.408,3.552 L149.408,3.552 Z" id="发现最有创造力的声音"></path>
            </g>
        </g>
    </g>
</svg>