<?xml version="1.0" encoding="UTF-8" standalone="no"?>
<svg width="130px" height="66px" viewBox="0 0 130 66" version="1.1" xmlns="http://www.w3.org/2000/svg" xmlns:xlink="http://www.w3.org/1999/xlink">
    <!-- Generator: Sketch 39.1 (31720) - http://www.bohemiancoding.com/sketch -->
    <title>Artboard</title>
    <desc>Created with Sketch.</desc>
    <defs></defs>
    <g id="Page-1" stroke="none" stroke-width="1" fill="none" fill-rule="evenodd">
        <g id="Artboard" fill="#4B4B4B">
            <g id="Group-3-Copy" transform="translate(8.000000, 4.000000)">
                <path d="M5.79999998,0.92 L1.53999998,4.94 C5.85999998,8.54 9.21999998,11.9 11.56,15.02 L15.94,10.7 C13.18,7.46 9.75999998,4.16 5.79999998,0.92 L5.79999998,0.92 Z M40,55.28 L53.74,55.28 L55.3,49.1 C53.62,49.22 51.28,49.34 48.22,49.46 C45.1,49.46 42.1,49.52 39.1,49.52 C34.42,49.52 30.4,49.46 26.92,49.4 C23.38,49.28 20.74,48.8 18.94,47.9 C17.56,47.12 16.18,45.92 14.8,44.36 L14.14,43.7 L14.14,20.9 L0.399999979,20.9 L0.399999979,26.66 L8.31999998,26.66 L8.31999998,43.1 C5.91999998,44.42 3.27999998,47.48 0.279999979,52.28 L4.89999998,56.6 C7.89999998,51.2 9.93999998,48.5 11.14,48.5 C11.8,48.5 12.52,48.98 13.36,50 C15.16,52.04 17.26,53.42 19.66,54.14 C22.18,54.74 25.36,55.1 29.26,55.16 C33.1,55.22 36.7,55.28 40,55.28 L40,55.28 Z M26.02,13.1 L33.7,13.1 L33.7,18.98 L17.2,18.98 L17.2,24.68 L54.4,24.68 L54.4,18.98 L39.64,18.98 L39.64,13.1 L51.28,13.1 L51.28,7.34 L39.64,7.34 L39.64,0.8 L33.7,0.8 L33.7,7.34 L28.3,7.34 C28.72,6.08 29.14,4.76 29.5,3.44 L23.8,2.18 C22.6,6.86 20.62,11.3 17.8,15.38 L22.9,18.62 C23.98,16.88 25.06,15.02 26.02,13.1 L26.02,13.1 Z M21.94,28.04 L21.94,46.16 L50.14,46.16 L50.14,28.04 L21.94,28.04 Z M44.14,40.34 L27.94,40.34 L27.94,33.8 L44.14,33.8 L44.14,40.34 Z M108.52,55.28 C110.26,55.28 111.58,54.62 112.42,53.36 C113.32,52.1 113.98,47.96 114.34,40.88 L109,39.2 C108.88,44.24 108.7,47.3 108.46,48.26 C108.22,49.22 107.92,49.7 107.5,49.7 L106.42,49.7 C105.58,49.7 105.22,49.22 105.22,48.32 L105.22,20 L112.48,20 L112.48,14.18 L97.9,14.18 L97.9,0.8 L92.08,0.8 L92.08,14.18 L86.86,14.18 L86.86,20 L92.02,20 C91.54,34.28 88.42,44.84 82.66,51.62 L87.1,55.52 C93.76,47.9 97.36,36.08 97.84,20 L99.52,20 L99.52,49.58 C99.52,53.36 101.2,55.28 104.68,55.28 L108.52,55.28 Z M59.74,6.26 L59.74,11.9 L87.52,11.9 L87.52,6.26 L76.96,6.26 C76.24,4.22 75.58,2.42 74.86,0.74 L68.14,1.82 C69.04,3.14 69.82,4.64 70.54,6.26 L59.74,6.26 Z M62.02,15.32 L62.02,31.58 L70.6,31.58 L70.6,48.56 C70.6,49.76 70.06,50.42 68.98,50.42 C67.78,50.42 66.52,50.3 65.2,50.06 L66.46,55.7 L70.96,55.7 C74.62,55.7 76.48,53.78 76.48,50.06 L76.48,31.58 L84.7,31.58 L84.7,15.32 L62.02,15.32 Z M78.94,26.3 L67.72,26.3 L67.72,20.6 L78.94,20.6 L78.94,26.3 Z M63.04,34.04 C61.66,39.56 60.04,44.18 58.24,47.84 L63.34,49.7 C65.26,45.62 66.88,40.82 68.14,35.42 L63.04,34.04 Z M82.78,33.86 L77.8,35.24 C79.36,39.02 80.62,42.86 81.64,46.82 L86.56,44.9 C85.66,41.54 84.4,37.88 82.78,33.86 L82.78,33.86 Z M104.92,1.46 L100.3,4.34 C103.06,7.58 105.22,10.52 106.78,13.16 L111.34,9.98 C109.84,7.58 107.68,4.7 104.92,1.46 L104.92,1.46 Z" id="造就"></path>
            </g>
        </g>
    </g>
</svg>