<svg width="324" height="223" viewBox="0 0 324 223" xmlns="http://www.w3.org/2000/svg"><title>Combined Shape</title><path d="M227.9 211.196V142.68h11.873v68.516H227.9zM9.956 68.11h11.872v130.91h145.688v-56.34h11.872v68.515H21.828v11.035H9.955v-11.034H0V199.02h9.955V68.11zM197.965 0h11.872v20.553h34.683v11.872H102.936v39.102l44.51.062-.017 11.872-107.617-.144.017-11.872 51.233.067V32.425H39.78V0h11.873v20.553h39.41V0h11.873v20.553h95.03V0zm-157 180.916V104.99H148.9v75.926H40.964zm11.87-11.872h84.193V116.86H52.836v52.184zm189.36-51.204h-31.813v93.356H190.27v-11.72h8.24V117.84h-31.37V51.2h75.056v66.64zm-63.362-11.696h51.67v-43.25h-51.67v43.25zM9.956 52.99V0H21.83v52.99H9.955zM311.922 0h11.872v32.426h-35.577c.022 30.27 0 68.03 0 68.03v5.94h-19v104.8h-11.872V94.526h18.987c-.008-12.373.017-38.867 0-62.1H257.63V20.553h18.702c-.008-11.397 0-19.704 0-20.553h11.885c0 .848-.01 9.157 0 20.553h23.705V0zm-.086 199.475V60.687h11.872v150.508h-38.682v-88.933h11.872v77.213h14.938z" fill="#000" fill-rule="evenodd"/></svg>